<?xml version="1.0" standalone="no"?><!DOCTYPE svg PUBLIC "-//W3C//DTD SVG 1.1//EN" "http://www.w3.org/Graphics/SVG/1.1/DTD/svg11.dtd"><svg height="1024" node-id="1" sillyvg="true" template-height="1024" template-width="1024" version="1.1" viewBox="0 0 1024 1024" width="1024" xmlns="http://www.w3.org/2000/svg" xmlns:xlink="http://www.w3.org/1999/xlink"><defs node-id="81"><linearGradient gradientUnits="objectBoundingBox" id="linearGradient-6" node-id="21" spreadMethod="pad" x1="0.5" x2="0.5" y1="0" y2="1"><stop offset="0" stop-color="#1cabff"></stop><stop offset="1" stop-color="#0c73ff"></stop></linearGradient><linearGradient gradientUnits="objectBoundingBox" id="linearGradient-7" node-id="24" spreadMethod="pad" x1="0.5" x2="0.5" y1="0" y2="1"><stop offset="0" stop-color="#1cabff"></stop><stop offset="1" stop-color="#0c73ff"></stop></linearGradient><linearGradient gradientUnits="objectBoundingBox" id="linearGradient-8" node-id="27" spreadMethod="pad" x1="0.5" x2="0.5" y1="0" y2="1"><stop offset="0" stop-color="#1cabff"></stop><stop offset="1" stop-color="#0c73ff"></stop></linearGradient><linearGradient gradientUnits="objectBoundingBox" id="linearGradient-9" node-id="30" spreadMethod="pad" x1="0.5" x2="0.5" y1="0" y2="1"><stop offset="0" stop-color="#1cabff"></stop><stop offset="1" stop-color="#0c73ff"></stop></linearGradient><linearGradient gradientUnits="objectBoundingBox" id="linearGradient-10" node-id="33" spreadMethod="pad" x1="0.5" x2="0.5" y1="0" y2="1"><stop offset="0" stop-color="#1cabff"></stop><stop offset="1" stop-color="#0c73ff"></stop></linearGradient><linearGradient gradientUnits="objectBoundingBox" id="linearGradient-11" node-id="36" spreadMethod="pad" x1="0.5" x2="0.5" y1="0" y2="1"><stop offset="0" stop-color="#1cabff"></stop><stop offset="1" stop-color="#0c73ff"></stop></linearGradient><linearGradient gradientUnits="objectBoundingBox" id="linearGradient-12" node-id="39" spreadMethod="pad" x1="0.5" x2="0.5" y1="0" y2="1"><stop offset="0" stop-color="#1cabff"></stop><stop offset="1" stop-color="#0c73ff"></stop></linearGradient><filter height="1.121" id="filter-2" node-id="6" width="1.087" x="-0.043" y="-0.061"><feOffset color-interpolation-filters="linearRGB" dx="0" dy="0" in="SourceAlpha" result="shadowOffsetOuter1"></feOffset><feGaussianBlur color-interpolation-filters="linearRGB" in="shadowOffsetOuter1" result="shadowBlurOuter1" stdDeviation="13 13"></feGaussianBlur><feColorMatrix color-interpolation-filters="linearRGB" in="shadowBlurOuter1" result="result3" type="matrix" values="0 0 0 0 0 0 0 0 0 0 0 0 0 0 0 0 0 0 0.0841892483 0"></feColorMatrix></filter><filter height="1.357" id="filter-4" node-id="11" width="1.245" x="-0.123" y="-0.16"><feMorphology color-interpolation-filters="linearRGB" in="SourceAlpha" operator="dilate" radius="5 5" result="shadowSpreadOuter1"></feMorphology><feOffset color-interpolation-filters="linearRGB" dx="0" dy="7" in="shadowSpreadOuter1" result="shadowOffsetOuter1"></feOffset><feMorphology color-interpolation-filters="linearRGB" in="SourceAlpha" operator="erode" radius="5 5" result="shadowInner"></feMorphology><feOffset color-interpolation-filters="linearRGB" dx="0" dy="7" in="shadowInner" result="shadowInner"></feOffset><feComposite color-interpolation-filters="linearRGB" in="shadowOffsetOuter1" in2="shadowInner" operator="out" result="shadowOffsetOuter1"></feComposite><feGaussianBlur color-interpolation-filters="linearRGB" in="shadowOffsetOuter1" result="shadowBlurOuter1" stdDeviation="20 20"></feGaussianBlur><feColorMatrix color-interpolation-filters="linearRGB" in="shadowBlurOuter1" result="result7" type="matrix" values="0 0 0 0 0.149019608 0 0 0 0 0.57254902 0 0 0 0 0.968627451 0 0 0 0.333834135 0"></feColorMatrix></filter><filter height="1.2" id="filter-5" node-id="19" width="1.2" x="-0.1" y="-0.1"><feColorMatrix color-interpolation-filters="sRGB" in="SourceGraphic" result="result1" type="matrix" values="0 0 0 0 0.047059 0 0 0 0 0.45098 0 0 0 0 1 0 0 0 1 0"></feColorMatrix></filter></defs><path d="M 0.00 0.00 L 1024.00 0.00 L 1024.00 1024.00 L 0.00 1024.00 Z" fill="#171a1d" fill-rule="evenodd" node-id="155" stroke="none" target-height="1024" target-width="1024" target-x="0" target-y="0"></path><g node-id="181"><g node-id="182"><g node-id="191"><path d="M 67.27 190.00 L 956.73 190.00 L 958.16 190.20 L 959.39 190.72 L 960.46 191.54 L 961.28 192.61 L 961.80 193.84 L 962.00 195.27 L 962.00 828.09 L 961.80 829.52 L 961.28 830.75 L 960.46 831.81 L 959.39 832.64 L 958.16 833.16 L 956.73 833.36 L 67.27 833.36 L 65.84 833.16 L 64.61 832.64 L 63.54 831.81 L 62.72 830.75 L 62.20 829.52 L 62.00 828.09 L 62.00 195.27 L 62.20 193.84 L 62.72 192.61 L 63.54 191.54 L 64.61 190.72 L 65.84 190.20 L 67.27 190.00 Z" fill="#000000" fill-opacity="0.05008176" fill-rule="evenodd" filter="url(#filter-2)" group-id="1,2,11" node-id="161" stroke="none" target-height="643.3594" target-width="900" target-x="62" target-y="190"></path></g><path d="M 67.27 190.00 L 956.73 190.00 L 958.16 190.20 L 959.39 190.72 L 960.46 191.54 L 961.28 192.61 L 961.80 193.84 L 962.00 195.27 L 962.00 828.09 L 961.80 829.52 L 961.28 830.75 L 960.46 831.81 L 959.39 832.64 L 958.16 833.16 L 956.73 833.36 L 67.27 833.36 L 65.84 833.16 L 64.61 832.64 L 63.54 831.81 L 62.72 830.75 L 62.20 829.52 L 62.00 828.09 L 62.00 195.27 L 62.20 193.84 L 62.72 192.61 L 63.54 191.54 L 64.61 190.72 L 65.84 190.20 L 67.27 190.00 Z" fill="#3fa5ff" fill-opacity="0.05008176" fill-rule="evenodd" group-id="1,2,12" node-id="166" stroke="none" target-height="643.3594" target-width="900" target-x="62" target-y="190"></path></g><g node-id="183"><g node-id="193"><g node-id="197"><path d="M 162.20 596.29 L 178.91 570.56 L 193.99 548.27 L 207.57 529.13 L 219.76 512.82 L 230.67 499.08 L 240.41 487.62 L 249.09 478.20 L 256.79 470.58 L 263.61 464.52 L 269.65 459.83 L 274.98 456.31 L 279.69 453.79 L 283.85 452.11 L 287.55 451.15 L 291.01 450.84 L 294.36 451.10 L 297.66 451.91 L 300.95 453.32 L 304.01 455.12 L 307.11 457.36 L 310.24 460.07 L 313.43 463.32 L 317.34 467.86 L 321.32 472.97 L 325.36 478.70 L 331.18 487.57 L 337.08 497.01 L 342.99 506.52 L 348.95 515.79 L 353.07 521.86 L 357.19 527.45 L 361.31 532.59 L 365.73 537.47 L 370.13 541.57 L 374.52 544.95 L 378.08 547.12 L 381.64 548.74 L 385.25 549.83 L 388.93 550.43 L 393.23 550.51 L 397.42 550.18 L 401.53 549.43 L 405.57 548.25 L 410.82 546.18 L 416.05 543.59 L 421.29 540.44 L 428.90 535.17 L 436.63 529.22 L 452.15 516.80 L 460.18 510.83 L 468.42 505.41 L 474.12 502.20 L 479.96 499.48 L 485.97 497.25 L 490.58 495.97 L 495.34 495.09 L 500.26 494.62 L 505.37 494.56 L 512.55 495.09 L 519.64 496.07 L 526.66 497.52 L 533.63 499.43 L 540.47 501.76 L 547.15 504.44 L 553.67 507.50 L 560.04 510.92 L 566.23 514.69 L 572.15 518.71 L 577.81 523.01 L 583.21 527.57 L 588.40 532.42 L 593.21 537.43 L 597.66 542.59 L 601.76 547.90 L 605.57 553.48 L 608.92 559.10 L 611.82 564.75 L 614.28 570.46 L 616.36 575.21 L 618.81 579.86 L 621.65 584.42 L 624.88 588.90 L 629.60 594.54 L 634.82 599.90 L 640.56 604.98 L 646.65 609.66 L 653.05 613.93 L 659.78 617.80 L 666.75 621.21 L 673.81 624.09 L 680.99 626.45 L 688.31 628.28 L 695.52 629.47 L 702.64 630.05 L 708.01 630.05 L 713.22 629.65 L 718.27 628.86 L 723.19 627.68 L 727.21 626.23 L 731.60 624.05 L 736.42 621.03 L 741.74 617.03 L 747.60 611.91 L 754.07 605.49 L 761.20 597.61 L 769.05 588.07 L 777.68 576.67 L 787.15 563.21 L 797.53 547.45 L 808.89 529.15 L 821.30 508.08 L 834.83 483.96" fill="#000000" fill-opacity="0.5" fill-rule="evenodd" filter="url(#filter-4)" group-id="1,3,13,17" node-id="174" stroke="none" target-height="179.21118" target-width="672.63745" target-x="162.19533" target-y="450.84137"></path></g><path d="M 162.20 596.29 L 178.91 570.56 L 193.99 548.27 L 207.57 529.13 L 219.76 512.82 L 230.67 499.08 L 240.41 487.62 L 249.09 478.20 L 256.79 470.58 L 263.61 464.52 L 269.65 459.83 L 274.98 456.31 L 279.69 453.79 L 283.85 452.11 L 287.55 451.15 L 291.01 450.84 L 294.36 451.10 L 297.66 451.91 L 300.95 453.32 L 304.01 455.12 L 307.11 457.36 L 310.24 460.07 L 313.43 463.32 L 317.34 467.86 L 321.32 472.97 L 325.36 478.70 L 331.18 487.57 L 337.08 497.01 L 342.99 506.52 L 348.95 515.79 L 353.07 521.86 L 357.19 527.45 L 361.31 532.59 L 365.73 537.47 L 370.13 541.57 L 374.52 544.95 L 378.08 547.12 L 381.64 548.74 L 385.25 549.83 L 388.93 550.43 L 393.23 550.51 L 397.42 550.18 L 401.53 549.43 L 405.57 548.25 L 410.82 546.18 L 416.05 543.59 L 421.29 540.44 L 428.90 535.17 L 436.63 529.22 L 452.15 516.80 L 460.18 510.83 L 468.42 505.41 L 474.12 502.20 L 479.96 499.48 L 485.97 497.25 L 490.58 495.97 L 495.34 495.09 L 500.26 494.62 L 505.37 494.56 L 512.55 495.09 L 519.64 496.07 L 526.66 497.52 L 533.63 499.43 L 540.47 501.76 L 547.15 504.44 L 553.67 507.50 L 560.04 510.92 L 566.23 514.69 L 572.15 518.71 L 577.81 523.01 L 583.21 527.57 L 588.40 532.42 L 593.21 537.43 L 597.66 542.59 L 601.76 547.90 L 605.57 553.48 L 608.92 559.10 L 611.82 564.75 L 614.28 570.46 L 616.36 575.21 L 618.81 579.86 L 621.65 584.42 L 624.88 588.90 L 629.60 594.54 L 634.82 599.90 L 640.56 604.98 L 646.65 609.66 L 653.05 613.93 L 659.78 617.80 L 666.75 621.21 L 673.81 624.09 L 680.99 626.45 L 688.31 628.28 L 695.52 629.47 L 702.64 630.05 L 708.01 630.05 L 713.22 629.65 L 718.27 628.86 L 723.19 627.68 L 727.21 626.23 L 731.60 624.05 L 736.42 621.03 L 741.74 617.03 L 747.60 611.91 L 754.07 605.49 L 761.20 597.61 L 769.05 588.07 L 777.68 576.67 L 787.15 563.21 L 797.53 547.45 L 808.89 529.15 L 821.30 508.08 L 834.83 483.96" fill="none" group-id="1,3,13,18" node-id="179" stroke="#0c73ff" stroke-linecap="round" stroke-opacity="0.5" stroke-width="9.999999" target-height="179.21118" target-width="672.63745" target-x="162.19533" target-y="450.84137"></path></g></g><g node-id="184"><g node-id="194"><text align="center" editable="true" ellipsis="false" fill="#cafbfe" filter="url(#filter-5)" flags="1" font-family="'Noto Sans CJK SC'" font-size="17" font-stretch="normal" font-style="normal" font-weight="500" group-id="1,4,14" height="25.160002" id="100" letter-spacing="0" node-id="54" stroke="none" target-x="95.182465" target-y="437.42844" vertical-align="center" width="29.070002" x="95.182465" xml:space="preserve" y="457.14844">100</text><text align="center" editable="true" ellipsis="false" fill="#cafbfe" filter="url(#filter-5)" flags="1" font-family="'Noto Sans CJK SC'" font-size="17" font-stretch="normal" font-style="normal" font-weight="500" group-id="1,4,14" height="25.160002" id="50" letter-spacing="0" node-id="57" stroke="none" target-x="103.15047" target-y="600.42847" vertical-align="center" width="19.380001" x="103.15047" xml:space="preserve" y="620.14844">50</text><text align="center" editable="true" ellipsis="false" fill="#cafbfe" filter="url(#filter-5)" flags="1" font-family="'Noto Sans CJK SC'" font-size="17" font-stretch="normal" font-style="normal" font-weight="500" group-id="1,4,14" height="25.160002" id="0" letter-spacing="0" node-id="60" stroke="none" target-x="114.250465" target-y="751.42847" vertical-align="center" width="9.690001" x="114.250465" xml:space="preserve" y="771.14844">0</text></g></g><g node-id="185"><path d="M 163.96 589.65 L 193.32 589.65 L 194.95 589.88 L 196.35 590.46 L 197.57 591.41 L 198.51 592.62 L 199.09 594.02 L 199.32 595.65 L 199.32 783.65 L 199.09 785.28 L 198.51 786.67 L 197.57 787.89 L 196.35 788.83 L 194.95 789.42 L 193.32 789.65 L 163.96 789.65 L 162.33 789.42 L 160.93 788.83 L 159.71 787.89 L 158.77 786.67 L 158.19 785.28 L 157.96 783.65 L 157.96 595.65 L 158.19 594.02 L 158.77 592.62 L 159.71 591.41 L 160.93 590.46 L 162.33 589.88 L 163.96 589.65 Z" fill="url(#linearGradient-6)" fill-rule="evenodd" group-id="1,5" id="矩形" node-id="64" stroke="none" target-height="200" target-width="41.367188" target-x="157.95703" target-y="589.64844"></path><path d="M 272.87 463.65 L 302.24 463.65 L 303.86 463.88 L 305.26 464.46 L 306.48 465.41 L 307.42 466.62 L 308.00 468.02 L 308.24 469.65 L 308.24 783.65 L 308.00 785.28 L 307.42 786.67 L 306.48 787.89 L 305.26 788.83 L 303.86 789.42 L 302.24 789.65 L 272.87 789.65 L 271.24 789.42 L 269.84 788.83 L 268.63 787.89 L 267.68 786.67 L 267.10 785.28 L 266.87 783.65 L 266.87 469.65 L 267.10 468.02 L 267.68 466.62 L 268.63 465.41 L 269.84 464.46 L 271.24 463.88 L 272.87 463.65 Z" fill="url(#linearGradient-7)" fill-rule="evenodd" group-id="1,5" id="矩形备份-2" node-id="65" stroke="none" target-height="326" target-width="41.367218" target-x="266.86783" target-y="463.64844"></path><path d="M 381.78 553.65 L 411.15 553.65 L 412.78 553.88 L 414.17 554.46 L 415.39 555.41 L 416.33 556.62 L 416.92 558.02 L 417.15 559.65 L 417.15 783.65 L 416.92 785.28 L 416.33 786.67 L 415.39 787.89 L 414.17 788.83 L 412.78 789.42 L 411.15 789.65 L 381.78 789.65 L 380.15 789.42 L 378.75 788.83 L 377.54 787.89 L 376.59 786.67 L 376.01 785.28 L 375.78 783.65 L 375.78 559.65 L 376.01 558.02 L 376.59 556.62 L 377.54 555.41 L 378.75 554.46 L 380.15 553.88 L 381.78 553.65 Z" fill="url(#linearGradient-8)" fill-rule="evenodd" group-id="1,5" id="矩形备份-3" node-id="66" stroke="none" target-height="236" target-width="41.367218" target-x="375.77863" target-y="553.64844"></path><path d="M 490.69 505.65 L 520.06 505.65 L 521.69 505.88 L 523.08 506.46 L 524.30 507.41 L 525.24 508.62 L 525.83 510.02 L 526.06 511.65 L 526.06 783.65 L 525.83 785.28 L 525.24 786.67 L 524.30 787.89 L 523.08 788.83 L 521.69 789.42 L 520.06 789.65 L 490.69 789.65 L 489.06 789.42 L 487.66 788.83 L 486.45 787.89 L 485.50 786.67 L 484.92 785.28 L 484.69 783.65 L 484.69 511.65 L 484.92 510.02 L 485.50 508.62 L 486.45 507.41 L 487.66 506.46 L 489.06 505.88 L 490.69 505.65 Z" fill="url(#linearGradient-9)" fill-rule="evenodd" group-id="1,5" id="矩形备份-4" node-id="67" stroke="none" target-height="284" target-width="41.367188" target-x="484.68945" target-y="505.64844"></path><path d="M 599.60 571.65 L 628.97 571.65 L 630.60 571.88 L 631.99 572.46 L 633.21 573.41 L 634.15 574.62 L 634.74 576.02 L 634.97 577.65 L 634.97 783.65 L 634.74 785.28 L 634.15 786.67 L 633.21 787.89 L 631.99 788.83 L 630.60 789.42 L 628.97 789.65 L 599.60 789.65 L 597.97 789.42 L 596.57 788.83 L 595.36 787.89 L 594.41 786.67 L 593.83 785.28 L 593.60 783.65 L 593.60 577.65 L 593.83 576.02 L 594.41 574.62 L 595.36 573.41 L 596.57 572.46 L 597.97 571.88 L 599.60 571.65 Z" fill="url(#linearGradient-10)" fill-rule="evenodd" group-id="1,5" id="矩形备份-5" node-id="68" stroke="none" target-height="218" target-width="41.367188" target-x="593.6002" target-y="571.64844"></path><path d="M 708.51 626.65 L 737.88 626.65 L 739.51 626.88 L 740.90 627.46 L 742.12 628.41 L 743.06 629.62 L 743.65 631.02 L 743.88 632.65 L 743.88 783.65 L 743.65 785.28 L 743.06 786.67 L 742.12 787.89 L 740.90 788.83 L 739.51 789.42 L 737.88 789.65 L 708.51 789.65 L 706.88 789.42 L 705.49 788.83 L 704.27 787.89 L 703.32 786.67 L 702.74 785.28 L 702.51 783.65 L 702.51 632.65 L 702.74 631.02 L 703.32 629.62 L 704.27 628.41 L 705.49 627.46 L 706.88 626.88 L 708.51 626.65 Z" fill="url(#linearGradient-11)" fill-rule="evenodd" group-id="1,5" id="矩形备份-6" node-id="69" stroke="none" target-height="163" target-width="41.367188" target-x="702.51105" target-y="626.64844"></path><path d="M 817.42 528.65 L 846.79 528.65 L 848.42 528.88 L 849.82 529.46 L 851.03 530.41 L 851.98 531.62 L 852.56 533.02 L 852.79 534.65 L 852.79 783.65 L 852.56 785.28 L 851.98 786.67 L 851.03 787.89 L 849.82 788.83 L 848.42 789.42 L 846.79 789.65 L 817.42 789.65 L 815.79 789.42 L 814.40 788.83 L 813.18 787.89 L 812.24 786.67 L 811.65 785.28 L 811.42 783.65 L 811.42 534.65 L 811.65 533.02 L 812.24 531.62 L 813.18 530.41 L 814.40 529.46 L 815.79 528.88 L 817.42 528.65 Z" fill="url(#linearGradient-12)" fill-rule="evenodd" group-id="1,5" id="矩形备份-7" node-id="70" stroke="none" target-height="261" target-width="41.367188" target-x="811.4219" target-y="528.64844"></path></g><g node-id="186"><g node-id="195"><path d="M 706.93 323.65 L 882.00 323.65 L 883.63 323.88 L 885.03 324.46 L 886.24 325.41 L 887.19 326.62 L 887.77 328.02 L 888.00 329.65 L 888.00 346.30 L 887.77 347.93 L 887.19 349.32 L 886.24 350.54 L 885.03 351.48 L 883.63 352.07 L 882.00 352.30 L 706.93 352.30 L 705.30 352.07 L 703.91 351.48 L 702.69 350.54 L 701.75 349.32 L 701.16 347.93 L 700.93 346.30 L 700.93 329.65 L 701.16 328.02 L 701.75 326.62 L 702.69 325.41 L 703.91 324.46 L 705.30 323.88 L 706.93 323.65 Z" fill="#3fa5ff" fill-opacity="0.4" fill-rule="evenodd" group-id="1,6,15" id="矩形" node-id="72" stroke="none" target-height="28.648438" target-width="187.0664" target-x="700.9336" target-y="323.64844"></path></g><path d="M 662.93 323.65 L 678.93 323.65 L 680.56 323.88 L 681.96 324.46 L 683.18 325.41 L 684.12 326.62 L 684.70 328.02 L 684.93 329.65 L 684.93 345.65 L 684.70 347.28 L 684.12 348.67 L 683.18 349.89 L 681.96 350.83 L 680.56 351.42 L 678.93 351.65 L 662.93 351.65 L 661.30 351.42 L 659.91 350.83 L 658.69 349.89 L 657.75 348.67 L 657.16 347.28 L 656.93 345.65 L 656.93 329.65 L 657.16 328.02 L 657.75 326.62 L 658.69 325.41 L 659.91 324.46 L 661.30 323.88 L 662.93 323.65 Z" fill="#3fa5ff" fill-rule="evenodd" group-id="1,6" id="矩形备份" node-id="73" stroke="none" target-height="28" target-width="28" target-x="656.9336" target-y="323.64844"></path></g><g node-id="187"><g node-id="196"><path d="M 424.93 323.65 L 600.00 323.65 L 601.63 323.88 L 603.03 324.46 L 604.24 325.41 L 605.19 326.62 L 605.77 328.02 L 606.00 329.65 L 606.00 346.30 L 605.77 347.93 L 605.19 349.32 L 604.24 350.54 L 603.03 351.48 L 601.63 352.07 L 600.00 352.30 L 424.93 352.30 L 423.30 352.07 L 421.91 351.48 L 420.69 350.54 L 419.75 349.32 L 419.16 347.93 L 418.93 346.30 L 418.93 329.65 L 419.16 328.02 L 419.75 326.62 L 420.69 325.41 L 421.91 324.46 L 423.30 323.88 L 424.93 323.65 Z" fill="#3fa5ff" fill-opacity="0.4" fill-rule="evenodd" group-id="1,7,16" id="矩形" node-id="75" stroke="none" target-height="28.648438" target-width="187.0664" target-x="418.9336" target-y="323.64844"></path></g><path d="M 380.93 323.65 L 396.93 323.65 L 398.56 323.88 L 399.96 324.46 L 401.18 325.41 L 402.12 326.62 L 402.70 328.02 L 402.93 329.65 L 402.93 345.65 L 402.70 347.28 L 402.12 348.67 L 401.18 349.89 L 399.96 350.83 L 398.56 351.42 L 396.93 351.65 L 380.93 351.65 L 379.30 351.42 L 377.91 350.83 L 376.69 349.89 L 375.75 348.67 L 375.16 347.28 L 374.93 345.65 L 374.93 329.65 L 375.16 328.02 L 375.75 326.62 L 376.69 325.41 L 377.91 324.46 L 379.30 323.88 L 380.93 323.65 Z" fill="#3fa5ff" fill-rule="evenodd" group-id="1,7" id="矩形备份" node-id="76" stroke="none" target-height="28" target-width="28" target-x="374.9336" target-y="323.64844"></path></g><g node-id="188"><path d="M 131.43 235.29 L 131.21 237.70 L 130.61 239.91 L 129.63 241.95 L 128.32 243.80 L 126.75 245.37 L 124.90 246.68 L 122.86 247.65 L 120.66 248.25 L 118.25 248.48 L 115.84 248.25 L 113.64 247.65 L 111.60 246.68 L 109.75 245.37 L 108.18 243.80 L 106.87 241.95 L 105.89 239.91 L 105.29 237.70 L 105.07 235.29 L 105.29 232.89 L 105.89 230.68 L 106.87 228.64 L 108.18 226.79 L 109.75 225.22 L 111.60 223.91 L 113.64 222.94 L 115.84 222.33 L 118.25 222.11 L 120.66 222.33 L 122.86 222.94 L 124.90 223.91 L 126.75 225.22 L 128.32 226.79 L 129.63 228.64 L 130.61 230.68 L 131.21 232.89 L 131.43 235.29 Z" fill="#3fa5ff" fill-opacity="0.5" fill-rule="evenodd" group-id="1,8" id="椭圆形" node-id="77" stroke="none" target-height="26.367188" target-width="26.367188" target-x="105.06641" target-y="222.11078"></path></g><g node-id="189"><path d="M 175.38 235.29 L 175.15 237.70 L 174.55 239.91 L 173.58 241.95 L 172.27 243.80 L 170.70 245.37 L 168.85 246.68 L 166.81 247.65 L 164.60 248.25 L 162.20 248.48 L 159.79 248.25 L 157.58 247.65 L 155.54 246.68 L 153.69 245.37 L 152.12 243.80 L 150.81 241.95 L 149.84 239.91 L 149.24 237.70 L 149.01 235.29 L 149.24 232.89 L 149.84 230.68 L 150.81 228.64 L 152.12 226.79 L 153.69 225.22 L 155.54 223.91 L 157.58 222.94 L 159.79 222.33 L 162.20 222.11 L 164.60 222.33 L 166.81 222.94 L 168.85 223.91 L 170.70 225.22 L 172.27 226.79 L 173.58 228.64 L 174.55 230.68 L 175.15 232.89 L 175.38 235.29 Z" fill="#3fa5ff" fill-opacity="0.5" fill-rule="evenodd" group-id="1,9" id="椭圆形备份" node-id="78" stroke="none" target-height="26.367188" target-width="26.367188" target-x="149.01172" target-y="222.11078"></path></g><path d="M 219.32 235.29 L 219.10 237.70 L 218.50 239.91 L 217.52 241.95 L 216.21 243.80 L 214.64 245.37 L 212.79 246.68 L 210.75 247.65 L 208.55 248.25 L 206.14 248.48 L 203.73 248.25 L 201.53 247.65 L 199.49 246.68 L 197.64 245.37 L 196.07 243.80 L 194.76 241.95 L 193.78 239.91 L 193.18 237.70 L 192.96 235.29 L 193.18 232.89 L 193.78 230.68 L 194.76 228.64 L 196.07 226.79 L 197.64 225.22 L 199.49 223.91 L 201.53 222.94 L 203.73 222.33 L 206.14 222.11 L 208.55 222.33 L 210.75 222.94 L 212.79 223.91 L 214.64 225.22 L 216.21 226.79 L 217.52 228.64 L 218.50 230.68 L 219.10 232.89 L 219.32 235.29 Z" fill="#3fa5ff" fill-opacity="0.5" fill-rule="evenodd" group-id="1,10" id="椭圆形备份-2" node-id="79" stroke="none" target-height="26.367188" target-width="26.367188" target-x="192.95703" target-y="222.11078"></path></g></svg>