<?xml version="1.0" standalone="no"?><!DOCTYPE svg PUBLIC "-//W3C//DTD SVG 1.1//EN" "http://www.w3.org/Graphics/SVG/1.1/DTD/svg11.dtd"><svg height="1024" node-id="1" sillyvg="true" template-height="1024" template-width="1024" version="1.1" viewBox="0 0 1024 1024" width="1024" xmlns="http://www.w3.org/2000/svg" xmlns:xlink="http://www.w3.org/1999/xlink"><defs node-id="67"><filter height="1.121" id="filter-2" node-id="6" width="1.087" x="-0.043" y="-0.061"><feOffset color-interpolation-filters="linearRGB" dx="0" dy="0" in="SourceAlpha" result="shadowOffsetOuter1"></feOffset><feGaussianBlur color-interpolation-filters="linearRGB" in="shadowOffsetOuter1" result="shadowBlurOuter1" stdDeviation="13 13"></feGaussianBlur><feColorMatrix color-interpolation-filters="linearRGB" in="shadowBlurOuter1" result="result3" type="matrix" values="0 0 0 0 0 0 0 0 0 0 0 0 0 0 0 0 0 0 0.0841892483 0"></feColorMatrix></filter><filter height="1.2" id="filter-3" node-id="10" width="1.2" x="-0.1" y="-0.1"><feColorMatrix color-interpolation-filters="sRGB" in="SourceGraphic" result="result1" type="matrix" values="0 0 0 0 0.047059 0 0 0 0 0.45098 0 0 0 0 1 0 0 0 1 0"></feColorMatrix></filter></defs><path d="M 0.00 0.00 L 1024.00 0.00 L 1024.00 1024.00 L 0.00 1024.00 Z" fill="#171a1d" fill-rule="evenodd" node-id="83" stroke="none" target-height="1024" target-width="1024" target-x="0" target-y="0"></path><g node-id="96"><g node-id="97"><g node-id="111"><path d="M 67.27 190.00 L 956.73 190.00 L 958.16 190.20 L 959.39 190.72 L 960.46 191.54 L 961.28 192.61 L 961.80 193.84 L 962.00 195.27 L 962.00 828.09 L 961.80 829.52 L 961.28 830.75 L 960.46 831.81 L 959.39 832.64 L 958.16 833.16 L 956.73 833.36 L 67.27 833.36 L 65.84 833.16 L 64.61 832.64 L 63.54 831.81 L 62.72 830.75 L 62.20 829.52 L 62.00 828.09 L 62.00 195.27 L 62.20 193.84 L 62.72 192.61 L 63.54 191.54 L 64.61 190.72 L 65.84 190.20 L 67.27 190.00 Z" fill="#000000" fill-opacity="0.05008176" fill-rule="evenodd" filter="url(#filter-2)" group-id="1,2,16" node-id="89" stroke="none" target-height="643.3594" target-width="900" target-x="62" target-y="190"></path></g><path d="M 67.27 190.00 L 956.73 190.00 L 958.16 190.20 L 959.39 190.72 L 960.46 191.54 L 961.28 192.61 L 961.80 193.84 L 962.00 195.27 L 962.00 828.09 L 961.80 829.52 L 961.28 830.75 L 960.46 831.81 L 959.39 832.64 L 958.16 833.16 L 956.73 833.36 L 67.27 833.36 L 65.84 833.16 L 64.61 832.64 L 63.54 831.81 L 62.72 830.75 L 62.20 829.52 L 62.00 828.09 L 62.00 195.27 L 62.20 193.84 L 62.72 192.61 L 63.54 191.54 L 64.61 190.72 L 65.84 190.20 L 67.27 190.00 Z" fill="#3fa5ff" fill-opacity="0.05008176" fill-rule="evenodd" group-id="1,2,17" node-id="94" stroke="none" target-height="643.3594" target-width="900" target-x="62" target-y="190"></path></g><g node-id="98"><path d="M 161.96 692.65 L 203.32 692.65 L 203.32 783.65 L 203.09 785.28 L 202.51 786.67 L 201.57 787.89 L 200.35 788.83 L 198.95 789.42 L 197.32 789.65 L 167.96 789.65 L 166.33 789.42 L 164.93 788.83 L 163.71 787.89 L 162.77 786.67 L 162.19 785.28 L 161.96 783.65 L 161.96 692.65 L 161.96 692.65 Z" fill="#0c73ff" fill-rule="evenodd" group-id="1,3" id="矩形" node-id="19" stroke="none" target-height="97" target-width="41.367188" target-x="161.95703" target-y="692.64844"></path><path d="M 167.96 491.15 L 197.32 491.15 L 198.95 491.38 L 200.35 491.96 L 201.57 492.91 L 202.51 494.12 L 203.09 495.52 L 203.32 497.15 L 203.32 588.15 L 203.32 588.15 L 161.96 588.15 L 161.96 497.15 L 162.19 495.52 L 162.77 494.12 L 163.71 492.91 L 164.93 491.96 L 166.33 491.38 L 167.96 491.15 Z" fill="#cafbfe" fill-rule="evenodd" group-id="1,3" id="矩形备份-8" node-id="20" stroke="none" target-height="97" target-width="41.367188" target-x="161.95703" target-y="491.14844"></path><path d="M 161.96 587.65 L 203.32 587.65 L 203.32 692.65 L 161.96 692.65 Z" fill="#3fa5ff" fill-rule="evenodd" group-id="1,3" id="矩形" node-id="21" stroke="none" target-height="105" target-width="41.367188" target-x="161.95703" target-y="587.64844"></path></g><g node-id="99"><path d="M 271.06 653.65 L 312.43 653.65 L 312.43 783.65 L 312.20 785.28 L 311.62 786.67 L 310.67 787.89 L 309.46 788.83 L 308.06 789.42 L 306.43 789.65 L 277.06 789.65 L 275.43 789.42 L 274.04 788.83 L 272.82 787.89 L 271.88 786.67 L 271.29 785.28 L 271.06 783.65 L 271.06 653.65 L 271.06 653.65 Z" fill="#0c73ff" fill-rule="evenodd" group-id="1,4" id="矩形" node-id="23" stroke="none" target-height="136" target-width="41.367188" target-x="271.0636" target-y="653.64844"></path><path d="M 277.06 522.15 L 306.43 522.15 L 308.06 522.38 L 309.46 522.96 L 310.67 523.91 L 311.62 525.12 L 312.20 526.52 L 312.43 528.15 L 312.43 588.15 L 312.43 588.15 L 271.06 588.15 L 271.06 528.15 L 271.29 526.52 L 271.88 525.12 L 272.82 523.91 L 274.04 522.96 L 275.43 522.38 L 277.06 522.15 Z" fill="#cafbfe" fill-rule="evenodd" group-id="1,4" id="矩形备份-8" node-id="24" stroke="none" target-height="66" target-width="41.367188" target-x="271.0636" target-y="522.14844"></path><path d="M 271.06 587.65 L 312.43 587.65 L 312.43 653.65 L 271.06 653.65 Z" fill="#3fa5ff" fill-rule="evenodd" group-id="1,4" id="矩形" node-id="25" stroke="none" target-height="66" target-width="41.367188" target-x="271.0636" target-y="587.64844"></path></g><g node-id="100"><path d="M 380.17 683.65 L 421.54 683.65 L 421.54 783.65 L 421.31 785.28 L 420.72 786.67 L 419.78 787.89 L 418.56 788.83 L 417.17 789.42 L 415.54 789.65 L 386.17 789.65 L 384.54 789.42 L 383.14 788.83 L 381.93 787.89 L 380.98 786.67 L 380.40 785.28 L 380.17 783.65 L 380.17 683.65 L 380.17 683.65 Z" fill="#0c73ff" fill-rule="evenodd" group-id="1,5" id="矩形" node-id="27" stroke="none" target-height="106" target-width="41.367188" target-x="380.17017" target-y="683.64844"></path><path d="M 386.17 522.15 L 415.54 522.15 L 417.17 522.38 L 418.56 522.96 L 419.78 523.91 L 420.72 525.12 L 421.31 526.52 L 421.54 528.15 L 421.54 588.15 L 421.54 588.15 L 380.17 588.15 L 380.17 528.15 L 380.40 526.52 L 380.98 525.12 L 381.93 523.91 L 383.14 522.96 L 384.54 522.38 L 386.17 522.15 Z" fill="#cafbfe" fill-rule="evenodd" group-id="1,5" id="矩形备份-8" node-id="28" stroke="none" target-height="66" target-width="41.367188" target-x="380.17017" target-y="522.14844"></path><path d="M 380.17 587.65 L 421.54 587.65 L 421.54 683.65 L 380.17 683.65 Z" fill="#3fa5ff" fill-rule="evenodd" group-id="1,5" id="矩形" node-id="29" stroke="none" target-height="96" target-width="41.367188" target-x="380.17017" target-y="587.64844"></path></g><g node-id="101"><path d="M 489.28 624.11 L 530.64 624.11 L 530.64 783.54 L 530.41 785.17 L 529.83 786.57 L 528.89 787.78 L 527.67 788.73 L 526.27 789.31 L 524.64 789.54 L 495.28 789.54 L 493.65 789.31 L 492.25 788.73 L 491.03 787.78 L 490.09 786.57 L 489.51 785.17 L 489.28 783.54 L 489.28 624.11 L 489.28 624.11 Z" fill="#0c73ff" fill-rule="evenodd" group-id="1,6" id="矩形" node-id="31" stroke="none" target-height="165.4328" target-width="41.367188" target-x="489.27673" target-y="624.1074"></path><path d="M 495.28 464.15 L 524.64 464.15 L 526.27 464.38 L 527.67 464.96 L 528.89 465.91 L 529.83 467.12 L 530.41 468.52 L 530.64 470.15 L 530.64 544.43 L 530.64 544.43 L 489.28 544.43 L 489.28 470.15 L 489.51 468.52 L 490.09 467.12 L 491.03 465.91 L 492.25 464.96 L 493.65 464.38 L 495.28 464.15 Z" fill="#cafbfe" fill-rule="evenodd" group-id="1,6" id="矩形备份-8" node-id="32" stroke="none" target-height="80.28357" target-width="41.367188" target-x="489.27673" target-y="464.14844"></path><path d="M 489.28 543.82 L 530.64 543.82 L 530.64 624.11 L 489.28 624.11 Z" fill="#3fa5ff" fill-rule="evenodd" group-id="1,6" id="矩形" node-id="33" stroke="none" target-height="80.28363" target-width="41.367188" target-x="489.27673" target-y="543.8238"></path></g><g node-id="102"><path d="M 598.38 660.27 L 639.75 660.27 L 639.75 783.67 L 639.52 785.30 L 638.94 786.70 L 637.99 787.92 L 636.78 788.86 L 635.38 789.44 L 633.75 789.67 L 604.38 789.67 L 602.75 789.44 L 601.36 788.86 L 600.14 787.92 L 599.20 786.70 L 598.61 785.30 L 598.38 783.67 L 598.38 660.27 L 598.38 660.27 Z" fill="#0c73ff" fill-rule="evenodd" group-id="1,7" id="矩形" node-id="35" stroke="none" target-height="129.40302" target-width="41.367188" target-x="598.3833" target-y="660.2697"></path><path d="M 604.38 535.15 L 633.75 535.15 L 635.38 535.38 L 636.78 535.96 L 637.99 536.91 L 638.94 538.12 L 639.52 539.52 L 639.75 541.15 L 639.75 597.95 L 639.75 597.95 L 598.38 597.95 L 598.38 541.15 L 598.61 539.52 L 599.20 538.12 L 600.14 536.91 L 601.36 535.96 L 602.75 535.38 L 604.38 535.15 Z" fill="#cafbfe" fill-rule="evenodd" group-id="1,7" id="矩形备份-8" node-id="36" stroke="none" target-height="62.798523" target-width="41.367188" target-x="598.3833" target-y="535.14844"></path><path d="M 598.38 597.47 L 639.75 597.47 L 639.75 660.27 L 598.38 660.27 Z" fill="#3fa5ff" fill-rule="evenodd" group-id="1,7" id="矩形" node-id="37" stroke="none" target-height="62.798523" target-width="41.367188" target-x="598.3833" target-y="597.4712"></path></g><g node-id="103"><path d="M 707.49 690.67 L 748.86 690.67 L 748.86 783.67 L 748.63 785.30 L 748.04 786.70 L 747.10 787.92 L 745.88 788.86 L 744.49 789.44 L 742.86 789.67 L 713.49 789.67 L 711.86 789.44 L 710.46 788.86 L 709.25 787.92 L 708.30 786.70 L 707.72 785.30 L 707.49 783.67 L 707.49 690.67 L 707.49 690.67 Z" fill="#0c73ff" fill-rule="evenodd" group-id="1,8" id="矩形" node-id="39" stroke="none" target-height="99" target-width="41.367188" target-x="707.48987" target-y="690.6727"></path><path d="M 713.49 504.95 L 742.86 504.95 L 744.49 505.18 L 745.88 505.76 L 747.10 506.70 L 748.04 507.92 L 748.63 509.32 L 748.86 510.95 L 748.86 597.95 L 748.86 597.95 L 707.49 597.95 L 707.49 510.95 L 707.72 509.32 L 708.30 507.92 L 709.25 506.70 L 710.46 505.76 L 711.86 505.18 L 713.49 504.95 Z" fill="#cafbfe" fill-rule="evenodd" group-id="1,8" id="矩形备份-8" node-id="40" stroke="none" target-height="93.00003" target-width="41.367188" target-x="707.48987" target-y="504.94693"></path><path d="M 707.49 597.47 L 748.86 597.47 L 748.86 690.47 L 707.49 690.47 Z" fill="#3fa5ff" fill-rule="evenodd" group-id="1,8" id="矩形" node-id="41" stroke="none" target-height="93" target-width="41.367188" target-x="707.48987" target-y="597.4712"></path></g><g node-id="104"><path d="M 816.60 640.67 L 857.96 640.67 L 857.96 783.67 L 857.73 785.30 L 857.15 786.70 L 856.21 787.92 L 854.99 788.86 L 853.59 789.44 L 851.96 789.67 L 822.60 789.67 L 820.97 789.44 L 819.57 788.86 L 818.35 787.92 L 817.41 786.70 L 816.83 785.30 L 816.60 783.67 L 816.60 640.67 L 816.60 640.67 Z" fill="#0c73ff" fill-rule="evenodd" group-id="1,9" id="矩形" node-id="43" stroke="none" target-height="149.00006" target-width="41.367188" target-x="816.59644" target-y="640.67267"></path><path d="M 822.60 522.95 L 851.96 522.95 L 853.59 523.18 L 854.99 523.76 L 856.21 524.70 L 857.15 525.92 L 857.73 527.32 L 857.96 528.95 L 857.96 597.95 L 857.96 597.95 L 816.60 597.95 L 816.60 528.95 L 816.83 527.32 L 817.41 525.92 L 818.35 524.70 L 819.57 523.76 L 820.97 523.18 L 822.60 522.95 Z" fill="#cafbfe" fill-rule="evenodd" group-id="1,9" id="矩形备份-8" node-id="44" stroke="none" target-height="75" target-width="41.367188" target-x="816.59644" target-y="522.94696"></path><path d="M 816.60 597.47 L 857.96 597.47 L 857.96 640.47 L 816.60 640.47 Z" fill="#3fa5ff" fill-rule="evenodd" group-id="1,9" id="矩形" node-id="45" stroke="none" target-height="43" target-width="41.367188" target-x="816.59644" target-y="597.4712"></path></g><g node-id="105"><g node-id="113"><text align="center" editable="true" ellipsis="false" fill="#cafbfe" filter="url(#filter-3)" flags="1" font-family="'Noto Sans CJK SC'" font-size="17" font-stretch="normal" font-style="normal" font-weight="500" group-id="1,10,18" height="25.160002" id="100" letter-spacing="0" node-id="48" stroke="none" target-x="95.182465" target-y="437.42844" vertical-align="center" width="29.070002" x="95.182465" xml:space="preserve" y="457.14844">100</text><text align="center" editable="true" ellipsis="false" fill="#cafbfe" filter="url(#filter-3)" flags="1" font-family="'Noto Sans CJK SC'" font-size="17" font-stretch="normal" font-style="normal" font-weight="500" group-id="1,10,18" height="25.160002" id="50" letter-spacing="0" node-id="51" stroke="none" target-x="103.15047" target-y="600.42847" vertical-align="center" width="19.380001" x="103.15047" xml:space="preserve" y="620.14844">50</text><text align="center" editable="true" ellipsis="false" fill="#cafbfe" filter="url(#filter-3)" flags="1" font-family="'Noto Sans CJK SC'" font-size="17" font-stretch="normal" font-style="normal" font-weight="500" group-id="1,10,18" height="25.160002" id="0" letter-spacing="0" node-id="54" stroke="none" target-x="114.250465" target-y="751.42847" vertical-align="center" width="9.690001" x="114.250465" xml:space="preserve" y="771.14844">0</text></g></g><g node-id="106"><g node-id="114"><path d="M 706.93 323.65 L 882.00 323.65 L 883.63 323.88 L 885.03 324.46 L 886.24 325.41 L 887.19 326.62 L 887.77 328.02 L 888.00 329.65 L 888.00 346.30 L 887.77 347.93 L 887.19 349.32 L 886.24 350.54 L 885.03 351.48 L 883.63 352.07 L 882.00 352.30 L 706.93 352.30 L 705.30 352.07 L 703.91 351.48 L 702.69 350.54 L 701.75 349.32 L 701.16 347.93 L 700.93 346.30 L 700.93 329.65 L 701.16 328.02 L 701.75 326.62 L 702.69 325.41 L 703.91 324.46 L 705.30 323.88 L 706.93 323.65 Z" fill="#3fa5ff" fill-opacity="0.4" fill-rule="evenodd" group-id="1,11,19" id="矩形" node-id="58" stroke="none" target-height="28.648438" target-width="187.0664" target-x="700.9336" target-y="323.64844"></path></g><path d="M 662.93 323.65 L 678.93 323.65 L 680.56 323.88 L 681.96 324.46 L 683.18 325.41 L 684.12 326.62 L 684.70 328.02 L 684.93 329.65 L 684.93 345.65 L 684.70 347.28 L 684.12 348.67 L 683.18 349.89 L 681.96 350.83 L 680.56 351.42 L 678.93 351.65 L 662.93 351.65 L 661.30 351.42 L 659.91 350.83 L 658.69 349.89 L 657.75 348.67 L 657.16 347.28 L 656.93 345.65 L 656.93 329.65 L 657.16 328.02 L 657.75 326.62 L 658.69 325.41 L 659.91 324.46 L 661.30 323.88 L 662.93 323.65 Z" fill="#3fa5ff" fill-rule="evenodd" group-id="1,11" id="矩形备份" node-id="59" stroke="none" target-height="28" target-width="28" target-x="656.9336" target-y="323.64844"></path></g><g node-id="107"><g node-id="115"><path d="M 706.93 372.65 L 882.00 372.65 L 883.63 372.88 L 885.03 373.46 L 886.24 374.41 L 887.19 375.62 L 887.77 377.02 L 888.00 378.65 L 888.00 395.30 L 887.77 396.93 L 887.19 398.32 L 886.24 399.54 L 885.03 400.48 L 883.63 401.07 L 882.00 401.30 L 706.93 401.30 L 705.30 401.07 L 703.91 400.48 L 702.69 399.54 L 701.75 398.32 L 701.16 396.93 L 700.93 395.30 L 700.93 378.65 L 701.16 377.02 L 701.75 375.62 L 702.69 374.41 L 703.91 373.46 L 705.30 372.88 L 706.93 372.65 Z" fill="#3fa5ff" fill-opacity="0.4" fill-rule="evenodd" group-id="1,12,20" id="矩形" node-id="61" stroke="none" target-height="28.648438" target-width="187.0664" target-x="700.9336" target-y="372.64844"></path></g><path d="M 662.93 372.65 L 678.93 372.65 L 680.56 372.88 L 681.96 373.46 L 683.18 374.41 L 684.12 375.62 L 684.70 377.02 L 684.93 378.65 L 684.93 394.65 L 684.70 396.28 L 684.12 397.67 L 683.18 398.89 L 681.96 399.83 L 680.56 400.42 L 678.93 400.65 L 662.93 400.65 L 661.30 400.42 L 659.91 399.83 L 658.69 398.89 L 657.75 397.67 L 657.16 396.28 L 656.93 394.65 L 656.93 378.65 L 657.16 377.02 L 657.75 375.62 L 658.69 374.41 L 659.91 373.46 L 661.30 372.88 L 662.93 372.65 Z" fill="#3fa5ff" fill-rule="evenodd" group-id="1,12" id="矩形备份" node-id="62" stroke="none" target-height="28" target-width="28" target-x="656.9336" target-y="372.64844"></path></g><g node-id="108"><path d="M 131.43 235.29 L 131.21 237.70 L 130.61 239.91 L 129.63 241.95 L 128.32 243.80 L 126.75 245.37 L 124.90 246.68 L 122.86 247.65 L 120.66 248.25 L 118.25 248.48 L 115.84 248.25 L 113.64 247.65 L 111.60 246.68 L 109.75 245.37 L 108.18 243.80 L 106.87 241.95 L 105.89 239.91 L 105.29 237.70 L 105.07 235.29 L 105.29 232.89 L 105.89 230.68 L 106.87 228.64 L 108.18 226.79 L 109.75 225.22 L 111.60 223.91 L 113.64 222.94 L 115.84 222.33 L 118.25 222.11 L 120.66 222.33 L 122.86 222.94 L 124.90 223.91 L 126.75 225.22 L 128.32 226.79 L 129.63 228.64 L 130.61 230.68 L 131.21 232.89 L 131.43 235.29 Z" fill="#3fa5ff" fill-opacity="0.5" fill-rule="evenodd" group-id="1,13" id="椭圆形" node-id="63" stroke="none" target-height="26.367188" target-width="26.367188" target-x="105.06641" target-y="222.11078"></path></g><g node-id="109"><path d="M 175.38 235.29 L 175.15 237.70 L 174.55 239.91 L 173.58 241.95 L 172.27 243.80 L 170.70 245.37 L 168.85 246.68 L 166.81 247.65 L 164.60 248.25 L 162.20 248.48 L 159.79 248.25 L 157.58 247.65 L 155.54 246.68 L 153.69 245.37 L 152.12 243.80 L 150.81 241.95 L 149.84 239.91 L 149.24 237.70 L 149.01 235.29 L 149.24 232.89 L 149.84 230.68 L 150.81 228.64 L 152.12 226.79 L 153.69 225.22 L 155.54 223.91 L 157.58 222.94 L 159.79 222.33 L 162.20 222.11 L 164.60 222.33 L 166.81 222.94 L 168.85 223.91 L 170.70 225.22 L 172.27 226.79 L 173.58 228.64 L 174.55 230.68 L 175.15 232.89 L 175.38 235.29 Z" fill="#3fa5ff" fill-opacity="0.5" fill-rule="evenodd" group-id="1,14" id="椭圆形备份" node-id="64" stroke="none" target-height="26.367188" target-width="26.367188" target-x="149.01172" target-y="222.11078"></path></g><path d="M 219.32 235.29 L 219.10 237.70 L 218.50 239.91 L 217.52 241.95 L 216.21 243.80 L 214.64 245.37 L 212.79 246.68 L 210.75 247.65 L 208.55 248.25 L 206.14 248.48 L 203.73 248.25 L 201.53 247.65 L 199.49 246.68 L 197.64 245.37 L 196.07 243.80 L 194.76 241.95 L 193.78 239.91 L 193.18 237.70 L 192.96 235.29 L 193.18 232.89 L 193.78 230.68 L 194.76 228.64 L 196.07 226.79 L 197.64 225.22 L 199.49 223.91 L 201.53 222.94 L 203.73 222.33 L 206.14 222.11 L 208.55 222.33 L 210.75 222.94 L 212.79 223.91 L 214.64 225.22 L 216.21 226.79 L 217.52 228.64 L 218.50 230.68 L 219.10 232.89 L 219.32 235.29 Z" fill="#3fa5ff" fill-opacity="0.5" fill-rule="evenodd" group-id="1,15" id="椭圆形备份-2" node-id="65" stroke="none" target-height="26.367188" target-width="26.367188" target-x="192.95703" target-y="222.11078"></path></g></svg>