<?xml version="1.0" standalone="no"?><!DOCTYPE svg PUBLIC "-//W3C//DTD SVG 1.1//EN" "http://www.w3.org/Graphics/SVG/1.1/DTD/svg11.dtd"><svg height="1024" node-id="1" sillyvg="true" template-height="1024" template-width="1025" version="1.1" viewBox="0 0 1025 1024" width="1025" xmlns="http://www.w3.org/2000/svg" xmlns:xlink="http://www.w3.org/1999/xlink"><defs node-id="27"><filter height="1.121" id="filter-2" node-id="6" width="1.087" x="-0.043" y="-0.061"><feOffset color-interpolation-filters="linearRGB" dx="0" dy="0" in="SourceAlpha" result="shadowOffsetOuter1"></feOffset><feGaussianBlur color-interpolation-filters="linearRGB" in="shadowOffsetOuter1" result="shadowBlurOuter1" stdDeviation="13 13"></feGaussianBlur><feColorMatrix color-interpolation-filters="linearRGB" in="shadowBlurOuter1" result="result3" type="matrix" values="0 0 0 0 0 0 0 0 0 0 0 0 0 0 0 0 0 0 0.0841892483 0"></feColorMatrix></filter><filter height="1.2" id="filter-3" node-id="10" width="1.2" x="-0.1" y="-0.1"><feColorMatrix color-interpolation-filters="linearRGB" in="SourceGraphic" result="result1" type="matrix" values="0 0 0 0 0.047059 0 0 0 0 0.45098 0 0 0 0 1 0 0 0 1 0"></feColorMatrix></filter></defs><path d="M 1.00 0.00 L 1025.00 0.00 L 1025.00 1024.00 L 1.00 1024.00 Z" fill="#171a1d" fill-rule="evenodd" node-id="43" stroke="none" target-height="1024" target-width="1024" target-x="1" target-y="0"></path><g node-id="56"><g node-id="57"><g node-id="62"><path d="M 68.27 190.00 L 957.73 190.00 L 959.16 190.20 L 960.39 190.72 L 961.46 191.54 L 962.28 192.61 L 962.80 193.84 L 963.00 195.27 L 963.00 828.09 L 962.80 829.52 L 962.28 830.75 L 961.46 831.81 L 960.39 832.64 L 959.16 833.16 L 957.73 833.36 L 68.27 833.36 L 66.84 833.16 L 65.61 832.64 L 64.54 831.81 L 63.72 830.75 L 63.20 829.52 L 63.00 828.09 L 63.00 195.27 L 63.20 193.84 L 63.72 192.61 L 64.54 191.54 L 65.61 190.72 L 66.84 190.20 L 68.27 190.00 Z" fill="#000000" fill-opacity="0.05008176" fill-rule="evenodd" filter="url(#filter-2)" group-id="1,2,7" node-id="49" stroke="none" target-height="643.3594" target-width="900" target-x="63" target-y="190"></path></g><path d="M 68.27 190.00 L 957.73 190.00 L 959.16 190.20 L 960.39 190.72 L 961.46 191.54 L 962.28 192.61 L 962.80 193.84 L 963.00 195.27 L 963.00 828.09 L 962.80 829.52 L 962.28 830.75 L 961.46 831.81 L 960.39 832.64 L 959.16 833.16 L 957.73 833.36 L 68.27 833.36 L 66.84 833.16 L 65.61 832.64 L 64.54 831.81 L 63.72 830.75 L 63.20 829.52 L 63.00 828.09 L 63.00 195.27 L 63.20 193.84 L 63.72 192.61 L 64.54 191.54 L 65.61 190.72 L 66.84 190.20 L 68.27 190.00 Z" fill="#0c73ff" fill-opacity="0.05008176" fill-rule="evenodd" group-id="1,2,8" node-id="54" stroke="none" target-height="643.3594" target-width="900" target-x="63" target-y="190"></path></g><g node-id="58"><g node-id="64"><path d="M 838.38 353.65 L 840.01 353.88 L 841.40 354.46 L 842.62 355.41 L 843.57 356.62 L 844.15 358.02 L 844.38 359.65 L 844.38 690.05 L 823.78 710.65 L 182.38 710.65 L 180.75 710.42 L 179.35 709.83 L 178.14 708.89 L 177.19 707.67 L 176.61 706.28 L 176.38 704.65 L 176.38 374.20 L 196.93 353.65 L 838.38 353.65 Z M 844.38 697.12 L 844.38 704.65 L 844.15 706.28 L 843.56 707.67 L 842.62 708.89 L 841.40 709.83 L 840.01 710.42 L 838.38 710.65 L 830.85 710.65 L 844.38 697.12 Z M 818.88 369.00 L 477.00 369.00 L 475.41 369.22 L 474.03 369.78 L 472.83 370.68 L 471.89 371.85 L 471.28 373.20 L 471.00 374.78 L 471.00 375.00 L 471.00 377.65 L 307.40 377.65 L 306.54 376.22 L 305.32 375.09 L 303.84 374.33 L 302.13 374.01 L 301.88 374.00 L 201.88 374.00 L 200.29 374.22 L 198.91 374.78 L 197.71 375.68 L 196.77 376.85 L 196.16 378.20 L 195.88 379.78 L 195.88 380.00 L 195.88 413.71 L 194.16 414.49 L 192.78 415.74 L 191.86 417.35 L 191.46 419.25 L 191.46 419.50 L 191.46 500.18 L 191.62 501.55 L 192.04 502.76 L 192.71 503.85 L 194.11 505.16 L 195.88 505.97 L 195.88 677.60 L 194.90 678.77 L 194.26 680.12 L 193.96 681.71 L 193.96 682.00 L 193.96 686.00 L 194.18 687.59 L 194.74 688.97 L 195.64 690.17 L 196.81 691.11 L 198.16 691.72 L 199.73 692.00 L 199.96 692.00 L 541.84 692.00 L 543.36 691.80 L 544.69 691.29 L 545.86 690.45 L 546.80 689.37 L 547.45 688.12 L 547.80 686.65 L 713.49 686.65 L 714.38 687.97 L 715.57 689.01 L 717.00 689.70 L 718.63 690.00 L 718.88 690.00 L 818.88 690.00 L 820.47 689.78 L 821.85 689.22 L 823.05 688.32 L 823.99 687.15 L 824.60 685.80 L 824.87 684.23 L 824.88 684.00 L 824.88 649.75 L 826.35 648.89 L 827.52 647.67 L 828.30 646.17 L 828.64 644.43 L 828.64 644.18 L 828.64 563.50 L 828.36 561.68 L 827.59 560.10 L 826.40 558.82 L 824.88 557.93 L 824.88 383.65 L 824.76 382.44 L 824.41 381.33 L 824.73 380.35 L 824.87 379.31 L 824.88 379.00 L 824.88 375.00 L 824.65 373.37 L 824.07 371.97 L 823.12 370.76 L 821.90 369.81 L 820.51 369.23 L 818.88 369.00 Z M 189.86 353.65 L 176.38 367.13 L 176.38 359.65 L 176.61 358.02 L 177.19 356.62 L 178.14 355.41 L 179.35 354.46 L 180.75 353.88 L 182.38 353.65 L 189.86 353.65 Z" fill="#599fff" fill-rule="evenodd" filter="url(#filter-3)" group-id="1,3,9" id="形状结合" node-id="20" stroke="none" target-height="357.00037" target-width="668.0005" target-x="176.3784" target-y="353.64844"></path><path d="M 812.96 377.00 L 813.94 377.20 L 814.72 377.73 L 815.26 378.52 L 815.46 379.50 L 815.46 518.56 L 815.26 519.54 L 814.72 520.33 L 813.94 520.86 L 812.96 521.06 L 811.98 520.86 L 811.19 520.33 L 810.66 519.54 L 810.46 518.56 L 810.46 382.00 L 500.46 382.00 L 499.48 381.80 L 498.69 381.27 L 498.16 380.48 L 497.96 379.50 L 498.16 378.52 L 498.69 377.73 L 499.48 377.20 L 500.46 377.00 L 812.96 377.00 L 812.96 377.00 Z" fill="#599fff" fill-rule="evenodd" filter="url(#filter-3)" group-id="1,3,9" id="形状结合" node-id="21" stroke="none" target-height="144.06378" target-width="317.5" target-x="497.95703" target-y="377.00037"></path><g node-id="65"><path d="M 205.46 685.06 L 204.48 684.86 L 203.69 684.33 L 203.16 683.54 L 202.96 682.56 L 202.96 543.50 L 203.16 542.52 L 203.69 541.73 L 204.48 541.20 L 205.46 541.00 L 206.44 541.20 L 207.22 541.73 L 207.76 542.52 L 207.96 543.50 L 207.96 680.06 L 517.96 680.06 L 518.94 680.26 L 519.72 680.80 L 520.26 681.58 L 520.46 682.56 L 520.26 683.54 L 519.72 684.33 L 518.94 684.86 L 517.96 685.06 L 205.46 685.06 L 205.46 685.06 Z" fill="#0c73ff" fill-rule="evenodd" filter="url(#filter-3)" group-id="1,3,9,10" id="形状结合备份" node-id="22" stroke="none" target-height="144.06378" target-width="317.50003" target-x="202.957" target-y="541.00037"></path></g></g></g><g node-id="59"><path d="M 132.43 235.29 L 132.21 237.70 L 131.61 239.91 L 130.63 241.95 L 129.32 243.80 L 127.75 245.37 L 125.90 246.68 L 123.86 247.65 L 121.66 248.25 L 119.25 248.48 L 116.84 248.25 L 114.64 247.65 L 112.60 246.68 L 110.75 245.37 L 109.18 243.80 L 107.87 241.95 L 106.89 239.91 L 106.29 237.70 L 106.07 235.29 L 106.29 232.89 L 106.89 230.68 L 107.87 228.64 L 109.18 226.79 L 110.75 225.22 L 112.60 223.91 L 114.64 222.94 L 116.84 222.33 L 119.25 222.11 L 121.66 222.33 L 123.86 222.94 L 125.90 223.91 L 127.75 225.22 L 129.32 226.79 L 130.63 228.64 L 131.61 230.68 L 132.21 232.89 L 132.43 235.29 Z" fill="#3fa5ff" fill-opacity="0.5" fill-rule="evenodd" group-id="1,4" id="椭圆形" node-id="23" stroke="none" target-height="26.367188" target-width="26.367188" target-x="106.06641" target-y="222.11078"></path></g><g node-id="60"><path d="M 176.38 235.29 L 176.15 237.70 L 175.55 239.91 L 174.58 241.95 L 173.27 243.80 L 171.70 245.37 L 169.85 246.68 L 167.81 247.65 L 165.60 248.25 L 163.20 248.48 L 160.79 248.25 L 158.58 247.65 L 156.54 246.68 L 154.69 245.37 L 153.12 243.80 L 151.81 241.95 L 150.84 239.91 L 150.24 237.70 L 150.01 235.29 L 150.24 232.89 L 150.84 230.68 L 151.81 228.64 L 153.12 226.79 L 154.69 225.22 L 156.54 223.91 L 158.58 222.94 L 160.79 222.33 L 163.20 222.11 L 165.60 222.33 L 167.81 222.94 L 169.85 223.91 L 171.70 225.22 L 173.27 226.79 L 174.58 228.64 L 175.55 230.68 L 176.15 232.89 L 176.38 235.29 Z" fill="#3fa5ff" fill-opacity="0.5" fill-rule="evenodd" group-id="1,5" id="椭圆形备份" node-id="24" stroke="none" target-height="26.367188" target-width="26.367188" target-x="150.01172" target-y="222.11078"></path></g><path d="M 220.32 235.29 L 220.10 237.70 L 219.50 239.91 L 218.52 241.95 L 217.21 243.80 L 215.64 245.37 L 213.79 246.68 L 211.75 247.65 L 209.55 248.25 L 207.14 248.48 L 204.73 248.25 L 202.53 247.65 L 200.49 246.68 L 198.64 245.37 L 197.07 243.80 L 195.76 241.95 L 194.78 239.91 L 194.18 237.70 L 193.96 235.29 L 194.18 232.89 L 194.78 230.68 L 195.76 228.64 L 197.07 226.79 L 198.64 225.22 L 200.49 223.91 L 202.53 222.94 L 204.73 222.33 L 207.14 222.11 L 209.55 222.33 L 211.75 222.94 L 213.79 223.91 L 215.64 225.22 L 217.21 226.79 L 218.52 228.64 L 219.50 230.68 L 220.10 232.89 L 220.32 235.29 Z" fill="#3fa5ff" fill-opacity="0.5" fill-rule="evenodd" group-id="1,6" id="椭圆形备份-2" node-id="25" stroke="none" target-height="26.367188" target-width="26.367188" target-x="193.95703" target-y="222.11078"></path></g></svg>