<?xml version="1.0" standalone="no"?><!DOCTYPE svg PUBLIC "-//W3C//DTD SVG 1.1//EN" "http://www.w3.org/Graphics/SVG/1.1/DTD/svg11.dtd"><svg height="1024" node-id="1" sillyvg="true" template-height="1024" template-width="1025" version="1.1" viewBox="0 0 1025 1024" width="1025" xmlns="http://www.w3.org/2000/svg" xmlns:xlink="http://www.w3.org/1999/xlink"><defs node-id="30"><filter height="1.121" id="filter-2" node-id="6" width="1.087" x="-0.043" y="-0.061"><feOffset color-interpolation-filters="linearRGB" dx="0" dy="0" in="SourceAlpha" result="shadowOffsetOuter1"></feOffset><feGaussianBlur color-interpolation-filters="linearRGB" in="shadowOffsetOuter1" result="shadowBlurOuter1" stdDeviation="13 13"></feGaussianBlur><feColorMatrix color-interpolation-filters="linearRGB" in="shadowBlurOuter1" result="result3" type="matrix" values="0 0 0 0 0 0 0 0 0 0 0 0 0 0 0 0 0 0 0.0841892483 0"></feColorMatrix></filter></defs><path d="M 1.00 0.00 L 1025.00 0.00 L 1025.00 1024.00 L 1.00 1024.00 Z" fill="#171a1d" fill-rule="evenodd" node-id="42" stroke="none" target-height="1024" target-width="1024" target-x="1" target-y="0"></path><g node-id="55"><g node-id="56"><g node-id="61"><path d="M 68.27 190.00 L 957.73 190.00 L 959.16 190.20 L 960.39 190.72 L 961.46 191.54 L 962.28 192.61 L 962.80 193.84 L 963.00 195.27 L 963.00 828.09 L 962.80 829.52 L 962.28 830.75 L 961.46 831.81 L 960.39 832.64 L 959.16 833.16 L 957.73 833.36 L 68.27 833.36 L 66.84 833.16 L 65.61 832.64 L 64.54 831.81 L 63.72 830.75 L 63.20 829.52 L 63.00 828.09 L 63.00 195.27 L 63.20 193.84 L 63.72 192.61 L 64.54 191.54 L 65.61 190.72 L 66.84 190.20 L 68.27 190.00 Z" fill="#000000" fill-opacity="0.05008176" fill-rule="evenodd" filter="url(#filter-2)" group-id="1,2,7" node-id="48" stroke="none" target-height="643.3594" target-width="900" target-x="63" target-y="190"></path></g><path d="M 68.27 190.00 L 957.73 190.00 L 959.16 190.20 L 960.39 190.72 L 961.46 191.54 L 962.28 192.61 L 962.80 193.84 L 963.00 195.27 L 963.00 828.09 L 962.80 829.52 L 962.28 830.75 L 961.46 831.81 L 960.39 832.64 L 959.16 833.16 L 957.73 833.36 L 68.27 833.36 L 66.84 833.16 L 65.61 832.64 L 64.54 831.81 L 63.72 830.75 L 63.20 829.52 L 63.00 828.09 L 63.00 195.27 L 63.20 193.84 L 63.72 192.61 L 64.54 191.54 L 65.61 190.72 L 66.84 190.20 L 68.27 190.00 Z" fill="#3fa5ff" fill-opacity="0.05008176" fill-rule="evenodd" group-id="1,2,8" node-id="53" stroke="none" target-height="643.3594" target-width="900" target-x="63" target-y="190"></path></g><g node-id="57"><text align="center" editable="true" ellipsis="false" fill="#0c73ff" flags="1" font-family="'Noto Sans CJK SC'" font-size="60" font-stretch="normal" font-style="normal" font-weight="400" group-id="1,3" height="88.799995" id="2021/2/3" letter-spacing="0" node-id="17" stroke="none" target-x="509.97" target-y="580.54846" vertical-align="center" width="246.84001" x="509.97" xml:space="preserve" y="650.14844">2021/2/3</text><text align="center" editable="true" ellipsis="false" fill="#0c73ff" flags="1" font-family="'Noto Sans CJK SC'" font-size="60" font-stretch="normal" font-style="normal" font-weight="400" group-id="1,3" height="88.799995" id="pm-周三" letter-spacing="0" node-id="20" stroke="none" target-x="251.78" target-y="580.54846" vertical-align="center" width="226.2" x="251.78" xml:space="preserve" y="650.14844">pm 周三</text><text align="center" editable="true" ellipsis="false" fill="#0c73ff" flags="1" font-family="'Noto Sans CJK SC'" font-size="140" font-stretch="normal" font-style="normal" font-weight="400" group-id="1,3" height="207.2" id="12:32:12" letter-spacing="0" node-id="23" stroke="none" target-x="251.9" target-y="379.74844" vertical-align="center" width="544.04" x="251.9" xml:space="preserve" y="542.14844">12:32:12</text></g><g node-id="58"><path d="M 132.43 235.29 L 132.21 237.70 L 131.61 239.91 L 130.63 241.95 L 129.32 243.80 L 127.75 245.37 L 125.90 246.68 L 123.86 247.65 L 121.66 248.25 L 119.25 248.48 L 116.84 248.25 L 114.64 247.65 L 112.60 246.68 L 110.75 245.37 L 109.18 243.80 L 107.87 241.95 L 106.89 239.91 L 106.29 237.70 L 106.07 235.29 L 106.29 232.89 L 106.89 230.68 L 107.87 228.64 L 109.18 226.79 L 110.75 225.22 L 112.60 223.91 L 114.64 222.94 L 116.84 222.33 L 119.25 222.11 L 121.66 222.33 L 123.86 222.94 L 125.90 223.91 L 127.75 225.22 L 129.32 226.79 L 130.63 228.64 L 131.61 230.68 L 132.21 232.89 L 132.43 235.29 Z" fill="#3fa5ff" fill-opacity="0.5" fill-rule="evenodd" group-id="1,4" id="椭圆形" node-id="26" stroke="none" target-height="26.367188" target-width="26.367188" target-x="106.06641" target-y="222.11078"></path></g><g node-id="59"><path d="M 176.38 235.29 L 176.15 237.70 L 175.55 239.91 L 174.58 241.95 L 173.27 243.80 L 171.70 245.37 L 169.85 246.68 L 167.81 247.65 L 165.60 248.25 L 163.20 248.48 L 160.79 248.25 L 158.58 247.65 L 156.54 246.68 L 154.69 245.37 L 153.12 243.80 L 151.81 241.95 L 150.84 239.91 L 150.24 237.70 L 150.01 235.29 L 150.24 232.89 L 150.84 230.68 L 151.81 228.64 L 153.12 226.79 L 154.69 225.22 L 156.54 223.91 L 158.58 222.94 L 160.79 222.33 L 163.20 222.11 L 165.60 222.33 L 167.81 222.94 L 169.85 223.91 L 171.70 225.22 L 173.27 226.79 L 174.58 228.64 L 175.55 230.68 L 176.15 232.89 L 176.38 235.29 Z" fill="#3fa5ff" fill-opacity="0.5" fill-rule="evenodd" group-id="1,5" id="椭圆形备份" node-id="27" stroke="none" target-height="26.367188" target-width="26.367188" target-x="150.01172" target-y="222.11078"></path></g><path d="M 220.32 235.29 L 220.10 237.70 L 219.50 239.91 L 218.52 241.95 L 217.21 243.80 L 215.64 245.37 L 213.79 246.68 L 211.75 247.65 L 209.55 248.25 L 207.14 248.48 L 204.73 248.25 L 202.53 247.65 L 200.49 246.68 L 198.64 245.37 L 197.07 243.80 L 195.76 241.95 L 194.78 239.91 L 194.18 237.70 L 193.96 235.29 L 194.18 232.89 L 194.78 230.68 L 195.76 228.64 L 197.07 226.79 L 198.64 225.22 L 200.49 223.91 L 202.53 222.94 L 204.73 222.33 L 207.14 222.11 L 209.55 222.33 L 211.75 222.94 L 213.79 223.91 L 215.64 225.22 L 217.21 226.79 L 218.52 228.64 L 219.50 230.68 L 220.10 232.89 L 220.32 235.29 Z" fill="#3fa5ff" fill-opacity="0.5" fill-rule="evenodd" group-id="1,6" id="椭圆形备份-2" node-id="28" stroke="none" target-height="26.367188" target-width="26.367188" target-x="193.95703" target-y="222.11078"></path></g></svg>