<?xml version="1.0" standalone="no"?><!DOCTYPE svg PUBLIC "-//W3C//DTD SVG 1.1//EN" "http://www.w3.org/Graphics/SVG/1.1/DTD/svg11.dtd"><svg height="1024" node-id="1" sillyvg="true" template-height="1024" template-width="1024" version="1.1" viewBox="0 0 1024 1024" width="1024" xmlns="http://www.w3.org/2000/svg" xmlns:xlink="http://www.w3.org/1999/xlink"><defs node-id="116"><filter height="1.121" id="filter-2" node-id="6" width="1.087" x="-0.043" y="-0.061"><feOffset color-interpolation-filters="linearRGB" dx="0" dy="0" in="SourceAlpha" result="shadowOffsetOuter1"></feOffset><feGaussianBlur color-interpolation-filters="linearRGB" in="shadowOffsetOuter1" result="shadowBlurOuter1" stdDeviation="13 13"></feGaussianBlur><feColorMatrix color-interpolation-filters="linearRGB" in="shadowBlurOuter1" result="result3" type="matrix" values="0 0 0 0 0 0 0 0 0 0 0 0 0 0 0 0 0 0 0.0841892483 0"></feColorMatrix></filter><filter height="2.857" id="filter-3" node-id="10" width="2.6" x="-0.8" y="-0.929"><feGaussianBlur color-interpolation-filters="linearRGB" in="SourceGraphic" result="result1" stdDeviation="1 1"></feGaussianBlur></filter><filter height="2.857" id="filter-4" node-id="12" width="2.6" x="-0.8" y="-0.929"><feGaussianBlur color-interpolation-filters="linearRGB" in="SourceGraphic" result="result1" stdDeviation="1 1"></feGaussianBlur></filter><filter height="2" id="filter-5" node-id="14" width="1.862" x="-0.431" y="-0.5"><feGaussianBlur color-interpolation-filters="linearRGB" in="SourceGraphic" result="result1" stdDeviation="1 1"></feGaussianBlur></filter><filter height="2" id="filter-6" node-id="16" width="1.862" x="-0.431" y="-0.5"><feGaussianBlur color-interpolation-filters="linearRGB" in="SourceGraphic" result="result1" stdDeviation="1 1"></feGaussianBlur></filter><filter height="2" id="filter-7" node-id="18" width="1.862" x="-0.431" y="-0.5"><feGaussianBlur color-interpolation-filters="linearRGB" in="SourceGraphic" result="result1" stdDeviation="1 1"></feGaussianBlur></filter><filter height="1.781" id="filter-8" node-id="20" width="2.055" x="-0.526" y="-0.39"><feGaussianBlur color-interpolation-filters="linearRGB" in="SourceGraphic" result="result1" stdDeviation="1 1"></feGaussianBlur></filter><filter height="2" id="filter-9" node-id="22" width="1.862" x="-0.431" y="-0.5"><feGaussianBlur color-interpolation-filters="linearRGB" in="SourceGraphic" result="result1" stdDeviation="1 1"></feGaussianBlur></filter><filter height="2.625" id="filter-10" node-id="24" width="2.4" x="-0.7" y="-0.813"><feGaussianBlur color-interpolation-filters="linearRGB" in="SourceGraphic" result="result1" stdDeviation="1 1"></feGaussianBlur></filter><filter height="2" id="filter-11" node-id="26" width="1.862" x="-0.431" y="-0.5"><feGaussianBlur color-interpolation-filters="linearRGB" in="SourceGraphic" result="result1" stdDeviation="1 1"></feGaussianBlur></filter><filter height="2.625" id="filter-12" node-id="28" width="2.4" x="-0.7" y="-0.813"><feGaussianBlur color-interpolation-filters="linearRGB" in="SourceGraphic" result="result1" stdDeviation="1 1"></feGaussianBlur></filter><filter height="2.625" id="filter-13" node-id="30" width="2.4" x="-0.7" y="-0.813"><feGaussianBlur color-interpolation-filters="linearRGB" in="SourceGraphic" result="result1" stdDeviation="1 1"></feGaussianBlur></filter><filter height="2.182" id="filter-14" node-id="32" width="2.018" x="-0.509" y="-0.591"><feGaussianBlur color-interpolation-filters="linearRGB" in="SourceGraphic" result="result1" stdDeviation="1 1"></feGaussianBlur></filter></defs><path d="M 0.00 0.00 L 1024.00 0.00 L 1024.00 1024.00 L 0.00 1024.00 Z" fill="#171a1d" fill-rule="evenodd" node-id="176" stroke="none" target-height="1024" target-width="1024" target-x="0" target-y="0"></path><g node-id="189"><g node-id="190"><g node-id="198"><path d="M 67.27 190.00 L 956.73 190.00 L 958.16 190.20 L 959.39 190.72 L 960.46 191.54 L 961.28 192.61 L 961.80 193.84 L 962.00 195.27 L 962.00 828.09 L 961.80 829.52 L 961.28 830.75 L 960.46 831.81 L 959.39 832.64 L 958.16 833.16 L 956.73 833.36 L 67.27 833.36 L 65.84 833.16 L 64.61 832.64 L 63.54 831.81 L 62.72 830.75 L 62.20 829.52 L 62.00 828.09 L 62.00 195.27 L 62.20 193.84 L 62.72 192.61 L 63.54 191.54 L 64.61 190.72 L 65.84 190.20 L 67.27 190.00 Z" fill="#000000" fill-opacity="0.05008176" fill-rule="evenodd" filter="url(#filter-2)" group-id="1,2,10" node-id="182" stroke="none" target-height="643.3594" target-width="900" target-x="62" target-y="190"></path></g><path d="M 67.27 190.00 L 956.73 190.00 L 958.16 190.20 L 959.39 190.72 L 960.46 191.54 L 961.28 192.61 L 961.80 193.84 L 962.00 195.27 L 962.00 828.09 L 961.80 829.52 L 961.28 830.75 L 960.46 831.81 L 959.39 832.64 L 958.16 833.16 L 956.73 833.36 L 67.27 833.36 L 65.84 833.16 L 64.61 832.64 L 63.54 831.81 L 62.72 830.75 L 62.20 829.52 L 62.00 828.09 L 62.00 195.27 L 62.20 193.84 L 62.72 192.61 L 63.54 191.54 L 64.61 190.72 L 65.84 190.20 L 67.27 190.00 Z" fill="#3fa5ff" fill-opacity="0.05008176" fill-rule="evenodd" group-id="1,2,11" node-id="187" stroke="none" target-height="643.3594" target-width="900" target-x="62" target-y="190"></path></g><g node-id="191"><text align="center" editable="true" ellipsis="false" fill="#2692f7" flags="1" font-family="'Noto Sans CJK SC'" font-size="17" font-stretch="normal" font-style="normal" font-weight="500" group-id="1,3" height="25.160002" id="100" letter-spacing="0" node-id="41" stroke="none" target-x="360.1367" target-y="749.42847" vertical-align="center" width="29.070002" x="360.1367" xml:space="preserve" y="769.14844">100</text><text align="center" editable="true" ellipsis="false" fill="#2692f7" flags="1" font-family="'Noto Sans CJK SC'" font-size="17" font-stretch="normal" font-style="normal" font-weight="500" group-id="1,3" height="25.160002" id="100备份" letter-spacing="0" node-id="44" stroke="none" target-x="598.9844" target-y="749.42847" vertical-align="center" width="29.070002" x="598.9844" xml:space="preserve" y="769.14844">100</text><text align="center" editable="true" ellipsis="false" fill="#2692f7" flags="1" font-family="'Noto Sans CJK SC'" font-size="17" font-stretch="normal" font-style="normal" font-weight="500" group-id="1,3" height="25.160002" id="300" letter-spacing="0" node-id="47" stroke="none" target-x="837.7" target-y="749.42847" vertical-align="center" width="29.070002" x="837.7" xml:space="preserve" y="769.14844">300</text><text align="center" editable="true" ellipsis="false" fill="#2692f7" flags="1" font-family="'Noto Sans CJK SC'" font-size="17" font-stretch="normal" font-style="normal" font-weight="500" group-id="1,3" height="25.160002" id="0" letter-spacing="0" node-id="50" stroke="none" target-x="138.35703" target-y="749.42847" vertical-align="center" width="9.690001" x="138.35703" xml:space="preserve" y="769.14844">0</text></g><g node-id="192"><text align="center" editable="true" ellipsis="false" fill="#2692f7" flags="1" font-family="'Noto Sans CJK SC'" font-size="17" font-stretch="normal" font-style="normal" font-weight="500" group-id="1,4" height="25.160002" id="200" letter-spacing="0" node-id="54" stroke="none" target-x="119.15703" target-y="485.92844" vertical-align="center" width="29.070002" x="119.15703" xml:space="preserve" y="505.64844">200</text><text align="center" editable="true" ellipsis="false" fill="#2692f7" flags="1" font-family="'Noto Sans CJK SC'" font-size="17" font-stretch="normal" font-style="normal" font-weight="500" group-id="1,4" height="25.160002" id="300" letter-spacing="0" node-id="57" stroke="none" target-x="119.15703" target-y="336.42844" vertical-align="center" width="29.070002" x="119.15703" xml:space="preserve" y="356.14844">300</text><text align="center" editable="true" ellipsis="false" fill="#2692f7" flags="1" font-family="'Noto Sans CJK SC'" font-size="17" font-stretch="normal" font-style="normal" font-weight="500" group-id="1,4" height="25.160002" id="100" letter-spacing="0" node-id="60" stroke="none" target-x="124.28903" target-y="635.42847" vertical-align="center" width="29.070002" x="124.28903" xml:space="preserve" y="655.14844">100</text></g><g node-id="193"><path d="M 892.93 419.00 L 892.93 435.00 L 892.70 436.63 L 892.12 438.03 L 891.18 439.24 L 889.96 440.19 L 888.56 440.77 L 886.93 441.00 L 870.93 441.00 L 869.30 440.77 L 867.91 440.19 L 866.69 439.24 L 865.75 438.03 L 865.16 436.63 L 864.93 435.00 L 864.93 419.00 L 865.16 417.37 L 865.75 415.97 L 866.69 414.76 L 867.91 413.81 L 869.30 413.23 L 870.93 413.00 L 886.93 413.00 L 888.56 413.23 L 889.96 413.81 L 891.18 414.76 L 892.12 415.97 L 892.70 417.37 L 892.93 419.00 Z" fill="#0c73ff" fill-rule="evenodd" group-id="1,5" id="矩形备份" node-id="64" stroke="none" target-height="28" target-width="28" target-x="864.9336" target-y="413"></path><g node-id="200"><path d="M 892.93 455.00 L 892.93 471.00 L 892.70 472.63 L 892.12 474.03 L 891.18 475.24 L 889.96 476.19 L 888.56 476.77 L 886.93 477.00 L 870.93 477.00 L 869.30 476.77 L 867.91 476.19 L 866.69 475.24 L 865.75 474.03 L 865.16 472.63 L 864.93 471.00 L 864.93 455.00 L 865.16 453.37 L 865.75 451.97 L 866.69 450.76 L 867.91 449.81 L 869.30 449.23 L 870.93 449.00 L 886.93 449.00 L 888.56 449.23 L 889.96 449.81 L 891.18 450.76 L 892.12 451.97 L 892.70 453.37 L 892.93 455.00 Z" fill="#0c73ff" fill-opacity="0.8" fill-rule="evenodd" group-id="1,5,12" id="矩形备份-2" node-id="65" stroke="none" target-height="28" target-width="28" target-x="864.9336" target-y="449"></path></g><g node-id="201"><path d="M 892.93 491.00 L 892.93 507.00 L 892.70 508.63 L 892.12 510.03 L 891.18 511.24 L 889.96 512.19 L 888.56 512.77 L 886.93 513.00 L 870.93 513.00 L 869.30 512.77 L 867.91 512.19 L 866.69 511.24 L 865.75 510.03 L 865.16 508.63 L 864.93 507.00 L 864.93 491.00 L 865.16 489.37 L 865.75 487.97 L 866.69 486.76 L 867.91 485.81 L 869.30 485.23 L 870.93 485.00 L 886.93 485.00 L 888.56 485.23 L 889.96 485.81 L 891.18 486.76 L 892.12 487.97 L 892.70 489.37 L 892.93 491.00 Z" fill="#0c73ff" fill-opacity="0.6" fill-rule="evenodd" group-id="1,5,13" id="矩形备份-3" node-id="66" stroke="none" target-height="28" target-width="28" target-x="864.9336" target-y="485"></path></g><g node-id="202"><path d="M 892.93 527.00 L 892.93 543.00 L 892.70 544.63 L 892.12 546.03 L 891.18 547.24 L 889.96 548.19 L 888.56 548.77 L 886.93 549.00 L 870.93 549.00 L 869.30 548.77 L 867.91 548.19 L 866.69 547.24 L 865.75 546.03 L 865.16 544.63 L 864.93 543.00 L 864.93 527.00 L 865.16 525.37 L 865.75 523.97 L 866.69 522.76 L 867.91 521.81 L 869.30 521.23 L 870.93 521.00 L 886.93 521.00 L 888.56 521.23 L 889.96 521.81 L 891.18 522.76 L 892.12 523.97 L 892.70 525.37 L 892.93 527.00 Z" fill="#0c73ff" fill-opacity="0.4" fill-rule="evenodd" group-id="1,5,14" id="矩形备份-4" node-id="67" stroke="none" target-height="28" target-width="28" target-x="864.9336" target-y="521"></path></g><g node-id="203"><path d="M 892.93 563.00 L 892.93 579.00 L 892.70 580.63 L 892.12 582.03 L 891.18 583.24 L 889.96 584.19 L 888.56 584.77 L 886.93 585.00 L 870.93 585.00 L 869.30 584.77 L 867.91 584.19 L 866.69 583.24 L 865.75 582.03 L 865.16 580.63 L 864.93 579.00 L 864.93 563.00 L 865.16 561.37 L 865.75 559.97 L 866.69 558.76 L 867.91 557.81 L 869.30 557.23 L 870.93 557.00 L 886.93 557.00 L 888.56 557.23 L 889.96 557.81 L 891.18 558.76 L 892.12 559.97 L 892.70 561.37 L 892.93 563.00 Z" fill="#0c73ff" fill-opacity="0.2" fill-rule="evenodd" group-id="1,5,15" id="矩形备份-5" node-id="68" stroke="none" target-height="28" target-width="28" target-x="864.9336" target-y="557"></path></g><g node-id="204"><path d="M 892.93 599.00 L 892.93 615.00 L 892.70 616.63 L 892.12 618.03 L 891.18 619.24 L 889.96 620.19 L 888.56 620.77 L 886.93 621.00 L 870.93 621.00 L 869.30 620.77 L 867.91 620.19 L 866.69 619.24 L 865.75 618.03 L 865.16 616.63 L 864.93 615.00 L 864.93 599.00 L 865.16 597.37 L 865.75 595.97 L 866.69 594.76 L 867.91 593.81 L 869.30 593.23 L 870.93 593.00 L 886.93 593.00 L 888.56 593.23 L 889.96 593.81 L 891.18 594.76 L 892.12 595.97 L 892.70 597.37 L 892.93 599.00 Z" fill="#0c73ff" fill-opacity="0.1" fill-rule="evenodd" group-id="1,5,16" id="矩形备份-6" node-id="69" stroke="none" target-height="28" target-width="28" target-x="864.9336" target-y="593"></path></g><path d="M 892.93 635.00 L 892.93 651.00 L 892.70 652.63 L 892.12 654.03 L 891.18 655.24 L 889.96 656.19 L 888.56 656.77 L 886.93 657.00 L 870.93 657.00 L 869.30 656.77 L 867.91 656.19 L 866.69 655.24 L 865.75 654.03 L 865.16 652.63 L 864.93 651.00 L 864.93 635.00 L 865.16 633.37 L 865.75 631.97 L 866.69 630.76 L 867.91 629.81 L 869.30 629.23 L 870.93 629.00 L 886.93 629.00 L 888.56 629.23 L 889.96 629.81 L 891.18 630.76 L 892.12 631.97 L 892.70 633.37 L 892.93 635.00 Z" fill="#0c73ff" fill-opacity="0.0512173" fill-rule="evenodd" group-id="1,5,17" id="矩形备份-7" node-id="70" stroke="none" target-height="28" target-width="28" target-x="864.9336" target-y="629"></path></g><g node-id="194"><path d="M 317.75 458.54 L 319.77 458.29 L 322.25 458.30 L 324.80 458.61 L 327.48 459.28 L 330.06 460.33 L 332.49 461.80 L 334.15 463.19 L 335.60 464.85 L 336.86 466.80 L 337.78 468.93 L 338.39 471.45 L 338.63 474.44 L 338.63 474.44 L 338.63 475.28 L 338.56 479.59 L 338.36 482.96 L 337.93 486.01 L 337.31 488.17 L 336.32 490.12 L 335.11 491.62 L 333.68 492.75 L 332.23 493.51 L 330.42 494.02 L 328.15 494.23 L 325.98 494.04 L 322.94 493.42 L 319.76 492.53 L 316.23 491.35 L 309.38 488.58 L 306.23 487.05 L 303.77 485.67 L 301.72 484.21 L 300.79 483.18 L 300.21 481.94 L 299.58 480.06 L 299.09 478.00 L 298.70 475.60 L 298.48 473.15 L 298.48 470.67 L 298.76 468.24 L 299.26 466.14 L 299.97 464.33 L 300.94 462.66 L 302.04 461.37 L 303.25 460.41 L 305.69 459.25 L 308.16 458.66 L 310.73 458.49 L 313.47 458.59 L 315.56 458.71 L 317.75 458.54 Z" fill="#0c73ff" fill-rule="evenodd" group-id="1,6" id="椭圆形" node-id="72" stroke="#65a4ff" stroke-linecap="butt" stroke-opacity="0.20009288" stroke-width="10" target-height="35.945984" target-width="40.14331" target-x="298.48212" target-y="458.28613"></path><g node-id="206"><path d="M 208.64 408.47 L 209.35 406.80 L 210.45 404.91 L 211.83 403.08 L 213.53 401.32 L 215.48 399.80 L 217.69 398.59 L 219.51 397.93 L 221.44 397.54 L 223.53 397.43 L 225.59 397.67 L 227.81 398.33 L 230.24 399.48 L 230.24 399.48 L 230.92 399.87 L 236.54 403.40 L 238.63 405.05 L 239.98 406.46 L 241.07 408.15 L 241.71 409.82 L 241.95 411.49 L 241.89 413.00 L 241.46 414.68 L 240.59 416.58 L 239.50 418.14 L 237.70 420.15 L 235.62 422.16 L 233.19 424.30 L 228.09 428.24 L 225.56 429.94 L 223.44 431.18 L 221.44 432.09 L 220.25 432.34 L 219.05 432.24 L 217.34 431.89 L 215.55 431.37 L 213.55 430.62 L 211.58 429.70 L 209.69 428.62 L 207.15 426.61 L 205.40 424.54 L 204.54 423.00 L 204.04 421.55 L 203.84 420.16 L 204.02 417.76 L 204.66 415.59 L 205.66 413.52 L 206.96 411.45 L 207.88 410.05 L 208.64 408.47 Z" fill="#0c73ff" fill-rule="evenodd" group-id="1,6,18" id="椭圆形备份-34" node-id="73" stroke="#65a4ff" stroke-linecap="butt" stroke-opacity="0.20009288" stroke-width="10" target-height="34.903442" target-width="38.107773" target-x="203.83955" target-y="397.433"></path></g><g node-id="207"><path d="M 420.62 690.86 L 421.33 689.19 L 422.43 687.29 L 423.81 685.47 L 425.51 683.71 L 427.46 682.19 L 429.67 680.98 L 431.49 680.32 L 433.42 679.93 L 435.51 679.82 L 437.57 680.06 L 439.79 680.72 L 442.22 681.87 L 442.22 681.87 L 442.90 682.26 L 448.53 685.79 L 450.61 687.44 L 451.96 688.85 L 453.05 690.54 L 453.69 692.21 L 453.93 693.88 L 453.87 695.39 L 453.44 697.07 L 452.57 698.97 L 451.48 700.53 L 449.68 702.54 L 447.61 704.55 L 445.17 706.69 L 440.07 710.63 L 437.54 712.33 L 435.42 713.57 L 433.42 714.48 L 432.24 714.73 L 431.03 714.63 L 429.32 714.28 L 427.53 713.76 L 425.53 713.01 L 423.56 712.09 L 421.67 711.00 L 419.13 709.00 L 417.38 706.93 L 416.52 705.39 L 416.02 703.94 L 415.82 702.55 L 416.00 700.15 L 416.64 697.98 L 417.64 695.91 L 418.94 693.84 L 419.86 692.44 L 420.62 690.86 Z" fill="#0c73ff" fill-rule="evenodd" group-id="1,6,19" id="椭圆形备份-35" node-id="74" stroke="#65a4ff" stroke-linecap="butt" stroke-opacity="0.20009288" stroke-width="10" target-height="34.90338" target-width="38.107788" target-x="415.82013" target-y="679.8228"></path></g><path d="M 533.64 396.67 L 535.44 396.45 L 537.63 396.45 L 539.89 396.73 L 542.27 397.33 L 544.57 398.26 L 546.72 399.57 L 548.20 400.81 L 549.51 402.29 L 550.64 404.04 L 551.47 405.95 L 552.01 408.20 L 552.22 410.88 L 552.22 410.88 L 552.22 411.67 L 551.98 418.30 L 551.59 420.93 L 551.05 422.80 L 550.13 424.60 L 549.00 425.98 L 547.67 427.03 L 546.34 427.73 L 544.67 428.20 L 542.59 428.40 L 540.69 428.23 L 538.05 427.67 L 535.27 426.89 L 532.20 425.84 L 526.24 423.40 L 523.51 422.06 L 521.37 420.84 L 519.59 419.56 L 518.78 418.66 L 518.26 417.57 L 517.70 415.91 L 517.26 414.10 L 516.91 412.00 L 516.72 409.83 L 516.72 407.65 L 517.18 404.45 L 518.10 401.90 L 519.01 400.39 L 520.01 399.22 L 521.12 398.36 L 523.28 397.31 L 525.48 396.78 L 527.77 396.62 L 530.22 396.70 L 531.89 396.80 L 533.64 396.67 Z" fill="#0c73ff" fill-rule="evenodd" group-id="1,6" id="椭圆形备份-36" node-id="75" stroke="#65a4ff" stroke-linecap="butt" stroke-opacity="0.20009288" stroke-width="10" target-height="31.94986" target-width="35.504883" target-x="516.7185" target-y="396.44547"></path><path d="M 572.68 534.48 L 573.36 532.87 L 574.43 531.03 L 575.76 529.27 L 577.41 527.57 L 579.30 526.09 L 581.44 524.92 L 583.20 524.27 L 585.08 523.90 L 587.10 523.79 L 589.11 524.02 L 591.27 524.66 L 593.62 525.78 L 593.62 525.78 L 594.29 526.17 L 598.56 528.77 L 601.33 530.85 L 602.99 532.50 L 604.05 534.17 L 604.68 535.80 L 604.91 537.44 L 604.85 538.91 L 604.44 540.55 L 603.59 542.41 L 602.20 544.31 L 599.81 546.83 L 597.08 549.31 L 594.00 551.81 L 590.84 554.11 L 588.07 555.88 L 585.45 557.20 L 583.98 557.57 L 582.81 557.47 L 581.16 557.14 L 577.50 555.91 L 575.60 555.03 L 573.77 553.98 L 571.29 552.02 L 569.59 550.00 L 568.48 547.78 L 568.08 545.72 L 568.26 543.40 L 568.87 541.29 L 569.84 539.29 L 571.10 537.27 L 571.96 535.98 L 572.68 534.48 Z" fill="#0c73ff" fill-rule="evenodd" group-id="1,6,20" id="椭圆形备份-10" node-id="76" stroke="#65a4ff" stroke-linecap="butt" stroke-opacity="0.20009288" stroke-width="10" target-height="33.772827" target-width="36.830017" target-x="568.0814" target-y="523.79395"></path><path d="M 481.12 433.51 L 482.03 431.54 L 483.61 429.31 L 484.92 427.95 L 486.43 426.79 L 488.16 425.83 L 490.36 425.12 L 492.80 424.90 L 494.45 425.08 L 496.22 425.60 L 498.15 426.52 L 501.56 428.59 L 503.78 430.23 L 505.12 431.51 L 506.11 432.99 L 506.69 434.45 L 506.92 435.89 L 506.90 437.21 L 506.54 438.68 L 505.79 440.35 L 504.71 441.82 L 502.85 443.75 L 500.72 445.64 L 498.33 447.53 L 495.87 449.28 L 493.72 450.62 L 491.68 451.61 L 490.55 451.89 L 489.10 451.73 L 486.92 451.16 L 484.69 450.29 L 482.48 449.10 L 480.39 447.42 L 478.99 445.68 L 478.08 443.79 L 477.77 442.05 L 477.90 440.16 L 478.38 438.45 L 479.15 436.81 L 480.16 435.17 L 481.12 433.51 Z" fill="#0c73ff" fill-opacity="0.2" fill-rule="evenodd" group-id="1,6,21" id="椭圆形备份-11" node-id="77" stroke="#65a4ff" stroke-linecap="butt" stroke-opacity="0.040018577" stroke-width="10" target-height="26.989655" target-width="29.155396" target-x="477.76532" target-y="424.8981"></path><path d="M 535.18 702.18 L 534.02 700.35 L 533.01 697.80 L 532.58 695.96 L 532.43 694.07 L 532.57 692.09 L 533.17 689.86 L 534.32 687.69 L 535.36 686.41 L 536.77 685.21 L 538.59 684.09 L 538.59 684.09 L 539.18 683.79 L 542.60 682.17 L 545.07 681.29 L 546.81 680.94 L 548.54 680.96 L 550.04 681.29 L 551.36 681.92 L 552.40 682.65 L 553.40 683.72 L 554.35 685.21 L 554.99 686.92 L 555.60 689.53 L 556.02 692.35 L 556.31 695.39 L 556.43 698.40 L 556.38 700.93 L 556.11 703.18 L 555.72 704.28 L 554.80 705.41 L 553.14 706.93 L 551.20 708.32 L 548.99 709.52 L 546.44 710.37 L 544.22 710.60 L 542.14 710.33 L 540.51 709.64 L 539.00 708.50 L 537.82 707.17 L 536.87 705.63 L 536.04 703.89 L 535.18 702.18 Z" fill="#0c73ff" fill-opacity="0.5" fill-rule="evenodd" group-id="1,6,22" id="椭圆形备份-41" node-id="78" stroke="#65a4ff" stroke-linecap="butt" stroke-opacity="0.10004644" stroke-width="10" target-height="29.66034" target-width="23.997498" target-x="532.4342" target-y="680.9389"></path><path d="M 233.62 477.88 L 234.53 475.91 L 236.12 473.67 L 237.42 472.32 L 238.93 471.16 L 240.67 470.20 L 242.86 469.48 L 245.31 469.26 L 246.95 469.45 L 248.72 469.97 L 250.65 470.88 L 254.07 472.95 L 256.29 474.59 L 257.62 475.87 L 258.61 477.36 L 259.19 478.81 L 259.42 480.26 L 259.40 481.58 L 259.04 483.04 L 258.29 484.72 L 257.21 486.18 L 255.36 488.11 L 253.22 490.00 L 250.83 491.90 L 248.37 493.64 L 246.22 494.98 L 244.18 495.98 L 243.05 496.25 L 241.60 496.10 L 239.42 495.53 L 237.19 494.66 L 234.99 493.46 L 232.89 491.79 L 231.49 490.05 L 230.58 488.16 L 230.27 486.42 L 230.40 484.53 L 230.88 482.81 L 231.65 481.18 L 232.66 479.53 L 233.62 477.88 Z" fill="#0c73ff" fill-opacity="0.2" fill-rule="evenodd" group-id="1,6,23" id="椭圆形备份-37" node-id="79" stroke="#65a4ff" stroke-linecap="butt" stroke-opacity="0.040018577" stroke-width="10" target-height="26.989624" target-width="29.155396" target-x="230.2663" target-y="469.26443"></path><path d="M 476.99 651.97 L 477.90 650.00 L 479.48 647.77 L 480.79 646.41 L 482.30 645.25 L 484.03 644.29 L 486.23 643.58 L 488.67 643.36 L 490.32 643.54 L 492.09 644.06 L 494.02 644.97 L 494.02 644.97 L 494.60 645.31 L 497.81 647.30 L 499.90 648.89 L 501.14 650.16 L 502.06 651.62 L 502.60 653.06 L 502.80 654.50 L 502.75 655.78 L 502.39 657.20 L 501.66 658.81 L 500.58 660.28 L 498.72 662.20 L 496.59 664.10 L 494.20 665.99 L 491.74 667.74 L 489.59 669.07 L 487.55 670.07 L 486.42 670.35 L 484.97 670.19 L 482.79 669.62 L 480.56 668.75 L 478.35 667.55 L 476.26 665.88 L 474.86 664.14 L 473.95 662.25 L 473.63 660.51 L 473.77 658.62 L 474.25 656.90 L 475.02 655.27 L 476.03 653.63 L 476.99 651.97 Z" fill="#0c73ff" fill-opacity="0.2" fill-rule="evenodd" group-id="1,6,24" id="椭圆形备份-38" node-id="80" stroke="#65a4ff" stroke-linecap="butt" stroke-opacity="0.040018577" stroke-width="10" target-height="26.989502" target-width="29.163055" target-x="473.63467" target-y="643.35645"></path><path d="M 687.93 681.80 L 689.59 682.51 L 691.49 683.61 L 693.31 684.99 L 695.07 686.69 L 696.59 688.64 L 697.80 690.85 L 698.46 692.67 L 698.85 694.60 L 698.96 696.69 L 698.72 698.75 L 698.06 700.97 L 696.91 703.40 L 696.91 703.40 L 696.52 704.08 L 692.99 709.70 L 691.34 711.79 L 689.93 713.14 L 688.24 714.23 L 686.57 714.87 L 684.90 715.11 L 683.39 715.05 L 681.71 714.62 L 679.81 713.75 L 678.25 712.66 L 676.24 710.86 L 674.23 708.78 L 672.09 706.35 L 668.15 701.25 L 666.45 698.72 L 665.21 696.60 L 664.30 694.60 L 664.05 693.41 L 664.15 692.21 L 664.50 690.50 L 665.02 688.71 L 665.77 686.71 L 666.69 684.74 L 667.78 682.85 L 669.78 680.31 L 671.85 678.56 L 673.39 677.70 L 674.84 677.20 L 676.23 677.00 L 678.63 677.18 L 680.80 677.82 L 682.87 678.82 L 684.94 680.12 L 686.34 681.04 L 687.93 681.80 Z" fill="#0c73ff" fill-opacity="0.6" fill-rule="evenodd" group-id="1,6,25" id="椭圆形备份-39" node-id="81" stroke="#65a4ff" stroke-linecap="butt" stroke-opacity="0.120055735" stroke-width="10" target-height="38.107727" target-width="34.903442" target-x="664.05444" target-y="676.99963"></path><path d="M 364.21 575.87 L 363.22 573.94 L 362.43 571.32 L 362.17 569.45 L 362.18 567.55 L 362.49 565.59 L 363.28 563.42 L 364.62 561.36 L 365.77 560.18 L 367.27 559.10 L 369.18 558.14 L 369.18 558.14 L 369.80 557.89 L 373.34 556.58 L 375.88 555.92 L 377.65 555.72 L 379.37 555.90 L 380.84 556.36 L 382.09 557.09 L 383.07 557.91 L 383.97 559.07 L 384.79 560.64 L 385.28 562.39 L 385.65 565.04 L 385.83 567.89 L 385.85 570.94 L 385.71 573.95 L 385.44 576.47 L 384.98 578.69 L 384.49 579.75 L 383.48 580.79 L 381.69 582.16 L 379.63 583.39 L 377.33 584.39 L 374.72 585.01 L 372.49 585.04 L 370.44 584.59 L 368.87 583.77 L 367.47 582.50 L 366.41 581.07 L 365.60 579.46 L 364.92 577.64 L 364.21 575.87 Z" fill="#0c73ff" fill-opacity="0.2" fill-rule="evenodd" group-id="1,6,26" id="椭圆形备份-14" node-id="82" stroke="#65a4ff" stroke-linecap="butt" stroke-opacity="0.040018577" stroke-width="10" target-height="29.32196" target-width="23.685028" target-x="362.16663" target-y="555.7229"></path><path d="M 509.52 481.15 L 511.21 480.01 L 513.42 478.89 L 515.83 478.02 L 518.53 477.40 L 521.31 477.16 L 524.14 477.37 L 526.24 477.85 L 528.29 478.67 L 530.30 479.84 L 532.09 481.32 L 533.77 483.29 L 535.34 485.84 L 535.34 485.84 L 535.91 486.96 L 537.75 490.74 L 539.06 493.77 L 540.01 496.62 L 540.42 498.80 L 540.39 500.95 L 539.98 502.82 L 539.21 504.46 L 538.27 505.78 L 536.89 507.03 L 534.99 508.23 L 532.97 509.05 L 529.98 509.87 L 526.74 510.52 L 523.06 511.08 L 515.70 511.72 L 512.20 511.79 L 509.39 511.67 L 506.90 511.30 L 505.60 510.81 L 504.51 509.96 L 503.10 508.57 L 501.72 506.96 L 500.29 505.01 L 498.98 502.91 L 497.86 500.71 L 497.00 498.42 L 496.50 496.32 L 496.31 494.39 L 496.42 492.45 L 496.81 490.81 L 497.45 489.40 L 499.09 487.26 L 501.03 485.62 L 503.24 484.30 L 505.73 483.14 L 507.65 482.30 L 509.52 481.15 Z" fill="#0c73ff" fill-opacity="0.5" fill-rule="evenodd" group-id="1,6,27" id="椭圆形备份-12" node-id="83" stroke="#65a4ff" stroke-linecap="butt" stroke-opacity="0.17355496" stroke-width="10" target-height="34.630005" target-width="44.107666" target-x="496.30823" target-y="477.15756"></path><path d="M 740.44 526.77 L 738.48 527.01 L 736.07 527.00 L 733.58 526.70 L 730.97 526.04 L 728.45 525.02 L 726.08 523.59 L 724.47 522.23 L 723.05 520.62 L 721.82 518.71 L 720.92 516.63 L 720.33 514.17 L 720.10 511.26 L 720.32 503.44 L 720.71 500.35 L 721.29 498.16 L 722.26 496.18 L 723.44 494.65 L 724.84 493.51 L 726.28 492.73 L 728.10 492.20 L 730.38 491.98 L 732.49 492.17 L 735.43 492.77 L 738.53 493.64 L 741.95 494.79 L 748.60 497.48 L 751.65 498.97 L 754.03 500.31 L 756.02 501.73 L 756.93 502.73 L 757.50 503.94 L 758.10 505.77 L 758.59 507.77 L 758.97 510.10 L 759.18 512.49 L 759.18 514.90 L 758.91 517.28 L 758.41 519.33 L 757.71 521.10 L 756.76 522.74 L 755.68 524.00 L 754.49 524.94 L 752.12 526.07 L 749.71 526.64 L 747.21 526.81 L 744.53 526.72 L 742.53 526.60 L 740.44 526.77 Z" fill="#0c73ff" fill-opacity="0.5" fill-rule="evenodd" group-id="1,6,28" id="椭圆形备份-31" node-id="84" stroke="#65a4ff" stroke-linecap="butt" stroke-opacity="0.10004644" stroke-width="10" target-height="35.031982" target-width="39.08246" target-x="720.0958" target-y="491.98108"></path><path d="M 625.52 612.71 L 627.21 611.57 L 629.42 610.45 L 631.83 609.58 L 634.53 608.96 L 637.31 608.72 L 640.14 608.93 L 642.24 609.41 L 644.29 610.23 L 646.30 611.40 L 648.09 612.88 L 649.77 614.85 L 651.34 617.40 L 651.34 617.40 L 651.91 618.52 L 653.75 622.30 L 655.06 625.33 L 656.01 628.18 L 656.42 630.36 L 656.39 632.51 L 655.98 634.38 L 655.21 636.02 L 654.27 637.34 L 652.89 638.59 L 650.99 639.79 L 648.97 640.61 L 645.98 641.43 L 642.74 642.08 L 639.06 642.64 L 631.70 643.28 L 628.20 643.35 L 625.39 643.23 L 622.90 642.86 L 621.60 642.37 L 620.51 641.52 L 619.10 640.13 L 617.72 638.52 L 616.29 636.57 L 614.98 634.47 L 613.86 632.27 L 613.00 629.98 L 612.50 627.88 L 612.31 625.95 L 612.42 624.01 L 612.81 622.37 L 613.45 620.96 L 615.09 618.82 L 617.03 617.18 L 619.24 615.86 L 621.73 614.70 L 623.65 613.86 L 625.52 612.71 Z" fill="#0c73ff" fill-opacity="0.5" fill-rule="evenodd" group-id="1,6,29" id="椭圆形备份-13" node-id="85" stroke="#65a4ff" stroke-linecap="butt" stroke-opacity="0.10004644" stroke-width="10" target-height="34.630066" target-width="44.107666" target-x="612.3082" target-y="608.7175"></path><path d="M 603.98 664.17 L 605.67 663.03 L 607.88 661.92 L 610.29 661.04 L 612.99 660.42 L 615.76 660.18 L 618.60 660.39 L 620.70 660.87 L 622.75 661.69 L 624.76 662.86 L 626.55 664.34 L 628.23 666.31 L 629.80 668.86 L 629.80 668.86 L 630.37 669.98 L 632.21 673.77 L 633.52 676.79 L 634.47 679.65 L 634.87 681.82 L 634.85 683.97 L 634.44 685.84 L 633.67 687.48 L 632.73 688.80 L 631.35 690.05 L 629.45 691.26 L 627.43 692.07 L 624.44 692.89 L 621.20 693.55 L 617.52 694.10 L 610.16 694.74 L 606.66 694.81 L 603.85 694.69 L 601.36 694.33 L 600.06 693.83 L 598.97 692.99 L 597.56 691.60 L 596.18 689.98 L 594.75 688.03 L 593.44 685.94 L 592.32 683.73 L 591.46 681.44 L 590.96 679.34 L 590.77 677.41 L 590.88 675.47 L 591.27 673.83 L 591.91 672.42 L 593.55 670.28 L 595.49 668.64 L 597.70 667.32 L 600.19 666.17 L 602.11 665.32 L 603.98 664.17 Z" fill="#0c73ff" fill-opacity="0.2" fill-rule="evenodd" group-id="1,6,30" id="椭圆形备份-24" node-id="86" stroke="#65a4ff" stroke-linecap="butt" stroke-opacity="0.040018577" stroke-width="10" target-height="34.630005" target-width="44.107666" target-x="590.7671" target-y="660.17957"></path><path d="M 372.97 525.65 L 373.16 527.72 L 372.92 530.34 L 372.17 532.94 L 370.81 535.41 L 369.32 537.06 L 367.39 538.42 L 365.93 539.06 L 364.20 539.48 L 362.15 539.65 L 362.15 539.65 L 361.50 539.65 L 357.92 539.54 L 355.46 539.21 L 353.84 538.75 L 352.35 537.96 L 351.19 537.01 L 350.32 535.88 L 349.74 534.79 L 349.35 533.41 L 349.18 531.70 L 349.38 529.98 L 349.99 527.51 L 350.86 524.94 L 351.93 522.24 L 353.14 519.64 L 354.28 517.52 L 355.48 515.74 L 356.29 514.97 L 357.56 514.41 L 359.63 513.84 L 361.89 513.49 L 364.29 513.42 L 366.86 513.82 L 368.88 514.60 L 370.55 515.76 L 371.66 517.07 L 372.46 518.70 L 372.89 520.36 L 373.04 522.09 L 372.98 523.95 L 372.97 525.65 Z" fill="#0c73ff" fill-rule="evenodd" group-id="1,6,31" id="椭圆形备份-3" node-id="87" stroke="#65a4ff" stroke-linecap="butt" stroke-opacity="0.20009288" stroke-width="10" target-height="26.22821" target-width="23.980103" target-x="349.1833" target-y="513.4202"></path><path d="M 591.41 620.79 L 590.00 621.61 L 588.05 622.31 L 585.94 622.64 L 583.73 622.49 L 582.01 621.96 L 580.34 621.02 L 578.91 619.65 L 577.64 617.60 L 577.64 617.60 L 577.40 617.07 L 576.11 613.76 L 575.74 611.77 L 575.83 610.29 L 576.18 609.02 L 576.77 607.92 L 577.85 606.66 L 579.62 605.51 L 580.84 605.11 L 582.70 604.77 L 586.84 604.50 L 590.74 604.68 L 592.31 604.95 L 593.07 605.26 L 593.87 605.96 L 594.96 607.20 L 595.95 608.65 L 596.78 610.29 L 597.38 612.42 L 597.46 614.23 L 597.12 615.92 L 596.50 617.22 L 595.59 618.36 L 594.55 619.25 L 593.36 619.96 L 591.99 620.56 L 591.41 620.79 Z" fill="#0c73ff" fill-opacity="0.4" fill-rule="evenodd" group-id="1,6,32" id="椭圆形备份-25" node-id="88" stroke="#65a4ff" stroke-linecap="butt" stroke-opacity="0.080037154" stroke-width="10" target-height="18.135132" target-width="21.716858" target-x="575.7383" target-y="604.504"></path><path d="M 449.25 481.06 L 447.84 481.88 L 445.89 482.58 L 443.78 482.91 L 441.57 482.76 L 439.84 482.23 L 438.18 481.29 L 436.75 479.92 L 435.48 477.87 L 434.06 474.39 L 433.59 472.33 L 433.63 470.79 L 433.94 469.48 L 434.50 468.35 L 435.59 467.01 L 437.45 465.78 L 438.68 465.37 L 440.53 465.04 L 444.68 464.77 L 448.57 464.94 L 450.14 465.22 L 450.90 465.53 L 451.71 466.22 L 452.79 467.47 L 453.78 468.92 L 454.61 470.56 L 455.21 472.68 L 455.29 474.50 L 454.96 476.19 L 454.33 477.49 L 453.43 478.63 L 452.38 479.51 L 451.19 480.23 L 449.83 480.83 L 449.25 481.06 Z" fill="#0c73ff" fill-opacity="0.5" fill-rule="evenodd" group-id="1,6,33" id="椭圆形备份-40" node-id="89" stroke="#65a4ff" stroke-linecap="butt" stroke-opacity="0.10004644" stroke-width="10" target-height="18.13507" target-width="21.698303" target-x="433.59207" target-y="464.77173"></path><path d="M 427.03 538.76 L 428.01 540.06 L 429.00 541.79 L 429.80 543.69 L 430.41 545.82 L 430.72 548.04 L 430.67 550.32 L 430.11 552.91 L 428.93 555.46 L 427.80 556.98 L 426.27 558.44 L 424.25 559.83 L 424.25 559.83 L 423.61 560.20 L 419.58 562.39 L 416.65 563.64 L 414.56 564.19 L 412.67 564.28 L 411.02 564.01 L 409.54 563.41 L 408.35 562.66 L 407.19 561.53 L 406.06 559.94 L 405.18 557.95 L 404.27 554.88 L 403.56 551.54 L 403.00 547.92 L 402.63 544.33 L 402.50 541.30 L 402.66 538.59 L 403.05 537.25 L 404.07 535.87 L 405.95 533.99 L 408.15 532.23 L 410.68 530.69 L 413.47 529.58 L 415.94 529.16 L 418.29 529.31 L 420.16 529.97 L 421.97 531.19 L 423.39 532.68 L 424.57 534.40 L 425.62 536.36 L 426.22 537.57 L 427.03 538.76 Z" fill="#0c73ff" fill-rule="evenodd" group-id="1,6,34" id="椭圆形备份-20" node-id="90" stroke="#65a4ff" stroke-linecap="butt" stroke-opacity="0.20009288" stroke-width="10" target-height="35.113586" target-width="28.218231" target-x="402.50204" target-y="529.1618"></path><path d="M 587.00 454.73 L 586.82 456.24 L 586.32 457.79 L 585.46 459.39 L 584.58 460.48 L 583.40 461.48 L 581.87 462.38 L 580.37 462.94 L 578.43 463.28 L 576.32 463.28 L 573.64 462.79 L 573.64 462.79 L 572.97 462.61 L 568.68 461.32 L 566.36 460.34 L 564.53 458.99 L 563.52 457.68 L 562.87 456.23 L 562.65 454.64 L 562.88 452.85 L 563.34 451.71 L 564.32 450.06 L 565.57 448.41 L 567.14 446.72 L 569.04 445.13 L 570.81 444.02 L 572.56 443.25 L 573.74 442.98 L 576.76 443.16 L 578.74 443.50 L 580.79 444.01 L 582.97 444.86 L 584.61 445.82 L 585.96 446.95 L 586.71 447.91 L 587.51 449.75 L 587.74 451.38 L 587.54 453.01 L 587.00 454.73 Z" fill="#0c73ff" fill-rule="evenodd" group-id="1,6,35" id="椭圆形备份-28" node-id="91" stroke="#65a4ff" stroke-linecap="butt" stroke-opacity="0.20009288" stroke-width="9.999999" target-height="20.301605" target-width="25.088196" target-x="562.65027" target-y="442.98184"></path><path d="M 513.70 581.96 L 511.66 581.60 L 509.19 580.69 L 506.87 579.29 L 504.84 577.34 L 503.63 575.47 L 502.81 573.26 L 502.57 571.68 L 502.61 569.90 L 502.98 567.88 L 502.98 567.88 L 503.15 567.25 L 504.19 563.83 L 505.14 561.53 L 506.00 560.08 L 507.15 558.84 L 508.37 557.98 L 509.68 557.43 L 510.89 557.15 L 512.32 557.13 L 514.02 557.41 L 515.63 558.04 L 517.86 559.28 L 520.11 560.78 L 522.44 562.52 L 524.64 564.35 L 526.39 566.00 L 527.81 567.63 L 528.34 568.60 L 528.55 569.97 L 528.57 572.13 L 528.32 574.40 L 527.76 576.73 L 526.71 579.12 L 525.44 580.86 L 523.88 582.18 L 522.33 582.91 L 520.55 583.26 L 518.83 583.24 L 517.12 582.94 L 515.34 582.41 L 513.70 581.96 Z" fill="#65a4ff" fill-rule="evenodd" group-id="1,6,36" id="椭圆形备份-15" node-id="92" stroke="#65a4ff" stroke-linecap="butt" stroke-opacity="0.20009288" stroke-width="9.999999" target-height="26.125" target-width="25.996643" target-x="502.57056" target-y="557.1317"></path><path d="M 767.05 440.34 L 769.12 438.83 L 771.07 437.97 L 773.04 437.62 L 774.72 437.76 L 776.41 438.34 L 777.86 439.19 L 779.16 440.29 L 780.42 441.61 L 781.53 442.75 L 783.10 444.05 L 784.74 446.03 L 786.02 448.35 L 786.79 451.00 L 786.90 453.18 L 786.51 455.47 L 785.94 456.92 L 785.03 458.41 L 783.73 459.95 L 781.06 462.49 L 779.07 464.07 L 777.61 464.95 L 775.98 465.50 L 774.48 465.68 L 773.07 465.53 L 771.85 465.18 L 770.58 464.49 L 769.21 463.37 L 768.15 462.05 L 766.88 459.93 L 765.71 457.56 L 764.60 454.96 L 763.64 452.34 L 762.96 450.09 L 762.57 448.03 L 762.60 446.95 L 763.09 445.68 L 764.12 443.85 L 765.44 442.05 L 767.05 440.34 Z" fill="#0c73ff" fill-rule="evenodd" group-id="1,6" id="椭圆形备份-32" node-id="93" stroke="#65a4ff" stroke-linecap="butt" stroke-opacity="0.20009288" stroke-width="10" target-height="28.060974" target-width="24.337158" target-x="762.5656" target-y="437.62103"></path><path d="M 453.44 612.88 L 453.63 614.95 L 453.39 617.57 L 452.64 620.17 L 451.28 622.64 L 449.79 624.29 L 447.85 625.65 L 446.40 626.29 L 444.67 626.71 L 442.62 626.88 L 438.83 626.79 L 436.24 626.50 L 434.54 626.08 L 432.97 625.30 L 431.77 624.36 L 430.87 623.24 L 430.25 622.12 L 429.83 620.71 L 429.65 618.93 L 429.84 617.21 L 430.46 614.74 L 431.32 612.17 L 432.40 609.47 L 433.60 606.87 L 434.74 604.75 L 435.95 602.97 L 436.75 602.20 L 438.02 601.64 L 440.10 601.07 L 442.36 600.72 L 444.76 600.65 L 447.33 601.05 L 449.35 601.83 L 451.02 602.99 L 452.13 604.30 L 452.92 605.94 L 453.35 607.60 L 453.50 609.32 L 453.45 611.18 L 453.44 612.88 Z" fill="#65a4ff" fill-rule="evenodd" group-id="1,6,37" id="椭圆形备份-22" node-id="94" stroke="#65a4ff" stroke-linecap="butt" stroke-opacity="0.20009288" stroke-width="10" target-height="26.22815" target-width="23.980042" target-x="429.64978" target-y="600.65186"></path><path d="M 267.33 686.83 L 267.52 688.90 L 267.28 691.52 L 266.53 694.12 L 265.17 696.59 L 263.68 698.24 L 261.75 699.60 L 260.29 700.24 L 258.56 700.66 L 256.51 700.83 L 252.73 700.74 L 250.13 700.45 L 248.43 700.02 L 246.87 699.25 L 245.66 698.31 L 244.76 697.19 L 244.14 696.07 L 243.72 694.66 L 243.54 692.88 L 243.73 691.16 L 244.35 688.69 L 245.22 686.12 L 246.29 683.42 L 247.49 680.82 L 248.63 678.70 L 249.84 676.92 L 250.64 676.15 L 251.92 675.59 L 253.99 675.02 L 256.25 674.67 L 258.65 674.60 L 261.22 675.00 L 263.24 675.78 L 264.91 676.94 L 266.02 678.25 L 266.82 679.89 L 267.24 681.55 L 267.39 683.27 L 267.34 685.13 L 267.33 686.83 Z" fill="#0c73ff" fill-rule="evenodd" group-id="1,6,38" id="椭圆形备份-29" node-id="95" stroke="#65a4ff" stroke-linecap="butt" stroke-opacity="0.20009288" stroke-width="10" target-height="26.228271" target-width="23.980072" target-x="243.5419" target-y="674.60095"></path><path d="M 313.20 615.81 L 313.40 617.44 L 313.39 619.42 L 313.14 621.47 L 312.60 623.62 L 311.76 625.70 L 310.58 627.65 L 308.80 629.61 L 306.50 631.23 L 304.76 631.98 L 302.70 632.48 L 300.26 632.68 L 294.09 632.48 L 291.65 632.16 L 289.92 631.70 L 288.17 630.83 L 286.82 629.78 L 285.81 628.54 L 285.12 627.27 L 284.65 625.68 L 284.45 623.68 L 284.68 621.51 L 285.44 618.40 L 286.49 615.15 L 287.81 611.73 L 289.29 608.44 L 290.69 605.75 L 292.19 603.49 L 293.20 602.52 L 294.77 601.83 L 297.33 601.14 L 300.12 600.72 L 303.08 600.65 L 306.05 601.09 L 308.40 601.96 L 310.36 603.26 L 311.65 604.77 L 312.60 606.73 L 313.10 608.73 L 313.26 610.81 L 313.18 613.04 L 313.10 614.38 L 313.20 615.81 Z" fill="#0c73ff" fill-opacity="0.5" fill-rule="evenodd" group-id="1,6,39" id="椭圆形备份-30" node-id="96" stroke="#65a4ff" stroke-linecap="butt" stroke-opacity="0.10004644" stroke-width="10" target-height="32.026184" target-width="28.952759" target-x="284.45038" target-y="600.64996"></path><path d="M 635.08 575.24 L 635.24 576.96 L 635.03 579.13 L 634.41 581.29 L 633.28 583.34 L 632.02 584.74 L 630.38 585.90 L 628.45 586.65 L 625.95 586.95 L 621.90 586.76 L 619.68 586.28 L 618.26 585.58 L 617.18 584.72 L 616.37 583.71 L 615.59 582.11 L 615.26 579.84 L 615.41 578.47 L 615.92 576.52 L 617.52 572.37 L 619.43 568.66 L 620.40 567.26 L 621.04 566.66 L 622.07 566.20 L 623.76 565.72 L 625.59 565.42 L 627.54 565.36 L 629.80 565.72 L 631.55 566.44 L 632.99 567.48 L 633.95 568.63 L 634.63 570.00 L 635.00 571.39 L 635.15 572.84 L 635.11 574.40 L 635.08 575.24 Z" fill="#0c73ff" fill-rule="evenodd" group-id="1,6,40" id="椭圆形备份-16" node-id="97" stroke="#65a4ff" stroke-linecap="butt" stroke-opacity="0.20009288" stroke-width="10" target-height="21.589844" target-width="19.97998" target-x="615.2552" target-y="565.35803"></path><path d="M 763.63 562.77 L 763.82 564.84 L 763.58 567.45 L 762.83 570.06 L 761.47 572.53 L 759.98 574.18 L 758.04 575.54 L 756.59 576.18 L 754.86 576.60 L 752.81 576.77 L 749.02 576.68 L 746.43 576.39 L 744.73 575.96 L 743.16 575.19 L 741.96 574.25 L 741.06 573.13 L 740.44 572.01 L 740.02 570.59 L 739.84 568.82 L 740.03 567.09 L 740.65 564.63 L 741.51 562.06 L 742.59 559.36 L 743.79 556.76 L 744.93 554.64 L 746.14 552.85 L 746.94 552.09 L 748.21 551.53 L 750.29 550.95 L 752.55 550.60 L 754.95 550.54 L 757.52 550.93 L 759.54 551.72 L 761.21 552.88 L 762.32 554.19 L 763.12 555.82 L 763.54 557.48 L 763.69 559.21 L 763.64 561.07 L 763.63 562.77 Z" fill="#0c73ff" fill-rule="evenodd" group-id="1,6,41" id="椭圆形备份-23" node-id="98" stroke="#65a4ff" stroke-linecap="butt" stroke-opacity="0.20009288" stroke-width="10" target-height="26.22821" target-width="23.980103" target-x="739.8401" target-y="550.53784"></path><path d="M 638.15 469.48 L 636.20 470.20 L 633.61 470.64 L 630.90 470.59 L 628.16 469.91 L 626.18 468.90 L 624.37 467.39 L 623.37 466.14 L 622.52 464.58 L 621.83 462.64 L 621.83 462.64 L 621.66 462.02 L 620.84 458.53 L 620.52 456.07 L 620.54 454.39 L 620.92 452.74 L 621.54 451.38 L 622.40 450.24 L 623.31 449.40 L 624.54 448.67 L 626.15 448.06 L 627.86 447.80 L 630.41 447.76 L 633.11 447.93 L 636.00 448.27 L 638.82 448.76 L 641.16 449.31 L 643.20 450.01 L 644.15 450.59 L 645.02 451.68 L 646.11 453.53 L 647.03 455.62 L 647.72 457.92 L 648.00 460.51 L 647.76 462.66 L 647.08 464.58 L 646.10 465.99 L 644.73 467.18 L 643.23 468.02 L 641.60 468.62 L 639.80 469.05 L 638.15 469.48 Z" fill="#0c73ff" fill-rule="evenodd" group-id="1,6,42" id="椭圆形备份-18" node-id="99" stroke="#65a4ff" stroke-linecap="butt" stroke-opacity="0.20009288" stroke-width="9.999999" target-height="22.878082" target-width="27.479431" target-x="620.52014" target-y="447.7598"></path><path d="M 399.54 480.24 L 399.73 482.30 L 399.49 484.92 L 398.74 487.52 L 397.38 489.99 L 395.88 491.65 L 393.95 493.01 L 392.50 493.65 L 390.77 494.06 L 388.71 494.23 L 388.71 494.23 L 388.07 494.23 L 384.49 494.12 L 382.03 493.79 L 380.41 493.34 L 378.91 492.55 L 377.76 491.59 L 376.89 490.47 L 376.31 489.37 L 375.92 488.00 L 375.75 486.28 L 375.94 484.56 L 376.56 482.09 L 377.42 479.52 L 378.50 476.83 L 379.70 474.23 L 380.84 472.11 L 382.05 470.32 L 382.85 469.56 L 384.12 469.00 L 386.20 468.42 L 388.46 468.07 L 390.86 468.00 L 393.43 468.40 L 395.44 469.18 L 397.12 470.34 L 398.22 471.65 L 399.02 473.29 L 399.45 474.95 L 399.60 476.68 L 399.55 478.53 L 399.54 480.24 Z" fill="#0c73ff" fill-rule="evenodd" filter="url(#filter-3)" group-id="1,6,43" id="椭圆形备份-4" node-id="100" stroke="#65a4ff" stroke-linecap="butt" stroke-opacity="0.20009288" stroke-width="10" target-height="26.228241" target-width="23.980072" target-x="375.74945" target-y="468.0039"></path><path d="M 739.54 661.24 L 739.73 663.30 L 739.49 665.92 L 738.74 668.52 L 737.38 670.99 L 735.88 672.65 L 733.95 674.01 L 732.50 674.65 L 730.77 675.06 L 728.71 675.23 L 728.71 675.23 L 728.07 675.23 L 724.49 675.12 L 722.03 674.79 L 720.41 674.34 L 718.91 673.55 L 717.76 672.59 L 716.89 671.47 L 716.31 670.37 L 715.92 669.00 L 715.75 667.28 L 715.94 665.56 L 716.56 663.09 L 717.42 660.52 L 718.50 657.83 L 719.70 655.23 L 720.84 653.11 L 722.05 651.32 L 722.85 650.56 L 724.12 650.00 L 726.20 649.42 L 728.46 649.07 L 730.86 649.00 L 733.43 649.40 L 735.44 650.18 L 737.12 651.34 L 738.22 652.65 L 739.02 654.29 L 739.45 655.95 L 739.60 657.68 L 739.55 659.53 L 739.54 661.24 Z" fill="#0c73ff" fill-rule="evenodd" filter="url(#filter-4)" group-id="1,6,44" id="椭圆形备份-8" node-id="101" stroke="#65a4ff" stroke-linecap="butt" stroke-opacity="0.20009288" stroke-width="10" target-height="26.22821" target-width="23.980042" target-x="715.74945" target-y="649.0039"></path><path d="M 539.95 608.72 L 541.82 609.51 L 543.96 610.76 L 546.01 612.30 L 548.00 614.23 L 549.71 616.43 L 551.08 618.92 L 551.82 620.94 L 552.25 623.10 L 552.36 625.43 L 552.10 627.74 L 551.36 630.22 L 550.07 632.92 L 550.07 632.92 L 549.65 633.65 L 547.44 637.35 L 545.58 640.17 L 543.69 642.60 L 542.07 644.16 L 540.24 645.35 L 538.44 646.04 L 536.64 646.31 L 535.00 646.24 L 533.17 645.78 L 531.10 644.83 L 529.32 643.58 L 527.00 641.52 L 524.69 639.15 L 522.22 636.37 L 517.67 630.55 L 515.71 627.65 L 514.28 625.23 L 513.23 622.94 L 512.94 621.58 L 513.05 620.21 L 513.45 618.27 L 514.05 616.24 L 514.91 613.97 L 515.96 611.73 L 517.19 609.59 L 518.64 607.62 L 520.13 606.06 L 521.65 604.84 L 523.33 603.88 L 524.92 603.31 L 526.46 603.09 L 529.14 603.30 L 531.57 604.03 L 533.89 605.17 L 536.21 606.62 L 537.96 607.77 L 539.95 608.72 Z" fill="#0c73ff" fill-rule="evenodd" filter="url(#filter-5)" group-id="1,6,45" id="椭圆形备份-5" node-id="102" stroke="#65a4ff" stroke-linecap="butt" stroke-opacity="0.20009288" stroke-width="10" target-height="43.219055" target-width="39.42572" target-x="512.93805" target-y="603.0894"></path><path d="M 469.95 516.93 L 471.82 517.72 L 473.96 518.97 L 476.01 520.52 L 478.00 522.44 L 479.71 524.64 L 481.08 527.13 L 481.82 529.16 L 482.25 531.32 L 482.36 533.65 L 482.10 535.95 L 481.36 538.43 L 480.07 541.14 L 480.07 541.14 L 479.65 541.87 L 477.44 545.57 L 475.58 548.39 L 473.69 550.81 L 472.07 552.38 L 470.24 553.56 L 468.44 554.26 L 466.64 554.52 L 465.00 554.46 L 463.17 553.99 L 461.10 553.04 L 459.32 551.79 L 457.00 549.73 L 454.69 547.37 L 452.22 544.58 L 447.67 538.76 L 445.71 535.87 L 444.28 533.44 L 443.23 531.15 L 442.94 529.79 L 443.05 528.42 L 443.45 526.48 L 444.05 524.45 L 444.91 522.18 L 445.96 519.95 L 447.19 517.81 L 448.64 515.84 L 450.13 514.27 L 451.65 513.06 L 453.33 512.10 L 454.92 511.53 L 456.46 511.30 L 459.14 511.51 L 461.57 512.24 L 463.89 513.38 L 466.21 514.84 L 467.96 515.99 L 469.95 516.93 Z" fill="#0c73ff" fill-opacity="0.7" fill-rule="evenodd" filter="url(#filter-6)" group-id="1,6,46" id="椭圆形备份-9" node-id="103" stroke="#65a4ff" stroke-linecap="butt" stroke-opacity="0.14006501" stroke-width="10" target-height="43.219055" target-width="39.42569" target-x="442.93808" target-y="511.30383"></path><path d="M 674.92 534.06 L 676.80 534.86 L 678.94 536.10 L 680.99 537.65 L 682.97 539.57 L 684.69 541.77 L 686.06 544.26 L 686.79 546.29 L 687.23 548.45 L 687.34 550.78 L 687.08 553.08 L 686.34 555.56 L 685.05 558.27 L 685.05 558.27 L 684.63 559.00 L 682.42 562.70 L 680.56 565.52 L 678.66 567.94 L 677.04 569.51 L 675.21 570.69 L 673.42 571.39 L 671.61 571.65 L 669.98 571.59 L 668.15 571.12 L 666.08 570.17 L 664.30 568.92 L 661.98 566.87 L 659.67 564.50 L 657.20 561.71 L 652.65 555.89 L 650.69 553.00 L 649.25 550.57 L 648.20 548.28 L 647.91 546.93 L 648.03 545.55 L 648.43 543.62 L 649.03 541.58 L 649.89 539.31 L 650.93 537.08 L 652.17 534.94 L 653.62 532.97 L 655.11 531.40 L 656.63 530.19 L 658.31 529.23 L 659.90 528.66 L 661.43 528.44 L 664.12 528.64 L 666.55 529.38 L 668.86 530.51 L 671.19 531.97 L 672.94 533.12 L 674.92 534.06 Z" fill="#0c73ff" fill-opacity="0.2" fill-rule="evenodd" filter="url(#filter-7)" group-id="1,6,47" id="椭圆形备份-26" node-id="104" stroke="#65a4ff" stroke-linecap="butt" stroke-opacity="0.040018577" stroke-width="10" target-height="43.219055" target-width="39.42572" target-x="647.91473" target-y="528.43524"></path><path d="M 638.69 374.36 L 640.89 374.21 L 642.80 374.47 L 644.49 375.11 L 645.89 375.97 L 647.25 377.28 L 648.58 379.14 L 649.48 381.06 L 650.42 383.91 L 651.22 387.03 L 651.94 390.57 L 652.93 397.67 L 653.17 401.05 L 653.19 403.79 L 652.96 406.22 L 652.55 407.51 L 651.78 408.61 L 650.51 410.05 L 649.01 411.47 L 647.19 412.96 L 645.22 414.34 L 643.14 415.54 L 640.94 416.50 L 638.91 417.10 L 637.03 417.38 L 635.13 417.36 L 633.51 417.06 L 632.10 416.50 L 629.93 415.02 L 628.23 413.22 L 626.83 411.13 L 625.58 408.77 L 624.68 406.98 L 623.49 405.25 L 622.29 403.67 L 621.10 401.58 L 620.12 399.27 L 619.38 396.68 L 619.01 393.99 L 619.07 391.22 L 619.43 389.15 L 620.12 387.11 L 621.16 385.09 L 622.51 383.27 L 624.34 381.53 L 626.75 379.87 L 633.63 376.16 L 636.51 374.95 L 638.69 374.36 Z" fill="#0c73ff" fill-opacity="0.2" fill-rule="evenodd" filter="url(#filter-8)" group-id="1,6,48" id="椭圆形备份-33" node-id="105" stroke="#65a4ff" stroke-linecap="butt" stroke-opacity="0.040018577" stroke-width="10" target-height="43.168915" target-width="34.189453" target-x="619.0054" target-y="374.20663"></path><path d="M 714.06 585.03 L 715.93 585.83 L 718.07 587.07 L 720.12 588.62 L 722.11 590.54 L 723.82 592.74 L 725.19 595.23 L 725.93 597.26 L 726.36 599.42 L 726.47 601.75 L 726.21 604.05 L 725.47 606.53 L 724.18 609.24 L 724.18 609.24 L 723.55 610.33 L 721.39 613.94 L 719.56 616.68 L 717.68 619.03 L 716.08 620.55 L 714.26 621.71 L 712.48 622.38 L 710.68 622.63 L 709.06 622.55 L 707.26 622.08 L 705.21 621.14 L 703.43 619.89 L 701.11 617.84 L 698.80 615.47 L 696.33 612.68 L 691.78 606.86 L 689.82 603.97 L 688.38 601.54 L 687.34 599.25 L 687.05 597.90 L 687.16 596.52 L 687.56 594.59 L 688.16 592.55 L 689.02 590.28 L 690.06 588.05 L 691.30 585.91 L 692.75 583.94 L 694.24 582.37 L 695.76 581.16 L 697.44 580.20 L 699.03 579.63 L 700.56 579.41 L 703.25 579.61 L 705.68 580.35 L 707.99 581.48 L 710.32 582.94 L 712.07 584.09 L 714.06 585.03 Z" fill="#0c73ff" fill-opacity="0.6" fill-rule="evenodd" filter="url(#filter-9)" group-id="1,6,49" id="椭圆形备份-27" node-id="106" stroke="#65a4ff" stroke-linecap="butt" stroke-opacity="0.120055735" stroke-width="10" target-height="43.221924" target-width="39.425537" target-x="687.0471" target-y="579.40533"></path><path d="M 487.88 562.42 L 488.66 564.54 L 489.14 567.35 L 489.18 569.31 L 488.92 571.27 L 488.36 573.26 L 487.27 575.39 L 485.63 577.34 L 484.30 578.41 L 482.62 579.32 L 480.53 580.07 L 476.45 581.07 L 473.57 581.51 L 471.63 581.55 L 469.83 581.19 L 468.36 580.57 L 467.15 579.68 L 466.21 578.71 L 465.41 577.39 L 464.74 575.64 L 464.45 573.75 L 464.39 570.94 L 464.57 567.95 L 464.93 564.76 L 465.45 561.65 L 466.05 559.06 L 466.81 556.80 L 467.45 555.76 L 468.63 554.81 L 470.67 553.62 L 472.96 552.62 L 475.47 551.87 L 478.22 551.56 L 480.50 551.80 L 482.55 552.51 L 484.05 553.54 L 485.34 555.03 L 486.24 556.65 L 486.87 558.41 L 487.33 560.36 L 487.88 562.42 Z" fill="#0c73ff" fill-opacity="0.5" fill-rule="evenodd" filter="url(#filter-10)" group-id="1,6,50" id="椭圆形备份-19" node-id="107" stroke="#65a4ff" stroke-linecap="butt" stroke-opacity="0.10004644" stroke-width="9.999999" target-height="29.985535" target-width="24.787384" target-x="464.3937" target-y="551.5628"></path><path d="M 362.85 609.26 L 364.73 608.49 L 367.12 607.86 L 369.67 607.51 L 372.43 607.46 L 375.20 607.81 L 377.93 608.60 L 379.88 609.51 L 381.72 610.73 L 383.44 612.30 L 384.89 614.12 L 386.12 616.39 L 387.12 619.22 L 387.12 619.22 L 387.45 620.43 L 388.47 624.51 L 389.11 627.75 L 389.45 630.74 L 389.39 632.95 L 388.92 635.04 L 388.13 636.79 L 387.04 638.23 L 385.84 639.32 L 384.23 640.27 L 382.13 641.05 L 379.98 641.42 L 376.89 641.61 L 373.58 641.57 L 369.86 641.35 L 362.53 640.44 L 359.10 639.79 L 356.37 639.09 L 354.01 638.21 L 352.84 637.45 L 351.95 636.40 L 350.86 634.75 L 349.85 632.89 L 348.85 630.68 L 348.01 628.36 L 347.37 625.97 L 347.01 623.55 L 346.95 621.39 L 347.17 619.46 L 347.68 617.59 L 348.40 616.06 L 349.33 614.82 L 351.37 613.07 L 353.61 611.87 L 356.05 611.03 L 358.72 610.42 L 360.77 609.99 L 362.85 609.26 Z" fill="#0c73ff" fill-rule="evenodd" filter="url(#filter-11)" group-id="1,6,51" id="椭圆形备份-6" node-id="108" stroke="#65a4ff" stroke-linecap="butt" stroke-opacity="0.20009288" stroke-width="9.999999" target-height="34.143982" target-width="42.503082" target-x="346.94977" target-y="607.4642"></path><path d="M 674.15 482.44 L 676.26 481.66 L 679.07 481.18 L 681.03 481.14 L 683.00 481.40 L 684.98 481.97 L 687.12 483.06 L 689.07 484.69 L 690.14 486.03 L 691.05 487.71 L 691.80 489.79 L 691.80 489.79 L 691.97 490.45 L 692.89 494.33 L 693.26 497.07 L 693.25 498.94 L 692.86 500.67 L 692.21 502.10 L 691.31 503.28 L 690.35 504.17 L 689.06 504.94 L 687.36 505.58 L 685.47 505.87 L 682.67 505.93 L 679.68 505.76 L 676.49 505.39 L 673.37 504.87 L 670.78 504.28 L 668.53 503.51 L 667.48 502.87 L 666.54 501.69 L 665.35 499.66 L 664.34 497.37 L 663.60 494.85 L 663.29 492.11 L 663.52 489.82 L 664.24 487.78 L 665.27 486.28 L 666.76 484.99 L 668.37 484.09 L 670.14 483.45 L 672.09 482.99 L 674.15 482.44 Z" fill="#0c73ff" fill-opacity="0.5" fill-rule="evenodd" filter="url(#filter-12)" group-id="1,6,52" id="椭圆形备份-7" node-id="109" stroke="#65a4ff" stroke-linecap="butt" stroke-opacity="0.10004644" stroke-width="9.999999" target-height="24.787354" target-width="29.973267" target-x="663.2901" target-y="481.1419"></path><path d="M 269.45 528.18 L 271.56 527.40 L 274.37 526.92 L 276.33 526.88 L 278.29 527.14 L 280.28 527.71 L 282.41 528.80 L 284.36 530.43 L 285.43 531.77 L 286.35 533.45 L 287.09 535.53 L 287.09 535.53 L 287.27 536.19 L 288.19 540.07 L 288.56 542.81 L 288.55 544.68 L 288.16 546.41 L 287.51 547.84 L 286.61 549.02 L 285.65 549.91 L 284.36 550.68 L 282.66 551.32 L 280.77 551.61 L 277.96 551.67 L 274.97 551.50 L 271.79 551.13 L 268.67 550.61 L 266.08 550.02 L 263.83 549.25 L 262.78 548.61 L 261.83 547.43 L 260.64 545.40 L 259.64 543.11 L 258.89 540.59 L 258.59 537.85 L 258.82 535.56 L 259.53 533.52 L 260.57 532.01 L 262.05 530.73 L 263.67 529.82 L 265.43 529.19 L 267.39 528.73 L 269.45 528.18 Z" fill="#0c73ff" fill-opacity="0.3" fill-rule="evenodd" filter="url(#filter-13)" group-id="1,6,53" id="椭圆形备份-17" node-id="110" stroke="#65a4ff" stroke-linecap="butt" stroke-opacity="0.060027868" stroke-width="9.999999" target-height="24.787415" target-width="29.973328" target-x="258.58673" target-y="526.881"></path><path d="M 367.44 398.70 L 369.11 398.02 L 371.24 397.47 L 373.50 397.15 L 375.95 397.11 L 378.40 397.41 L 380.82 398.12 L 382.57 398.93 L 384.22 400.03 L 385.77 401.43 L 387.06 403.05 L 388.16 405.09 L 389.07 407.62 L 389.07 407.62 L 389.37 408.76 L 390.55 413.68 L 391.02 417.17 L 391.00 419.57 L 390.56 421.50 L 389.82 423.11 L 388.80 424.45 L 387.70 425.45 L 386.23 426.32 L 384.29 427.03 L 382.42 427.36 L 379.72 427.51 L 376.83 427.47 L 373.60 427.26 L 367.21 426.44 L 364.22 425.85 L 361.84 425.23 L 359.79 424.46 L 358.77 423.79 L 357.99 422.87 L 357.03 421.42 L 356.13 419.78 L 355.25 417.84 L 354.50 415.80 L 353.94 413.70 L 353.55 410.48 L 353.78 407.78 L 354.26 406.08 L 354.93 404.70 L 355.78 403.58 L 357.60 402.01 L 359.59 400.93 L 361.76 400.17 L 364.14 399.62 L 365.78 399.29 L 367.44 398.70 Z" fill="#0c73ff" fill-opacity="0.2" fill-rule="evenodd" filter="url(#filter-14)" group-id="1,6,54" id="椭圆形备份-21" node-id="111" stroke="#65a4ff" stroke-linecap="butt" stroke-opacity="0.040018577" stroke-width="9.999999" target-height="30.4021" target-width="37.468018" target-x="353.5548" target-y="397.1116"></path></g><g node-id="195"><path d="M 131.43 235.29 L 131.21 237.70 L 130.61 239.91 L 129.63 241.95 L 128.32 243.80 L 126.75 245.37 L 124.90 246.68 L 122.86 247.65 L 120.66 248.25 L 118.25 248.48 L 115.84 248.25 L 113.64 247.65 L 111.60 246.68 L 109.75 245.37 L 108.18 243.80 L 106.87 241.95 L 105.89 239.91 L 105.29 237.70 L 105.07 235.29 L 105.29 232.89 L 105.89 230.68 L 106.87 228.64 L 108.18 226.79 L 109.75 225.22 L 111.60 223.91 L 113.64 222.94 L 115.84 222.33 L 118.25 222.11 L 120.66 222.33 L 122.86 222.94 L 124.90 223.91 L 126.75 225.22 L 128.32 226.79 L 129.63 228.64 L 130.61 230.68 L 131.21 232.89 L 131.43 235.29 Z" fill="#3fa5ff" fill-opacity="0.5" fill-rule="evenodd" group-id="1,7" id="椭圆形" node-id="112" stroke="none" target-height="26.367188" target-width="26.367188" target-x="105.06641" target-y="222.11078"></path></g><g node-id="196"><path d="M 175.38 235.29 L 175.15 237.70 L 174.55 239.91 L 173.58 241.95 L 172.27 243.80 L 170.70 245.37 L 168.85 246.68 L 166.81 247.65 L 164.60 248.25 L 162.20 248.48 L 159.79 248.25 L 157.58 247.65 L 155.54 246.68 L 153.69 245.37 L 152.12 243.80 L 150.81 241.95 L 149.84 239.91 L 149.24 237.70 L 149.01 235.29 L 149.24 232.89 L 149.84 230.68 L 150.81 228.64 L 152.12 226.79 L 153.69 225.22 L 155.54 223.91 L 157.58 222.94 L 159.79 222.33 L 162.20 222.11 L 164.60 222.33 L 166.81 222.94 L 168.85 223.91 L 170.70 225.22 L 172.27 226.79 L 173.58 228.64 L 174.55 230.68 L 175.15 232.89 L 175.38 235.29 Z" fill="#3fa5ff" fill-opacity="0.5" fill-rule="evenodd" group-id="1,8" id="椭圆形备份" node-id="113" stroke="none" target-height="26.367188" target-width="26.367188" target-x="149.01172" target-y="222.11078"></path></g><path d="M 219.32 235.29 L 219.10 237.70 L 218.50 239.91 L 217.52 241.95 L 216.21 243.80 L 214.64 245.37 L 212.79 246.68 L 210.75 247.65 L 208.55 248.25 L 206.14 248.48 L 203.73 248.25 L 201.53 247.65 L 199.49 246.68 L 197.64 245.37 L 196.07 243.80 L 194.76 241.95 L 193.78 239.91 L 193.18 237.70 L 192.96 235.29 L 193.18 232.89 L 193.78 230.68 L 194.76 228.64 L 196.07 226.79 L 197.64 225.22 L 199.49 223.91 L 201.53 222.94 L 203.73 222.33 L 206.14 222.11 L 208.55 222.33 L 210.75 222.94 L 212.79 223.91 L 214.64 225.22 L 216.21 226.79 L 217.52 228.64 L 218.50 230.68 L 219.10 232.89 L 219.32 235.29 Z" fill="#3fa5ff" fill-opacity="0.5" fill-rule="evenodd" group-id="1,9" id="椭圆形备份-2" node-id="114" stroke="none" target-height="26.367188" target-width="26.367188" target-x="192.95703" target-y="222.11078"></path></g></svg>