<?xml version="1.0" standalone="no"?><!DOCTYPE svg PUBLIC "-//W3C//DTD SVG 1.1//EN" "http://www.w3.org/Graphics/SVG/1.1/DTD/svg11.dtd"><svg height="1024" node-id="1" sillyvg="true" template-height="1024" template-width="1024" version="1.1" viewBox="0 0 1024 1024" width="1024" xmlns="http://www.w3.org/2000/svg" xmlns:xlink="http://www.w3.org/1999/xlink"><defs node-id="25"><linearGradient gradientUnits="objectBoundingBox" id="linearGradient-3" node-id="10" spreadMethod="pad" x1="0.5" x2="0.5" y1="0" y2="1"><stop offset="0" stop-color="#1cabff"></stop><stop offset="1" stop-color="#0c73ff"></stop></linearGradient><filter height="1.121" id="filter-2" node-id="6" width="1.087" x="-0.043" y="-0.061"><feOffset color-interpolation-filters="linearRGB" dx="0" dy="0" in="SourceAlpha" result="shadowOffsetOuter1"></feOffset><feGaussianBlur color-interpolation-filters="linearRGB" in="shadowOffsetOuter1" result="shadowBlurOuter1" stdDeviation="13 13"></feGaussianBlur><feColorMatrix color-interpolation-filters="linearRGB" in="shadowBlurOuter1" result="result3" type="matrix" values="0 0 0 0 0 0 0 0 0 0 0 0 0 0 0 0 0 0 0.0841892483 0"></feColorMatrix></filter></defs><path d="M 0.00 0.00 L 1024.00 0.00 L 1024.00 1024.00 L 0.00 1024.00 Z" fill="#171a1d" fill-rule="evenodd" node-id="43" stroke="none" target-height="1024" target-width="1024" target-x="0" target-y="0"></path><g node-id="56"><g node-id="57"><g node-id="62"><path d="M 67.27 190.00 L 956.73 190.00 L 958.16 190.20 L 959.39 190.72 L 960.46 191.54 L 961.28 192.61 L 961.80 193.84 L 962.00 195.27 L 962.00 828.09 L 961.80 829.52 L 961.28 830.75 L 960.46 831.81 L 959.39 832.64 L 958.16 833.16 L 956.73 833.36 L 67.27 833.36 L 65.84 833.16 L 64.61 832.64 L 63.54 831.81 L 62.72 830.75 L 62.20 829.52 L 62.00 828.09 L 62.00 195.27 L 62.20 193.84 L 62.72 192.61 L 63.54 191.54 L 64.61 190.72 L 65.84 190.20 L 67.27 190.00 Z" fill="#000000" fill-opacity="0.05008176" fill-rule="evenodd" filter="url(#filter-2)" group-id="1,2,7" node-id="49" stroke="none" target-height="643.3594" target-width="900" target-x="62" target-y="190"></path></g><path d="M 67.27 190.00 L 956.73 190.00 L 958.16 190.20 L 959.39 190.72 L 960.46 191.54 L 961.28 192.61 L 961.80 193.84 L 962.00 195.27 L 962.00 828.09 L 961.80 829.52 L 961.28 830.75 L 960.46 831.81 L 959.39 832.64 L 958.16 833.16 L 956.73 833.36 L 67.27 833.36 L 65.84 833.16 L 64.61 832.64 L 63.54 831.81 L 62.72 830.75 L 62.20 829.52 L 62.00 828.09 L 62.00 195.27 L 62.20 193.84 L 62.72 192.61 L 63.54 191.54 L 64.61 190.72 L 65.84 190.20 L 67.27 190.00 Z" fill="#3fa5ff" fill-opacity="0.05008176" fill-rule="evenodd" group-id="1,2,8" node-id="54" stroke="none" target-height="643.3594" target-width="900" target-x="62" target-y="190"></path></g><g node-id="58"><path d="M 602.00 382.15 L 422.00 382.15 L 422.00 382.15 L 417.02 382.36 L 412.21 382.94 L 407.55 383.89 L 403.04 385.21 L 398.62 386.88 L 394.41 388.86 L 390.39 391.14 L 386.56 393.72 L 381.79 397.62 L 377.47 401.94 L 373.58 406.71 L 370.99 410.54 L 368.71 414.56 L 366.73 418.76 L 365.06 423.18 L 363.75 427.70 L 362.80 432.36 L 362.21 437.17 L 362.00 442.15 L 362.00 622.15 L 362.00 622.15 L 362.21 627.13 L 362.80 631.94 L 363.75 636.60 L 365.06 641.11 L 366.73 645.53 L 368.71 649.74 L 370.99 653.75 L 373.58 657.58 L 377.47 662.36 L 381.79 666.68 L 386.56 670.57 L 390.39 673.16 L 394.41 675.44 L 398.62 677.42 L 403.04 679.09 L 407.55 680.40 L 412.21 681.35 L 417.02 681.94 L 422.00 682.15 L 602.00 682.15 L 602.00 682.15 L 606.98 681.94 L 611.79 681.35 L 616.45 680.40 L 620.96 679.09 L 625.38 677.42 L 629.59 675.44 L 633.61 673.16 L 637.44 670.57 L 642.21 666.68 L 646.53 662.36 L 650.42 657.58 L 653.01 653.75 L 655.29 649.74 L 657.27 645.53 L 658.94 641.11 L 660.26 636.60 L 661.21 631.94 L 661.79 627.13 L 662.00 622.15 L 662.00 442.15 L 662.00 442.15 L 661.79 437.17 L 661.21 432.36 L 660.26 427.70 L 658.94 423.18 L 657.27 418.76 L 655.29 414.56 L 653.01 410.54 L 650.42 406.71 L 646.53 401.94 L 642.21 397.62 L 637.44 393.72 L 633.61 391.14 L 629.59 388.86 L 625.38 386.88 L 620.96 385.21 L 616.45 383.89 L 611.79 382.94 L 606.98 382.36 L 602.00 382.15 L 602.00 382.15 Z M 566.60 457.15 L 566.60 457.15 L 569.56 457.45 L 572.32 458.09 L 574.91 459.06 L 577.34 460.38 L 580.29 462.59 L 582.77 465.22 L 584.82 468.29 L 585.99 470.79 L 586.82 473.42 L 587.31 476.22 L 587.44 479.19 L 587.14 482.15 L 586.50 484.91 L 585.53 487.50 L 584.21 489.93 L 582.00 492.88 L 579.37 495.36 L 576.30 497.41 L 573.80 498.58 L 571.17 499.41 L 568.37 499.90 L 565.40 500.03 L 561.57 499.57 L 558.07 498.53 L 554.84 496.91 L 551.92 494.77 L 549.44 492.22 L 547.38 489.24 L 545.85 485.97 L 544.90 482.44 L 544.55 478.60 L 544.55 478.60 L 544.81 475.59 L 545.42 472.78 L 546.37 470.15 L 547.67 467.66 L 549.87 464.64 L 552.50 462.09 L 555.58 459.97 L 558.10 458.74 L 560.76 457.86 L 563.58 457.33 L 566.60 457.15 L 566.60 457.15 L 566.60 457.15 Z M 615.95 608.65 L 615.95 608.65 L 614.43 611.76 L 612.47 614.47 L 610.07 616.83 L 607.32 618.75 L 604.29 620.17 L 600.95 621.10 L 600.95 621.10 L 600.95 622.15 L 431.15 622.15 L 431.15 621.25 L 431.15 621.25 L 427.72 620.83 L 424.40 619.95 L 421.23 618.64 L 418.25 616.90 L 418.25 616.90 L 415.50 614.81 L 413.12 612.45 L 411.08 609.82 L 409.39 606.95 L 408.09 603.93 L 407.18 600.72 L 406.68 597.43 L 406.62 594.08 L 407.00 590.65 L 407.00 590.65 L 408.75 583.12 L 410.98 575.80 L 413.69 568.68 L 416.89 561.72 L 420.55 555.00 L 424.63 548.57 L 429.17 542.40 L 434.15 536.50 L 437.59 533.76 L 440.99 531.55 L 444.35 529.82 L 447.68 528.55 L 452.35 527.39 L 456.99 526.88 L 461.63 527.01 L 466.25 527.68 L 470.85 528.84 L 475.45 530.50 L 479.91 532.55 L 484.28 534.94 L 488.57 537.67 L 494.71 542.22 L 500.45 547.15 L 503.18 549.78 L 506.26 553.00 L 512.75 560.20 L 512.75 560.20 L 512.75 561.40 L 539.15 596.95 L 539.15 596.95 L 540.38 598.28 L 541.82 599.28 L 543.50 599.95 L 543.50 600.70 L 543.50 600.70 L 545.54 601.09 L 547.57 600.98 L 549.51 600.40 L 551.30 599.35 L 551.30 599.35 L 552.99 597.68 L 554.12 595.73 L 554.72 593.57 L 554.77 591.32 L 554.24 589.13 L 553.10 587.05 L 527.00 550.75 L 527.00 550.75 L 525.68 549.37 L 524.15 548.38 L 522.35 547.75 L 522.35 547.75 L 528.07 546.38 L 533.78 545.44 L 539.50 544.92 L 545.25 544.81 L 551.00 545.12 L 556.67 545.82 L 562.27 546.93 L 567.82 548.44 L 573.24 550.34 L 578.52 552.63 L 583.65 555.31 L 588.65 558.40 L 588.65 558.40 L 593.03 561.74 L 597.12 565.35 L 600.94 569.22 L 604.48 573.36 L 607.72 577.75 L 610.63 582.33 L 613.23 587.13 L 615.50 592.15 L 615.50 592.15 L 616.60 594.82 L 617.28 597.54 L 617.56 600.35 L 617.43 603.17 L 616.90 605.92 L 615.95 608.65 L 615.95 608.65 Z" fill="url(#linearGradient-3)" fill-rule="evenodd" group-id="1,3" id="形状" node-id="20" stroke="none" target-height="300.00037" target-width="300.00037" target-x="362" target-y="382.14844"></path></g><g node-id="59"><path d="M 131.43 235.29 L 131.21 237.70 L 130.61 239.91 L 129.63 241.95 L 128.32 243.80 L 126.75 245.37 L 124.90 246.68 L 122.86 247.65 L 120.66 248.25 L 118.25 248.48 L 115.84 248.25 L 113.64 247.65 L 111.60 246.68 L 109.75 245.37 L 108.18 243.80 L 106.87 241.95 L 105.89 239.91 L 105.29 237.70 L 105.07 235.29 L 105.29 232.89 L 105.89 230.68 L 106.87 228.64 L 108.18 226.79 L 109.75 225.22 L 111.60 223.91 L 113.64 222.94 L 115.84 222.33 L 118.25 222.11 L 120.66 222.33 L 122.86 222.94 L 124.90 223.91 L 126.75 225.22 L 128.32 226.79 L 129.63 228.64 L 130.61 230.68 L 131.21 232.89 L 131.43 235.29 Z" fill="#3fa5ff" fill-opacity="0.5" fill-rule="evenodd" group-id="1,4" id="椭圆形" node-id="21" stroke="none" target-height="26.367188" target-width="26.367188" target-x="105.06641" target-y="222.11078"></path></g><g node-id="60"><path d="M 175.38 235.29 L 175.15 237.70 L 174.55 239.91 L 173.58 241.95 L 172.27 243.80 L 170.70 245.37 L 168.85 246.68 L 166.81 247.65 L 164.60 248.25 L 162.20 248.48 L 159.79 248.25 L 157.58 247.65 L 155.54 246.68 L 153.69 245.37 L 152.12 243.80 L 150.81 241.95 L 149.84 239.91 L 149.24 237.70 L 149.01 235.29 L 149.24 232.89 L 149.84 230.68 L 150.81 228.64 L 152.12 226.79 L 153.69 225.22 L 155.54 223.91 L 157.58 222.94 L 159.79 222.33 L 162.20 222.11 L 164.60 222.33 L 166.81 222.94 L 168.85 223.91 L 170.70 225.22 L 172.27 226.79 L 173.58 228.64 L 174.55 230.68 L 175.15 232.89 L 175.38 235.29 Z" fill="#3fa5ff" fill-opacity="0.5" fill-rule="evenodd" group-id="1,5" id="椭圆形备份" node-id="22" stroke="none" target-height="26.367188" target-width="26.367188" target-x="149.01172" target-y="222.11078"></path></g><path d="M 219.32 235.29 L 219.10 237.70 L 218.50 239.91 L 217.52 241.95 L 216.21 243.80 L 214.64 245.37 L 212.79 246.68 L 210.75 247.65 L 208.55 248.25 L 206.14 248.48 L 203.73 248.25 L 201.53 247.65 L 199.49 246.68 L 197.64 245.37 L 196.07 243.80 L 194.76 241.95 L 193.78 239.91 L 193.18 237.70 L 192.96 235.29 L 193.18 232.89 L 193.78 230.68 L 194.76 228.64 L 196.07 226.79 L 197.64 225.22 L 199.49 223.91 L 201.53 222.94 L 203.73 222.33 L 206.14 222.11 L 208.55 222.33 L 210.75 222.94 L 212.79 223.91 L 214.64 225.22 L 216.21 226.79 L 217.52 228.64 L 218.50 230.68 L 219.10 232.89 L 219.32 235.29 Z" fill="#3fa5ff" fill-opacity="0.5" fill-rule="evenodd" group-id="1,6" id="椭圆形备份-2" node-id="23" stroke="none" target-height="26.367188" target-width="26.367188" target-x="192.95703" target-y="222.11078"></path></g></svg>