<?xml version="1.0" standalone="no"?><!DOCTYPE svg PUBLIC "-//W3C//DTD SVG 1.1//EN" "http://www.w3.org/Graphics/SVG/1.1/DTD/svg11.dtd"><svg height="1024" node-id="1" sillyvg="true" template-height="1024" template-width="1024" version="1.1" viewBox="0 0 1024 1024" width="1024" xmlns="http://www.w3.org/2000/svg" xmlns:xlink="http://www.w3.org/1999/xlink"><defs node-id="62"><filter height="1.121" id="filter-2" node-id="6" width="1.087" x="-0.043" y="-0.061"><feOffset color-interpolation-filters="linearRGB" dx="0" dy="0" in="SourceAlpha" result="shadowOffsetOuter1"></feOffset><feGaussianBlur color-interpolation-filters="linearRGB" in="shadowOffsetOuter1" result="shadowBlurOuter1" stdDeviation="13 13"></feGaussianBlur><feColorMatrix color-interpolation-filters="linearRGB" in="shadowBlurOuter1" result="result3" type="matrix" values="0 0 0 0 0 0 0 0 0 0 0 0 0 0 0 0 0 0 0.0841892483 0"></feColorMatrix></filter><filter height="1.364" id="filter-4" node-id="11" width="1.196" x="-0.098" y="-0.163"><feMorphology color-interpolation-filters="linearRGB" in="SourceAlpha" operator="dilate" radius="5 5" result="shadowSpreadOuter1"></feMorphology><feOffset color-interpolation-filters="linearRGB" dx="0" dy="7" in="shadowSpreadOuter1" result="shadowOffsetOuter1"></feOffset><feMorphology color-interpolation-filters="linearRGB" in="SourceAlpha" operator="erode" radius="5 5" result="shadowInner"></feMorphology><feOffset color-interpolation-filters="linearRGB" dx="0" dy="7" in="shadowInner" result="shadowInner"></feOffset><feComposite color-interpolation-filters="linearRGB" in="shadowOffsetOuter1" in2="shadowInner" operator="out" result="shadowOffsetOuter1"></feComposite><feGaussianBlur color-interpolation-filters="linearRGB" in="shadowOffsetOuter1" result="shadowBlurOuter1" stdDeviation="20 20"></feGaussianBlur><feColorMatrix color-interpolation-filters="linearRGB" in="shadowBlurOuter1" result="result7" type="matrix" values="0 0 0 0 0.149019608 0 0 0 0 0.57254902 0 0 0 0 0.968627451 0 0 0 0.333834135 0"></feColorMatrix></filter><filter height="1.356" id="filter-6" node-id="20" width="1.192" x="-0.096" y="-0.159"><feMorphology color-interpolation-filters="linearRGB" in="SourceAlpha" operator="dilate" radius="5 5" result="shadowSpreadOuter1"></feMorphology><feOffset color-interpolation-filters="linearRGB" dx="0" dy="7" in="shadowSpreadOuter1" result="shadowOffsetOuter1"></feOffset><feMorphology color-interpolation-filters="linearRGB" in="SourceAlpha" operator="erode" radius="5 5" result="shadowInner"></feMorphology><feOffset color-interpolation-filters="linearRGB" dx="0" dy="7" in="shadowInner" result="shadowInner"></feOffset><feComposite color-interpolation-filters="linearRGB" in="shadowOffsetOuter1" in2="shadowInner" operator="out" result="shadowOffsetOuter1"></feComposite><feGaussianBlur color-interpolation-filters="linearRGB" in="shadowOffsetOuter1" result="shadowBlurOuter1" stdDeviation="20 20"></feGaussianBlur><feColorMatrix color-interpolation-filters="linearRGB" in="shadowBlurOuter1" result="result7" type="matrix" values="0 0 0 0 0.149019608 0 0 0 0 0.57254902 0 0 0 0 0.968627451 0 0 0 0.333834135 0"></feColorMatrix></filter></defs><path d="M 0.00 0.00 L 1024.00 0.00 L 1024.00 1024.00 L 0.00 1024.00 Z" fill="#171a1d" fill-rule="evenodd" node-id="106" stroke="none" target-height="1024" target-width="1024" target-x="0" target-y="0"></path><g node-id="151"><g node-id="152"><g node-id="160"><path d="M 67.27 190.00 L 956.73 190.00 L 958.16 190.20 L 959.39 190.72 L 960.46 191.54 L 961.28 192.61 L 961.80 193.84 L 962.00 195.27 L 962.00 828.09 L 961.80 829.52 L 961.28 830.75 L 960.46 831.81 L 959.39 832.64 L 958.16 833.16 L 956.73 833.36 L 67.27 833.36 L 65.84 833.16 L 64.61 832.64 L 63.54 831.81 L 62.72 830.75 L 62.20 829.52 L 62.00 828.09 L 62.00 195.27 L 62.20 193.84 L 62.72 192.61 L 63.54 191.54 L 64.61 190.72 L 65.84 190.20 L 67.27 190.00 Z" fill="#000000" fill-opacity="0.05008176" fill-rule="evenodd" filter="url(#filter-2)" group-id="1,2,10" node-id="112" stroke="none" target-height="643.3594" target-width="900" target-x="62" target-y="190"></path></g><path d="M 67.27 190.00 L 956.73 190.00 L 958.16 190.20 L 959.39 190.72 L 960.46 191.54 L 961.28 192.61 L 961.80 193.84 L 962.00 195.27 L 962.00 828.09 L 961.80 829.52 L 961.28 830.75 L 960.46 831.81 L 959.39 832.64 L 958.16 833.16 L 956.73 833.36 L 67.27 833.36 L 65.84 833.16 L 64.61 832.64 L 63.54 831.81 L 62.72 830.75 L 62.20 829.52 L 62.00 828.09 L 62.00 195.27 L 62.20 193.84 L 62.72 192.61 L 63.54 191.54 L 64.61 190.72 L 65.84 190.20 L 67.27 190.00 Z" fill="#3fa5ff" fill-opacity="0.05008176" fill-rule="evenodd" group-id="1,2,11" node-id="117" stroke="none" target-height="643.3594" target-width="900" target-x="62" target-y="190"></path></g><g node-id="153"><g node-id="162"><g node-id="164"><path d="M 154.65 480.37 L 331.44 683.42 L 548.94 476.79 L 775.77 467.86 L 866.39 651.57" fill="#000000" fill-opacity="0.5" fill-rule="evenodd" filter="url(#filter-4)" group-id="1,3,12,14" node-id="125" stroke="none" target-height="215.55542" target-width="711.74365" target-x="154.64835" target-y="467.86414"></path></g><path d="M 154.65 480.37 L 331.44 683.42 L 548.94 476.79 L 775.77 467.86 L 866.39 651.57" fill="none" group-id="1,3,12,15" node-id="130" stroke="#0c73ff" stroke-linecap="round" stroke-opacity="0.5" stroke-width="9.999999" target-height="215.55542" target-width="711.74365" target-x="154.64835" target-y="467.86414"></path></g><path d="M 350.33 669.89 L 350.31 673.58 L 349.69 677.03 L 348.48 680.27 L 346.73 683.26 L 344.54 685.86 L 341.90 688.11 L 338.92 689.86 L 335.64 691.07 L 332.00 691.74 L 328.30 691.72 L 324.86 691.09 L 321.62 689.88 L 318.62 688.13 L 316.02 685.95 L 313.78 683.30 L 312.02 680.32 L 310.81 677.04 L 310.15 673.40 L 310.17 669.71 L 310.79 666.26 L 312.00 663.02 L 313.75 660.03 L 315.94 657.43 L 318.58 655.18 L 321.56 653.43 L 324.84 652.22 L 328.48 651.55 L 332.18 651.57 L 335.62 652.20 L 338.86 653.41 L 341.86 655.16 L 344.46 657.34 L 346.70 659.99 L 348.46 662.97 L 349.67 666.25 L 350.33 669.89 Z" fill="#171f27" fill-opacity="0.5" fill-rule="evenodd" group-id="1,3" id="椭圆形备份-7" node-id="38" stroke="#0c73ff" stroke-linecap="butt" stroke-opacity="0.5" stroke-width="14.925373" target-height="40.184387" target-width="40.184296" target-x="310.14792" target-y="651.5526"></path><path d="M 573.69 475.31 L 573.67 479.01 L 573.04 482.45 L 571.83 485.69 L 570.08 488.69 L 567.90 491.29 L 565.25 493.53 L 562.27 495.29 L 558.99 496.50 L 555.35 497.16 L 551.66 497.14 L 548.21 496.52 L 544.97 495.31 L 541.98 493.56 L 539.38 491.37 L 537.13 488.73 L 535.38 485.75 L 534.17 482.47 L 533.50 478.83 L 533.52 475.13 L 534.15 471.69 L 535.36 468.45 L 537.11 465.45 L 539.29 462.85 L 541.94 460.61 L 544.92 458.85 L 548.20 457.64 L 551.84 456.98 L 555.53 457.00 L 558.98 457.62 L 562.22 458.83 L 565.21 460.58 L 567.81 462.77 L 570.06 465.41 L 571.81 468.39 L 573.02 471.68 L 573.69 475.31 Z" fill="#171f27" fill-opacity="0.5" fill-rule="evenodd" group-id="1,3" id="椭圆形备份-8" node-id="39" stroke="#0c73ff" stroke-linecap="butt" stroke-opacity="0.5" stroke-width="14.925373" target-height="40.184296" target-width="40.184326" target-x="533.50287" target-y="456.9785"></path><path d="M 797.77 468.46 L 797.75 472.16 L 797.13 475.60 L 795.91 478.84 L 794.16 481.84 L 791.98 484.44 L 789.33 486.68 L 786.35 488.44 L 783.07 489.65 L 779.43 490.31 L 775.74 490.29 L 772.30 489.67 L 769.05 488.46 L 766.06 486.71 L 763.46 484.52 L 761.21 481.88 L 759.46 478.90 L 758.25 475.62 L 757.58 471.98 L 757.60 468.28 L 758.23 464.84 L 759.44 461.60 L 761.19 458.60 L 763.37 456.00 L 766.02 453.76 L 769.00 452.00 L 772.28 450.79 L 775.92 450.13 L 779.62 450.15 L 783.06 450.77 L 786.30 451.98 L 789.29 453.73 L 791.89 455.92 L 794.14 458.56 L 795.90 461.54 L 797.11 464.83 L 797.77 468.46 Z" fill="#171f27" fill-opacity="0.5" fill-rule="evenodd" group-id="1,3" id="椭圆形备份-9" node-id="40" stroke="#0c73ff" stroke-linecap="butt" stroke-opacity="0.5" stroke-width="14.925373" target-height="40.184296" target-width="40.184265" target-x="757.58344" target-y="450.12872"></path><path d="M 890.58 654.61 L 890.56 658.30 L 889.94 661.75 L 888.73 664.99 L 886.98 667.98 L 884.79 670.58 L 882.15 672.83 L 879.17 674.59 L 875.88 675.80 L 872.25 676.46 L 868.55 676.44 L 865.11 675.81 L 861.87 674.60 L 858.87 672.85 L 856.27 670.67 L 854.03 668.02 L 852.27 665.04 L 851.06 661.76 L 850.40 658.12 L 850.42 654.43 L 851.04 650.99 L 852.25 647.74 L 854.00 644.75 L 856.19 642.15 L 858.83 639.90 L 861.81 638.15 L 865.09 636.94 L 868.73 636.27 L 872.43 636.29 L 875.87 636.92 L 879.11 638.13 L 882.11 639.88 L 884.71 642.06 L 886.95 644.71 L 888.71 647.69 L 889.92 650.97 L 890.58 654.61 Z" fill="#171f27" fill-opacity="0.5" fill-rule="evenodd" group-id="1,3" id="椭圆形备份-10" node-id="41" stroke="#0c73ff" stroke-linecap="butt" stroke-opacity="0.5" stroke-width="14.925373" target-height="40.184326" target-width="40.184265" target-x="850.39746" target-y="636.2732"></path><path d="M 171.54 474.42 L 171.51 478.12 L 170.89 481.56 L 169.68 484.80 L 167.93 487.79 L 165.75 490.39 L 163.10 492.64 L 160.12 494.40 L 156.84 495.61 L 153.20 496.27 L 149.50 496.25 L 146.06 495.63 L 142.82 494.41 L 139.83 492.66 L 137.22 490.48 L 134.98 487.84 L 133.22 484.85 L 132.01 481.57 L 131.35 477.93 L 131.37 474.24 L 131.99 470.80 L 133.21 467.55 L 134.96 464.56 L 137.14 461.96 L 139.78 459.71 L 142.77 457.96 L 146.05 456.75 L 149.69 456.08 L 153.38 456.10 L 156.82 456.73 L 160.07 457.94 L 163.06 459.69 L 165.66 461.87 L 167.90 464.52 L 169.66 467.50 L 170.87 470.78 L 171.54 474.42 Z" fill="#171f27" fill-opacity="0.5" fill-rule="evenodd" group-id="1,3" id="椭圆形备份-11" node-id="42" stroke="#0c73ff" stroke-linecap="butt" stroke-opacity="0.5" stroke-width="14.925373" target-height="40.184296" target-width="40.184296" target-x="131.35104" target-y="456.08417"></path></g><g node-id="154"><g node-id="163"><g node-id="166"><path d="M 145.00 639.81 L 396.74 751.65 L 509.07 466.00 L 715.54 359.65 L 879.00 490.81" fill="#000000" fill-rule="evenodd" filter="url(#filter-6)" group-id="1,4,13,16" node-id="144" stroke="none" target-height="392" target-width="734" target-x="145" target-y="359.64844"></path></g><path d="M 145.00 639.81 L 396.74 751.65 L 509.07 466.00 L 715.54 359.65 L 879.00 490.81" fill="none" group-id="1,4,13,17" node-id="149" stroke="#0c73ff" stroke-linecap="round" stroke-width="10" target-height="392" target-width="734" target-x="145" target-y="359.64844"></path></g><path d="M 532.46 464.25 L 532.11 467.98 L 531.18 471.41 L 529.67 474.58 L 527.64 477.45 L 525.20 479.89 L 522.33 481.92 L 519.16 483.43 L 515.74 484.36 L 512.00 484.71 L 508.26 484.36 L 504.84 483.43 L 501.67 481.92 L 498.80 479.89 L 496.36 477.45 L 494.33 474.58 L 492.82 471.41 L 491.89 467.98 L 491.54 464.25 L 491.89 460.51 L 492.82 457.09 L 494.33 453.92 L 496.36 451.05 L 498.80 448.61 L 501.67 446.58 L 504.84 445.07 L 508.26 444.13 L 512.00 443.79 L 515.74 444.13 L 519.16 445.07 L 522.33 446.58 L 525.20 448.61 L 527.64 451.05 L 529.67 453.92 L 531.18 457.09 L 532.11 460.51 L 532.46 464.25 Z" fill="#171f27" fill-rule="evenodd" group-id="1,4" id="椭圆形备份-2" node-id="47" stroke="#0c73ff" stroke-linecap="butt" stroke-width="14.925373" target-height="40.925354" target-width="40.925323" target-x="491.53732" target-y="443.78705"></path><path d="M 736.46 359.65 L 736.11 363.38 L 735.18 366.81 L 733.67 369.98 L 731.64 372.85 L 729.20 375.28 L 726.33 377.32 L 723.16 378.83 L 719.74 379.76 L 716.00 380.11 L 712.26 379.76 L 708.84 378.83 L 705.67 377.32 L 702.80 375.28 L 700.36 372.85 L 698.33 369.98 L 696.82 366.81 L 695.89 363.38 L 695.54 359.65 L 695.88 355.91 L 696.82 352.49 L 698.33 349.32 L 700.36 346.45 L 702.80 344.01 L 705.67 341.98 L 708.84 340.47 L 712.26 339.53 L 716.00 339.19 L 719.74 339.53 L 723.16 340.47 L 726.33 341.98 L 729.20 344.01 L 731.64 346.45 L 733.67 349.32 L 735.18 352.49 L 736.11 355.91 L 736.46 359.65 Z" fill="#171f27" fill-rule="evenodd" group-id="1,4" id="椭圆形备份-3" node-id="48" stroke="#0c73ff" stroke-linecap="butt" stroke-width="14.925373" target-height="40.925354" target-width="40.925415" target-x="695.5373" target-y="339.18576"></path><path d="M 892.46 483.25 L 892.11 486.98 L 891.18 490.41 L 889.67 493.58 L 887.64 496.45 L 885.20 498.89 L 882.33 500.92 L 879.16 502.43 L 875.74 503.36 L 872.00 503.71 L 868.26 503.36 L 864.84 502.43 L 861.67 500.92 L 858.80 498.88 L 856.36 496.45 L 854.33 493.58 L 852.82 490.41 L 851.89 486.98 L 851.54 483.25 L 851.88 479.51 L 852.82 476.09 L 854.33 472.92 L 856.36 470.05 L 858.80 467.61 L 861.67 465.58 L 864.84 464.07 L 868.26 463.13 L 872.00 462.79 L 875.74 463.13 L 879.16 464.07 L 882.33 465.58 L 885.20 467.61 L 887.64 470.05 L 889.67 472.92 L 891.18 476.09 L 892.11 479.51 L 892.46 483.25 Z" fill="#171f27" fill-rule="evenodd" group-id="1,4" id="椭圆形备份-4" node-id="49" stroke="#0c73ff" stroke-linecap="butt" stroke-width="14.925373" target-height="40.925354" target-width="40.925415" target-x="851.5373" target-y="462.78705"></path><path d="M 412.46 743.65 L 412.11 747.38 L 411.18 750.81 L 409.67 753.98 L 407.64 756.85 L 405.20 759.28 L 402.33 761.32 L 399.16 762.83 L 395.74 763.76 L 392.00 764.11 L 388.26 763.76 L 384.84 762.83 L 381.67 761.32 L 378.80 759.28 L 376.36 756.85 L 374.33 753.98 L 372.82 750.81 L 371.89 747.38 L 371.54 743.65 L 371.89 739.91 L 372.82 736.49 L 374.33 733.32 L 376.36 730.45 L 378.80 728.01 L 381.67 725.98 L 384.84 724.47 L 388.26 723.53 L 392.00 723.19 L 395.74 723.53 L 399.16 724.47 L 402.33 725.98 L 405.20 728.01 L 407.64 730.45 L 409.67 733.32 L 411.18 736.49 L 412.11 739.91 L 412.46 743.65 Z" fill="#171f27" fill-rule="evenodd" group-id="1,4" id="椭圆形备份-5" node-id="50" stroke="#0c73ff" stroke-linecap="butt" stroke-width="14.925373" target-height="40.925293" target-width="40.925385" target-x="371.5373" target-y="723.1858"></path><path d="M 169.66 642.65 L 169.31 646.38 L 168.38 649.81 L 166.86 652.98 L 164.83 655.85 L 162.39 658.28 L 159.52 660.32 L 156.35 661.83 L 152.93 662.76 L 149.20 663.11 L 145.46 662.76 L 142.04 661.83 L 138.87 660.32 L 136.00 658.28 L 133.56 655.85 L 131.53 652.98 L 130.01 649.81 L 129.08 646.38 L 128.73 642.65 L 129.08 638.91 L 130.01 635.49 L 131.53 632.32 L 133.56 629.45 L 136.00 627.01 L 138.87 624.98 L 142.04 623.47 L 145.46 622.53 L 149.20 622.19 L 152.93 622.53 L 156.35 623.47 L 159.52 624.98 L 162.39 627.01 L 164.83 629.45 L 166.86 632.32 L 168.38 635.49 L 169.31 638.91 L 169.66 642.65 Z" fill="#171f27" fill-rule="evenodd" group-id="1,4" id="椭圆形备份-6" node-id="51" stroke="#0c73ff" stroke-linecap="butt" stroke-width="14.925373" target-height="40.925293" target-width="40.925385" target-x="128.73262" target-y="622.1858"></path></g><g node-id="155"><path d="M 187.93 323.65 L 363.00 323.65 L 364.63 323.88 L 366.03 324.46 L 367.24 325.41 L 368.19 326.62 L 368.77 328.02 L 369.00 329.65 L 369.00 346.30 L 368.77 347.93 L 368.19 349.32 L 367.24 350.54 L 366.03 351.48 L 364.63 352.07 L 363.00 352.30 L 187.93 352.30 L 186.30 352.07 L 184.91 351.48 L 183.69 350.54 L 182.75 349.32 L 182.16 347.93 L 181.93 346.30 L 181.93 329.65 L 182.16 328.02 L 182.75 326.62 L 183.69 325.41 L 184.91 324.46 L 186.30 323.88 L 187.93 323.65 Z" fill="#3fa5ff" fill-rule="evenodd" group-id="1,5" id="矩形" node-id="53" stroke="none" target-height="28.648438" target-width="187.0664" target-x="181.9336" target-y="323.64844"></path><path d="M 143.93 323.65 L 159.93 323.65 L 161.56 323.88 L 162.96 324.46 L 164.18 325.41 L 165.12 326.62 L 165.70 328.02 L 165.93 329.65 L 165.93 345.65 L 165.70 347.28 L 165.12 348.67 L 164.18 349.89 L 162.96 350.83 L 161.56 351.42 L 159.93 351.65 L 143.93 351.65 L 142.30 351.42 L 140.91 350.83 L 139.69 349.89 L 138.75 348.67 L 138.16 347.28 L 137.93 345.65 L 137.93 329.65 L 138.16 328.02 L 138.75 326.62 L 139.69 325.41 L 140.91 324.46 L 142.30 323.88 L 143.93 323.65 Z" fill="#3fa5ff" fill-rule="evenodd" group-id="1,5" id="矩形备份" node-id="54" stroke="none" target-height="28" target-width="28" target-x="137.9336" target-y="323.64844"></path></g><g node-id="156"><path d="M 187.93 372.65 L 363.00 372.65 L 364.63 372.88 L 366.03 373.46 L 367.24 374.41 L 368.19 375.62 L 368.77 377.02 L 369.00 378.65 L 369.00 395.30 L 368.77 396.93 L 368.19 398.32 L 367.24 399.54 L 366.03 400.48 L 364.63 401.07 L 363.00 401.30 L 187.93 401.30 L 186.30 401.07 L 184.91 400.48 L 183.69 399.54 L 182.75 398.32 L 182.16 396.93 L 181.93 395.30 L 181.93 378.65 L 182.16 377.02 L 182.75 375.62 L 183.69 374.41 L 184.91 373.46 L 186.30 372.88 L 187.93 372.65 Z" fill="#3fa5ff" fill-rule="evenodd" group-id="1,6" id="矩形" node-id="56" stroke="none" target-height="28.648438" target-width="187.0664" target-x="181.9336" target-y="372.64844"></path><path d="M 143.93 372.65 L 159.93 372.65 L 161.56 372.88 L 162.96 373.46 L 164.18 374.41 L 165.12 375.62 L 165.70 377.02 L 165.93 378.65 L 165.93 394.65 L 165.70 396.28 L 165.12 397.67 L 164.18 398.89 L 162.96 399.83 L 161.56 400.42 L 159.93 400.65 L 143.93 400.65 L 142.30 400.42 L 140.91 399.83 L 139.69 398.89 L 138.75 397.67 L 138.16 396.28 L 137.93 394.65 L 137.93 378.65 L 138.16 377.02 L 138.75 375.62 L 139.69 374.41 L 140.91 373.46 L 142.30 372.88 L 143.93 372.65 Z" fill="#3fa5ff" fill-rule="evenodd" group-id="1,6" id="矩形备份" node-id="57" stroke="none" target-height="28" target-width="28" target-x="137.9336" target-y="372.64844"></path></g><g node-id="157"><path d="M 131.43 235.29 L 131.21 237.70 L 130.61 239.91 L 129.63 241.95 L 128.32 243.80 L 126.75 245.37 L 124.90 246.68 L 122.86 247.65 L 120.66 248.25 L 118.25 248.48 L 115.84 248.25 L 113.64 247.65 L 111.60 246.68 L 109.75 245.37 L 108.18 243.80 L 106.87 241.95 L 105.89 239.91 L 105.29 237.70 L 105.07 235.29 L 105.29 232.89 L 105.89 230.68 L 106.87 228.64 L 108.18 226.79 L 109.75 225.22 L 111.60 223.91 L 113.64 222.94 L 115.84 222.33 L 118.25 222.11 L 120.66 222.33 L 122.86 222.94 L 124.90 223.91 L 126.75 225.22 L 128.32 226.79 L 129.63 228.64 L 130.61 230.68 L 131.21 232.89 L 131.43 235.29 Z" fill="#3fa5ff" fill-opacity="0.5" fill-rule="evenodd" group-id="1,7" id="椭圆形" node-id="58" stroke="none" target-height="26.367188" target-width="26.367188" target-x="105.06641" target-y="222.11078"></path></g><g node-id="158"><path d="M 175.38 235.29 L 175.15 237.70 L 174.55 239.91 L 173.58 241.95 L 172.27 243.80 L 170.70 245.37 L 168.85 246.68 L 166.81 247.65 L 164.60 248.25 L 162.20 248.48 L 159.79 248.25 L 157.58 247.65 L 155.54 246.68 L 153.69 245.37 L 152.12 243.80 L 150.81 241.95 L 149.84 239.91 L 149.24 237.70 L 149.01 235.29 L 149.24 232.89 L 149.84 230.68 L 150.81 228.64 L 152.12 226.79 L 153.69 225.22 L 155.54 223.91 L 157.58 222.94 L 159.79 222.33 L 162.20 222.11 L 164.60 222.33 L 166.81 222.94 L 168.85 223.91 L 170.70 225.22 L 172.27 226.79 L 173.58 228.64 L 174.55 230.68 L 175.15 232.89 L 175.38 235.29 Z" fill="#3fa5ff" fill-opacity="0.5" fill-rule="evenodd" group-id="1,8" id="椭圆形备份" node-id="59" stroke="none" target-height="26.367188" target-width="26.367188" target-x="149.01172" target-y="222.11078"></path></g><path d="M 219.32 235.29 L 219.10 237.70 L 218.50 239.91 L 217.52 241.95 L 216.21 243.80 L 214.64 245.37 L 212.79 246.68 L 210.75 247.65 L 208.55 248.25 L 206.14 248.48 L 203.73 248.25 L 201.53 247.65 L 199.49 246.68 L 197.64 245.37 L 196.07 243.80 L 194.76 241.95 L 193.78 239.91 L 193.18 237.70 L 192.96 235.29 L 193.18 232.89 L 193.78 230.68 L 194.76 228.64 L 196.07 226.79 L 197.64 225.22 L 199.49 223.91 L 201.53 222.94 L 203.73 222.33 L 206.14 222.11 L 208.55 222.33 L 210.75 222.94 L 212.79 223.91 L 214.64 225.22 L 216.21 226.79 L 217.52 228.64 L 218.50 230.68 L 219.10 232.89 L 219.32 235.29 Z" fill="#3fa5ff" fill-opacity="0.5" fill-rule="evenodd" group-id="1,9" id="椭圆形备份-2" node-id="60" stroke="none" target-height="26.367188" target-width="26.367188" target-x="192.95703" target-y="222.11078"></path></g></svg>