<?xml version="1.0" standalone="no"?><!DOCTYPE svg PUBLIC "-//W3C//DTD SVG 1.1//EN" "http://www.w3.org/Graphics/SVG/1.1/DTD/svg11.dtd"><svg height="1024" node-id="1" sillyvg="true" template-height="1024" template-width="1024" version="1.1" viewBox="0 0 1024 1024" width="1024" xmlns="http://www.w3.org/2000/svg" xmlns:xlink="http://www.w3.org/1999/xlink"><defs node-id="34"><linearGradient gradientUnits="objectBoundingBox" id="linearGradient-5" node-id="11" spreadMethod="pad" x1="0.5" x2="0.5" y1="0" y2="1"><stop offset="0" stop-color="#1cabff"></stop><stop offset="1" stop-color="#0c73ff"></stop></linearGradient><filter height="1.121" id="filter-2" node-id="6" width="1.087" x="-0.043" y="-0.061"><feOffset color-interpolation-filters="linearRGB" dx="0" dy="0" in="SourceAlpha" result="shadowOffsetOuter1"></feOffset><feGaussianBlur color-interpolation-filters="linearRGB" in="shadowOffsetOuter1" result="shadowBlurOuter1" stdDeviation="13 13"></feGaussianBlur><feColorMatrix color-interpolation-filters="linearRGB" in="shadowBlurOuter1" result="result3" type="matrix" values="0 0 0 0 0 0 0 0 0 0 0 0 0 0 0 0 0 0 0.0841892483 0"></feColorMatrix></filter><clipPath id="mask-4_6" node-id="22"><path d="M 679.98 536.98 L 679.75 546.45 L 679.11 555.73 L 678.05 564.84 L 676.59 573.80 L 674.73 582.61 L 671.82 593.54 L 668.36 604.15 L 664.34 614.47 L 659.76 624.50 L 654.61 634.28 L 648.99 643.69 L 642.87 652.74 L 636.26 661.45 L 629.19 669.79 L 621.70 677.70 L 613.79 685.19 L 605.45 692.26 L 596.74 698.87 L 587.69 704.99 L 578.28 710.61 L 568.50 715.76 L 558.47 720.34 L 548.15 724.36 L 537.54 727.82 L 526.61 730.73 L 517.80 732.59 L 508.84 734.05 L 499.73 735.11 L 490.45 735.75 L 480.98 735.98 L 471.52 735.75 L 462.24 735.11 L 453.12 734.05 L 444.16 732.59 L 435.35 730.73 L 424.42 727.82 L 413.81 724.36 L 403.50 720.34 L 393.47 715.76 L 383.69 710.61 L 374.28 704.99 L 365.23 698.87 L 356.52 692.26 L 348.18 685.19 L 340.27 677.70 L 332.78 669.79 L 325.70 661.45 L 319.09 652.74 L 312.98 643.69 L 307.35 634.28 L 302.21 624.50 L 297.63 614.47 L 293.60 604.15 L 290.14 593.54 L 287.24 582.61 L 285.37 573.80 L 283.91 564.84 L 282.86 555.73 L 282.21 546.45 L 281.98 536.98 L 282.21 527.52 L 282.86 518.24 L 283.91 509.12 L 285.37 500.16 L 287.24 491.35 L 290.14 480.42 L 293.60 469.81 L 297.63 459.50 L 302.21 449.47 L 307.35 439.69 L 312.98 430.28 L 319.09 421.23 L 325.70 412.52 L 332.78 404.18 L 340.27 396.27 L 348.18 388.78 L 356.52 381.70 L 365.23 375.09 L 374.28 368.98 L 383.69 363.35 L 393.47 358.21 L 403.50 353.63 L 413.81 349.60 L 424.42 346.14 L 435.35 343.24 L 444.16 341.37 L 453.12 339.91 L 462.24 338.86 L 471.52 338.21 L 480.98 337.98 L 490.45 338.21 L 499.73 338.86 L 508.84 339.91 L 517.80 341.37 L 526.61 343.24 L 537.54 346.14 L 548.15 349.60 L 558.47 353.63 L 568.50 358.21 L 578.28 363.35 L 587.69 368.98 L 596.74 375.09 L 605.45 381.70 L 613.79 388.78 L 621.70 396.27 L 629.19 404.18 L 636.26 412.52 L 642.87 421.23 L 648.99 430.28 L 654.61 439.69 L 659.76 449.47 L 664.34 459.50 L 668.36 469.81 L 671.82 480.42 L 674.73 491.35 L 676.59 500.16 L 678.05 509.12 L 679.11 518.24 L 679.75 527.52 L 679.98 536.98 Z" fill="#000000" fill-rule="evenodd" node-id="53" stroke="none" target-height="398" target-width="398" target-x="281.98242" target-y="337.98242"></path></clipPath><clipPath id="mask-4_5" node-id="22"><path d="M 281.56 536.98 L 281.79 546.45 L 282.44 555.73 L 283.49 564.84 L 284.95 573.80 L 286.82 582.61 L 289.72 593.54 L 293.18 604.15 L 297.20 614.47 L 301.79 624.50 L 306.93 634.28 L 312.56 643.69 L 318.67 652.74 L 325.28 661.45 L 332.36 669.79 L 339.85 677.70 L 347.76 685.19 L 356.10 692.26 L 364.81 698.87 L 373.86 704.99 L 383.27 710.61 L 393.05 715.76 L 403.08 720.34 L 413.39 724.36 L 424.00 727.82 L 434.93 730.73 L 443.74 732.59 L 452.70 734.05 L 461.81 735.11 L 471.10 735.75 L 480.56 735.98 L 490.02 735.75 L 499.31 735.11 L 508.42 734.05 L 517.38 732.59 L 526.19 730.73 L 537.12 727.82 L 547.73 724.36 L 558.05 720.34 L 568.08 715.76 L 577.86 710.61 L 587.26 704.99 L 596.32 698.87 L 605.02 692.26 L 613.37 685.19 L 621.27 677.70 L 628.76 669.79 L 635.84 661.45 L 642.45 652.74 L 648.57 643.69 L 654.19 634.28 L 659.33 624.50 L 663.92 614.47 L 667.94 604.15 L 671.40 593.54 L 674.30 582.61 L 676.17 573.80 L 677.63 564.84 L 678.69 555.73 L 679.33 546.45 L 679.56 536.98 L 679.33 527.52 L 678.69 518.24 L 677.63 509.12 L 676.17 500.16 L 674.30 491.35 L 671.40 480.42 L 667.94 469.81 L 663.92 459.50 L 659.33 449.47 L 654.19 439.69 L 648.57 430.28 L 642.45 421.23 L 635.84 412.52 L 628.76 404.18 L 621.27 396.27 L 613.37 388.78 L 605.02 381.70 L 596.32 375.09 L 587.26 368.98 L 577.86 363.35 L 568.08 358.21 L 558.05 353.63 L 547.73 349.60 L 537.12 346.14 L 526.19 343.24 L 517.38 341.37 L 508.42 339.91 L 499.31 338.86 L 490.02 338.21 L 480.56 337.98 L 471.10 338.21 L 461.81 338.86 L 452.70 339.91 L 443.74 341.37 L 434.93 343.24 L 424.00 346.14 L 413.39 349.60 L 403.08 353.63 L 393.05 358.21 L 383.27 363.35 L 373.86 368.98 L 364.81 375.09 L 356.10 381.70 L 347.76 388.78 L 339.85 396.27 L 332.36 404.18 L 325.28 412.52 L 318.67 421.23 L 312.56 430.28 L 306.93 439.69 L 301.79 449.47 L 297.20 459.50 L 293.18 469.81 L 289.72 480.42 L 286.82 491.35 L 284.95 500.16 L 283.49 509.12 L 282.44 518.24 L 281.79 527.52 L 281.56 536.98 Z" fill="#000000" fill-rule="evenodd" node-id="53" stroke="none" target-height="398" target-width="398.00003" target-x="281.56064" target-y="337.98242"></path></clipPath><clipPath id="mask-4_4" node-id="22"><path d="M 679.98 536.98 L 679.75 546.45 L 679.11 555.73 L 678.05 564.84 L 676.59 573.80 L 674.73 582.61 L 671.82 593.54 L 668.36 604.15 L 664.34 614.47 L 659.76 624.50 L 654.61 634.28 L 648.99 643.69 L 642.87 652.74 L 636.26 661.45 L 629.19 669.79 L 621.70 677.70 L 613.79 685.19 L 605.45 692.26 L 596.74 698.87 L 587.69 704.99 L 578.28 710.61 L 568.50 715.76 L 558.47 720.34 L 548.15 724.36 L 537.54 727.82 L 526.61 730.73 L 517.80 732.59 L 508.84 734.05 L 499.73 735.11 L 490.45 735.75 L 480.98 735.98 L 471.52 735.75 L 462.24 735.11 L 453.12 734.05 L 444.16 732.59 L 435.35 730.73 L 424.42 727.82 L 413.81 724.36 L 403.50 720.34 L 393.47 715.76 L 383.69 710.61 L 374.28 704.99 L 365.23 698.87 L 356.52 692.26 L 348.18 685.19 L 340.27 677.70 L 332.78 669.79 L 325.70 661.45 L 319.09 652.74 L 312.98 643.69 L 307.35 634.28 L 302.21 624.50 L 297.63 614.47 L 293.60 604.15 L 290.14 593.54 L 287.24 582.61 L 285.37 573.80 L 283.91 564.84 L 282.86 555.73 L 282.21 546.45 L 281.98 536.98 L 282.21 527.52 L 282.86 518.24 L 283.91 509.12 L 285.37 500.16 L 287.24 491.35 L 290.14 480.42 L 293.60 469.81 L 297.63 459.50 L 302.21 449.47 L 307.35 439.69 L 312.98 430.28 L 319.09 421.23 L 325.70 412.52 L 332.78 404.18 L 340.27 396.27 L 348.18 388.78 L 356.52 381.70 L 365.23 375.09 L 374.28 368.98 L 383.69 363.35 L 393.47 358.21 L 403.50 353.63 L 413.81 349.60 L 424.42 346.14 L 435.35 343.24 L 444.16 341.37 L 453.12 339.91 L 462.24 338.86 L 471.52 338.21 L 480.98 337.98 L 490.45 338.21 L 499.73 338.86 L 508.84 339.91 L 517.80 341.37 L 526.61 343.24 L 537.54 346.14 L 548.15 349.60 L 558.47 353.63 L 568.50 358.21 L 578.28 363.35 L 587.69 368.98 L 596.74 375.09 L 605.45 381.70 L 613.79 388.78 L 621.70 396.27 L 629.19 404.18 L 636.26 412.52 L 642.87 421.23 L 648.99 430.28 L 654.61 439.69 L 659.76 449.47 L 664.34 459.50 L 668.36 469.81 L 671.82 480.42 L 674.73 491.35 L 676.59 500.16 L 678.05 509.12 L 679.11 518.24 L 679.75 527.52 L 679.98 536.98 Z" fill="#000000" fill-rule="evenodd" node-id="53" stroke="none" target-height="398" target-width="398" target-x="281.98242" target-y="337.98242"></path></clipPath><clipPath id="mask-4" node-id="22"><path d="M 431.44 232.00 C 431.44 341.90 342.35 431.00 232.44 431.00 C 122.54 431.00 33.44 341.90 33.44 232.00 C 33.44 122.10 122.54 33.00 232.44 33.00 C 342.35 33.00 431.44 122.10 431.44 232.00 Z" fill="#000000" fill-rule="evenodd" node-id="53" stroke="none" target-height="398" target-width="398" target-x="33.4438" target-y="33"></path></clipPath></defs><path d="M 0.00 0.00 L 1024.00 0.00 L 1024.00 1024.00 L 0.00 1024.00 Z" fill="#171a1d" fill-rule="evenodd" node-id="59" stroke="none" target-height="1024" target-width="1024" target-x="0" target-y="0"></path><g node-id="93"><g node-id="94"><g node-id="99"><path d="M 67.27 190.00 L 956.73 190.00 L 958.16 190.20 L 959.39 190.72 L 960.46 191.54 L 961.28 192.61 L 961.80 193.84 L 962.00 195.27 L 962.00 828.09 L 961.80 829.52 L 961.28 830.75 L 960.46 831.81 L 959.39 832.64 L 958.16 833.16 L 956.73 833.36 L 67.27 833.36 L 65.84 833.16 L 64.61 832.64 L 63.54 831.81 L 62.72 830.75 L 62.20 829.52 L 62.00 828.09 L 62.00 195.27 L 62.20 193.84 L 62.72 192.61 L 63.54 191.54 L 64.61 190.72 L 65.84 190.20 L 67.27 190.00 Z" fill="#000000" fill-opacity="0.05008176" fill-rule="evenodd" filter="url(#filter-2)" group-id="1,2,7" node-id="65" stroke="none" target-height="643.3594" target-width="900" target-x="62" target-y="190"></path></g><path d="M 67.27 190.00 L 956.73 190.00 L 958.16 190.20 L 959.39 190.72 L 960.46 191.54 L 961.28 192.61 L 961.80 193.84 L 962.00 195.27 L 962.00 828.09 L 961.80 829.52 L 961.28 830.75 L 960.46 831.81 L 959.39 832.64 L 958.16 833.16 L 956.73 833.36 L 67.27 833.36 L 65.84 833.16 L 64.61 832.64 L 63.54 831.81 L 62.72 830.75 L 62.20 829.52 L 62.00 828.09 L 62.00 195.27 L 62.20 193.84 L 62.72 192.61 L 63.54 191.54 L 64.61 190.72 L 65.84 190.20 L 67.27 190.00 Z" fill="#0c73ff" fill-opacity="0.05008176" fill-rule="evenodd" group-id="1,2,8" node-id="70" stroke="none" target-height="643.3594" target-width="900" target-x="62" target-y="190"></path></g><g node-id="95"><g node-id="101"><path d="M 709.98 536.98 L 709.72 547.87 L 708.97 558.55 L 707.76 569.04 L 706.08 579.35 L 703.93 589.49 L 701.31 599.58 L 698.28 609.44 L 694.83 619.07 L 690.98 628.48 L 686.71 637.69 L 682.02 646.73 L 676.97 655.49 L 671.57 663.99 L 665.80 672.22 L 659.67 680.21 L 653.19 687.93 L 646.41 695.33 L 639.33 702.41 L 631.93 709.19 L 624.21 715.67 L 616.22 721.80 L 607.99 727.57 L 599.49 732.97 L 590.73 738.02 L 581.69 742.71 L 572.48 746.98 L 563.07 750.83 L 553.44 754.28 L 543.58 757.31 L 533.49 759.93 L 523.35 762.08 L 513.04 763.76 L 502.55 764.97 L 491.87 765.72 L 480.98 765.98 L 470.09 765.72 L 459.41 764.97 L 448.92 763.76 L 438.61 762.08 L 428.47 759.93 L 418.38 757.31 L 408.53 754.28 L 398.90 750.83 L 389.48 746.98 L 380.27 742.71 L 371.24 738.02 L 362.47 732.97 L 353.98 727.57 L 345.74 721.80 L 337.75 715.67 L 330.04 709.19 L 322.64 702.41 L 315.55 695.33 L 308.77 687.93 L 302.29 680.21 L 296.16 672.22 L 290.40 663.99 L 284.99 655.49 L 279.95 646.73 L 275.26 637.69 L 270.99 628.48 L 267.13 619.07 L 263.69 609.44 L 260.65 599.58 L 258.03 589.49 L 255.89 579.35 L 254.20 569.04 L 252.99 558.55 L 252.25 547.87 L 251.98 536.98 L 252.25 526.09 L 252.99 515.41 L 254.20 504.92 L 255.89 494.61 L 258.03 484.47 L 260.65 474.38 L 263.69 464.53 L 267.13 454.90 L 270.99 445.48 L 275.26 436.27 L 279.95 427.24 L 284.99 418.47 L 290.40 409.98 L 296.16 401.74 L 302.29 393.75 L 308.77 386.04 L 315.55 378.64 L 322.64 371.55 L 330.04 364.77 L 337.75 358.29 L 345.74 352.16 L 353.98 346.40 L 362.47 340.99 L 371.24 335.95 L 380.27 331.26 L 389.48 326.99 L 398.90 323.13 L 408.53 319.69 L 418.38 316.65 L 428.47 314.03 L 438.61 311.89 L 448.92 310.20 L 459.41 308.99 L 470.09 308.25 L 480.98 307.98 L 491.87 308.25 L 502.55 308.99 L 513.04 310.20 L 523.35 311.89 L 533.49 314.03 L 543.58 316.65 L 553.44 319.69 L 563.07 323.13 L 572.48 326.99 L 581.69 331.26 L 590.73 335.95 L 599.49 340.99 L 607.99 346.40 L 616.22 352.16 L 624.21 358.29 L 631.93 364.77 L 639.33 371.55 L 646.41 378.64 L 653.19 386.04 L 659.67 393.75 L 665.80 401.74 L 671.57 409.98 L 676.97 418.47 L 682.02 427.24 L 686.71 436.27 L 690.98 445.48 L 694.83 454.90 L 698.28 464.53 L 701.31 474.38 L 703.93 484.47 L 706.08 494.61 L 707.76 504.92 L 708.97 515.41 L 709.72 526.09 L 709.98 536.98 Z" fill="none" group-id="1,3,9" id="椭圆形备份-3" node-id="21" stroke="#0c73ff" stroke-linecap="butt" stroke-opacity="0.1" stroke-width="6" target-height="458" target-width="458" target-x="251.98242" target-y="307.98242"></path></g><g node-id="102"><path d="M 679.98 536.98 L 679.75 546.45 L 679.11 555.73 L 678.05 564.84 L 676.59 573.80 L 674.73 582.61 L 671.82 593.54 L 668.36 604.15 L 664.34 614.47 L 659.76 624.50 L 654.61 634.28 L 648.99 643.69 L 642.87 652.74 L 636.26 661.45 L 629.19 669.79 L 621.70 677.70 L 613.79 685.19 L 605.45 692.26 L 596.74 698.87 L 587.69 704.99 L 578.28 710.61 L 568.50 715.76 L 558.47 720.34 L 548.15 724.36 L 537.54 727.82 L 526.61 730.73 L 517.80 732.59 L 508.84 734.05 L 499.73 735.11 L 490.45 735.75 L 480.98 735.98 L 471.52 735.75 L 462.24 735.11 L 453.12 734.05 L 444.16 732.59 L 435.35 730.73 L 424.42 727.82 L 413.81 724.36 L 403.50 720.34 L 393.47 715.76 L 383.69 710.61 L 374.28 704.99 L 365.23 698.87 L 356.52 692.26 L 348.18 685.19 L 340.27 677.70 L 332.78 669.79 L 325.70 661.45 L 319.09 652.74 L 312.98 643.69 L 307.35 634.28 L 302.21 624.50 L 297.63 614.47 L 293.60 604.15 L 290.14 593.54 L 287.24 582.61 L 285.37 573.80 L 283.91 564.84 L 282.86 555.73 L 282.21 546.45 L 281.98 536.98 L 282.21 527.52 L 282.86 518.24 L 283.91 509.12 L 285.37 500.16 L 287.24 491.35 L 290.14 480.42 L 293.60 469.81 L 297.63 459.50 L 302.21 449.47 L 307.35 439.69 L 312.98 430.28 L 319.09 421.23 L 325.70 412.52 L 332.78 404.18 L 340.27 396.27 L 348.18 388.78 L 356.52 381.70 L 365.23 375.09 L 374.28 368.98 L 383.69 363.35 L 393.47 358.21 L 403.50 353.63 L 413.81 349.60 L 424.42 346.14 L 435.35 343.24 L 444.16 341.37 L 453.12 339.91 L 462.24 338.86 L 471.52 338.21 L 480.98 337.98 L 490.45 338.21 L 499.73 338.86 L 508.84 339.91 L 517.80 341.37 L 526.61 343.24 L 537.54 346.14 L 548.15 349.60 L 558.47 353.63 L 568.50 358.21 L 578.28 363.35 L 587.69 368.98 L 596.74 375.09 L 605.45 381.70 L 613.79 388.78 L 621.70 396.27 L 629.19 404.18 L 636.26 412.52 L 642.87 421.23 L 648.99 430.28 L 654.61 439.69 L 659.76 449.47 L 664.34 459.50 L 668.36 469.81 L 671.82 480.42 L 674.73 491.35 L 676.59 500.16 L 678.05 509.12 L 679.11 518.24 L 679.75 527.52 L 679.98 536.98 Z" fill="#0c73ff" fill-opacity="0.1" fill-rule="evenodd" group-id="1,3,10" node-id="80" stroke="none" target-height="398" target-width="398" target-x="281.98242" target-y="337.98242"></path></g><g node-id="103"><g clip-path="url(#mask-4_4)" group-id="1,3,11" node-id="83"><path d="M 270.16 556.88 L 280.67 560.86 L 291.50 564.40 L 302.64 567.50 L 314.13 570.14 L 325.98 572.33 L 338.19 574.06 L 350.81 575.31 L 363.83 576.07 L 377.28 576.32 L 385.69 576.05 L 393.71 575.32 L 401.38 574.16 L 408.98 572.59 L 416.40 570.73 L 423.65 568.57 L 434.43 564.93 L 445.19 560.94 L 467.04 552.62 L 478.34 548.66 L 490.30 544.98 L 498.41 542.85 L 506.98 540.98 L 516.02 539.40 L 525.12 538.24 L 534.86 537.51 L 545.29 537.23 L 558.47 537.49 L 572.83 538.29 L 588.46 539.69 L 605.43 541.73 L 623.84 544.47 L 643.77 547.97 L 665.31 552.30 L 688.57 557.50 L 713.62 563.65 L 740.58 570.80 L 712.98 668.23 L 619.83 723.50 L 545.29 740.94 L 447.70 747.79 L 371.48 718.02 L 306.60 668.23 L 273.67 581.65 L 270.16 556.88 Z" fill="url(#linearGradient-5)" fill-opacity="0.3" fill-rule="evenodd" group-id="1,3,11" id="路径-18" node-id="25" stroke="none" target-height="210.55432" target-width="470.42175" target-x="270.15918" target-y="537.2321"></path></g></g><g node-id="104"><g clip-path="url(#mask-4_5)" group-id="1,3,12" node-id="87"><path d="M 715.98 556.88 L 705.47 560.86 L 694.65 564.40 L 683.50 567.50 L 672.01 570.14 L 660.17 572.33 L 647.95 574.06 L 635.34 575.31 L 622.31 576.07 L 608.86 576.32 L 600.46 576.05 L 592.43 575.32 L 584.77 574.16 L 577.16 572.59 L 569.74 570.73 L 562.49 568.57 L 551.71 564.93 L 540.95 560.94 L 519.10 552.62 L 507.80 548.66 L 495.84 544.98 L 487.73 542.85 L 479.16 540.98 L 470.12 539.40 L 461.02 538.24 L 451.28 537.51 L 440.85 537.23 L 427.67 537.49 L 413.31 538.29 L 397.68 539.69 L 380.71 541.73 L 362.30 544.47 L 342.37 547.97 L 320.83 552.30 L 297.58 557.50 L 272.52 563.65 L 245.56 570.80 L 273.16 668.23 L 366.31 723.50 L 440.85 740.94 L 538.44 747.79 L 614.66 718.02 L 679.54 668.23 L 712.47 581.65 L 715.98 556.88 Z" fill="url(#linearGradient-5)" fill-rule="evenodd" group-id="1,3,12" id="路径-18备份" node-id="26" stroke="none" target-height="210.55432" target-width="470.42178" target-x="245.56064" target-y="537.2321"></path></g></g><g clip-path="url(#mask-4_6)" group-id="1,3,13" node-id="91"><text align="center" editable="true" ellipsis="false" fill="#0c73ff" flags="1" font-family="'Noto Sans CJK SC'" font-size="100" font-stretch="normal" font-style="normal" font-weight="500" group-id="1,3,13" height="148" id="50%" letter-spacing="0" node-id="27" stroke="none" target-x="371.48242" target-y="389.23212" vertical-align="center" width="207.9" x="371.48242" xml:space="preserve" y="505.23212">50%</text></g></g><g node-id="96"><path d="M 131.43 235.29 L 131.21 237.70 L 130.61 239.91 L 129.63 241.95 L 128.32 243.80 L 126.75 245.37 L 124.90 246.68 L 122.86 247.65 L 120.66 248.25 L 118.25 248.48 L 115.84 248.25 L 113.64 247.65 L 111.60 246.68 L 109.75 245.37 L 108.18 243.80 L 106.87 241.95 L 105.89 239.91 L 105.29 237.70 L 105.07 235.29 L 105.29 232.89 L 105.89 230.68 L 106.87 228.64 L 108.18 226.79 L 109.75 225.22 L 111.60 223.91 L 113.64 222.94 L 115.84 222.33 L 118.25 222.11 L 120.66 222.33 L 122.86 222.94 L 124.90 223.91 L 126.75 225.22 L 128.32 226.79 L 129.63 228.64 L 130.61 230.68 L 131.21 232.89 L 131.43 235.29 Z" fill="#3fa5ff" fill-opacity="0.5" fill-rule="evenodd" group-id="1,4" id="椭圆形" node-id="30" stroke="none" target-height="26.367188" target-width="26.367188" target-x="105.06641" target-y="222.11078"></path></g><g node-id="97"><path d="M 175.38 235.29 L 175.15 237.70 L 174.55 239.91 L 173.58 241.95 L 172.27 243.80 L 170.70 245.37 L 168.85 246.68 L 166.81 247.65 L 164.60 248.25 L 162.20 248.48 L 159.79 248.25 L 157.58 247.65 L 155.54 246.68 L 153.69 245.37 L 152.12 243.80 L 150.81 241.95 L 149.84 239.91 L 149.24 237.70 L 149.01 235.29 L 149.24 232.89 L 149.84 230.68 L 150.81 228.64 L 152.12 226.79 L 153.69 225.22 L 155.54 223.91 L 157.58 222.94 L 159.79 222.33 L 162.20 222.11 L 164.60 222.33 L 166.81 222.94 L 168.85 223.91 L 170.70 225.22 L 172.27 226.79 L 173.58 228.64 L 174.55 230.68 L 175.15 232.89 L 175.38 235.29 Z" fill="#3fa5ff" fill-opacity="0.5" fill-rule="evenodd" group-id="1,5" id="椭圆形备份" node-id="31" stroke="none" target-height="26.367188" target-width="26.367188" target-x="149.01172" target-y="222.11078"></path></g><path d="M 219.32 235.29 L 219.10 237.70 L 218.50 239.91 L 217.52 241.95 L 216.21 243.80 L 214.64 245.37 L 212.79 246.68 L 210.75 247.65 L 208.55 248.25 L 206.14 248.48 L 203.73 248.25 L 201.53 247.65 L 199.49 246.68 L 197.64 245.37 L 196.07 243.80 L 194.76 241.95 L 193.78 239.91 L 193.18 237.70 L 192.96 235.29 L 193.18 232.89 L 193.78 230.68 L 194.76 228.64 L 196.07 226.79 L 197.64 225.22 L 199.49 223.91 L 201.53 222.94 L 203.73 222.33 L 206.14 222.11 L 208.55 222.33 L 210.75 222.94 L 212.79 223.91 L 214.64 225.22 L 216.21 226.79 L 217.52 228.64 L 218.50 230.68 L 219.10 232.89 L 219.32 235.29 Z" fill="#3fa5ff" fill-opacity="0.5" fill-rule="evenodd" group-id="1,6" id="椭圆形备份-2" node-id="32" stroke="none" target-height="26.367188" target-width="26.367188" target-x="192.95703" target-y="222.11078"></path></g></svg>