<?xml version="1.0" standalone="no"?><!DOCTYPE svg PUBLIC "-//W3C//DTD SVG 1.1//EN" "http://www.w3.org/Graphics/SVG/1.1/DTD/svg11.dtd"><svg height="1024" node-id="1" sillyvg="true" template-height="1024" template-width="1024" version="1.1" viewBox="0 0 1024 1024" width="1024" xmlns="http://www.w3.org/2000/svg" xmlns:xlink="http://www.w3.org/1999/xlink"><defs node-id="51"><linearGradient gradientUnits="objectBoundingBox" id="linearGradient-3" node-id="10" spreadMethod="pad" x1="0.5" x2="0.5" y1="1" y2="0.06603682"><stop offset="0.00027316433" stop-color="#3b66ef" stop-opacity="0"></stop><stop offset="1" stop-color="#cafbfe"></stop></linearGradient><linearGradient gradientUnits="objectBoundingBox" id="linearGradient-4" node-id="13" spreadMethod="pad" x1="0.5" x2="0.5" y1="1" y2="0.06603682"><stop offset="0.00027316433" stop-color="#3b66ef" stop-opacity="0"></stop><stop offset="1" stop-color="#0c73ff"></stop></linearGradient><filter height="1.121" id="filter-2" node-id="6" width="1.087" x="-0.043" y="-0.061"><feOffset color-interpolation-filters="linearRGB" dx="0" dy="0" in="SourceAlpha" result="shadowOffsetOuter1"></feOffset><feGaussianBlur color-interpolation-filters="linearRGB" in="shadowOffsetOuter1" result="shadowBlurOuter1" stdDeviation="13 13"></feGaussianBlur><feColorMatrix color-interpolation-filters="linearRGB" in="shadowBlurOuter1" result="result3" type="matrix" values="0 0 0 0 0 0 0 0 0 0 0 0 0 0 0 0 0 0 0.0841892483 0"></feColorMatrix></filter><filter height="1.2" id="filter-5" node-id="16" width="1.2" x="-0.1" y="-0.1"><feColorMatrix color-interpolation-filters="sRGB" in="SourceGraphic" result="result1" type="matrix" values="0 0 0 0 0.047059 0 0 0 0 0.45098 0 0 0 0 1 0 0 0 1 0"></feColorMatrix></filter></defs><path d="M 0.00 0.00 L 1024.00 0.00 L 1024.00 1024.00 L 0.00 1024.00 Z" fill="#171a1d" fill-rule="evenodd" node-id="79" stroke="none" target-height="1024" target-width="1024" target-x="0" target-y="0"></path><g node-id="92"><g node-id="93"><g node-id="102"><path d="M 67.27 190.00 L 956.73 190.00 L 958.16 190.20 L 959.39 190.72 L 960.46 191.54 L 961.28 192.61 L 961.80 193.84 L 962.00 195.27 L 962.00 828.09 L 961.80 829.52 L 961.28 830.75 L 960.46 831.81 L 959.39 832.64 L 958.16 833.16 L 956.73 833.36 L 67.27 833.36 L 65.84 833.16 L 64.61 832.64 L 63.54 831.81 L 62.72 830.75 L 62.20 829.52 L 62.00 828.09 L 62.00 195.27 L 62.20 193.84 L 62.72 192.61 L 63.54 191.54 L 64.61 190.72 L 65.84 190.20 L 67.27 190.00 Z" fill="#000000" fill-opacity="0.05008176" fill-rule="evenodd" filter="url(#filter-2)" group-id="1,2,11" node-id="85" stroke="none" target-height="643.3594" target-width="900" target-x="62" target-y="190"></path></g><path d="M 67.27 190.00 L 956.73 190.00 L 958.16 190.20 L 959.39 190.72 L 960.46 191.54 L 961.28 192.61 L 961.80 193.84 L 962.00 195.27 L 962.00 828.09 L 961.80 829.52 L 961.28 830.75 L 960.46 831.81 L 959.39 832.64 L 958.16 833.16 L 956.73 833.36 L 67.27 833.36 L 65.84 833.16 L 64.61 832.64 L 63.54 831.81 L 62.72 830.75 L 62.20 829.52 L 62.00 828.09 L 62.00 195.27 L 62.20 193.84 L 62.72 192.61 L 63.54 191.54 L 64.61 190.72 L 65.84 190.20 L 67.27 190.00 Z" fill="#3fa5ff" fill-opacity="0.05008176" fill-rule="evenodd" group-id="1,2,12" node-id="90" stroke="none" target-height="643.3594" target-width="900" target-x="62" target-y="190"></path></g><g node-id="94"><g node-id="104"><path d="M 155.21 576.46 L 168.27 566.45 L 180.86 557.45 L 193.00 549.43 L 204.72 542.31 L 216.02 536.06 L 226.94 530.62 L 237.49 525.95 L 247.69 522.01 L 257.57 518.75 L 267.15 516.15 L 276.45 514.16 L 285.49 512.77 L 294.29 511.95 L 302.87 511.68 L 307.86 511.46 L 312.68 510.88 L 317.33 509.94 L 321.84 508.65 L 327.73 506.46 L 333.50 503.81 L 339.16 500.67 L 347.39 495.39 L 355.60 489.42 L 371.93 476.56 L 380.28 470.05 L 388.93 463.75 L 394.87 459.78 L 401.01 456.08 L 407.38 452.67 L 413.94 449.65 L 420.82 447.09 L 428.06 444.98 L 433.54 443.79 L 439.31 442.95 L 445.36 442.46 L 451.73 442.35 L 457.97 442.65 L 464.61 443.41 L 471.67 444.67 L 479.19 446.46 L 486.38 448.60 L 494.08 451.37 L 502.34 454.80 L 511.19 458.96 L 536.55 472.12 L 548.44 478.21 L 559.35 483.31 L 566.65 486.29 L 573.53 488.57 L 580.03 490.21 L 585.01 491.03 L 589.82 491.34 L 594.49 491.18 L 599.06 490.54 L 604.82 489.13 L 610.44 487.38 L 615.91 485.29 L 621.26 482.86 L 628.19 479.20 L 634.96 475.16 L 641.58 470.71 L 651.20 463.61 L 660.56 456.15 L 678.73 441.24 L 687.76 434.23 L 696.61 428.04 L 702.69 424.31 L 708.73 421.17 L 714.75 418.60 L 719.40 417.05 L 724.09 415.94 L 728.84 415.26 L 733.66 415.00 L 741.79 415.28 L 750.30 416.16 L 759.23 417.65 L 768.60 419.81 L 778.45 422.67 L 788.81 426.29 L 799.72 430.72 L 811.23 436.03 L 823.35 442.27 L 836.14 449.51 L 849.62 457.83 L 863.84 467.30 L 878.83 478.00 L 894.63 490.01 L 895.61 490.97 L 896.33 492.11 L 896.78 493.37 L 896.93 494.73 L 896.93 724.00 L 896.70 725.63 L 896.12 727.03 L 895.18 728.24 L 893.96 729.19 L 892.56 729.77 L 890.93 730.00 L 158.93 730.00 L 157.30 729.77 L 155.91 729.19 L 154.69 728.24 L 153.75 727.03 L 153.16 725.63 L 152.93 724.00 L 152.93 581.16 L 153.09 579.81 L 153.53 578.55 L 154.24 577.42 L 155.21 576.46 Z" fill="url(#linearGradient-3)" fill-opacity="0.5" fill-rule="evenodd" group-id="1,3,13" id="矩形" node-id="25" stroke="none" target-height="315.00003" target-width="744" target-x="152.9336" target-y="414.99997"></path></g><path d="M 158.68 579.04 L 173.50 568.79 L 187.89 559.53 L 201.85 551.22 L 215.41 543.81 L 228.58 537.24 L 241.40 531.50 L 253.86 526.52 L 266.00 522.29 L 277.84 518.76 L 289.38 515.91 L 300.66 513.71 L 311.69 512.13 L 317.66 511.24 L 323.22 510.06 L 328.40 508.63 L 333.23 506.94 L 339.57 504.24 L 345.53 501.21 L 351.13 497.84 L 359.21 492.26 L 367.00 486.19 L 382.44 473.36 L 390.45 466.97 L 399.07 460.71 L 405.06 456.81 L 411.52 453.11 L 418.50 449.60 L 425.68 446.54 L 433.61 443.80 L 442.34 441.40 L 448.23 440.25 L 453.79 439.59 L 459.06 439.36 L 464.06 439.56 L 470.74 440.42 L 477.12 441.83 L 483.22 443.80 L 489.17 446.25 L 494.97 449.05 L 500.64 452.22 L 508.93 457.39 L 517.11 462.91 L 533.43 473.99 L 538.98 477.46 L 544.64 480.64 L 550.41 483.55 L 556.33 486.07 L 562.47 488.12 L 568.84 489.70 L 573.66 490.48 L 578.71 490.89 L 583.99 490.92 L 589.53 490.54 L 597.64 489.30 L 604.98 487.60 L 611.63 485.47 L 618.10 482.82 L 624.08 479.85 L 629.61 476.58 L 634.94 472.96 L 640.00 469.15 L 644.79 465.15 L 651.75 458.88 L 658.48 452.48 L 665.19 446.07 L 672.00 439.84 L 676.68 435.85 L 681.56 432.08 L 686.66 428.52 L 691.96 425.29 L 697.65 422.38 L 703.77 419.81 L 710.07 417.75 L 717.01 416.14 L 724.66 415.00 L 731.65 414.56 L 739.04 414.68 L 746.86 415.39 L 755.17 416.74 L 764.00 418.78 L 773.39 421.56 L 783.40 425.15 L 794.06 429.61 L 805.43 435.02 L 817.55 441.46 L 830.48 449.01 L 844.25 457.76 L 858.92 467.80 L 874.55 479.24 L 891.18 492.18" fill="none" group-id="1,3" id="路径-21" node-id="26" stroke="#cafbfe" stroke-linecap="round" stroke-width="10" target-height="164.47531" target-width="732.5" target-x="158.6836" target-y="414.56003"></path></g><g node-id="95"><g node-id="105"><path d="M 896.93 525.60 L 888.94 530.77 L 880.10 535.81 L 870.34 540.70 L 859.59 545.43 L 847.79 549.99 L 834.86 554.36 L 820.73 558.51 L 805.31 562.43 L 788.51 566.08 L 770.26 569.45 L 750.46 572.50 L 743.66 573.11 L 736.78 573.14 L 729.81 572.58 L 722.88 571.54 L 715.86 570.10 L 708.74 568.25 L 698.13 564.98 L 687.38 561.21 L 665.88 553.17 L 655.09 549.30 L 644.38 545.83 L 637.19 543.81 L 630.08 542.16 L 623.04 540.89 L 615.94 540.05 L 608.93 539.77 L 601.98 540.04 L 594.59 540.99 L 587.23 542.49 L 579.89 544.54 L 572.66 547.03 L 565.46 549.87 L 558.27 553.09 L 547.66 558.34 L 537.15 563.96 L 516.55 575.42 L 506.37 580.87 L 496.49 585.74 L 489.82 588.69 L 483.32 591.17 L 476.98 593.21 L 470.52 594.79 L 464.21 595.73 L 458.03 596.08 L 450.98 595.80 L 444.52 595.09 L 438.60 593.96 L 433.19 592.46 L 427.81 590.48 L 422.81 588.21 L 418.16 585.63 L 413.83 582.76 L 408.34 578.46 L 403.24 573.78 L 398.49 568.71 L 391.89 560.62 L 385.74 552.07 L 374.13 534.55 L 368.26 525.96 L 362.20 517.90 L 357.88 512.80 L 353.32 508.12 L 348.51 503.85 L 344.68 500.96 L 340.60 498.38 L 336.25 496.11 L 331.61 494.15 L 326.90 492.64 L 321.76 491.52 L 316.17 490.81 L 310.06 490.54 L 303.68 490.81 L 297.21 491.62 L 290.62 493.01 L 283.91 494.98 L 277.03 497.58 L 269.98 500.84 L 262.72 504.80 L 255.25 509.53 L 247.53 515.07 L 239.56 521.50 L 231.32 528.87 L 222.78 537.27 L 213.94 546.76 L 204.78 557.44 L 195.29 569.38 L 185.46 582.68 L 175.27 597.43 L 164.71 613.72 L 153.77 631.66 L 153.15 633.14 L 152.93 634.72 L 152.93 724.27 L 153.16 725.90 L 153.75 727.29 L 154.69 728.51 L 155.91 729.45 L 157.30 730.04 L 158.93 730.27 L 890.93 730.27 L 892.56 730.04 L 893.96 729.45 L 895.18 728.51 L 896.12 727.29 L 896.70 725.90 L 896.93 724.27 L 896.93 525.60 L 896.93 525.60 Z" fill="url(#linearGradient-4)" fill-opacity="0.5" fill-rule="evenodd" group-id="1,4,14" id="矩形" node-id="28" stroke="none" target-height="239.73233" target-width="744" target-x="152.9336" target-y="490.53537"></path></g><path d="M 891.18 522.83 L 877.45 531.46 L 864.11 539.13 L 851.15 545.91 L 838.54 551.83 L 826.27 556.95 L 814.33 561.28 L 802.68 564.88 L 791.31 567.78 L 780.19 569.99 L 769.32 571.55 L 758.66 572.48 L 748.19 572.79 L 737.91 572.50 L 729.98 571.88 L 722.99 571.06 L 716.85 570.07 L 707.90 568.14 L 700.19 565.96 L 692.85 563.42 L 686.02 560.72 L 672.42 554.95 L 665.37 552.09 L 657.49 549.22 L 649.16 546.61 L 639.30 544.09 L 632.50 542.68 L 624.75 541.36 L 615.94 540.16 L 610.10 539.69 L 604.47 539.62 L 599.03 539.92 L 593.76 540.59 L 586.78 542.00 L 580.00 543.89 L 573.38 546.26 L 566.91 549.03 L 560.54 552.10 L 554.25 555.49 L 544.99 560.91 L 535.81 566.59 L 517.52 577.88 L 508.24 583.09 L 498.83 587.69 L 492.41 590.34 L 485.86 592.55 L 479.18 594.31 L 474.11 595.28 L 468.91 595.90 L 463.55 596.17 L 458.03 596.08 L 451.92 595.43 L 446.16 594.31 L 440.72 592.71 L 435.57 590.66 L 430.57 588.18 L 425.76 585.35 L 421.12 582.16 L 416.65 578.62 L 410.98 573.54 L 405.47 568.06 L 400.14 562.17 L 392.45 552.99 L 384.92 543.52 L 377.42 534.03 L 369.87 524.88 L 364.66 518.99 L 359.33 513.53 L 353.88 508.48 L 349.58 504.95 L 345.14 501.78 L 340.56 498.98 L 335.83 496.53 L 330.93 494.50 L 325.78 492.94 L 320.34 491.85 L 314.59 491.25 L 309.12 491.23 L 303.46 491.77 L 297.56 492.89 L 291.39 494.63 L 284.92 497.05 L 278.11 500.19 L 270.94 504.14 L 263.37 508.96 L 255.37 514.73 L 246.90 521.56 L 237.93 529.53 L 228.44 538.75 L 218.40 549.32 L 207.76 561.36 L 196.50 574.99 L 184.59 590.33 L 172.00 607.51 L 158.68 626.66" fill="none" group-id="1,4" id="路径-21" node-id="29" stroke="#0c73ff" stroke-linecap="round" stroke-width="10" target-height="135.42294" target-width="732.5" target-x="158.6836" target-y="491.23288"></path></g><g node-id="96"><g node-id="106"><text align="center" editable="true" ellipsis="false" fill="#cafbfe" filter="url(#filter-5)" flags="1" font-family="'Noto Sans CJK SC'" font-size="17" font-stretch="normal" font-style="normal" font-weight="500" group-id="1,5,15" height="25.160002" id="100" letter-spacing="0" node-id="32" stroke="none" target-x="92.332" target-y="403.98685" vertical-align="center" width="29.070002" x="92.332" xml:space="preserve" y="423.70685">100</text><text align="center" editable="true" ellipsis="false" fill="#cafbfe" filter="url(#filter-5)" flags="1" font-family="'Noto Sans CJK SC'" font-size="17" font-stretch="normal" font-style="normal" font-weight="500" group-id="1,5,15" height="25.160002" id="50" letter-spacing="0" node-id="35" stroke="none" target-x="100.3" target-y="566.9868" vertical-align="center" width="19.380001" x="100.3" xml:space="preserve" y="586.7068">50</text><text align="center" editable="true" ellipsis="false" fill="#cafbfe" filter="url(#filter-5)" flags="1" font-family="'Noto Sans CJK SC'" font-size="17" font-stretch="normal" font-style="normal" font-weight="500" group-id="1,5,15" height="25.160002" id="0" letter-spacing="0" node-id="38" stroke="none" target-x="111.4" target-y="717.9868" vertical-align="center" width="9.690001" x="111.4" xml:space="preserve" y="737.7068">0</text></g></g><g node-id="97"><g node-id="107"><path d="M 706.93 323.65 L 882.00 323.65 L 883.63 323.88 L 885.03 324.46 L 886.24 325.41 L 887.19 326.62 L 887.77 328.02 L 888.00 329.65 L 888.00 346.30 L 887.77 347.93 L 887.19 349.32 L 886.24 350.54 L 885.03 351.48 L 883.63 352.07 L 882.00 352.30 L 706.93 352.30 L 705.30 352.07 L 703.91 351.48 L 702.69 350.54 L 701.75 349.32 L 701.16 347.93 L 700.93 346.30 L 700.93 329.65 L 701.16 328.02 L 701.75 326.62 L 702.69 325.41 L 703.91 324.46 L 705.30 323.88 L 706.93 323.65 Z" fill="#3fa5ff" fill-opacity="0.4" fill-rule="evenodd" group-id="1,6,16" id="矩形" node-id="42" stroke="none" target-height="28.648438" target-width="187.0664" target-x="700.9336" target-y="323.64844"></path></g><path d="M 662.93 323.65 L 678.93 323.65 L 680.56 323.88 L 681.96 324.46 L 683.18 325.41 L 684.12 326.62 L 684.70 328.02 L 684.93 329.65 L 684.93 345.65 L 684.70 347.28 L 684.12 348.67 L 683.18 349.89 L 681.96 350.83 L 680.56 351.42 L 678.93 351.65 L 662.93 351.65 L 661.30 351.42 L 659.91 350.83 L 658.69 349.89 L 657.75 348.67 L 657.16 347.28 L 656.93 345.65 L 656.93 329.65 L 657.16 328.02 L 657.75 326.62 L 658.69 325.41 L 659.91 324.46 L 661.30 323.88 L 662.93 323.65 Z" fill="#3fa5ff" fill-rule="evenodd" group-id="1,6" id="矩形备份" node-id="43" stroke="none" target-height="28" target-width="28" target-x="656.9336" target-y="323.64844"></path></g><g node-id="98"><g node-id="108"><path d="M 424.93 323.65 L 600.00 323.65 L 601.63 323.88 L 603.03 324.46 L 604.24 325.41 L 605.19 326.62 L 605.77 328.02 L 606.00 329.65 L 606.00 346.30 L 605.77 347.93 L 605.19 349.32 L 604.24 350.54 L 603.03 351.48 L 601.63 352.07 L 600.00 352.30 L 424.93 352.30 L 423.30 352.07 L 421.91 351.48 L 420.69 350.54 L 419.75 349.32 L 419.16 347.93 L 418.93 346.30 L 418.93 329.65 L 419.16 328.02 L 419.75 326.62 L 420.69 325.41 L 421.91 324.46 L 423.30 323.88 L 424.93 323.65 Z" fill="#3fa5ff" fill-opacity="0.4" fill-rule="evenodd" group-id="1,7,17" id="矩形" node-id="45" stroke="none" target-height="28.648438" target-width="187.0664" target-x="418.9336" target-y="323.64844"></path></g><path d="M 380.93 323.65 L 396.93 323.65 L 398.56 323.88 L 399.96 324.46 L 401.18 325.41 L 402.12 326.62 L 402.70 328.02 L 402.93 329.65 L 402.93 345.65 L 402.70 347.28 L 402.12 348.67 L 401.18 349.89 L 399.96 350.83 L 398.56 351.42 L 396.93 351.65 L 380.93 351.65 L 379.30 351.42 L 377.91 350.83 L 376.69 349.89 L 375.75 348.67 L 375.16 347.28 L 374.93 345.65 L 374.93 329.65 L 375.16 328.02 L 375.75 326.62 L 376.69 325.41 L 377.91 324.46 L 379.30 323.88 L 380.93 323.65 Z" fill="#3fa5ff" fill-rule="evenodd" group-id="1,7" id="矩形备份" node-id="46" stroke="none" target-height="28" target-width="28" target-x="374.9336" target-y="323.64844"></path></g><g node-id="99"><path d="M 131.43 235.29 L 131.21 237.70 L 130.61 239.91 L 129.63 241.95 L 128.32 243.80 L 126.75 245.37 L 124.90 246.68 L 122.86 247.65 L 120.66 248.25 L 118.25 248.48 L 115.84 248.25 L 113.64 247.65 L 111.60 246.68 L 109.75 245.37 L 108.18 243.80 L 106.87 241.95 L 105.89 239.91 L 105.29 237.70 L 105.07 235.29 L 105.29 232.89 L 105.89 230.68 L 106.87 228.64 L 108.18 226.79 L 109.75 225.22 L 111.60 223.91 L 113.64 222.94 L 115.84 222.33 L 118.25 222.11 L 120.66 222.33 L 122.86 222.94 L 124.90 223.91 L 126.75 225.22 L 128.32 226.79 L 129.63 228.64 L 130.61 230.68 L 131.21 232.89 L 131.43 235.29 Z" fill="#3fa5ff" fill-opacity="0.5" fill-rule="evenodd" group-id="1,8" id="椭圆形" node-id="47" stroke="none" target-height="26.367188" target-width="26.367188" target-x="105.06641" target-y="222.11078"></path></g><g node-id="100"><path d="M 175.38 235.29 L 175.15 237.70 L 174.55 239.91 L 173.58 241.95 L 172.27 243.80 L 170.70 245.37 L 168.85 246.68 L 166.81 247.65 L 164.60 248.25 L 162.20 248.48 L 159.79 248.25 L 157.58 247.65 L 155.54 246.68 L 153.69 245.37 L 152.12 243.80 L 150.81 241.95 L 149.84 239.91 L 149.24 237.70 L 149.01 235.29 L 149.24 232.89 L 149.84 230.68 L 150.81 228.64 L 152.12 226.79 L 153.69 225.22 L 155.54 223.91 L 157.58 222.94 L 159.79 222.33 L 162.20 222.11 L 164.60 222.33 L 166.81 222.94 L 168.85 223.91 L 170.70 225.22 L 172.27 226.79 L 173.58 228.64 L 174.55 230.68 L 175.15 232.89 L 175.38 235.29 Z" fill="#3fa5ff" fill-opacity="0.5" fill-rule="evenodd" group-id="1,9" id="椭圆形备份" node-id="48" stroke="none" target-height="26.367188" target-width="26.367188" target-x="149.01172" target-y="222.11078"></path></g><path d="M 219.32 235.29 L 219.10 237.70 L 218.50 239.91 L 217.52 241.95 L 216.21 243.80 L 214.64 245.37 L 212.79 246.68 L 210.75 247.65 L 208.55 248.25 L 206.14 248.48 L 203.73 248.25 L 201.53 247.65 L 199.49 246.68 L 197.64 245.37 L 196.07 243.80 L 194.76 241.95 L 193.78 239.91 L 193.18 237.70 L 192.96 235.29 L 193.18 232.89 L 193.78 230.68 L 194.76 228.64 L 196.07 226.79 L 197.64 225.22 L 199.49 223.91 L 201.53 222.94 L 203.73 222.33 L 206.14 222.11 L 208.55 222.33 L 210.75 222.94 L 212.79 223.91 L 214.64 225.22 L 216.21 226.79 L 217.52 228.64 L 218.50 230.68 L 219.10 232.89 L 219.32 235.29 Z" fill="#3fa5ff" fill-opacity="0.5" fill-rule="evenodd" group-id="1,10" id="椭圆形备份-2" node-id="49" stroke="none" target-height="26.367188" target-width="26.367188" target-x="192.95703" target-y="222.11078"></path></g></svg>