<?xml version="1.0" standalone="no"?><!DOCTYPE svg PUBLIC "-//W3C//DTD SVG 1.1//EN" "http://www.w3.org/Graphics/SVG/1.1/DTD/svg11.dtd"><svg height="1024" node-id="1" sillyvg="true" template-height="1024" template-width="1024" version="1.1" viewBox="0 0 1024 1024" width="1024" xmlns="http://www.w3.org/2000/svg" xmlns:xlink="http://www.w3.org/1999/xlink"><defs node-id="32"><filter height="1.121" id="filter-2" node-id="6" width="1.087" x="-0.043" y="-0.061"><feOffset color-interpolation-filters="linearRGB" dx="0" dy="0" in="SourceAlpha" result="shadowOffsetOuter1"></feOffset><feGaussianBlur color-interpolation-filters="linearRGB" in="shadowOffsetOuter1" result="shadowBlurOuter1" stdDeviation="13 13"></feGaussianBlur><feColorMatrix color-interpolation-filters="linearRGB" in="shadowBlurOuter1" result="result3" type="matrix" values="0 0 0 0 0 0 0 0 0 0 0 0 0 0 0 0 0 0 0.0841892483 0"></feColorMatrix></filter><clipPath id="mask-4" node-id="20"><path d="M 165.09 469.15 L 847.54 469.15 C 850.46 469.15 852.82 471.51 852.82 474.42 L 852.82 589.88 C 852.82 592.79 850.46 595.15 847.54 595.15 L 165.09 595.15 C 162.18 595.15 159.82 592.79 159.82 589.88 L 159.82 474.42 C 159.82 471.51 162.18 469.15 165.09 469.15 Z" fill="#000000" fill-rule="evenodd" node-id="45" stroke="none" target-height="126" target-width="693" target-x="159.8164" target-y="469.14844"></path></clipPath></defs><path d="M 0.00 0.00 L 1024.00 0.00 L 1024.00 1024.00 L 0.00 1024.00 Z" fill="#171a1d" fill-rule="evenodd" node-id="51" stroke="none" target-height="1024" target-width="1024" target-x="0" target-y="0"></path><g node-id="84"><g node-id="86"><g node-id="91"><path d="M 67.27 190.00 L 956.73 190.00 L 958.16 190.20 L 959.39 190.72 L 960.46 191.54 L 961.28 192.61 L 961.80 193.84 L 962.00 195.27 L 962.00 828.09 L 961.80 829.52 L 961.28 830.75 L 960.46 831.81 L 959.39 832.64 L 958.16 833.16 L 956.73 833.36 L 67.27 833.36 L 65.84 833.16 L 64.61 832.64 L 63.54 831.81 L 62.72 830.75 L 62.20 829.52 L 62.00 828.09 L 62.00 195.27 L 62.20 193.84 L 62.72 192.61 L 63.54 191.54 L 64.61 190.72 L 65.84 190.20 L 67.27 190.00 Z" fill="#000000" fill-opacity="0.05008176" fill-rule="evenodd" filter="url(#filter-2)" group-id="1,3,8" node-id="57" stroke="none" target-height="643.3594" target-width="900" target-x="62" target-y="190"></path></g><path d="M 67.27 190.00 L 956.73 190.00 L 958.16 190.20 L 959.39 190.72 L 960.46 191.54 L 961.28 192.61 L 961.80 193.84 L 962.00 195.27 L 962.00 828.09 L 961.80 829.52 L 961.28 830.75 L 960.46 831.81 L 959.39 832.64 L 958.16 833.16 L 956.73 833.36 L 67.27 833.36 L 65.84 833.16 L 64.61 832.64 L 63.54 831.81 L 62.72 830.75 L 62.20 829.52 L 62.00 828.09 L 62.00 195.27 L 62.20 193.84 L 62.72 192.61 L 63.54 191.54 L 64.61 190.72 L 65.84 190.20 L 67.27 190.00 Z" fill="#3fa5ff" fill-opacity="0.05008176" fill-rule="evenodd" group-id="1,3,9" node-id="62" stroke="none" target-height="643.3594" target-width="900" target-x="62" target-y="190"></path></g><g node-id="87"><path d="M 131.43 235.29 L 131.21 237.70 L 130.61 239.91 L 129.63 241.95 L 128.32 243.80 L 126.75 245.37 L 124.90 246.68 L 122.86 247.65 L 120.66 248.25 L 118.25 248.48 L 115.84 248.25 L 113.64 247.65 L 111.60 246.68 L 109.75 245.37 L 108.18 243.80 L 106.87 241.95 L 105.89 239.91 L 105.29 237.70 L 105.07 235.29 L 105.29 232.89 L 105.89 230.68 L 106.87 228.64 L 108.18 226.79 L 109.75 225.22 L 111.60 223.91 L 113.64 222.94 L 115.84 222.33 L 118.25 222.11 L 120.66 222.33 L 122.86 222.94 L 124.90 223.91 L 126.75 225.22 L 128.32 226.79 L 129.63 228.64 L 130.61 230.68 L 131.21 232.89 L 131.43 235.29 Z" fill="#3fa5ff" fill-opacity="0.5" fill-rule="evenodd" group-id="1,4" id="椭圆形" node-id="17" stroke="none" target-height="26.367188" target-width="26.367188" target-x="105.06641" target-y="222.11078"></path></g><g node-id="88"><path d="M 175.38 235.29 L 175.15 237.70 L 174.55 239.91 L 173.58 241.95 L 172.27 243.80 L 170.70 245.37 L 168.85 246.68 L 166.81 247.65 L 164.60 248.25 L 162.20 248.48 L 159.79 248.25 L 157.58 247.65 L 155.54 246.68 L 153.69 245.37 L 152.12 243.80 L 150.81 241.95 L 149.84 239.91 L 149.24 237.70 L 149.01 235.29 L 149.24 232.89 L 149.84 230.68 L 150.81 228.64 L 152.12 226.79 L 153.69 225.22 L 155.54 223.91 L 157.58 222.94 L 159.79 222.33 L 162.20 222.11 L 164.60 222.33 L 166.81 222.94 L 168.85 223.91 L 170.70 225.22 L 172.27 226.79 L 173.58 228.64 L 174.55 230.68 L 175.15 232.89 L 175.38 235.29 Z" fill="#3fa5ff" fill-opacity="0.5" fill-rule="evenodd" group-id="1,5" id="椭圆形备份" node-id="18" stroke="none" target-height="26.367188" target-width="26.367188" target-x="149.01172" target-y="222.11078"></path></g><path d="M 219.32 235.29 L 219.10 237.70 L 218.50 239.91 L 217.52 241.95 L 216.21 243.80 L 214.64 245.37 L 212.79 246.68 L 210.75 247.65 L 208.55 248.25 L 206.14 248.48 L 203.73 248.25 L 201.53 247.65 L 199.49 246.68 L 197.64 245.37 L 196.07 243.80 L 194.76 241.95 L 193.78 239.91 L 193.18 237.70 L 192.96 235.29 L 193.18 232.89 L 193.78 230.68 L 194.76 228.64 L 196.07 226.79 L 197.64 225.22 L 199.49 223.91 L 201.53 222.94 L 203.73 222.33 L 206.14 222.11 L 208.55 222.33 L 210.75 222.94 L 212.79 223.91 L 214.64 225.22 L 216.21 226.79 L 217.52 228.64 L 218.50 230.68 L 219.10 232.89 L 219.32 235.29 Z" fill="#3fa5ff" fill-opacity="0.5" fill-rule="evenodd" group-id="1,6" id="椭圆形备份-2" node-id="19" stroke="none" target-height="26.367188" target-width="26.367188" target-x="192.95703" target-y="222.11078"></path></g><path d="M 166.59 470.65 L 846.04 470.65 C 848.96 470.65 851.32 473.01 851.32 475.92 L 851.32 588.38 C 851.32 591.29 848.96 593.65 846.04 593.65 L 166.59 593.65 C 163.68 593.65 161.32 591.29 161.32 588.38 L 161.32 475.92 C 161.32 473.01 163.68 470.65 166.59 470.65 Z" fill="none" node-id="79" stroke="#3fa5ff" stroke-linecap="butt" stroke-width="3" target-height="123" target-width="690" target-x="161.3164" target-y="470.64844"></path><g clip-path="url(#mask-4)" group-id="2" node-id="82"><text align="center" editable="true" ellipsis="false" fill="#0c73ff" flags="1" font-family="'Noto Sans CJK SC'" font-size="56.816326" font-stretch="normal" font-style="normal" font-weight="400" group-id="2,7" height="84.08816" id="我是一个行走的文字" letter-spacing="0" node-id="25" stroke="none" target-x="136.40816" target-y="486.74152" vertical-align="center" width="511.3469" x="136.40816" xml:space="preserve" y="552.64844">我是一个行走的文字</text><text align="center" editable="true" ellipsis="false" fill="#2692f7" flags="1" font-family="'Noto Sans CJK SC'" font-size="56.816326" font-stretch="normal" font-style="normal" font-weight="400" group-id="2,7" height="84.08816" id="我是一个行走的文字备份" letter-spacing="0" node-id="28" stroke="none" target-x="827.40814" target-y="486.74152" vertical-align="center" width="511.3469" x="827.40814" xml:space="preserve" y="552.64844">我是一个行走的文字</text></g></svg>