<?xml version="1.0" standalone="no"?><!DOCTYPE svg PUBLIC "-//W3C//DTD SVG 1.1//EN" "http://www.w3.org/Graphics/SVG/1.1/DTD/svg11.dtd"><svg height="1024" node-id="1" sillyvg="true" template-height="1024" template-width="1024" version="1.1" viewBox="0 0 1024 1024" width="1024" xmlns="http://www.w3.org/2000/svg" xmlns:xlink="http://www.w3.org/1999/xlink"><defs node-id="92"><filter height="1.121" id="filter-2" node-id="6" width="1.087" x="-0.043" y="-0.061"><feOffset color-interpolation-filters="linearRGB" dx="0" dy="0" in="SourceAlpha" result="shadowOffsetOuter1"></feOffset><feGaussianBlur color-interpolation-filters="linearRGB" in="shadowOffsetOuter1" result="shadowBlurOuter1" stdDeviation="13 13"></feGaussianBlur><feColorMatrix color-interpolation-filters="linearRGB" in="shadowBlurOuter1" result="result3" type="matrix" values="0 0 0 0 0 0 0 0 0 0 0 0 0 0 0 0 0 0 0.0841892483 0"></feColorMatrix></filter><filter height="1.2" id="filter-3" node-id="10" width="1.2" x="-0.1" y="-0.1"><feColorMatrix color-interpolation-filters="sRGB" in="SourceGraphic" result="result1" type="matrix" values="0 0 0 0 0.047059 0 0 0 0 0.45098 0 0 0 0 1 0 0 0 1 0"></feColorMatrix></filter><filter height="1.2" id="filter-4" node-id="12" width="1.2" x="-0.1" y="-0.1"><feColorMatrix color-interpolation-filters="sRGB" in="SourceGraphic" result="result1" type="matrix" values="0 0 0 0 0.047059 0 0 0 0 0.45098 0 0 0 0 1 0 0 0 1 0"></feColorMatrix></filter><filter height="1.2" id="filter-5" node-id="14" width="1.2" x="-0.1" y="-0.1"><feColorMatrix color-interpolation-filters="sRGB" in="SourceGraphic" result="result1" type="matrix" values="0 0 0 0 0.047059 0 0 0 0 0.45098 0 0 0 0 1 0 0 0 1 0"></feColorMatrix></filter><filter height="1.2" id="filter-6" node-id="16" width="1.2" x="-0.1" y="-0.1"><feColorMatrix color-interpolation-filters="sRGB" in="SourceGraphic" result="result1" type="matrix" values="0 0 0 0 0.047059 0 0 0 0 0.45098 0 0 0 0 1 0 0 0 1 0"></feColorMatrix></filter><filter height="1.2" id="filter-7" node-id="18" width="1.2" x="-0.1" y="-0.1"><feColorMatrix color-interpolation-filters="sRGB" in="SourceGraphic" result="result1" type="matrix" values="0 0 0 0 0.047059 0 0 0 0 0.45098 0 0 0 0 1 0 0 0 1 0"></feColorMatrix></filter></defs><path d="M 0.00 0.00 L 1024.00 0.00 L 1024.00 1024.00 L 0.00 1024.00 Z" fill="#171a1d" fill-rule="evenodd" node-id="124" stroke="none" target-height="1024" target-width="1024" target-x="0" target-y="0"></path><g node-id="163"><g node-id="164"><g node-id="171"><path d="M 67.27 190.00 L 956.73 190.00 L 958.16 190.20 L 959.39 190.72 L 960.46 191.54 L 961.28 192.61 L 961.80 193.84 L 962.00 195.27 L 962.00 828.09 L 961.80 829.52 L 961.28 830.75 L 960.46 831.81 L 959.39 832.64 L 958.16 833.16 L 956.73 833.36 L 67.27 833.36 L 65.84 833.16 L 64.61 832.64 L 63.54 831.81 L 62.72 830.75 L 62.20 829.52 L 62.00 828.09 L 62.00 195.27 L 62.20 193.84 L 62.72 192.61 L 63.54 191.54 L 64.61 190.72 L 65.84 190.20 L 67.27 190.00 Z" fill="#000000" fill-opacity="0.05008176" fill-rule="evenodd" filter="url(#filter-2)" group-id="1,2,9" node-id="130" stroke="none" target-height="643.3594" target-width="900" target-x="62" target-y="190"></path></g><path d="M 67.27 190.00 L 956.73 190.00 L 958.16 190.20 L 959.39 190.72 L 960.46 191.54 L 961.28 192.61 L 961.80 193.84 L 962.00 195.27 L 962.00 828.09 L 961.80 829.52 L 961.28 830.75 L 960.46 831.81 L 959.39 832.64 L 958.16 833.16 L 956.73 833.36 L 67.27 833.36 L 65.84 833.16 L 64.61 832.64 L 63.54 831.81 L 62.72 830.75 L 62.20 829.52 L 62.00 828.09 L 62.00 195.27 L 62.20 193.84 L 62.72 192.61 L 63.54 191.54 L 64.61 190.72 L 65.84 190.20 L 67.27 190.00 Z" fill="#3fa5ff" fill-opacity="0.05008176" fill-rule="evenodd" group-id="1,2,10" node-id="135" stroke="none" target-height="643.3594" target-width="900" target-x="62" target-y="190"></path></g><g node-id="165"><g node-id="173"><path d="M 205.98 329.23 L 805.98 329.23 L 805.98 713.61 L 205.98 713.61 Z" fill="#ffffff" fill-opacity="0" fill-rule="nonzero" group-id="1,3,11" node-id="141" stroke="none" target-height="384.375" target-width="600" target-x="205.9831" target-y="329.23438"></path><g node-id="177"><g node-id="188"><path d="M 505.98 398.42 L 513.46 398.65 L 520.81 399.32 L 528.05 400.41 L 535.19 401.94 L 542.24 403.89 L 549.12 406.23 L 555.82 408.97 L 562.37 412.11 L 568.73 415.63 L 574.84 419.50 L 580.74 423.75 L 586.41 428.36 L 591.80 433.30 L 596.89 438.56 L 601.69 444.17 L 606.21 450.12 L 662.59 410.02 L 656.97 402.53 L 651.07 395.39 L 644.89 388.60 L 638.42 382.14 L 631.65 376.01 L 624.59 370.20 L 617.30 364.76 L 609.80 359.68 L 602.06 354.97 L 594.09 350.62 L 585.92 346.65 L 577.60 343.07 L 569.11 339.90 L 560.46 337.12 L 551.62 334.73 L 542.71 332.77 L 533.69 331.24 L 524.58 330.14 L 515.34 329.47 L 505.98 329.23 L 505.98 398.42 Z" fill="#0c73ff" fill-rule="nonzero" group-id="1,3,11,15,26" node-id="147" stroke="#171f27" stroke-linecap="butt" stroke-width="4" target-height="120.888824" target-width="156.60504" target-x="505.9831" target-y="329.23438"></path><path d="M 606.21 450.12 L 610.40 456.41 L 614.15 462.87 L 617.49 469.51 L 620.42 476.34 L 622.94 483.34 L 625.02 490.44 L 626.66 497.66 L 627.88 505.00 L 628.65 512.39 L 628.97 519.81 L 628.84 527.29 L 628.25 534.82 L 697.03 542.35 L 697.82 532.93 L 698.16 523.57 L 698.04 514.26 L 697.47 504.99 L 696.45 495.76 L 694.98 486.57 L 693.09 477.50 L 690.76 468.56 L 688.00 459.72 L 684.80 450.98 L 681.19 442.42 L 677.16 434.05 L 672.73 425.87 L 667.87 417.86 L 662.59 410.02 L 606.21 450.12 Z" fill="#3eabff" fill-rule="nonzero" group-id="1,3,11,15,26" node-id="149" stroke="#171f27" stroke-linecap="butt" stroke-width="4" target-height="132.33307" target-width="91.94653" target-x="606.2103" target-y="410.0177"></path><g node-id="194"><path d="M 628.25 534.82 L 627.19 542.28 L 625.74 549.51 L 623.89 556.53 L 621.64 563.36 L 619.01 570.00 L 615.16 578.11 L 610.80 585.81 L 605.94 593.13 L 600.55 600.08 L 594.67 606.64 L 588.40 612.73 L 581.70 618.35 L 574.58 623.53 L 567.11 628.18 L 559.33 632.27 L 551.22 635.81 L 542.77 638.81 L 535.89 640.76 L 528.87 642.29 L 521.70 643.42 L 514.35 644.13 L 506.82 644.42 L 507.29 713.60 L 517.09 713.28 L 526.69 712.50 L 536.12 711.26 L 545.38 709.56 L 554.48 707.42 L 563.52 704.82 L 572.32 701.83 L 580.91 698.44 L 589.29 694.65 L 597.47 690.46 L 605.47 685.87 L 613.18 680.94 L 620.63 675.68 L 627.82 670.06 L 634.75 664.09 L 641.40 657.80 L 647.72 651.22 L 653.73 644.35 L 659.41 637.18 L 664.79 629.70 L 669.80 621.99 L 674.42 614.04 L 678.67 605.84 L 682.55 597.38 L 686.06 588.66 L 689.12 579.82 L 691.75 570.78 L 693.94 561.54 L 695.71 552.06 L 697.03 542.35 L 628.25 534.82 Z" fill="#42cbff" fill-opacity="0.9" fill-rule="nonzero" group-id="1,3,11,15,26,32" node-id="153" stroke="#171f27" stroke-linecap="butt" stroke-opacity="0.9" stroke-width="4" target-height="178.78851" target-width="190.20569" target-x="506.8219" target-y="534.81635"></path></g><g node-id="195"><path d="M 506.82 644.42 L 498.70 644.20 L 490.76 643.48 L 482.98 642.26 L 475.34 640.55 L 467.81 638.35 L 460.51 635.71 L 453.43 632.64 L 446.55 629.11 L 439.90 625.16 L 433.55 620.83 L 427.48 616.11 L 421.68 610.99 L 416.22 605.53 L 411.12 599.73 L 406.37 593.59 L 401.97 587.10 L 398.00 580.35 L 394.46 573.32 L 391.34 565.98 L 388.65 558.31 L 322.64 579.06 L 325.96 588.69 L 329.70 597.98 L 333.86 606.96 L 338.45 615.64 L 343.47 624.04 L 348.93 632.20 L 354.73 640.01 L 360.89 647.47 L 367.39 654.59 L 374.27 661.38 L 381.48 667.83 L 388.96 673.87 L 396.72 679.53 L 404.77 684.80 L 413.12 689.69 L 421.69 694.15 L 430.46 698.16 L 439.45 701.74 L 448.66 704.87 L 458.10 707.57 L 467.63 709.77 L 477.30 711.47 L 487.12 712.68 L 497.12 713.40 L 507.29 713.60 L 506.82 644.42 Z" fill="#64d0f7" fill-opacity="0.9" fill-rule="nonzero" group-id="1,3,11,15,26,33" node-id="158" stroke="#171f27" stroke-linecap="butt" stroke-opacity="0.9" stroke-width="4" target-height="155.29248" target-width="184.65048" target-x="322.64325" target-y="558.3124"></path></g><path d="M 388.65 558.31 L 386.65 551.23 L 385.10 544.13 L 383.97 537.01 L 383.27 529.86 L 382.99 522.66 L 383.12 515.51 L 383.67 508.40 L 384.64 501.31 L 386.01 494.29 L 387.79 487.38 L 389.96 480.57 L 392.55 473.85 L 395.52 467.30 L 398.89 460.93 L 402.65 454.71 L 406.82 448.65 L 411.35 442.85 L 416.15 437.40 L 421.23 432.28 L 426.58 427.48 L 432.22 423.00 L 438.06 418.88 L 444.12 415.11 L 450.40 411.70 L 456.88 408.65 L 463.50 405.99 L 470.27 403.72 L 477.22 401.83 L 484.26 400.35 L 491.39 399.29 L 498.63 398.65 L 505.98 398.42 L 505.98 329.23 L 496.77 329.46 L 487.69 330.11 L 478.71 331.18 L 469.83 332.66 L 461.05 334.56 L 452.34 336.87 L 443.80 339.57 L 435.43 342.65 L 427.21 346.12 L 419.14 349.97 L 411.26 354.20 L 403.60 358.77 L 396.16 363.70 L 388.94 368.99 L 381.92 374.64 L 375.19 380.60 L 368.74 386.88 L 362.57 393.48 L 356.67 400.43 L 351.04 407.72 L 345.77 415.27 L 340.92 422.98 L 336.47 430.85 L 332.41 438.89 L 328.75 447.09 L 325.46 455.48 L 322.59 463.96 L 320.12 472.53 L 318.05 481.21 L 316.38 490.00 L 315.12 498.85 L 314.28 507.73 L 313.85 516.64 L 313.84 525.60 L 314.25 534.60 L 315.07 543.55 L 316.31 552.46 L 317.99 561.35 L 320.10 570.21 L 322.64 579.06 L 388.65 558.31 Z" fill="#3eabff" fill-rule="nonzero" group-id="1,3,11,15,26" node-id="161" stroke="#171f27" stroke-linecap="butt" stroke-width="4" target-height="249.82892" target-width="192.1412" target-x="313.8419" target-y="329.23438"></path></g></g></g><g node-id="174"><g node-id="178"><path d="M 351.04 407.72 L 336.87 397.32 L 295.63 397.32" fill="none" group-id="1,3,12,16" id="路径" node-id="37" stroke="#0c73ff" stroke-linecap="butt" stroke-opacity="0.6005405" stroke-width="4.6875" target-height="10.399933" target-width="55.409637" target-x="295.63153" target-y="397.316"></path></g><g node-id="179"><path d="M 392.81 676.75 L 382.45 669.86 L 295.63 669.86" fill="none" group-id="1,3,12,17" id="路径" node-id="38" stroke="#0c73ff" stroke-linecap="butt" stroke-opacity="0.6005405" stroke-width="4.6875" target-height="6.886841" target-width="97.17462" target-x="295.63153" target-y="669.8638"></path></g><g node-id="180"><g node-id="189"><text align="center" editable="true" ellipsis="false" fill="#cafbfe" filter="url(#filter-3)" flags="1" font-family="'Noto Sans CJK SC'" font-size="14.0625" font-stretch="normal" font-style="normal" font-weight="400" group-id="1,3,12,18,27" height="20.8125" id="419" letter-spacing="0" node-id="41" stroke="none" target-x="721.6081" target-y="336.20105" vertical-align="center" width="23.414063" x="721.6081" xml:space="preserve" y="352.51355">419</text><text align="center" editable="true" ellipsis="false" fill="#cafbfe" filter="url(#filter-3)" flags="1" font-family="'Noto Sans CJK SC'" font-size="14.0625" font-stretch="normal" font-style="normal" font-weight="400" group-id="1,3,12,18,27" height="20.8125" id="XXXX" letter-spacing="0" node-id="44" stroke="none" target-x="721.6081" target-y="312.76355" vertical-align="center" width="32.23125" x="721.6081" xml:space="preserve" y="329.07605">XXXX</text></g></g><g node-id="181"><g node-id="190"><text align="center" editable="true" ellipsis="false" fill="#cafbfe" filter="url(#filter-4)" flags="1" font-family="'Noto Sans CJK SC'" font-size="14.0625" font-stretch="normal" font-style="normal" font-weight="400" group-id="1,3,12,19,28" height="20.8125" id="419" letter-spacing="0" node-id="49" stroke="none" target-x="721.6081" target-y="466.1073" vertical-align="center" width="23.414063" x="721.6081" xml:space="preserve" y="482.4198">419</text><text align="center" editable="true" ellipsis="false" fill="#cafbfe" filter="url(#filter-4)" flags="1" font-family="'Noto Sans CJK SC'" font-size="14.0625" font-stretch="normal" font-style="normal" font-weight="400" group-id="1,3,12,19,28" height="20.8125" id="XXXX" letter-spacing="0" node-id="52" stroke="none" target-x="721.6081" target-y="442.6698" vertical-align="center" width="32.23125" x="721.6081" xml:space="preserve" y="458.9823">XXXX</text></g></g><g node-id="182"><g node-id="191"><text align="center" editable="true" ellipsis="false" fill="#cafbfe" filter="url(#filter-5)" flags="1" font-family="'Noto Sans CJK SC'" font-size="14.0625" font-stretch="normal" font-style="normal" font-weight="400" group-id="1,3,12,20,29" height="20.8125" id="419" letter-spacing="0" node-id="57" stroke="none" target-x="721.6081" target-y="661.5879" vertical-align="center" width="23.414063" x="721.6081" xml:space="preserve" y="677.9004">419</text><text align="center" editable="true" ellipsis="false" fill="#cafbfe" filter="url(#filter-5)" flags="1" font-family="'Noto Sans CJK SC'" font-size="14.0625" font-stretch="normal" font-style="normal" font-weight="400" group-id="1,3,12,20,29" height="20.8125" id="XXXX" letter-spacing="0" node-id="60" stroke="none" target-x="721.6081" target-y="638.1504" vertical-align="center" width="32.23125" x="721.6081" xml:space="preserve" y="654.4629">XXXX</text></g></g><g node-id="183"><g node-id="192"><text align="center" editable="true" ellipsis="false" fill="#cafbfe" filter="url(#filter-6)" flags="1" font-family="'Noto Sans CJK SC'" font-size="14.0625" font-stretch="normal" font-style="normal" font-weight="400" group-id="1,3,12,21,30" height="20.8125" id="419" letter-spacing="0" node-id="65" stroke="none" target-x="261.06122" target-y="398.83737" vertical-align="center" width="23.414063" x="261.06122" xml:space="preserve" y="415.14987">419</text><text align="center" editable="true" ellipsis="false" fill="#cafbfe" filter="url(#filter-6)" flags="1" font-family="'Noto Sans CJK SC'" font-size="14.0625" font-stretch="normal" font-style="normal" font-weight="400" group-id="1,3,12,21,30" height="20.8125" id="XXXX" letter-spacing="0" node-id="68" stroke="none" target-x="246.99872" target-y="375.39987" vertical-align="center" width="32.23125" x="246.99872" xml:space="preserve" y="391.71237">XXXX</text></g></g><g node-id="184"><g node-id="193"><text align="center" editable="true" ellipsis="false" fill="#cafbfe" filter="url(#filter-7)" flags="1" font-family="'Noto Sans CJK SC'" font-size="14.0625" font-stretch="normal" font-style="normal" font-weight="400" group-id="1,3,12,22,31" height="20.8125" id="419" letter-spacing="0" node-id="73" stroke="none" target-x="261.06122" target-y="671.38513" vertical-align="center" width="23.414063" x="261.06122" xml:space="preserve" y="687.69763">419</text><text align="center" editable="true" ellipsis="false" fill="#cafbfe" filter="url(#filter-7)" flags="1" font-family="'Noto Sans CJK SC'" font-size="14.0625" font-stretch="normal" font-style="normal" font-weight="400" group-id="1,3,12,22,31" height="20.8125" id="XXXX" letter-spacing="0" node-id="76" stroke="none" target-x="246.99872" target-y="647.94763" vertical-align="center" width="32.23125" x="246.99872" xml:space="preserve" y="664.26013">XXXX</text></g></g><g node-id="185"><path d="M 594.09 350.45 L 602.15 334.83 L 716.33 334.83" fill="none" group-id="1,3,12,23" id="路径" node-id="79" stroke="#0c73ff" stroke-linecap="butt" stroke-opacity="0.6005405" stroke-width="4.6875" target-height="15.622131" target-width="122.244934" target-x="594.0897" target-y="334.82605"></path></g><g node-id="186"><path d="M 691.98 472.85 L 708.99 468.42 L 716.33 468.42" fill="none" group-id="1,3,12,24" id="路径" node-id="80" stroke="#0c73ff" stroke-linecap="butt" stroke-opacity="0.6005405" stroke-width="4.6875" target-height="4.4272156" target-width="24.359436" target-x="691.9752" target-y="468.4186"></path></g><path d="M 634.75 663.92 L 646.53 655.87 L 716.33 655.87" fill="none" group-id="1,3,12,25" id="路径" node-id="81" stroke="#0c73ff" stroke-linecap="butt" stroke-opacity="0.6005405" stroke-width="4.6875" target-height="8.044922" target-width="81.579956" target-x="634.7547" target-y="655.8722"></path></g></g><g node-id="166"><g node-id="175"><path d="M 750.00 718.36 L 925.07 718.36 L 926.70 718.59 L 928.09 719.17 L 929.31 720.12 L 930.25 721.33 L 930.84 722.73 L 931.07 724.36 L 931.07 741.01 L 930.84 742.64 L 930.25 744.03 L 929.31 745.25 L 928.09 746.19 L 926.70 746.78 L 925.07 747.01 L 750.00 747.01 L 748.37 746.78 L 746.97 746.19 L 745.76 745.25 L 744.81 744.03 L 744.23 742.64 L 744.00 741.01 L 744.00 724.36 L 744.23 722.73 L 744.81 721.33 L 745.76 720.12 L 746.97 719.17 L 748.37 718.59 L 750.00 718.36 Z" fill="#3fa5ff" fill-opacity="0.4" fill-rule="evenodd" group-id="1,4,13" id="矩形" node-id="83" stroke="none" target-height="28.648438" target-width="187.0664" target-x="744" target-y="718.3594"></path></g><path d="M 706.00 718.36 L 722.00 718.36 L 723.63 718.59 L 725.03 719.17 L 726.24 720.12 L 727.19 721.33 L 727.77 722.73 L 728.00 724.36 L 728.00 740.36 L 727.77 741.99 L 727.19 743.39 L 726.24 744.60 L 725.03 745.55 L 723.63 746.13 L 722.00 746.36 L 706.00 746.36 L 704.37 746.13 L 702.97 745.55 L 701.76 744.60 L 700.81 743.39 L 700.23 741.99 L 700.00 740.36 L 700.00 724.36 L 700.23 722.73 L 700.81 721.33 L 701.76 720.12 L 702.97 719.17 L 704.37 718.59 L 706.00 718.36 Z" fill="#3fa5ff" fill-rule="evenodd" group-id="1,4" id="矩形备份" node-id="84" stroke="none" target-height="28" target-width="28" target-x="700" target-y="718.3594"></path></g><g node-id="167"><g node-id="176"><path d="M 750.00 774.36 L 925.07 774.36 L 926.70 774.59 L 928.09 775.17 L 929.31 776.12 L 930.25 777.33 L 930.84 778.73 L 931.07 780.36 L 931.07 797.01 L 930.84 798.64 L 930.25 800.03 L 929.31 801.25 L 928.09 802.19 L 926.70 802.78 L 925.07 803.01 L 750.00 803.01 L 748.37 802.78 L 746.97 802.19 L 745.76 801.25 L 744.81 800.03 L 744.23 798.64 L 744.00 797.01 L 744.00 780.36 L 744.23 778.73 L 744.81 777.33 L 745.76 776.12 L 746.97 775.17 L 748.37 774.59 L 750.00 774.36 Z" fill="#3fa5ff" fill-opacity="0.4" fill-rule="evenodd" group-id="1,5,14" id="矩形" node-id="86" stroke="none" target-height="28.648438" target-width="187.0664" target-x="744" target-y="774.3594"></path></g><path d="M 706.00 774.36 L 722.00 774.36 L 723.63 774.59 L 725.03 775.17 L 726.24 776.12 L 727.19 777.33 L 727.77 778.73 L 728.00 780.36 L 728.00 796.36 L 727.77 797.99 L 727.19 799.39 L 726.24 800.60 L 725.03 801.55 L 723.63 802.13 L 722.00 802.36 L 706.00 802.36 L 704.37 802.13 L 702.97 801.55 L 701.76 800.60 L 700.81 799.39 L 700.23 797.99 L 700.00 796.36 L 700.00 780.36 L 700.23 778.73 L 700.81 777.33 L 701.76 776.12 L 702.97 775.17 L 704.37 774.59 L 706.00 774.36 Z" fill="#3fa5ff" fill-rule="evenodd" group-id="1,5" id="矩形备份" node-id="87" stroke="none" target-height="28" target-width="28" target-x="700" target-y="774.3594"></path></g><g node-id="168"><path d="M 131.43 235.29 L 131.21 237.70 L 130.61 239.91 L 129.63 241.95 L 128.32 243.80 L 126.75 245.37 L 124.90 246.68 L 122.86 247.65 L 120.66 248.25 L 118.25 248.48 L 115.84 248.25 L 113.64 247.65 L 111.60 246.68 L 109.75 245.37 L 108.18 243.80 L 106.87 241.95 L 105.89 239.91 L 105.29 237.70 L 105.07 235.29 L 105.29 232.89 L 105.89 230.68 L 106.87 228.64 L 108.18 226.79 L 109.75 225.22 L 111.60 223.91 L 113.64 222.94 L 115.84 222.33 L 118.25 222.11 L 120.66 222.33 L 122.86 222.94 L 124.90 223.91 L 126.75 225.22 L 128.32 226.79 L 129.63 228.64 L 130.61 230.68 L 131.21 232.89 L 131.43 235.29 Z" fill="#3fa5ff" fill-opacity="0.5" fill-rule="evenodd" group-id="1,6" id="椭圆形" node-id="88" stroke="none" target-height="26.367188" target-width="26.367188" target-x="105.06641" target-y="222.11078"></path></g><g node-id="169"><path d="M 175.38 235.29 L 175.15 237.70 L 174.55 239.91 L 173.58 241.95 L 172.27 243.80 L 170.70 245.37 L 168.85 246.68 L 166.81 247.65 L 164.60 248.25 L 162.20 248.48 L 159.79 248.25 L 157.58 247.65 L 155.54 246.68 L 153.69 245.37 L 152.12 243.80 L 150.81 241.95 L 149.84 239.91 L 149.24 237.70 L 149.01 235.29 L 149.24 232.89 L 149.84 230.68 L 150.81 228.64 L 152.12 226.79 L 153.69 225.22 L 155.54 223.91 L 157.58 222.94 L 159.79 222.33 L 162.20 222.11 L 164.60 222.33 L 166.81 222.94 L 168.85 223.91 L 170.70 225.22 L 172.27 226.79 L 173.58 228.64 L 174.55 230.68 L 175.15 232.89 L 175.38 235.29 Z" fill="#3fa5ff" fill-opacity="0.5" fill-rule="evenodd" group-id="1,7" id="椭圆形备份" node-id="89" stroke="none" target-height="26.367188" target-width="26.367188" target-x="149.01172" target-y="222.11078"></path></g><path d="M 219.32 235.29 L 219.10 237.70 L 218.50 239.91 L 217.52 241.95 L 216.21 243.80 L 214.64 245.37 L 212.79 246.68 L 210.75 247.65 L 208.55 248.25 L 206.14 248.48 L 203.73 248.25 L 201.53 247.65 L 199.49 246.68 L 197.64 245.37 L 196.07 243.80 L 194.76 241.95 L 193.78 239.91 L 193.18 237.70 L 192.96 235.29 L 193.18 232.89 L 193.78 230.68 L 194.76 228.64 L 196.07 226.79 L 197.64 225.22 L 199.49 223.91 L 201.53 222.94 L 203.73 222.33 L 206.14 222.11 L 208.55 222.33 L 210.75 222.94 L 212.79 223.91 L 214.64 225.22 L 216.21 226.79 L 217.52 228.64 L 218.50 230.68 L 219.10 232.89 L 219.32 235.29 Z" fill="#3fa5ff" fill-opacity="0.5" fill-rule="evenodd" group-id="1,8" id="椭圆形备份-2" node-id="90" stroke="none" target-height="26.367188" target-width="26.367188" target-x="192.95703" target-y="222.11078"></path></g></svg>