<?xml version="1.0" standalone="no"?><!DOCTYPE svg PUBLIC "-//W3C//DTD SVG 1.1//EN" "http://www.w3.org/Graphics/SVG/1.1/DTD/svg11.dtd"><svg height="1024" node-id="1" sillyvg="true" template-height="1024" template-width="1024" version="1.1" viewBox="0 0 1024 1024" width="1024" xmlns="http://www.w3.org/2000/svg" xmlns:xlink="http://www.w3.org/1999/xlink"><defs node-id="30"><filter height="1.121" id="filter-2" node-id="6" width="1.087" x="-0.043" y="-0.061"><feOffset color-interpolation-filters="linearRGB" dx="0" dy="0" in="SourceAlpha" result="shadowOffsetOuter1"></feOffset><feGaussianBlur color-interpolation-filters="linearRGB" in="shadowOffsetOuter1" result="shadowBlurOuter1" stdDeviation="13 13"></feGaussianBlur><feColorMatrix color-interpolation-filters="linearRGB" in="shadowBlurOuter1" result="result3" type="matrix" values="0 0 0 0 0 0 0 0 0 0 0 0 0 0 0 0 0 0 0.0841892483 0"></feColorMatrix></filter></defs><path d="M 0.00 0.00 L 1024.00 0.00 L 1024.00 1024.00 L 0.00 1024.00 Z" fill="#171a1d" fill-rule="evenodd" node-id="42" stroke="none" target-height="1024" target-width="1024" target-x="0" target-y="0"></path><g node-id="55"><g node-id="56"><g node-id="63"><path d="M 67.27 190.00 L 956.73 190.00 L 958.16 190.20 L 959.39 190.72 L 960.46 191.54 L 961.28 192.61 L 961.80 193.84 L 962.00 195.27 L 962.00 828.09 L 961.80 829.52 L 961.28 830.75 L 960.46 831.81 L 959.39 832.64 L 958.16 833.16 L 956.73 833.36 L 67.27 833.36 L 65.84 833.16 L 64.61 832.64 L 63.54 831.81 L 62.72 830.75 L 62.20 829.52 L 62.00 828.09 L 62.00 195.27 L 62.20 193.84 L 62.72 192.61 L 63.54 191.54 L 64.61 190.72 L 65.84 190.20 L 67.27 190.00 Z" fill="#000000" fill-opacity="0.05008176" fill-rule="evenodd" filter="url(#filter-2)" group-id="1,2,9" node-id="48" stroke="none" target-height="643.3594" target-width="900" target-x="62" target-y="190"></path></g><path d="M 67.27 190.00 L 956.73 190.00 L 958.16 190.20 L 959.39 190.72 L 960.46 191.54 L 961.28 192.61 L 961.80 193.84 L 962.00 195.27 L 962.00 828.09 L 961.80 829.52 L 961.28 830.75 L 960.46 831.81 L 959.39 832.64 L 958.16 833.16 L 956.73 833.36 L 67.27 833.36 L 65.84 833.16 L 64.61 832.64 L 63.54 831.81 L 62.72 830.75 L 62.20 829.52 L 62.00 828.09 L 62.00 195.27 L 62.20 193.84 L 62.72 192.61 L 63.54 191.54 L 64.61 190.72 L 65.84 190.20 L 67.27 190.00 Z" fill="#0c73ff" fill-opacity="0.05008176" fill-rule="evenodd" group-id="1,2,10" node-id="53" stroke="none" target-height="643.3594" target-width="900" target-x="62" target-y="190"></path></g><g node-id="57"><g node-id="65"><path d="M 497.33 301.93 L 733.45 456.88 L 644.87 722.90 L 386.53 722.90 L 290.27 464.29 Z" fill="#0c73ff" fill-opacity="0.2" fill-rule="nonzero" group-id="1,3,11" id="路径" node-id="17" stroke="none" target-height="420.96774" target-width="443.18204" target-x="290.27206" target-y="301.93448"></path></g><g node-id="66"><path d="M 364.32 471.69 L 430.69 626.92 L 615.53 693.28 L 704.11 456.88 L 461.68 424.52 Z" fill="#0c73ff" fill-opacity="0.6" fill-rule="nonzero" group-id="1,3,12" id="路径" node-id="18" stroke="none" target-height="268.7611" target-width="339.79132" target-x="364.31866" target-y="424.52246"></path></g><path d="M 504.73 368.30 L 667.09 471.69 L 393.94 678.47 L 408.47 493.91 Z" fill="#0c73ff" fill-rule="nonzero" group-id="1,3" id="路径" node-id="19" stroke="none" target-height="310.17224" target-width="273.149" target-x="393.93768" target-y="368.30225"></path></g><g node-id="58"><g node-id="67"><path d="M 750.00 718.36 L 925.07 718.36 L 926.70 718.59 L 928.09 719.17 L 929.31 720.12 L 930.25 721.33 L 930.84 722.73 L 931.07 724.36 L 931.07 741.01 L 930.84 742.64 L 930.25 744.03 L 929.31 745.25 L 928.09 746.19 L 926.70 746.78 L 925.07 747.01 L 750.00 747.01 L 748.37 746.78 L 746.97 746.19 L 745.76 745.25 L 744.81 744.03 L 744.23 742.64 L 744.00 741.01 L 744.00 724.36 L 744.23 722.73 L 744.81 721.33 L 745.76 720.12 L 746.97 719.17 L 748.37 718.59 L 750.00 718.36 Z" fill="#3fa5ff" fill-opacity="0.4" fill-rule="evenodd" group-id="1,4,13" id="矩形" node-id="21" stroke="none" target-height="28.648438" target-width="187.0664" target-x="744" target-y="718.3594"></path></g><path d="M 706.00 718.36 L 722.00 718.36 L 723.63 718.59 L 725.03 719.17 L 726.24 720.12 L 727.19 721.33 L 727.77 722.73 L 728.00 724.36 L 728.00 740.36 L 727.77 741.99 L 727.19 743.39 L 726.24 744.60 L 725.03 745.55 L 723.63 746.13 L 722.00 746.36 L 706.00 746.36 L 704.37 746.13 L 702.97 745.55 L 701.76 744.60 L 700.81 743.39 L 700.23 741.99 L 700.00 740.36 L 700.00 724.36 L 700.23 722.73 L 700.81 721.33 L 701.76 720.12 L 702.97 719.17 L 704.37 718.59 L 706.00 718.36 Z" fill="#3fa5ff" fill-rule="evenodd" group-id="1,4" id="矩形备份" node-id="22" stroke="none" target-height="28" target-width="28" target-x="700" target-y="718.3594"></path></g><g node-id="59"><g node-id="68"><path d="M 750.00 774.36 L 925.07 774.36 L 926.70 774.59 L 928.09 775.17 L 929.31 776.12 L 930.25 777.33 L 930.84 778.73 L 931.07 780.36 L 931.07 797.01 L 930.84 798.64 L 930.25 800.03 L 929.31 801.25 L 928.09 802.19 L 926.70 802.78 L 925.07 803.01 L 750.00 803.01 L 748.37 802.78 L 746.97 802.19 L 745.76 801.25 L 744.81 800.03 L 744.23 798.64 L 744.00 797.01 L 744.00 780.36 L 744.23 778.73 L 744.81 777.33 L 745.76 776.12 L 746.97 775.17 L 748.37 774.59 L 750.00 774.36 Z" fill="#3fa5ff" fill-opacity="0.4" fill-rule="evenodd" group-id="1,5,14" id="矩形" node-id="24" stroke="none" target-height="28.648438" target-width="187.0664" target-x="744" target-y="774.3594"></path></g><path d="M 706.00 774.36 L 722.00 774.36 L 723.63 774.59 L 725.03 775.17 L 726.24 776.12 L 727.19 777.33 L 727.77 778.73 L 728.00 780.36 L 728.00 796.36 L 727.77 797.99 L 727.19 799.39 L 726.24 800.60 L 725.03 801.55 L 723.63 802.13 L 722.00 802.36 L 706.00 802.36 L 704.37 802.13 L 702.97 801.55 L 701.76 800.60 L 700.81 799.39 L 700.23 797.99 L 700.00 796.36 L 700.00 780.36 L 700.23 778.73 L 700.81 777.33 L 701.76 776.12 L 702.97 775.17 L 704.37 774.59 L 706.00 774.36 Z" fill="#3fa5ff" fill-rule="evenodd" group-id="1,5" id="矩形备份" node-id="25" stroke="none" target-height="28" target-width="28" target-x="700" target-y="774.3594"></path></g><g node-id="60"><path d="M 131.43 235.29 L 131.21 237.70 L 130.61 239.91 L 129.63 241.95 L 128.32 243.80 L 126.75 245.37 L 124.90 246.68 L 122.86 247.65 L 120.66 248.25 L 118.25 248.48 L 115.84 248.25 L 113.64 247.65 L 111.60 246.68 L 109.75 245.37 L 108.18 243.80 L 106.87 241.95 L 105.89 239.91 L 105.29 237.70 L 105.07 235.29 L 105.29 232.89 L 105.89 230.68 L 106.87 228.64 L 108.18 226.79 L 109.75 225.22 L 111.60 223.91 L 113.64 222.94 L 115.84 222.33 L 118.25 222.11 L 120.66 222.33 L 122.86 222.94 L 124.90 223.91 L 126.75 225.22 L 128.32 226.79 L 129.63 228.64 L 130.61 230.68 L 131.21 232.89 L 131.43 235.29 Z" fill="#3fa5ff" fill-opacity="0.5" fill-rule="evenodd" group-id="1,6" id="椭圆形" node-id="26" stroke="none" target-height="26.367188" target-width="26.367188" target-x="105.06641" target-y="222.11078"></path></g><g node-id="61"><path d="M 175.38 235.29 L 175.15 237.70 L 174.55 239.91 L 173.58 241.95 L 172.27 243.80 L 170.70 245.37 L 168.85 246.68 L 166.81 247.65 L 164.60 248.25 L 162.20 248.48 L 159.79 248.25 L 157.58 247.65 L 155.54 246.68 L 153.69 245.37 L 152.12 243.80 L 150.81 241.95 L 149.84 239.91 L 149.24 237.70 L 149.01 235.29 L 149.24 232.89 L 149.84 230.68 L 150.81 228.64 L 152.12 226.79 L 153.69 225.22 L 155.54 223.91 L 157.58 222.94 L 159.79 222.33 L 162.20 222.11 L 164.60 222.33 L 166.81 222.94 L 168.85 223.91 L 170.70 225.22 L 172.27 226.79 L 173.58 228.64 L 174.55 230.68 L 175.15 232.89 L 175.38 235.29 Z" fill="#3fa5ff" fill-opacity="0.5" fill-rule="evenodd" group-id="1,7" id="椭圆形备份" node-id="27" stroke="none" target-height="26.367188" target-width="26.367188" target-x="149.01172" target-y="222.11078"></path></g><path d="M 219.32 235.29 L 219.10 237.70 L 218.50 239.91 L 217.52 241.95 L 216.21 243.80 L 214.64 245.37 L 212.79 246.68 L 210.75 247.65 L 208.55 248.25 L 206.14 248.48 L 203.73 248.25 L 201.53 247.65 L 199.49 246.68 L 197.64 245.37 L 196.07 243.80 L 194.76 241.95 L 193.78 239.91 L 193.18 237.70 L 192.96 235.29 L 193.18 232.89 L 193.78 230.68 L 194.76 228.64 L 196.07 226.79 L 197.64 225.22 L 199.49 223.91 L 201.53 222.94 L 203.73 222.33 L 206.14 222.11 L 208.55 222.33 L 210.75 222.94 L 212.79 223.91 L 214.64 225.22 L 216.21 226.79 L 217.52 228.64 L 218.50 230.68 L 219.10 232.89 L 219.32 235.29 Z" fill="#3fa5ff" fill-opacity="0.5" fill-rule="evenodd" group-id="1,8" id="椭圆形备份-2" node-id="28" stroke="none" target-height="26.367188" target-width="26.367188" target-x="192.95703" target-y="222.11078"></path></g></svg>