<?xml version="1.0" standalone="no"?><!DOCTYPE svg PUBLIC "-//W3C//DTD SVG 1.1//EN" "http://www.w3.org/Graphics/SVG/1.1/DTD/svg11.dtd"><svg height="1024" node-id="1" sillyvg="true" template-height="1024" template-width="1024" version="1.1" viewBox="0 0 1024 1024" width="1024" xmlns="http://www.w3.org/2000/svg" xmlns:xlink="http://www.w3.org/1999/xlink"><defs node-id="52"><filter height="1.121" id="filter-2" node-id="6" width="1.087" x="-0.043" y="-0.061"><feOffset color-interpolation-filters="linearRGB" dx="0" dy="0" in="SourceAlpha" result="shadowOffsetOuter1"></feOffset><feGaussianBlur color-interpolation-filters="linearRGB" in="shadowOffsetOuter1" result="shadowBlurOuter1" stdDeviation="13 13"></feGaussianBlur><feColorMatrix color-interpolation-filters="linearRGB" in="shadowBlurOuter1" result="result3" type="matrix" values="0 0 0 0 0 0 0 0 0 0 0 0 0 0 0 0 0 0 0.0841892483 0"></feColorMatrix></filter></defs><path d="M 0.00 0.00 L 1024.00 0.00 L 1024.00 1024.00 L 0.00 1024.00 Z" fill="#171a1d" fill-rule="evenodd" node-id="64" stroke="none" target-height="1024" target-width="1024" target-x="0" target-y="0"></path><g node-id="77"><g node-id="78"><g node-id="83"><path d="M 67.27 190.00 L 956.73 190.00 L 958.16 190.20 L 959.39 190.72 L 960.46 191.54 L 961.28 192.61 L 961.80 193.84 L 962.00 195.27 L 962.00 828.09 L 961.80 829.52 L 961.28 830.75 L 960.46 831.81 L 959.39 832.64 L 958.16 833.16 L 956.73 833.36 L 67.27 833.36 L 65.84 833.16 L 64.61 832.64 L 63.54 831.81 L 62.72 830.75 L 62.20 829.52 L 62.00 828.09 L 62.00 195.27 L 62.20 193.84 L 62.72 192.61 L 63.54 191.54 L 64.61 190.72 L 65.84 190.20 L 67.27 190.00 Z" fill="#000000" fill-opacity="0.05008176" fill-rule="evenodd" filter="url(#filter-2)" group-id="1,2,7" node-id="70" stroke="none" target-height="643.3594" target-width="900" target-x="62" target-y="190"></path></g><path d="M 67.27 190.00 L 956.73 190.00 L 958.16 190.20 L 959.39 190.72 L 960.46 191.54 L 961.28 192.61 L 961.80 193.84 L 962.00 195.27 L 962.00 828.09 L 961.80 829.52 L 961.28 830.75 L 960.46 831.81 L 959.39 832.64 L 958.16 833.16 L 956.73 833.36 L 67.27 833.36 L 65.84 833.16 L 64.61 832.64 L 63.54 831.81 L 62.72 830.75 L 62.20 829.52 L 62.00 828.09 L 62.00 195.27 L 62.20 193.84 L 62.72 192.61 L 63.54 191.54 L 64.61 190.72 L 65.84 190.20 L 67.27 190.00 Z" fill="#3fa5ff" fill-opacity="0.05008176" fill-rule="evenodd" group-id="1,2,8" node-id="75" stroke="none" target-height="643.3594" target-width="900" target-x="62" target-y="190"></path></g><g node-id="79"><g node-id="85"><text align="center" editable="true" ellipsis="false" fill="#0c73ff" flags="1" font-family="'Noto Sans CJK SC'" font-size="81" font-stretch="normal" font-style="normal" font-weight="400" group-id="1,3,9" height="119.88" id="2" letter-spacing="0" node-id="18" stroke="none" target-x="157.47002" target-y="469.4924" vertical-align="center" width="44.955" x="157.47002" xml:space="preserve" y="563.4524">2</text><text align="center" editable="true" ellipsis="false" fill="#0c73ff" flags="1" font-family="'Noto Sans CJK SC'" font-size="81" font-stretch="normal" font-style="normal" font-weight="400" group-id="1,3,9" height="119.88" id="5" letter-spacing="0" node-id="21" stroke="none" target-x="279.562" target-y="469.4924" vertical-align="center" width="44.955" x="279.562" xml:space="preserve" y="563.4524">5</text><text align="center" editable="true" ellipsis="false" fill="#0c73ff" flags="1" font-family="'Noto Sans CJK SC'" font-size="81" font-stretch="normal" font-style="normal" font-weight="400" group-id="1,3,9" height="119.88" id="8" letter-spacing="0" node-id="24" stroke="none" target-x="401.654" target-y="469.4924" vertical-align="center" width="44.955" x="401.654" xml:space="preserve" y="563.4524">8</text><text align="center" editable="true" ellipsis="false" fill="#0c73ff" flags="1" font-family="'Noto Sans CJK SC'" font-size="81" font-stretch="normal" font-style="normal" font-weight="400" group-id="1,3,9" height="119.88" id="8" letter-spacing="0" node-id="27" stroke="none" target-x="573.7" target-y="469.4924" vertical-align="center" width="44.955" x="573.7" xml:space="preserve" y="563.4524">8</text><text align="center" editable="true" ellipsis="false" fill="#0c73ff" flags="1" font-family="'Noto Sans CJK SC'" font-size="81" font-stretch="normal" font-style="normal" font-weight="400" group-id="1,3,9" height="119.88" id="8" letter-spacing="0" node-id="30" stroke="none" target-x="692.16" target-y="469.4924" vertical-align="center" width="44.955" x="692.16" xml:space="preserve" y="563.4524">8</text><text align="center" editable="true" ellipsis="false" fill="#0c73ff" flags="1" font-family="'Noto Sans CJK SC'" font-size="81" font-stretch="normal" font-style="normal" font-weight="400" group-id="1,3,9" height="119.88" id="8" letter-spacing="0" node-id="33" stroke="none" target-x="817.93" target-y="469.4924" vertical-align="center" width="44.955" x="817.93" xml:space="preserve" y="563.4524">8</text></g><g node-id="86"><path d="M 509.07 597.01 L 512.51 594.09 L 515.30 591.09 L 517.52 588.02 L 519.21 584.84 L 520.40 581.55 L 521.12 578.10 L 521.37 574.46 L 521.37 558.51 L 502.63 558.51 L 502.63 577.24 L 512.59 577.24 L 511.85 580.13 L 510.65 582.90 L 508.97 585.57 L 506.76 588.17 L 503.95 590.71 L 509.07 597.01 Z" fill="#0c73ff" fill-rule="nonzero" group-id="1,3,10" id="路径" node-id="37" stroke="none" target-height="38.500916" target-width="18.737854" target-x="502.6311" target-y="558.506"></path></g><g node-id="87"><path d="M 138.11 472.02 L 225.43 472.02 L 226.85 472.22 L 228.07 472.73 L 229.13 473.56 L 229.96 474.62 L 230.47 475.84 L 230.67 477.26 L 230.67 591.64 L 230.47 593.07 L 229.96 594.29 L 229.13 595.35 L 228.07 596.17 L 226.85 596.68 L 225.43 596.88 L 138.11 596.88 L 136.69 596.68 L 135.47 596.17 L 134.41 595.35 L 133.58 594.29 L 133.07 593.07 L 132.87 591.64 L 132.87 477.26 L 133.07 475.84 L 133.58 474.62 L 134.41 473.56 L 135.47 472.73 L 136.69 472.22 L 138.11 472.02 Z" fill="none" group-id="1,3,11" id="矩形" node-id="39" stroke="#0c73ff" stroke-linecap="butt" stroke-width="1.7463164" target-height="124.86163" target-width="97.79372" target-x="132.87315" target-y="472.0216"></path><path d="M 260.20 472.02 L 347.52 472.02 L 348.94 472.22 L 350.16 472.73 L 351.22 473.56 L 352.05 474.62 L 352.56 475.84 L 352.76 477.26 L 352.76 591.64 L 352.56 593.07 L 352.05 594.29 L 351.22 595.35 L 350.16 596.17 L 348.94 596.68 L 347.52 596.88 L 260.20 596.88 L 258.78 596.68 L 257.56 596.17 L 256.50 595.35 L 255.68 594.29 L 255.17 593.07 L 254.97 591.64 L 254.97 477.26 L 255.17 475.84 L 255.68 474.62 L 256.50 473.56 L 257.56 472.73 L 258.78 472.22 L 260.20 472.02 Z" fill="none" group-id="1,3,11" id="矩形备份" node-id="40" stroke="#0c73ff" stroke-linecap="butt" stroke-width="1.7463164" target-height="124.86163" target-width="97.7937" target-x="254.96515" target-y="472.0216"></path><path d="M 382.30 472.02 L 469.61 472.02 L 471.03 472.22 L 472.25 472.73 L 473.32 473.56 L 474.14 474.62 L 474.65 475.84 L 474.85 477.26 L 474.85 591.64 L 474.65 593.07 L 474.14 594.29 L 473.32 595.35 L 472.25 596.17 L 471.03 596.68 L 469.61 596.88 L 382.30 596.88 L 380.87 596.68 L 379.65 596.17 L 378.59 595.35 L 377.77 594.29 L 377.26 593.07 L 377.06 591.64 L 377.06 477.26 L 377.26 475.84 L 377.77 474.62 L 378.59 473.56 L 379.65 472.73 L 380.87 472.22 L 382.30 472.02 Z" fill="none" group-id="1,3,11" id="矩形备份-2" node-id="41" stroke="#0c73ff" stroke-linecap="butt" stroke-width="1.7463164" target-height="124.86163" target-width="97.79373" target-x="377.05713" target-y="472.0216"></path><path d="M 554.39 472.02 L 641.70 472.02 L 643.13 472.22 L 644.35 472.73 L 645.41 473.56 L 646.23 474.62 L 646.74 475.84 L 646.94 477.26 L 646.94 591.64 L 646.74 593.07 L 646.23 594.29 L 645.41 595.35 L 644.35 596.17 L 643.13 596.68 L 641.70 596.88 L 554.39 596.88 L 552.97 596.68 L 551.75 596.17 L 550.68 595.35 L 549.86 594.29 L 549.35 593.07 L 549.15 591.64 L 549.15 477.26 L 549.35 475.84 L 549.86 474.62 L 550.68 473.56 L 551.75 472.73 L 552.97 472.22 L 554.39 472.02 Z" fill="none" group-id="1,3,11" id="矩形备份-3" node-id="42" stroke="#0c73ff" stroke-linecap="butt" stroke-width="1.7463164" target-height="124.86163" target-width="97.7937" target-x="549.1492" target-y="472.0216"></path><path d="M 676.48 472.02 L 763.80 472.02 L 765.22 472.22 L 766.44 472.73 L 767.50 473.56 L 768.32 474.62 L 768.83 475.84 L 769.03 477.26 L 769.03 591.64 L 768.83 593.07 L 768.32 594.29 L 767.50 595.35 L 766.44 596.17 L 765.22 596.68 L 763.80 596.88 L 676.48 596.88 L 675.06 596.68 L 673.84 596.17 L 672.78 595.35 L 671.95 594.29 L 671.44 593.07 L 671.24 591.64 L 671.24 477.26 L 671.44 475.84 L 671.95 474.62 L 672.78 473.56 L 673.84 472.73 L 675.06 472.22 L 676.48 472.02 Z" fill="none" group-id="1,3,11" id="矩形备份-4" node-id="43" stroke="#0c73ff" stroke-linecap="butt" stroke-width="1.7463164" target-height="124.86163" target-width="97.7937" target-x="671.24115" target-y="472.0216"></path><path d="M 798.57 472.02 L 885.89 472.02 L 887.31 472.22 L 888.53 472.73 L 889.59 473.56 L 890.42 474.62 L 890.93 475.84 L 891.13 477.26 L 891.13 591.64 L 890.93 593.07 L 890.42 594.29 L 889.59 595.35 L 888.53 596.17 L 887.31 596.68 L 885.89 596.88 L 798.57 596.88 L 797.15 596.68 L 795.93 596.17 L 794.87 595.35 L 794.04 594.29 L 793.53 593.07 L 793.33 591.64 L 793.33 477.26 L 793.53 475.84 L 794.04 474.62 L 794.87 473.56 L 795.93 472.73 L 797.15 472.22 L 798.57 472.02 Z" fill="none" group-id="1,3,11" id="矩形备份-5" node-id="44" stroke="#0c73ff" stroke-linecap="butt" stroke-width="1.7463164" target-height="124.86163" target-width="97.7937" target-x="793.3331" target-y="472.0216"></path></g></g><text align="center" editable="true" ellipsis="false" fill="#0c73ff" flags="1" font-family="'Noto Sans CJK SC'" font-size="40" font-stretch="normal" font-style="normal" font-weight="400" group-id="1" height="59.199997" id="流水金额" letter-spacing="0" node-id="45" stroke="none" target-x="133" target-y="379.6" vertical-align="center" width="160" x="133" xml:space="preserve" y="426">流水金额</text><path d="M 131.43 235.29 L 131.21 237.70 L 130.61 239.91 L 129.63 241.95 L 128.32 243.80 L 126.75 245.37 L 124.90 246.68 L 122.86 247.65 L 120.66 248.25 L 118.25 248.48 L 115.84 248.25 L 113.64 247.65 L 111.60 246.68 L 109.75 245.37 L 108.18 243.80 L 106.87 241.95 L 105.89 239.91 L 105.29 237.70 L 105.07 235.29 L 105.29 232.89 L 105.89 230.68 L 106.87 228.64 L 108.18 226.79 L 109.75 225.22 L 111.60 223.91 L 113.64 222.94 L 115.84 222.33 L 118.25 222.11 L 120.66 222.33 L 122.86 222.94 L 124.90 223.91 L 126.75 225.22 L 128.32 226.79 L 129.63 228.64 L 130.61 230.68 L 131.21 232.89 L 131.43 235.29 Z" fill="#3fa5ff" fill-opacity="0.5" fill-rule="evenodd" group-id="1,4" id="椭圆形" node-id="48" stroke="none" target-height="26.367188" target-width="26.367188" target-x="105.06641" target-y="222.11078"></path><path d="M 175.38 235.29 L 175.15 237.70 L 174.55 239.91 L 173.58 241.95 L 172.27 243.80 L 170.70 245.37 L 168.85 246.68 L 166.81 247.65 L 164.60 248.25 L 162.20 248.48 L 159.79 248.25 L 157.58 247.65 L 155.54 246.68 L 153.69 245.37 L 152.12 243.80 L 150.81 241.95 L 149.84 239.91 L 149.24 237.70 L 149.01 235.29 L 149.24 232.89 L 149.84 230.68 L 150.81 228.64 L 152.12 226.79 L 153.69 225.22 L 155.54 223.91 L 157.58 222.94 L 159.79 222.33 L 162.20 222.11 L 164.60 222.33 L 166.81 222.94 L 168.85 223.91 L 170.70 225.22 L 172.27 226.79 L 173.58 228.64 L 174.55 230.68 L 175.15 232.89 L 175.38 235.29 Z" fill="#3fa5ff" fill-opacity="0.5" fill-rule="evenodd" group-id="1,5" id="椭圆形备份" node-id="49" stroke="none" target-height="26.367188" target-width="26.367188" target-x="149.01172" target-y="222.11078"></path><path d="M 219.32 235.29 L 219.10 237.70 L 218.50 239.91 L 217.52 241.95 L 216.21 243.80 L 214.64 245.37 L 212.79 246.68 L 210.75 247.65 L 208.55 248.25 L 206.14 248.48 L 203.73 248.25 L 201.53 247.65 L 199.49 246.68 L 197.64 245.37 L 196.07 243.80 L 194.76 241.95 L 193.78 239.91 L 193.18 237.70 L 192.96 235.29 L 193.18 232.89 L 193.78 230.68 L 194.76 228.64 L 196.07 226.79 L 197.64 225.22 L 199.49 223.91 L 201.53 222.94 L 203.73 222.33 L 206.14 222.11 L 208.55 222.33 L 210.75 222.94 L 212.79 223.91 L 214.64 225.22 L 216.21 226.79 L 217.52 228.64 L 218.50 230.68 L 219.10 232.89 L 219.32 235.29 Z" fill="#3fa5ff" fill-opacity="0.5" fill-rule="evenodd" group-id="1,6" id="椭圆形备份-2" node-id="50" stroke="none" target-height="26.367188" target-width="26.367188" target-x="192.95703" target-y="222.11078"></path></g></svg>