<?xml version="1.0" standalone="no"?><!DOCTYPE svg PUBLIC "-//W3C//DTD SVG 1.1//EN" "http://www.w3.org/Graphics/SVG/1.1/DTD/svg11.dtd"><svg height="1024" node-id="1" sillyvg="true" template-height="1024" template-width="1024" version="1.1" viewBox="0 0 1024 1024" width="1024" xmlns="http://www.w3.org/2000/svg" xmlns:xlink="http://www.w3.org/1999/xlink"><defs node-id="95"><filter height="1.121" id="filter-2" node-id="6" width="1.087" x="-0.043" y="-0.061"><feOffset color-interpolation-filters="linearRGB" dx="0" dy="0" in="SourceAlpha" result="shadowOffsetOuter1"></feOffset><feGaussianBlur color-interpolation-filters="linearRGB" in="shadowOffsetOuter1" result="shadowBlurOuter1" stdDeviation="13 13"></feGaussianBlur><feColorMatrix color-interpolation-filters="linearRGB" in="shadowBlurOuter1" result="result3" type="matrix" values="0 0 0 0 0 0 0 0 0 0 0 0 0 0 0 0 0 0 0.0841892483 0"></feColorMatrix></filter><filter height="1.2" id="filter-3" node-id="10" width="1.2" x="-0.1" y="-0.1"><feColorMatrix color-interpolation-filters="linearRGB" in="SourceGraphic" result="result1" type="matrix" values="0 0 0 0 0.247059 0 0 0 0 0.647059 0 0 0 0 1 0 0 0 1 0"></feColorMatrix></filter></defs><path d="M 0.00 0.00 L 1024.00 0.00 L 1024.00 1024.00 L 0.00 1024.00 Z" fill="#171a1d" fill-rule="evenodd" node-id="111" stroke="none" target-height="1024" target-width="1024" target-x="0" target-y="0"></path><g node-id="124"><g node-id="126"><g node-id="133"><path d="M 67.27 190.00 L 956.73 190.00 L 958.16 190.20 L 959.39 190.72 L 960.46 191.54 L 961.28 192.61 L 961.80 193.84 L 962.00 195.27 L 962.00 828.09 L 961.80 829.52 L 961.28 830.75 L 960.46 831.81 L 959.39 832.64 L 958.16 833.16 L 956.73 833.36 L 67.27 833.36 L 65.84 833.16 L 64.61 832.64 L 63.54 831.81 L 62.72 830.75 L 62.20 829.52 L 62.00 828.09 L 62.00 195.27 L 62.20 193.84 L 62.72 192.61 L 63.54 191.54 L 64.61 190.72 L 65.84 190.20 L 67.27 190.00 Z" fill="#000000" fill-opacity="0.05198492" fill-rule="evenodd" filter="url(#filter-2)" group-id="1,3,10" node-id="117" stroke="none" target-height="643.3594" target-width="900" target-x="62" target-y="190"></path></g><path d="M 67.27 190.00 L 956.73 190.00 L 958.16 190.20 L 959.39 190.72 L 960.46 191.54 L 961.28 192.61 L 961.80 193.84 L 962.00 195.27 L 962.00 828.09 L 961.80 829.52 L 961.28 830.75 L 960.46 831.81 L 959.39 832.64 L 958.16 833.16 L 956.73 833.36 L 67.27 833.36 L 65.84 833.16 L 64.61 832.64 L 63.54 831.81 L 62.72 830.75 L 62.20 829.52 L 62.00 828.09 L 62.00 195.27 L 62.20 193.84 L 62.72 192.61 L 63.54 191.54 L 64.61 190.72 L 65.84 190.20 L 67.27 190.00 Z" fill="#3fa5ff" fill-opacity="0.05198492" fill-rule="evenodd" group-id="1,3,11" node-id="122" stroke="none" target-height="643.3594" target-width="900" target-x="62" target-y="190"></path></g><g node-id="127"><text align="center" editable="true" ellipsis="false" fill="#2692f7" flags="1" font-family="'Noto Sans CJK SC'" font-size="17" font-stretch="normal" font-style="normal" font-weight="500" group-id="1,4" height="25.160002" id="100" letter-spacing="0" node-id="19" stroke="none" target-x="360.1367" target-y="749.42847" vertical-align="center" width="29.070002" x="360.1367" xml:space="preserve" y="769.14844">100</text><text align="center" editable="true" ellipsis="false" fill="#2692f7" flags="1" font-family="'Noto Sans CJK SC'" font-size="17" font-stretch="normal" font-style="normal" font-weight="500" group-id="1,4" height="25.160002" id="100备份" letter-spacing="0" node-id="22" stroke="none" target-x="598.9844" target-y="749.42847" vertical-align="center" width="29.070002" x="598.9844" xml:space="preserve" y="769.14844">100</text><text align="center" editable="true" ellipsis="false" fill="#2692f7" flags="1" font-family="'Noto Sans CJK SC'" font-size="17" font-stretch="normal" font-style="normal" font-weight="500" group-id="1,4" height="25.160002" id="300" letter-spacing="0" node-id="25" stroke="none" target-x="837.7" target-y="749.42847" vertical-align="center" width="29.070002" x="837.7" xml:space="preserve" y="769.14844">300</text><text align="center" editable="true" ellipsis="false" fill="#2692f7" flags="1" font-family="'Noto Sans CJK SC'" font-size="17" font-stretch="normal" font-style="normal" font-weight="500" group-id="1,4" height="25.160002" id="0" letter-spacing="0" node-id="28" stroke="none" target-x="138.35703" target-y="749.42847" vertical-align="center" width="9.690001" x="138.35703" xml:space="preserve" y="769.14844">0</text></g><g node-id="128"><text align="center" editable="true" ellipsis="false" fill="#2692f7" flags="1" font-family="'Noto Sans CJK SC'" font-size="17" font-stretch="normal" font-style="normal" font-weight="500" group-id="1,5" height="25.160002" id="200" letter-spacing="0" node-id="32" stroke="none" target-x="119.15703" target-y="485.92844" vertical-align="center" width="29.070002" x="119.15703" xml:space="preserve" y="505.64844">200</text><text align="center" editable="true" ellipsis="false" fill="#2692f7" flags="1" font-family="'Noto Sans CJK SC'" font-size="17" font-stretch="normal" font-style="normal" font-weight="500" group-id="1,5" height="25.160002" id="300" letter-spacing="0" node-id="35" stroke="none" target-x="119.15703" target-y="336.42844" vertical-align="center" width="29.070002" x="119.15703" xml:space="preserve" y="356.14844">300</text><text align="center" editable="true" ellipsis="false" fill="#2692f7" flags="1" font-family="'Noto Sans CJK SC'" font-size="17" font-stretch="normal" font-style="normal" font-weight="500" group-id="1,5" height="25.160002" id="100" letter-spacing="0" node-id="38" stroke="none" target-x="124.28903" target-y="635.42847" vertical-align="center" width="29.070002" x="124.28903" xml:space="preserve" y="655.14844">100</text></g><g node-id="129"><path d="M 131.43 235.29 L 131.21 237.70 L 130.61 239.91 L 129.63 241.95 L 128.32 243.80 L 126.75 245.37 L 124.90 246.68 L 122.86 247.65 L 120.66 248.25 L 118.25 248.48 L 115.84 248.25 L 113.64 247.65 L 111.60 246.68 L 109.75 245.37 L 108.18 243.80 L 106.87 241.95 L 105.89 239.91 L 105.29 237.70 L 105.07 235.29 L 105.29 232.89 L 105.89 230.68 L 106.87 228.64 L 108.18 226.79 L 109.75 225.22 L 111.60 223.91 L 113.64 222.94 L 115.84 222.33 L 118.25 222.11 L 120.66 222.33 L 122.86 222.94 L 124.90 223.91 L 126.75 225.22 L 128.32 226.79 L 129.63 228.64 L 130.61 230.68 L 131.21 232.89 L 131.43 235.29 Z" fill="#3fa5ff" fill-opacity="0.5" fill-rule="evenodd" group-id="1,6" id="椭圆形" node-id="41" stroke="none" target-height="26.367188" target-width="26.367188" target-x="105.06641" target-y="222.11078"></path></g><g node-id="130"><path d="M 175.38 235.29 L 175.15 237.70 L 174.55 239.91 L 173.58 241.95 L 172.27 243.80 L 170.70 245.37 L 168.85 246.68 L 166.81 247.65 L 164.60 248.25 L 162.20 248.48 L 159.79 248.25 L 157.58 247.65 L 155.54 246.68 L 153.69 245.37 L 152.12 243.80 L 150.81 241.95 L 149.84 239.91 L 149.24 237.70 L 149.01 235.29 L 149.24 232.89 L 149.84 230.68 L 150.81 228.64 L 152.12 226.79 L 153.69 225.22 L 155.54 223.91 L 157.58 222.94 L 159.79 222.33 L 162.20 222.11 L 164.60 222.33 L 166.81 222.94 L 168.85 223.91 L 170.70 225.22 L 172.27 226.79 L 173.58 228.64 L 174.55 230.68 L 175.15 232.89 L 175.38 235.29 Z" fill="#3fa5ff" fill-opacity="0.5" fill-rule="evenodd" group-id="1,7" id="椭圆形备份" node-id="42" stroke="none" target-height="26.367188" target-width="26.367188" target-x="149.01172" target-y="222.11078"></path></g><path d="M 219.32 235.29 L 219.10 237.70 L 218.50 239.91 L 217.52 241.95 L 216.21 243.80 L 214.64 245.37 L 212.79 246.68 L 210.75 247.65 L 208.55 248.25 L 206.14 248.48 L 203.73 248.25 L 201.53 247.65 L 199.49 246.68 L 197.64 245.37 L 196.07 243.80 L 194.76 241.95 L 193.78 239.91 L 193.18 237.70 L 192.96 235.29 L 193.18 232.89 L 193.78 230.68 L 194.76 228.64 L 196.07 226.79 L 197.64 225.22 L 199.49 223.91 L 201.53 222.94 L 203.73 222.33 L 206.14 222.11 L 208.55 222.33 L 210.75 222.94 L 212.79 223.91 L 214.64 225.22 L 216.21 226.79 L 217.52 228.64 L 218.50 230.68 L 219.10 232.89 L 219.32 235.29 Z" fill="#3fa5ff" fill-opacity="0.5" fill-rule="evenodd" group-id="1,8" id="椭圆形备份-2" node-id="43" stroke="none" target-height="26.367188" target-width="26.367188" target-x="192.95703" target-y="222.11078"></path></g><g node-id="125"><g node-id="132"><g node-id="135"><path d="M 200.77 330.50 L 861.36 330.50 L 861.36 753.50 L 200.77 753.50 Z" fill="#ffffff" fill-opacity="0" fill-rule="nonzero" filter="url(#filter-3)" group-id="2,9,12" id="路径" node-id="47" stroke="none" target-height="423" target-width="660.5928" target-x="200.77148" target-y="330.5"></path><g node-id="136"><path d="M 278.02 345.73 L 278.34 347.30 L 279.20 348.56 L 280.46 349.41 L 282.02 349.73 L 283.59 349.41 L 284.85 348.56 L 285.71 347.30 L 286.02 345.73 L 285.71 344.16 L 284.85 342.90 L 283.59 342.05 L 282.02 341.73 L 280.46 342.05 L 279.20 342.90 L 278.34 344.16 L 278.02 345.73" fill="#0d74ff" fill-rule="nonzero" filter="url(#filter-3)" group-id="2,9,12,13" id="路径" node-id="49" stroke="none" target-height="8" target-width="8" target-x="278.0244" target-y="341.728"></path><path d="M 404.20 738.70 L 404.52 740.26 L 405.37 741.52 L 406.63 742.38 L 408.20 742.70 L 409.77 742.38 L 411.03 741.52 L 411.88 740.26 L 412.20 738.70 L 411.88 737.13 L 411.03 735.87 L 409.77 735.01 L 408.20 734.70 L 406.63 735.01 L 405.37 735.87 L 404.52 737.13 L 404.20 738.70" fill="#0d74ff" fill-rule="nonzero" filter="url(#filter-3)" group-id="2,9,12,13" id="路径" node-id="50" stroke="none" target-height="8" target-width="8" target-x="404.19763" target-y="734.695"></path><path d="M 642.01 389.72 L 642.33 391.29 L 643.18 392.55 L 644.44 393.40 L 646.01 393.72 L 647.58 393.40 L 648.84 392.55 L 649.69 391.29 L 650.01 389.72 L 649.69 388.15 L 648.84 386.89 L 647.58 386.04 L 646.01 385.72 L 644.44 386.04 L 643.18 386.89 L 642.33 388.15 L 642.01 389.72" fill="#0d74ff" fill-rule="nonzero" filter="url(#filter-3)" group-id="2,9,12,13" id="路径" node-id="51" stroke="none" target-height="8" target-width="8" target-x="642.011" target-y="385.72"></path><path d="M 402.88 424.83 L 403.20 426.40 L 404.05 427.66 L 405.31 428.51 L 406.88 428.83 L 408.44 428.51 L 409.70 427.66 L 410.56 426.40 L 410.88 424.83 L 410.56 423.26 L 409.70 422.00 L 408.44 421.15 L 406.88 420.83 L 405.31 421.15 L 404.05 422.00 L 403.20 423.26 L 402.88 424.83" fill="#0d74ff" fill-rule="nonzero" filter="url(#filter-3)" group-id="2,9,12,13" id="路径" node-id="52" stroke="none" target-height="8" target-width="8" target-x="402.87643" target-y="420.829"></path><g node-id="137"><path d="M 837.55 480.66 L 837.87 482.23 L 838.72 483.49 L 839.98 484.35 L 841.55 484.66 L 843.12 484.35 L 844.37 483.49 L 845.23 482.23 L 845.55 480.66 L 845.23 479.10 L 844.37 477.84 L 843.12 476.98 L 841.55 476.66 L 839.98 476.98 L 838.72 477.84 L 837.87 479.10 L 837.55 480.66" fill="#0d74ff" fill-opacity="0.8" fill-rule="nonzero" filter="url(#filter-3)" group-id="2,9,12,13,14" id="路径" node-id="53" stroke="none" target-height="8" target-width="8" target-x="837.54645" target-y="476.66498"></path></g><path d="M 453.74 396.06 L 454.06 397.63 L 454.91 398.89 L 456.17 399.75 L 457.74 400.06 L 459.31 399.75 L 460.57 398.89 L 461.42 397.63 L 461.74 396.06 L 461.42 394.50 L 460.57 393.24 L 459.31 392.38 L 457.74 392.06 L 456.17 392.38 L 454.91 393.24 L 454.06 394.50 L 453.74 396.06" fill="#0d74ff" fill-rule="nonzero" filter="url(#filter-3)" group-id="2,9,12,13" id="路径" node-id="54" stroke="none" target-height="8" target-width="8" target-x="453.74207" target-y="392.065"></path><path d="M 836.23 478.13 L 836.54 479.70 L 837.40 480.96 L 838.66 481.81 L 840.23 482.13 L 841.79 481.81 L 843.05 480.96 L 843.91 479.70 L 844.23 478.13 L 843.91 476.56 L 843.05 475.30 L 841.79 474.45 L 840.23 474.13 L 838.66 474.45 L 837.40 475.30 L 836.54 476.56 L 836.23 478.13" fill="#0d74ff" fill-opacity="0.7" fill-rule="nonzero" filter="url(#filter-3)" group-id="2,9,12,13,15" id="路径" node-id="55" stroke="none" target-height="8" target-width="8" target-x="836.2253" target-y="474.127"></path><path d="M 487.43 664.67 L 487.75 666.24 L 488.60 667.50 L 489.86 668.35 L 491.43 668.67 L 493.00 668.35 L 494.26 667.50 L 495.11 666.24 L 495.43 664.67 L 495.11 663.10 L 494.26 661.84 L 493.00 660.99 L 491.43 660.67 L 489.86 660.99 L 488.60 661.84 L 487.75 663.10 L 487.43 664.67" fill="#0d74ff" fill-rule="nonzero" filter="url(#filter-3)" group-id="2,9,12,13" id="路径" node-id="56" stroke="none" target-height="8" target-width="8" target-x="487.4323" target-y="660.67004"></path><path d="M 386.93 656.67 L 387.25 658.24 L 388.10 659.50 L 389.36 660.35 L 390.93 660.67 L 392.50 660.35 L 393.76 659.50 L 394.61 658.24 L 394.93 656.67 L 394.61 655.10 L 393.76 653.84 L 392.50 652.99 L 390.93 652.67 L 389.36 652.99 L 388.10 653.84 L 387.25 655.10 L 386.93 656.67" fill="#0d74ff" fill-rule="nonzero" filter="url(#filter-3)" group-id="2,9,12,13" id="路径备份-12" node-id="57" stroke="none" target-height="8" target-width="8" target-x="386.9323" target-y="652.67004"></path><path d="M 386.93 666.82 L 387.25 668.39 L 388.10 669.65 L 389.36 670.50 L 390.93 670.82 L 392.50 670.50 L 393.76 669.65 L 394.61 668.39 L 394.93 666.82 L 394.61 665.25 L 393.76 663.99 L 392.50 663.14 L 390.93 662.82 L 389.36 663.14 L 388.10 663.99 L 387.25 665.25 L 386.93 666.82" fill="#0d74ff" fill-rule="nonzero" filter="url(#filter-3)" group-id="2,9,12,13" id="路径备份-13" node-id="58" stroke="none" target-height="8" target-width="8" target-x="386.9323" target-y="662.822"></path><path d="M 449.74 626.83 L 450.06 628.40 L 450.91 629.66 L 452.17 630.51 L 453.74 630.83 L 455.31 630.51 L 456.57 629.66 L 457.42 628.40 L 457.74 626.83 L 457.42 625.26 L 456.57 624.00 L 455.31 623.15 L 453.74 622.83 L 452.17 623.15 L 450.91 624.00 L 450.06 625.26 L 449.74 626.83" fill="#0d74ff" fill-rule="nonzero" filter="url(#filter-3)" group-id="2,9,12,13" id="路径备份-14" node-id="59" stroke="none" target-height="8" target-width="8" target-x="449.74207" target-y="622.82996"></path><path d="M 808.24 510.62 L 808.56 512.19 L 809.41 513.45 L 810.67 514.30 L 812.24 514.62 L 813.81 514.30 L 815.07 513.45 L 815.92 512.19 L 816.24 510.62 L 815.92 509.06 L 815.07 507.80 L 813.81 506.94 L 812.24 506.62 L 810.67 506.94 L 809.41 507.80 L 808.56 509.06 L 808.24 510.62" fill="#0d74ff" fill-rule="nonzero" filter="url(#filter-3)" group-id="2,9,12,13" id="路径备份-15" node-id="60" stroke="none" target-height="8.0000305" target-width="8" target-x="808.24207" target-y="506.624"></path><path d="M 679.66 345.73 L 679.98 347.30 L 680.84 348.56 L 682.10 349.41 L 683.66 349.73 L 685.23 349.41 L 686.49 348.56 L 687.35 347.30 L 687.66 345.73 L 687.35 344.16 L 686.49 342.90 L 685.23 342.05 L 683.66 341.73 L 682.10 342.05 L 680.84 342.90 L 679.98 344.16 L 679.66 345.73" fill="#0d74ff" fill-rule="nonzero" filter="url(#filter-3)" group-id="2,9,12,13" id="路径" node-id="61" stroke="none" target-height="8" target-width="8" target-x="679.6648" target-y="341.728"></path><path d="M 484.13 410.45 L 484.45 412.02 L 485.30 413.28 L 486.56 414.13 L 488.13 414.45 L 489.70 414.13 L 490.96 413.28 L 491.81 412.02 L 492.13 410.45 L 491.81 408.88 L 490.96 407.62 L 489.70 406.77 L 488.13 406.45 L 486.56 406.77 L 485.30 407.62 L 484.45 408.88 L 484.13 410.45" fill="#0d74ff" fill-rule="nonzero" filter="url(#filter-3)" group-id="2,9,12,13" id="路径" node-id="62" stroke="none" target-height="8" target-width="8" target-x="484.12933" target-y="406.447"></path><path d="M 701.46 569.50 L 701.78 571.06 L 702.64 572.32 L 703.90 573.18 L 705.46 573.50 L 707.03 573.18 L 708.29 572.32 L 709.15 571.06 L 709.46 569.50 L 709.15 567.93 L 708.29 566.67 L 707.03 565.81 L 705.46 565.50 L 703.90 565.81 L 702.64 566.67 L 701.78 567.93 L 701.46 569.50" fill="#0d74ff" fill-rule="nonzero" filter="url(#filter-3)" group-id="2,9,12,13" id="路径" node-id="63" stroke="none" target-height="8" target-width="8" target-x="701.46436" target-y="565.495"></path><path d="M 682.97 718.39 L 683.29 719.96 L 684.14 721.22 L 685.40 722.07 L 686.97 722.39 L 688.54 722.07 L 689.80 721.22 L 690.65 719.96 L 690.97 718.39 L 690.65 716.82 L 689.80 715.56 L 688.54 714.71 L 686.97 714.39 L 685.40 714.71 L 684.14 715.56 L 683.29 716.82 L 682.97 718.39" fill="#0d74ff" fill-rule="nonzero" filter="url(#filter-3)" group-id="2,9,12,13" id="路径" node-id="64" stroke="none" target-height="8" target-width="8" target-x="682.9678" target-y="714.391"></path><path d="M 502.63 570.34 L 502.95 571.91 L 503.80 573.17 L 505.06 574.02 L 506.63 574.34 L 508.19 574.02 L 509.45 573.17 L 510.31 571.91 L 510.63 570.34 L 510.31 568.77 L 509.45 567.51 L 508.19 566.66 L 506.63 566.34 L 505.06 566.66 L 503.80 567.51 L 502.95 568.77 L 502.63 570.34" fill="#0d74ff" fill-rule="nonzero" filter="url(#filter-3)" group-id="2,9,12,13" id="路径" node-id="65" stroke="none" target-height="8" target-width="8" target-x="502.62595" target-y="566.341"></path><path d="M 572.70 552.96 L 573.02 554.53 L 573.87 555.79 L 575.13 556.64 L 576.70 556.96 L 578.27 556.64 L 579.52 555.79 L 580.38 554.53 L 580.70 552.96 L 580.38 551.39 L 579.52 550.13 L 578.27 549.28 L 576.70 548.96 L 575.13 549.28 L 573.87 550.13 L 573.02 551.39 L 572.70 552.96" fill="#0d74ff" fill-rule="nonzero" filter="url(#filter-3)" group-id="2,9,12,13" id="路径备份-9" node-id="66" stroke="none" target-height="8" target-width="8" target-x="572.69666" target-y="548.961"></path><path d="M 603.70 618.14 L 604.02 619.71 L 604.87 620.97 L 606.13 621.82 L 607.70 622.14 L 609.27 621.82 L 610.52 620.97 L 611.38 619.71 L 611.70 618.14 L 611.38 616.57 L 610.52 615.31 L 609.27 614.46 L 607.70 614.14 L 606.13 614.46 L 604.87 615.31 L 604.02 616.57 L 603.70 618.14" fill="#0d74ff" fill-rule="nonzero" filter="url(#filter-3)" group-id="2,9,12,13" id="路径备份-10" node-id="67" stroke="none" target-height="8" target-width="8" target-x="603.69666" target-y="614.14"></path><path d="M 626.12 638.83 L 626.44 640.40 L 627.29 641.66 L 628.55 642.51 L 630.12 642.83 L 631.69 642.51 L 632.95 641.66 L 633.80 640.40 L 634.12 638.83 L 633.80 637.26 L 632.95 636.00 L 631.69 635.15 L 630.12 634.83 L 628.55 635.15 L 627.29 636.00 L 626.44 637.26 L 626.12 638.83" fill="#0d74ff" fill-rule="nonzero" filter="url(#filter-3)" group-id="2,9,12,13" id="路径备份-11" node-id="68" stroke="none" target-height="8" target-width="8" target-x="626.12036" target-y="634.82996"></path><path d="M 760.92 488.28 L 761.24 489.85 L 762.09 491.11 L 763.35 491.96 L 764.92 492.28 L 766.49 491.96 L 767.75 491.11 L 768.60 489.85 L 768.92 488.28 L 768.60 486.71 L 767.75 485.45 L 766.49 484.60 L 764.92 484.28 L 763.35 484.60 L 762.09 485.45 L 761.24 486.71 L 760.92 488.28" fill="#0d74ff" fill-rule="nonzero" filter="url(#filter-3)" group-id="2,9,12,13" id="路径" node-id="69" stroke="none" target-height="8" target-width="8" target-x="760.9177" target-y="484.279"></path><path d="M 506.59 491.66 L 506.91 493.23 L 507.76 494.49 L 509.02 495.34 L 510.59 495.66 L 512.16 495.34 L 513.42 494.49 L 514.27 493.23 L 514.59 491.66 L 514.27 490.09 L 513.42 488.83 L 512.16 487.98 L 510.59 487.66 L 509.02 487.98 L 507.76 488.83 L 506.91 490.09 L 506.59 491.66" fill="#0d74ff" fill-rule="nonzero" filter="url(#filter-3)" group-id="2,9,12,13" id="路径" node-id="70" stroke="none" target-height="8" target-width="7.9999695" target-x="506.5895" target-y="487.663"></path><path d="M 630.12 347.42 L 630.44 348.99 L 631.29 350.25 L 632.55 351.10 L 634.12 351.42 L 635.69 351.10 L 636.95 350.25 L 637.80 348.99 L 638.12 347.42 L 637.80 345.85 L 636.95 344.59 L 635.69 343.74 L 634.12 343.42 L 632.55 343.74 L 631.29 344.59 L 630.44 345.85 L 630.12 347.42" fill="#0d74ff" fill-rule="nonzero" filter="url(#filter-3)" group-id="2,9,12,13" id="路径" node-id="71" stroke="none" target-height="8" target-width="8" target-x="630.12036" target-y="343.42"></path><path d="M 442.51 542.85 L 442.83 544.41 L 443.68 545.67 L 444.94 546.53 L 446.51 546.85 L 448.08 546.53 L 449.34 545.67 L 450.19 544.41 L 450.51 542.85 L 450.19 541.28 L 449.34 540.02 L 448.08 539.17 L 446.51 538.85 L 444.94 539.17 L 443.68 540.02 L 442.83 541.28 L 442.51 542.85" fill="#0d74ff" fill-rule="nonzero" filter="url(#filter-3)" group-id="2,9,12,13" id="路径" node-id="72" stroke="none" target-height="8" target-width="8" target-x="442.512" target-y="538.846"></path><path d="M 317.51 484.85 L 317.83 486.41 L 318.68 487.67 L 319.94 488.53 L 321.51 488.85 L 323.08 488.53 L 324.34 487.67 L 325.19 486.41 L 325.51 484.85 L 325.19 483.28 L 324.34 482.02 L 323.08 481.17 L 321.51 480.85 L 319.94 481.17 L 318.68 482.02 L 317.83 483.28 L 317.51 484.85" fill="#0d74ff" fill-rule="nonzero" filter="url(#filter-3)" group-id="2,9,12,13" id="路径备份" node-id="73" stroke="none" target-height="8" target-width="8" target-x="317.512" target-y="480.846"></path><path d="M 360.51 546.85 L 360.83 548.41 L 361.68 549.67 L 362.94 550.53 L 364.51 550.85 L 366.08 550.53 L 367.34 549.67 L 368.19 548.41 L 368.51 546.85 L 368.19 545.28 L 367.34 544.02 L 366.08 543.17 L 364.51 542.85 L 362.94 543.17 L 361.68 544.02 L 360.83 545.28 L 360.51 546.85" fill="#0d74ff" fill-opacity="0.90000004" fill-rule="nonzero" filter="url(#filter-3)" group-id="2,9,12,13,16" id="路径备份-2" node-id="74" stroke="none" target-height="8" target-width="8" target-x="360.512" target-y="542.846"></path><path d="M 364.51 542.85 L 364.83 544.41 L 365.68 545.67 L 366.94 546.53 L 368.51 546.85 L 370.08 546.53 L 371.34 545.67 L 372.19 544.41 L 372.51 542.85 L 372.19 541.28 L 371.34 540.02 L 370.08 539.17 L 368.51 538.85 L 366.94 539.17 L 365.68 540.02 L 364.83 541.28 L 364.51 542.85" fill="#0d74ff" fill-opacity="0.8" fill-rule="nonzero" filter="url(#filter-3)" group-id="2,9,12,13,17" id="路径备份-3" node-id="75" stroke="none" target-height="8" target-width="8" target-x="364.512" target-y="538.846"></path><path d="M 215.93 536.50 L 216.25 538.07 L 217.10 539.33 L 218.36 540.18 L 219.93 540.50 L 221.50 540.18 L 222.76 539.33 L 223.61 538.07 L 223.93 536.50 L 223.61 534.93 L 222.76 533.67 L 221.50 532.82 L 219.93 532.50 L 218.36 532.82 L 217.10 533.67 L 216.25 534.93 L 215.93 536.50" fill="#0d74ff" fill-rule="nonzero" filter="url(#filter-3)" group-id="2,9,12,13" id="路径" node-id="76" stroke="none" target-height="8" target-width="8" target-x="215.92868" target-y="532.501"></path><path d="M 603.70 630.83 L 604.02 632.40 L 604.87 633.66 L 606.13 634.51 L 607.70 634.83 L 609.27 634.51 L 610.52 633.66 L 611.38 632.40 L 611.70 630.83 L 611.38 629.26 L 610.52 628.00 L 609.27 627.15 L 607.70 626.83 L 606.13 627.15 L 604.87 628.00 L 604.02 629.26 L 603.70 630.83" fill="#0d74ff" fill-rule="nonzero" filter="url(#filter-3)" group-id="2,9,12,13" id="路径" node-id="77" stroke="none" target-height="8" target-width="8" target-x="603.69666" target-y="626.82996"></path><path d="M 568.70 502.62 L 569.02 504.19 L 569.87 505.45 L 571.13 506.30 L 572.70 506.62 L 574.27 506.30 L 575.52 505.45 L 576.38 504.19 L 576.70 502.62 L 576.38 501.06 L 575.52 499.80 L 574.27 498.94 L 572.70 498.62 L 571.13 498.94 L 569.87 499.80 L 569.02 501.06 L 568.70 502.62" fill="#0d74ff" fill-rule="nonzero" filter="url(#filter-3)" group-id="2,9,12,13" id="路径备份-4" node-id="78" stroke="none" target-height="8" target-width="8" target-x="568.69666" target-y="498.624"></path><path d="M 648.20 532.62 L 648.52 534.19 L 649.37 535.45 L 650.63 536.30 L 652.20 536.62 L 653.77 536.30 L 655.02 535.45 L 655.88 534.19 L 656.20 532.62 L 655.88 531.06 L 655.02 529.80 L 653.77 528.94 L 652.20 528.62 L 650.63 528.94 L 649.37 529.80 L 648.52 531.06 L 648.20 532.62" fill="#0d74ff" fill-rule="nonzero" filter="url(#filter-3)" group-id="2,9,12,13" id="路径备份-5" node-id="79" stroke="none" target-height="8" target-width="8" target-x="648.19666" target-y="528.624"></path><path d="M 563.20 418.45 L 563.52 420.02 L 564.37 421.28 L 565.63 422.13 L 567.20 422.45 L 568.77 422.13 L 570.02 421.28 L 570.88 420.02 L 571.20 418.45 L 570.88 416.88 L 570.02 415.62 L 568.77 414.77 L 567.20 414.45 L 565.63 414.77 L 564.37 415.62 L 563.52 416.88 L 563.20 418.45" fill="#0d74ff" fill-rule="nonzero" filter="url(#filter-3)" group-id="2,9,12,13" id="路径备份-6" node-id="80" stroke="none" target-height="8" target-width="8" target-x="563.19666" target-y="414.447"></path><path d="M 564.70 422.45 L 565.02 424.02 L 565.87 425.28 L 567.13 426.13 L 568.70 426.45 L 570.27 426.13 L 571.52 425.28 L 572.38 424.02 L 572.70 422.45 L 572.38 420.88 L 571.52 419.62 L 570.27 418.77 L 568.70 418.45 L 567.13 418.77 L 565.87 419.62 L 565.02 420.88 L 564.70 422.45" fill="#0d74ff" fill-opacity="0.6" fill-rule="nonzero" filter="url(#filter-3)" group-id="2,9,12,13,18" id="路径备份-7" node-id="81" stroke="none" target-height="8" target-width="8" target-x="564.69666" target-y="418.447"></path><path d="M 643.39 534.76 L 643.70 536.33 L 644.56 537.59 L 645.82 538.44 L 647.39 538.76 L 648.95 538.44 L 650.21 537.59 L 651.07 536.33 L 651.39 534.76 L 651.07 533.19 L 650.21 531.93 L 648.95 531.08 L 647.39 530.76 L 645.82 531.08 L 644.56 531.93 L 643.70 533.19 L 643.39 534.76" fill="#0d74ff" fill-opacity="0.6" fill-rule="nonzero" filter="url(#filter-3)" group-id="2,9,12,13,19" id="路径备份-8" node-id="82" stroke="none" target-height="8" target-width="8" target-x="643.3854" target-y="530.75854"></path><path d="M 671.74 446.40 L 672.06 447.97 L 672.91 449.23 L 674.17 450.08 L 675.74 450.40 L 677.31 450.08 L 678.57 449.23 L 679.42 447.97 L 679.74 446.40 L 679.42 444.83 L 678.57 443.57 L 677.31 442.72 L 675.74 442.40 L 674.17 442.72 L 672.91 443.57 L 672.06 444.83 L 671.74 446.40" fill="#0d74ff" fill-rule="nonzero" filter="url(#filter-3)" group-id="2,9,12,13" id="路径" node-id="83" stroke="none" target-height="8" target-width="8" target-x="671.7377" target-y="442.402"></path><path d="M 318.32 645.21 L 318.64 646.78 L 319.49 648.04 L 320.75 648.89 L 322.32 649.21 L 323.89 648.89 L 325.15 648.04 L 326.00 646.78 L 326.32 645.21 L 326.00 643.64 L 325.15 642.38 L 323.89 641.53 L 322.32 641.21 L 320.75 641.53 L 319.49 642.38 L 318.64 643.64 L 318.32 645.21" fill="#0d74ff" fill-rule="nonzero" filter="url(#filter-3)" group-id="2,9,12,13" id="路径" node-id="84" stroke="none" target-height="8" target-width="8" target-x="318.32056" target-y="641.21204"></path><path d="M 468.28 481.93 L 468.59 483.50 L 469.45 484.76 L 470.71 485.61 L 472.28 485.93 L 473.84 485.61 L 475.10 484.76 L 475.96 483.50 L 476.28 481.93 L 475.96 480.37 L 475.10 479.11 L 473.84 478.25 L 472.28 477.93 L 470.71 478.25 L 469.45 479.11 L 468.59 480.37 L 468.28 481.93" fill="#0d74ff" fill-rule="nonzero" filter="url(#filter-3)" group-id="2,9,12,13" id="路径" node-id="85" stroke="none" target-height="8" target-width="8" target-x="468.27512" target-y="477.93402"></path><path d="M 471.58 494.62 L 471.90 496.19 L 472.75 497.45 L 474.01 498.30 L 475.58 498.62 L 477.15 498.30 L 478.41 497.45 L 479.26 496.19 L 479.58 494.62 L 479.26 493.06 L 478.41 491.80 L 477.15 490.94 L 475.58 490.62 L 474.01 490.94 L 472.75 491.80 L 471.90 493.06 L 471.58 494.62" fill="#0d74ff" fill-rule="nonzero" filter="url(#filter-3)" group-id="2,9,12,13" id="路径" node-id="86" stroke="none" target-height="8" target-width="8" target-x="471.57806" target-y="490.624"></path><path d="M 724.59 491.24 L 724.90 492.81 L 725.76 494.07 L 727.02 494.92 L 728.59 495.24 L 730.15 494.92 L 731.41 494.07 L 732.27 492.81 L 732.59 491.24 L 732.27 489.67 L 731.41 488.41 L 730.15 487.56 L 728.59 487.24 L 727.02 487.56 L 725.76 488.41 L 724.90 489.67 L 724.59 491.24" fill="#0d74ff" fill-rule="nonzero" filter="url(#filter-3)" group-id="2,9,12,13" id="路径" node-id="87" stroke="none" target-height="8" target-width="8" target-x="724.5851" target-y="487.24"></path><path d="M 684.95 418.91 L 685.27 420.48 L 686.12 421.74 L 687.38 422.59 L 688.95 422.91 L 690.52 422.59 L 691.78 421.74 L 692.63 420.48 L 692.95 418.91 L 692.63 417.34 L 691.78 416.08 L 690.52 415.23 L 688.95 414.91 L 687.38 415.23 L 686.12 416.08 L 685.27 417.34 L 684.95 418.91" fill="#0d74ff" fill-rule="nonzero" filter="url(#filter-3)" group-id="2,9,12,13" id="路径" node-id="88" stroke="none" target-height="8" target-width="8" target-x="684.9496" target-y="414.90698"></path><path d="M 285.95 685.82 L 286.27 687.39 L 287.12 688.65 L 288.38 689.50 L 289.95 689.82 L 291.52 689.50 L 292.78 688.65 L 293.63 687.39 L 293.95 685.82 L 293.63 684.25 L 292.78 682.99 L 291.52 682.14 L 289.95 681.82 L 288.38 682.14 L 287.12 682.99 L 286.27 684.25 L 285.95 685.82" fill="#0d74ff" fill-rule="nonzero" filter="url(#filter-3)" group-id="2,9,12,13" id="路径" node-id="89" stroke="none" target-height="8" target-width="8" target-x="285.9515" target-y="681.82"></path><path d="M 206.02 697.24 L 206.34 698.81 L 207.19 700.07 L 208.45 700.92 L 210.02 701.24 L 211.59 700.92 L 212.85 700.07 L 213.70 698.81 L 214.02 697.24 L 213.70 695.67 L 212.85 694.41 L 211.59 693.56 L 210.02 693.24 L 208.45 693.56 L 207.19 694.41 L 206.34 695.67 L 206.02 697.24" fill="#0d74ff" fill-rule="nonzero" filter="url(#filter-3)" group-id="2,9,12,13" id="路径" node-id="90" stroke="none" target-height="8" target-width="7.9999847" target-x="206.01979" target-y="693.24097"></path><path d="M 788.66 455.29 L 788.98 456.85 L 789.83 458.11 L 791.09 458.97 L 792.66 459.29 L 794.23 458.97 L 795.49 458.11 L 796.34 456.85 L 796.66 455.29 L 796.34 453.72 L 795.49 452.46 L 794.23 451.60 L 792.66 451.29 L 791.09 451.60 L 789.83 452.46 L 788.98 453.72 L 788.66 455.29" fill="#0d74ff" fill-rule="nonzero" filter="url(#filter-3)" group-id="2,9,12,13" id="路径" node-id="91" stroke="none" target-height="8" target-width="8" target-x="788.6626" target-y="451.285"></path><path d="M 794.61 702.32 L 794.93 703.89 L 795.78 705.15 L 797.04 706.00 L 798.61 706.32 L 800.18 706.00 L 801.44 705.15 L 802.29 703.89 L 802.61 702.32 L 802.29 700.75 L 801.44 699.49 L 800.18 698.64 L 798.61 698.32 L 797.04 698.64 L 795.78 699.49 L 794.93 700.75 L 794.61 702.32" fill="#0d74ff" fill-rule="nonzero" filter="url(#filter-3)" group-id="2,9,12,13" id="路径" node-id="92" stroke="none" target-height="8" target-width="8" target-x="794.608" target-y="698.317"></path><path d="M 550.85 674.82 L 551.17 676.39 L 552.02 677.65 L 553.28 678.50 L 554.85 678.82 L 556.42 678.50 L 557.68 677.65 L 558.53 676.39 L 558.85 674.82 L 558.53 673.25 L 557.68 671.99 L 556.42 671.14 L 554.85 670.82 L 553.28 671.14 L 552.02 671.99 L 551.17 673.25 L 550.85 674.82" fill="#0d74ff" fill-rule="nonzero" filter="url(#filter-3)" group-id="2,9,12,13" id="路径" node-id="93" stroke="none" target-height="8" target-width="8" target-x="550.84924" target-y="670.822"></path></g></g></g></g></svg>