<?xml version="1.0" standalone="no"?><!DOCTYPE svg PUBLIC "-//W3C//DTD SVG 1.1//EN" "http://www.w3.org/Graphics/SVG/1.1/DTD/svg11.dtd"><svg height="1025" node-id="1" sillyvg="true" template-height="1025" template-width="1024" version="1.1" viewBox="0 0 1024 1025" width="1024" xmlns="http://www.w3.org/2000/svg" xmlns:xlink="http://www.w3.org/1999/xlink"><defs node-id="57"><linearGradient gradientUnits="objectBoundingBox" id="linearGradient-4" node-id="12" spreadMethod="pad" x1="0.5" x2="0.5" y1="0" y2="1"><stop offset="0" stop-color="#1cabff"></stop><stop offset="1" stop-color="#0c73ff"></stop></linearGradient><linearGradient gradientUnits="objectBoundingBox" id="linearGradient-5" node-id="15" spreadMethod="pad" x1="0.5" x2="0.5" y1="0" y2="1"><stop offset="0" stop-color="#1cabff"></stop><stop offset="1" stop-color="#0c73ff"></stop></linearGradient><linearGradient gradientUnits="objectBoundingBox" id="linearGradient-6" node-id="18" spreadMethod="pad" x1="0.5" x2="0.5" y1="0" y2="1"><stop offset="0" stop-color="#1cabff"></stop><stop offset="1" stop-color="#0c73ff"></stop></linearGradient><linearGradient gradientUnits="objectBoundingBox" id="linearGradient-7" node-id="21" spreadMethod="pad" x1="0.5" x2="0.5" y1="0" y2="1"><stop offset="0" stop-color="#1cabff"></stop><stop offset="1" stop-color="#0c73ff"></stop></linearGradient><linearGradient gradientUnits="objectBoundingBox" id="linearGradient-8" node-id="24" spreadMethod="pad" x1="0.5" x2="0.5" y1="0" y2="1"><stop offset="0" stop-color="#1cabff"></stop><stop offset="1" stop-color="#0c73ff"></stop></linearGradient><filter height="1.121" id="filter-2" node-id="6" width="1.087" x="-0.043" y="-0.061"><feOffset color-interpolation-filters="linearRGB" dx="0" dy="0" in="SourceAlpha" result="shadowOffsetOuter1"></feOffset><feGaussianBlur color-interpolation-filters="linearRGB" in="shadowOffsetOuter1" result="shadowBlurOuter1" stdDeviation="13 13"></feGaussianBlur><feColorMatrix color-interpolation-filters="linearRGB" in="shadowBlurOuter1" result="result3" type="matrix" values="0 0 0 0 0 0 0 0 0 0 0 0 0 0 0 0 0 0 0.0841892483 0"></feColorMatrix></filter><filter height="1.2" id="filter-3" node-id="10" width="1.2" x="-0.1" y="-0.1"><feColorMatrix color-interpolation-filters="sRGB" in="SourceGraphic" result="result1" type="matrix" values="0 0 0 0 0.047059 0 0 0 0 0.45098 0 0 0 0 1 0 0 0 1 0"></feColorMatrix></filter></defs><path d="M 0.00 0.00 L 1024.00 0.00 L 1024.00 1024.00 L 0.00 1024.00 Z" fill="#171a1d" fill-rule="evenodd" node-id="103" stroke="none" target-height="1024" target-width="1024" target-x="0" target-y="0"></path><g node-id="116"><g node-id="117"><g node-id="124"><path d="M 67.27 190.00 L 956.73 190.00 L 958.16 190.20 L 959.39 190.72 L 960.46 191.54 L 961.28 192.61 L 961.80 193.84 L 962.00 195.27 L 962.00 828.09 L 961.80 829.52 L 961.28 830.75 L 960.46 831.81 L 959.39 832.64 L 958.16 833.16 L 956.73 833.36 L 67.27 833.36 L 65.84 833.16 L 64.61 832.64 L 63.54 831.81 L 62.72 830.75 L 62.20 829.52 L 62.00 828.09 L 62.00 195.27 L 62.20 193.84 L 62.72 192.61 L 63.54 191.54 L 64.61 190.72 L 65.84 190.20 L 67.27 190.00 Z" fill="#000000" fill-opacity="0.05008176" fill-rule="evenodd" filter="url(#filter-2)" group-id="1,2,9" node-id="109" stroke="none" target-height="643.3594" target-width="900" target-x="62" target-y="190"></path></g><path d="M 67.27 190.00 L 956.73 190.00 L 958.16 190.20 L 959.39 190.72 L 960.46 191.54 L 961.28 192.61 L 961.80 193.84 L 962.00 195.27 L 962.00 828.09 L 961.80 829.52 L 961.28 830.75 L 960.46 831.81 L 959.39 832.64 L 958.16 833.16 L 956.73 833.36 L 67.27 833.36 L 65.84 833.16 L 64.61 832.64 L 63.54 831.81 L 62.72 830.75 L 62.20 829.52 L 62.00 828.09 L 62.00 195.27 L 62.20 193.84 L 62.72 192.61 L 63.54 191.54 L 64.61 190.72 L 65.84 190.20 L 67.27 190.00 Z" fill="#3fa5ff" fill-opacity="0.05008176" fill-rule="evenodd" group-id="1,2,10" node-id="114" stroke="none" target-height="643.3594" target-width="900" target-x="62" target-y="190"></path></g><g node-id="118"><g node-id="126"><text align="center" editable="true" ellipsis="false" fill="#cafbfe" filter="url(#filter-3)" flags="1" font-family="'Noto Sans CJK SC'" font-size="17" font-stretch="normal" font-style="normal" font-weight="500" group-id="1,3,11" height="25.160002" id="100" letter-spacing="0" node-id="35" stroke="none" target-x="842.789" target-y="749.42847" vertical-align="center" width="29.070002" x="842.789" xml:space="preserve" y="769.14844">100</text><text align="center" editable="true" ellipsis="false" fill="#cafbfe" filter="url(#filter-3)" flags="1" font-family="'Noto Sans CJK SC'" font-size="17" font-stretch="normal" font-style="normal" font-weight="500" group-id="1,3,11" height="25.160002" id="50" letter-spacing="0" node-id="38" stroke="none" target-x="501.8" target-y="749.42847" vertical-align="center" width="19.380001" x="501.8" xml:space="preserve" y="769.14844">50</text><text align="center" editable="true" ellipsis="false" fill="#cafbfe" filter="url(#filter-3)" flags="1" font-family="'Noto Sans CJK SC'" font-size="17" font-stretch="normal" font-style="normal" font-weight="500" group-id="1,3,11" height="25.160002" id="0" letter-spacing="0" node-id="41" stroke="none" target-x="138.35703" target-y="749.42847" vertical-align="center" width="9.690001" x="138.35703" xml:space="preserve" y="769.14844">0</text></g></g><g node-id="119"><path d="M 767.65 695.15 L 767.65 724.52 L 767.42 726.14 L 766.84 727.54 L 765.89 728.76 L 764.68 729.70 L 763.28 730.29 L 761.65 730.52 L 149.65 730.52 L 148.02 730.29 L 146.62 729.70 L 145.41 728.76 L 144.46 727.54 L 143.88 726.14 L 143.65 724.52 L 143.65 695.15 L 143.88 693.52 L 144.46 692.12 L 145.41 690.91 L 146.62 689.96 L 148.02 689.38 L 149.65 689.15 L 761.65 689.15 L 763.28 689.38 L 764.68 689.96 L 765.89 690.91 L 766.84 692.12 L 767.42 693.52 L 767.65 695.15 Z" fill="url(#linearGradient-4)" fill-rule="evenodd" group-id="1,4" id="矩形" node-id="45" stroke="none" target-height="41.367188" target-width="624" target-x="143.651" target-y="689.14844"></path><path d="M 588.65 620.40 L 588.65 649.77 L 588.42 651.39 L 587.84 652.79 L 586.89 654.01 L 585.68 654.95 L 584.28 655.54 L 582.65 655.77 L 149.65 655.77 L 148.02 655.54 L 146.62 654.95 L 145.41 654.01 L 144.46 652.79 L 143.88 651.39 L 143.65 649.77 L 143.65 620.40 L 143.88 618.77 L 144.46 617.37 L 145.41 616.16 L 146.62 615.21 L 148.02 614.63 L 149.65 614.40 L 582.65 614.40 L 584.28 614.63 L 585.68 615.21 L 586.89 616.16 L 587.84 617.37 L 588.42 618.77 L 588.65 620.40 Z" fill="url(#linearGradient-5)" fill-rule="evenodd" group-id="1,4" id="矩形备份-2" node-id="46" stroke="none" target-height="41.367188" target-width="445" target-x="143.651" target-y="614.39844"></path><path d="M 473.65 545.65 L 473.65 575.02 L 473.42 576.64 L 472.84 578.04 L 471.89 579.26 L 470.68 580.20 L 469.28 580.79 L 467.65 581.02 L 149.65 581.02 L 148.02 580.79 L 146.62 580.20 L 145.41 579.26 L 144.46 578.04 L 143.88 576.64 L 143.65 575.02 L 143.65 545.65 L 143.88 544.02 L 144.46 542.62 L 145.41 541.41 L 146.62 540.46 L 148.02 539.88 L 149.65 539.65 L 467.65 539.65 L 469.28 539.88 L 470.68 540.46 L 471.89 541.41 L 472.84 542.62 L 473.42 544.02 L 473.65 545.65 Z" fill="url(#linearGradient-6)" fill-rule="evenodd" group-id="1,4" id="矩形备份-3" node-id="47" stroke="none" target-height="41.367188" target-width="330" target-x="143.651" target-y="539.64844"></path><path d="M 384.65 470.90 L 384.65 500.27 L 384.42 501.89 L 383.84 503.29 L 382.89 504.51 L 381.68 505.45 L 380.28 506.04 L 378.65 506.27 L 149.65 506.27 L 148.02 506.04 L 146.62 505.45 L 145.41 504.51 L 144.46 503.29 L 143.88 501.89 L 143.65 500.27 L 143.65 470.90 L 143.88 469.27 L 144.46 467.87 L 145.41 466.66 L 146.62 465.71 L 148.02 465.13 L 149.65 464.90 L 378.65 464.90 L 380.28 465.13 L 381.68 465.71 L 382.89 466.66 L 383.84 467.87 L 384.42 469.27 L 384.65 470.90 Z" fill="url(#linearGradient-7)" fill-rule="evenodd" group-id="1,4" id="矩形备份-4" node-id="48" stroke="none" target-height="41.367188" target-width="241" target-x="143.651" target-y="464.89844"></path><path d="M 676.65 396.15 L 676.65 425.52 L 676.42 427.14 L 675.84 428.54 L 674.89 429.76 L 673.68 430.70 L 672.28 431.29 L 670.65 431.52 L 149.65 431.52 L 148.02 431.29 L 146.62 430.70 L 145.41 429.76 L 144.46 428.54 L 143.88 427.14 L 143.65 425.52 L 143.65 396.15 L 143.88 394.52 L 144.46 393.12 L 145.41 391.91 L 146.62 390.96 L 148.02 390.38 L 149.65 390.15 L 670.65 390.15 L 672.28 390.38 L 673.68 390.96 L 674.89 391.91 L 675.84 393.12 L 676.42 394.52 L 676.65 396.15 Z" fill="url(#linearGradient-8)" fill-rule="evenodd" group-id="1,4" id="矩形备份-5" node-id="49" stroke="none" target-height="41.367188" target-width="533" target-x="143.651" target-y="390.14844"></path></g><g node-id="120"><g node-id="127"><path d="M 706.93 323.65 L 882.00 323.65 L 883.63 323.88 L 885.03 324.46 L 886.24 325.41 L 887.19 326.62 L 887.77 328.02 L 888.00 329.65 L 888.00 346.30 L 887.77 347.93 L 887.19 349.32 L 886.24 350.54 L 885.03 351.48 L 883.63 352.07 L 882.00 352.30 L 706.93 352.30 L 705.30 352.07 L 703.91 351.48 L 702.69 350.54 L 701.75 349.32 L 701.16 347.93 L 700.93 346.30 L 700.93 329.65 L 701.16 328.02 L 701.75 326.62 L 702.69 325.41 L 703.91 324.46 L 705.30 323.88 L 706.93 323.65 Z" fill="#3fa5ff" fill-opacity="0.4" fill-rule="evenodd" group-id="1,5,12" id="矩形" node-id="51" stroke="none" target-height="28.648438" target-width="187.0664" target-x="700.9336" target-y="323.64844"></path></g><path d="M 662.93 323.65 L 678.93 323.65 L 680.56 323.88 L 681.96 324.46 L 683.18 325.41 L 684.12 326.62 L 684.70 328.02 L 684.93 329.65 L 684.93 345.65 L 684.70 347.28 L 684.12 348.67 L 683.18 349.89 L 681.96 350.83 L 680.56 351.42 L 678.93 351.65 L 662.93 351.65 L 661.30 351.42 L 659.91 350.83 L 658.69 349.89 L 657.75 348.67 L 657.16 347.28 L 656.93 345.65 L 656.93 329.65 L 657.16 328.02 L 657.75 326.62 L 658.69 325.41 L 659.91 324.46 L 661.30 323.88 L 662.93 323.65 Z" fill="#3fa5ff" fill-rule="evenodd" group-id="1,5" id="矩形备份" node-id="52" stroke="none" target-height="28" target-width="28" target-x="656.9336" target-y="323.64844"></path></g><g node-id="121"><path d="M 131.43 235.29 L 131.21 237.70 L 130.61 239.91 L 129.63 241.95 L 128.32 243.80 L 126.75 245.37 L 124.90 246.68 L 122.86 247.65 L 120.66 248.25 L 118.25 248.48 L 115.84 248.25 L 113.64 247.65 L 111.60 246.68 L 109.75 245.37 L 108.18 243.80 L 106.87 241.95 L 105.89 239.91 L 105.29 237.70 L 105.07 235.29 L 105.29 232.89 L 105.89 230.68 L 106.87 228.64 L 108.18 226.79 L 109.75 225.22 L 111.60 223.91 L 113.64 222.94 L 115.84 222.33 L 118.25 222.11 L 120.66 222.33 L 122.86 222.94 L 124.90 223.91 L 126.75 225.22 L 128.32 226.79 L 129.63 228.64 L 130.61 230.68 L 131.21 232.89 L 131.43 235.29 Z" fill="#3fa5ff" fill-opacity="0.5" fill-rule="evenodd" group-id="1,6" id="椭圆形" node-id="53" stroke="none" target-height="26.367188" target-width="26.367188" target-x="105.06641" target-y="222.11078"></path></g><g node-id="122"><path d="M 175.38 235.29 L 175.15 237.70 L 174.55 239.91 L 173.58 241.95 L 172.27 243.80 L 170.70 245.37 L 168.85 246.68 L 166.81 247.65 L 164.60 248.25 L 162.20 248.48 L 159.79 248.25 L 157.58 247.65 L 155.54 246.68 L 153.69 245.37 L 152.12 243.80 L 150.81 241.95 L 149.84 239.91 L 149.24 237.70 L 149.01 235.29 L 149.24 232.89 L 149.84 230.68 L 150.81 228.64 L 152.12 226.79 L 153.69 225.22 L 155.54 223.91 L 157.58 222.94 L 159.79 222.33 L 162.20 222.11 L 164.60 222.33 L 166.81 222.94 L 168.85 223.91 L 170.70 225.22 L 172.27 226.79 L 173.58 228.64 L 174.55 230.68 L 175.15 232.89 L 175.38 235.29 Z" fill="#3fa5ff" fill-opacity="0.5" fill-rule="evenodd" group-id="1,7" id="椭圆形备份" node-id="54" stroke="none" target-height="26.367188" target-width="26.367188" target-x="149.01172" target-y="222.11078"></path></g><path d="M 219.32 235.29 L 219.10 237.70 L 218.50 239.91 L 217.52 241.95 L 216.21 243.80 L 214.64 245.37 L 212.79 246.68 L 210.75 247.65 L 208.55 248.25 L 206.14 248.48 L 203.73 248.25 L 201.53 247.65 L 199.49 246.68 L 197.64 245.37 L 196.07 243.80 L 194.76 241.95 L 193.78 239.91 L 193.18 237.70 L 192.96 235.29 L 193.18 232.89 L 193.78 230.68 L 194.76 228.64 L 196.07 226.79 L 197.64 225.22 L 199.49 223.91 L 201.53 222.94 L 203.73 222.33 L 206.14 222.11 L 208.55 222.33 L 210.75 222.94 L 212.79 223.91 L 214.64 225.22 L 216.21 226.79 L 217.52 228.64 L 218.50 230.68 L 219.10 232.89 L 219.32 235.29 Z" fill="#3fa5ff" fill-opacity="0.5" fill-rule="evenodd" group-id="1,8" id="椭圆形备份-2" node-id="55" stroke="none" target-height="26.367188" target-width="26.367188" target-x="192.95703" target-y="222.11078"></path></g></svg>