<?xml version="1.0" standalone="no"?><!DOCTYPE svg PUBLIC "-//W3C//DTD SVG 1.1//EN" "http://www.w3.org/Graphics/SVG/1.1/DTD/svg11.dtd"><svg height="1024" node-id="1" sillyvg="true" template-height="1024" template-width="1024" version="1.1" viewBox="0 0 1024 1024" width="1024" xmlns="http://www.w3.org/2000/svg" xmlns:xlink="http://www.w3.org/1999/xlink"><defs node-id="59"><filter height="1.121" id="filter-2" node-id="6" width="1.087" x="-0.043" y="-0.061"><feOffset color-interpolation-filters="linearRGB" dx="0" dy="0" in="SourceAlpha" result="shadowOffsetOuter1"></feOffset><feGaussianBlur color-interpolation-filters="linearRGB" in="shadowOffsetOuter1" result="shadowBlurOuter1" stdDeviation="13 13"></feGaussianBlur><feColorMatrix color-interpolation-filters="linearRGB" in="shadowBlurOuter1" result="result3" type="matrix" values="0 0 0 0 0 0 0 0 0 0 0 0 0 0 0 0 0 0 0.0841892483 0"></feColorMatrix></filter><filter height="1.2" id="filter-3" node-id="10" width="1.2" x="-0.1" y="-0.1"><feColorMatrix color-interpolation-filters="sRGB" in="SourceGraphic" result="result1" type="matrix" values="0 0 0 0 0.047059 0 0 0 0 0.45098 0 0 0 0 1 0 0 0 1 0"></feColorMatrix></filter></defs><path d="M 0.00 0.00 L 1024.00 0.00 L 1024.00 1024.00 L 0.00 1024.00 Z" fill="#171a1d" fill-rule="evenodd" node-id="75" stroke="none" target-height="1024" target-width="1024" target-x="0" target-y="0"></path><g node-id="88"><g node-id="89"><g node-id="101"><path d="M 67.27 190.00 L 956.73 190.00 L 958.16 190.20 L 959.39 190.72 L 960.46 191.54 L 961.28 192.61 L 961.80 193.84 L 962.00 195.27 L 962.00 828.09 L 961.80 829.52 L 961.28 830.75 L 960.46 831.81 L 959.39 832.64 L 958.16 833.16 L 956.73 833.36 L 67.27 833.36 L 65.84 833.16 L 64.61 832.64 L 63.54 831.81 L 62.72 830.75 L 62.20 829.52 L 62.00 828.09 L 62.00 195.27 L 62.20 193.84 L 62.72 192.61 L 63.54 191.54 L 64.61 190.72 L 65.84 190.20 L 67.27 190.00 Z" fill="#000000" fill-opacity="0.05008176" fill-rule="evenodd" filter="url(#filter-2)" group-id="1,2,14" node-id="81" stroke="none" target-height="643.3594" target-width="900" target-x="62" target-y="190"></path></g><path d="M 67.27 190.00 L 956.73 190.00 L 958.16 190.20 L 959.39 190.72 L 960.46 191.54 L 961.28 192.61 L 961.80 193.84 L 962.00 195.27 L 962.00 828.09 L 961.80 829.52 L 961.28 830.75 L 960.46 831.81 L 959.39 832.64 L 958.16 833.16 L 956.73 833.36 L 67.27 833.36 L 65.84 833.16 L 64.61 832.64 L 63.54 831.81 L 62.72 830.75 L 62.20 829.52 L 62.00 828.09 L 62.00 195.27 L 62.20 193.84 L 62.72 192.61 L 63.54 191.54 L 64.61 190.72 L 65.84 190.20 L 67.27 190.00 Z" fill="#3fa5ff" fill-opacity="0.05008176" fill-rule="evenodd" group-id="1,2,15" node-id="86" stroke="none" target-height="643.3594" target-width="900" target-x="62" target-y="190"></path></g><g node-id="90"><path d="M 375.28 690.15 L 375.28 731.52 L 149.65 731.52 L 148.02 731.29 L 146.62 730.70 L 145.41 729.76 L 144.46 728.54 L 143.88 727.14 L 143.65 725.52 L 143.65 696.15 L 143.88 694.52 L 144.46 693.12 L 145.41 691.91 L 146.63 690.96 L 148.02 690.38 L 149.65 690.15 L 375.28 690.15 L 375.28 690.15 Z" fill="#0c73ff" fill-rule="evenodd" group-id="1,3" id="矩形" node-id="19" stroke="none" target-height="41.367188" target-width="231.63211" target-x="143.651" target-y="690.14844"></path><path d="M 856.46 696.15 L 856.46 725.52 L 856.23 727.14 L 855.64 728.54 L 854.70 729.76 L 853.48 730.70 L 852.09 731.29 L 850.46 731.52 L 624.82 731.52 L 624.82 731.52 L 624.82 690.15 L 850.46 690.15 L 852.09 690.38 L 853.48 690.96 L 854.70 691.91 L 855.64 693.12 L 856.23 694.52 L 856.46 696.15 Z" fill="#cafbfe" fill-rule="evenodd" group-id="1,3" id="矩形备份-8" node-id="20" stroke="none" target-height="41.367188" target-width="231.63208" target-x="624.82495" target-y="690.14844"></path><path d="M 626.02 690.15 L 626.02 731.52 L 375.28 731.52 L 375.28 690.15 Z" fill="#3fa5ff" fill-rule="evenodd" group-id="1,3" id="矩形" node-id="21" stroke="none" target-height="41.367188" target-width="250.73581" target-x="375.2831" target-y="690.14844"></path></g><g node-id="91"><path d="M 511.61 615.15 L 511.61 656.52 L 149.61 656.52 L 147.98 656.29 L 146.59 655.70 L 145.37 654.76 L 144.43 653.54 L 143.84 652.14 L 143.61 650.52 L 143.61 621.15 L 143.84 619.52 L 144.43 618.12 L 145.37 616.91 L 146.59 615.96 L 147.98 615.38 L 149.61 615.15 L 511.61 615.15 L 511.61 615.15 Z" fill="#0c73ff" fill-rule="evenodd" group-id="1,4" id="矩形" node-id="23" stroke="none" target-height="41.367188" target-width="368" target-x="143.61401" target-y="615.14844"></path><path d="M 720.46 621.15 L 720.46 650.52 L 720.23 652.14 L 719.64 653.54 L 718.70 654.76 L 717.48 655.70 L 716.09 656.29 L 714.46 656.52 L 624.46 656.52 L 624.46 656.52 L 624.46 615.15 L 714.46 615.15 L 716.09 615.38 L 717.48 615.96 L 718.70 616.91 L 719.64 618.12 L 720.23 619.52 L 720.46 621.15 Z" fill="#cafbfe" fill-rule="evenodd" group-id="1,4" id="矩形备份-8" node-id="24" stroke="none" target-height="41.367188" target-width="96" target-x="624.45703" target-y="615.14844"></path><path d="M 624.00 615.15 L 624.00 656.52 L 512.00 656.52 L 512.00 615.15 Z" fill="#3fa5ff" fill-rule="evenodd" group-id="1,4" id="矩形" node-id="25" stroke="none" target-height="41.367188" target-width="112" target-x="512" target-y="615.14844"></path></g><g node-id="92"><path d="M 442.61 540.15 L 442.61 581.52 L 149.61 581.52 L 147.98 581.29 L 146.59 580.70 L 145.37 579.76 L 144.43 578.54 L 143.84 577.14 L 143.61 575.52 L 143.61 546.15 L 143.84 544.52 L 144.43 543.12 L 145.37 541.91 L 146.59 540.96 L 147.98 540.38 L 149.61 540.15 L 442.61 540.15 L 442.61 540.15 Z" fill="#0c73ff" fill-rule="evenodd" group-id="1,5" id="矩形" node-id="27" stroke="none" target-height="41.367188" target-width="299" target-x="143.61401" target-y="540.14844"></path><path d="M 648.46 546.15 L 648.46 575.52 L 648.23 577.14 L 647.64 578.54 L 646.70 579.76 L 645.48 580.70 L 644.09 581.29 L 642.46 581.52 L 556.46 581.52 L 556.46 581.52 L 556.46 540.15 L 642.46 540.15 L 644.09 540.38 L 645.48 540.96 L 646.70 541.91 L 647.64 543.12 L 648.23 544.52 L 648.46 546.15 Z" fill="#cafbfe" fill-rule="evenodd" group-id="1,5" id="矩形备份-8" node-id="28" stroke="none" target-height="41.367188" target-width="92" target-x="556.45703" target-y="540.14844"></path><path d="M 556.00 540.15 L 556.00 581.52 L 443.00 581.52 L 443.00 540.15 Z" fill="#3fa5ff" fill-rule="evenodd" group-id="1,5" id="矩形" node-id="29" stroke="none" target-height="41.367188" target-width="113" target-x="443" target-y="540.14844"></path></g><g node-id="93"><path d="M 475.61 465.15 L 475.61 506.52 L 149.61 506.52 L 147.98 506.29 L 146.59 505.70 L 145.37 504.76 L 144.43 503.54 L 143.84 502.14 L 143.61 500.52 L 143.61 471.15 L 143.84 469.52 L 144.43 468.12 L 145.37 466.91 L 146.59 465.96 L 147.98 465.38 L 149.61 465.15 L 475.61 465.15 L 475.61 465.15 Z" fill="#0c73ff" fill-rule="evenodd" group-id="1,6" id="矩形" node-id="31" stroke="none" target-height="41.367188" target-width="332" target-x="143.61401" target-y="465.14844"></path><path d="M 757.46 471.15 L 757.46 500.52 L 757.23 502.14 L 756.64 503.54 L 755.70 504.76 L 754.48 505.70 L 753.09 506.29 L 751.46 506.52 L 624.46 506.52 L 624.46 506.52 L 624.46 465.15 L 751.46 465.15 L 753.09 465.38 L 754.48 465.96 L 755.70 466.91 L 756.64 468.12 L 757.23 469.52 L 757.46 471.15 Z" fill="#cafbfe" fill-rule="evenodd" group-id="1,6" id="矩形备份-8" node-id="32" stroke="none" target-height="41.367188" target-width="133" target-x="624.45703" target-y="465.14844"></path><path d="M 624.00 465.15 L 624.00 506.52 L 476.00 506.52 L 476.00 465.15 Z" fill="#3fa5ff" fill-rule="evenodd" group-id="1,6" id="矩形" node-id="33" stroke="none" target-height="41.367188" target-width="148" target-x="476" target-y="465.14844"></path></g><g node-id="94"><path d="M 456.61 390.15 L 456.61 431.52 L 149.61 431.52 L 147.98 431.29 L 146.59 430.70 L 145.37 429.76 L 144.43 428.54 L 143.84 427.14 L 143.61 425.52 L 143.61 396.15 L 143.84 394.52 L 144.43 393.12 L 145.37 391.91 L 146.59 390.96 L 147.98 390.38 L 149.61 390.15 L 456.61 390.15 L 456.61 390.15 Z" fill="#0c73ff" fill-rule="evenodd" group-id="1,7" id="矩形" node-id="35" stroke="none" target-height="41.367188" target-width="313" target-x="143.61401" target-y="390.14844"></path><path d="M 688.46 396.15 L 688.46 425.52 L 688.23 427.14 L 687.64 428.54 L 686.70 429.76 L 685.48 430.70 L 684.09 431.29 L 682.46 431.52 L 568.46 431.52 L 568.46 431.52 L 568.46 390.15 L 682.46 390.15 L 684.09 390.38 L 685.48 390.96 L 686.70 391.91 L 687.64 393.12 L 688.23 394.52 L 688.46 396.15 Z" fill="#cafbfe" fill-rule="evenodd" group-id="1,7" id="矩形备份-8" node-id="36" stroke="none" target-height="41.367188" target-width="120" target-x="568.45703" target-y="390.14844"></path><path d="M 568.46 390.15 L 568.46 431.52 L 456.46 431.52 L 456.46 390.15 Z" fill="#3fa5ff" fill-rule="evenodd" group-id="1,7" id="矩形" node-id="37" stroke="none" target-height="41.367188" target-width="112" target-x="456.45703" target-y="390.14844"></path></g><g node-id="95"><g node-id="103"><text align="center" editable="true" ellipsis="false" fill="#cafbfe" filter="url(#filter-3)" flags="1" font-family="'Noto Sans CJK SC'" font-size="17" font-stretch="normal" font-style="normal" font-weight="500" group-id="1,8,16" height="25.160002" id="100" letter-spacing="0" node-id="40" stroke="none" target-x="842.789" target-y="749.42847" vertical-align="center" width="29.070002" x="842.789" xml:space="preserve" y="769.14844">100</text><text align="center" editable="true" ellipsis="false" fill="#cafbfe" filter="url(#filter-3)" flags="1" font-family="'Noto Sans CJK SC'" font-size="17" font-stretch="normal" font-style="normal" font-weight="500" group-id="1,8,16" height="25.160002" id="50" letter-spacing="0" node-id="43" stroke="none" target-x="501.8" target-y="749.42847" vertical-align="center" width="19.380001" x="501.8" xml:space="preserve" y="769.14844">50</text><text align="center" editable="true" ellipsis="false" fill="#cafbfe" filter="url(#filter-3)" flags="1" font-family="'Noto Sans CJK SC'" font-size="17" font-stretch="normal" font-style="normal" font-weight="500" group-id="1,8,16" height="25.160002" id="0" letter-spacing="0" node-id="46" stroke="none" target-x="138.35703" target-y="749.42847" vertical-align="center" width="9.690001" x="138.35703" xml:space="preserve" y="769.14844">0</text></g></g><g node-id="96"><g node-id="104"><path d="M 706.93 323.65 L 882.00 323.65 L 883.63 323.88 L 885.03 324.46 L 886.24 325.41 L 887.19 326.62 L 887.77 328.02 L 888.00 329.65 L 888.00 346.30 L 887.77 347.93 L 887.19 349.32 L 886.24 350.54 L 885.03 351.48 L 883.63 352.07 L 882.00 352.30 L 706.93 352.30 L 705.30 352.07 L 703.91 351.48 L 702.69 350.54 L 701.75 349.32 L 701.16 347.93 L 700.93 346.30 L 700.93 329.65 L 701.16 328.02 L 701.75 326.62 L 702.69 325.41 L 703.91 324.46 L 705.30 323.88 L 706.93 323.65 Z" fill="#3fa5ff" fill-opacity="0.4" fill-rule="evenodd" group-id="1,9,17" id="矩形" node-id="50" stroke="none" target-height="28.648438" target-width="187.0664" target-x="700.9336" target-y="323.64844"></path></g><path d="M 662.93 323.65 L 678.93 323.65 L 680.56 323.88 L 681.96 324.46 L 683.18 325.41 L 684.12 326.62 L 684.70 328.02 L 684.93 329.65 L 684.93 345.65 L 684.70 347.28 L 684.12 348.67 L 683.18 349.89 L 681.96 350.83 L 680.56 351.42 L 678.93 351.65 L 662.93 351.65 L 661.30 351.42 L 659.91 350.83 L 658.69 349.89 L 657.75 348.67 L 657.16 347.28 L 656.93 345.65 L 656.93 329.65 L 657.16 328.02 L 657.75 326.62 L 658.69 325.41 L 659.91 324.46 L 661.30 323.88 L 662.93 323.65 Z" fill="#3fa5ff" fill-rule="evenodd" group-id="1,9" id="矩形备份" node-id="51" stroke="none" target-height="28" target-width="28" target-x="656.9336" target-y="323.64844"></path></g><g node-id="97"><g node-id="105"><path d="M 424.93 323.65 L 600.00 323.65 L 601.63 323.88 L 603.03 324.46 L 604.24 325.41 L 605.19 326.62 L 605.77 328.02 L 606.00 329.65 L 606.00 346.30 L 605.77 347.93 L 605.19 349.32 L 604.24 350.54 L 603.03 351.48 L 601.63 352.07 L 600.00 352.30 L 424.93 352.30 L 423.30 352.07 L 421.91 351.48 L 420.69 350.54 L 419.75 349.32 L 419.16 347.93 L 418.93 346.30 L 418.93 329.65 L 419.16 328.02 L 419.75 326.62 L 420.69 325.41 L 421.91 324.46 L 423.30 323.88 L 424.93 323.65 Z" fill="#3fa5ff" fill-opacity="0.4" fill-rule="evenodd" group-id="1,10,18" id="矩形" node-id="53" stroke="none" target-height="28.648438" target-width="187.0664" target-x="418.9336" target-y="323.64844"></path></g><path d="M 380.93 323.65 L 396.93 323.65 L 398.56 323.88 L 399.96 324.46 L 401.18 325.41 L 402.12 326.62 L 402.70 328.02 L 402.93 329.65 L 402.93 345.65 L 402.70 347.28 L 402.12 348.67 L 401.18 349.89 L 399.96 350.83 L 398.56 351.42 L 396.93 351.65 L 380.93 351.65 L 379.30 351.42 L 377.91 350.83 L 376.69 349.89 L 375.75 348.67 L 375.16 347.28 L 374.93 345.65 L 374.93 329.65 L 375.16 328.02 L 375.75 326.62 L 376.69 325.41 L 377.91 324.46 L 379.30 323.88 L 380.93 323.65 Z" fill="#3fa5ff" fill-rule="evenodd" group-id="1,10" id="矩形备份" node-id="54" stroke="none" target-height="28" target-width="28" target-x="374.9336" target-y="323.64844"></path></g><g node-id="98"><path d="M 131.43 235.29 L 131.21 237.70 L 130.61 239.91 L 129.63 241.95 L 128.32 243.80 L 126.75 245.37 L 124.90 246.68 L 122.86 247.65 L 120.66 248.25 L 118.25 248.48 L 115.84 248.25 L 113.64 247.65 L 111.60 246.68 L 109.75 245.37 L 108.18 243.80 L 106.87 241.95 L 105.89 239.91 L 105.29 237.70 L 105.07 235.29 L 105.29 232.89 L 105.89 230.68 L 106.87 228.64 L 108.18 226.79 L 109.75 225.22 L 111.60 223.91 L 113.64 222.94 L 115.84 222.33 L 118.25 222.11 L 120.66 222.33 L 122.86 222.94 L 124.90 223.91 L 126.75 225.22 L 128.32 226.79 L 129.63 228.64 L 130.61 230.68 L 131.21 232.89 L 131.43 235.29 Z" fill="#3fa5ff" fill-opacity="0.5" fill-rule="evenodd" group-id="1,11" id="椭圆形" node-id="55" stroke="none" target-height="26.367188" target-width="26.367188" target-x="105.06641" target-y="222.11078"></path></g><g node-id="99"><path d="M 175.38 235.29 L 175.15 237.70 L 174.55 239.91 L 173.58 241.95 L 172.27 243.80 L 170.70 245.37 L 168.85 246.68 L 166.81 247.65 L 164.60 248.25 L 162.20 248.48 L 159.79 248.25 L 157.58 247.65 L 155.54 246.68 L 153.69 245.37 L 152.12 243.80 L 150.81 241.95 L 149.84 239.91 L 149.24 237.70 L 149.01 235.29 L 149.24 232.89 L 149.84 230.68 L 150.81 228.64 L 152.12 226.79 L 153.69 225.22 L 155.54 223.91 L 157.58 222.94 L 159.79 222.33 L 162.20 222.11 L 164.60 222.33 L 166.81 222.94 L 168.85 223.91 L 170.70 225.22 L 172.27 226.79 L 173.58 228.64 L 174.55 230.68 L 175.15 232.89 L 175.38 235.29 Z" fill="#3fa5ff" fill-opacity="0.5" fill-rule="evenodd" group-id="1,12" id="椭圆形备份" node-id="56" stroke="none" target-height="26.367188" target-width="26.367188" target-x="149.01172" target-y="222.11078"></path></g><path d="M 219.32 235.29 L 219.10 237.70 L 218.50 239.91 L 217.52 241.95 L 216.21 243.80 L 214.64 245.37 L 212.79 246.68 L 210.75 247.65 L 208.55 248.25 L 206.14 248.48 L 203.73 248.25 L 201.53 247.65 L 199.49 246.68 L 197.64 245.37 L 196.07 243.80 L 194.76 241.95 L 193.78 239.91 L 193.18 237.70 L 192.96 235.29 L 193.18 232.89 L 193.78 230.68 L 194.76 228.64 L 196.07 226.79 L 197.64 225.22 L 199.49 223.91 L 201.53 222.94 L 203.73 222.33 L 206.14 222.11 L 208.55 222.33 L 210.75 222.94 L 212.79 223.91 L 214.64 225.22 L 216.21 226.79 L 217.52 228.64 L 218.50 230.68 L 219.10 232.89 L 219.32 235.29 Z" fill="#3fa5ff" fill-opacity="0.5" fill-rule="evenodd" group-id="1,13" id="椭圆形备份-2" node-id="57" stroke="none" target-height="26.367188" target-width="26.367188" target-x="192.95703" target-y="222.11078"></path></g></svg>