<?xml version="1.0" standalone="no"?><!DOCTYPE svg PUBLIC "-//W3C//DTD SVG 1.1//EN" "http://www.w3.org/Graphics/SVG/1.1/DTD/svg11.dtd"><svg height="1024" node-id="1" sillyvg="true" template-height="1024" template-width="1024" version="1.1" viewBox="0 0 1024 1024" width="1024" xmlns="http://www.w3.org/2000/svg" xmlns:xlink="http://www.w3.org/1999/xlink"><defs node-id="54"><filter height="1.121" id="filter-2" node-id="6" width="1.087" x="-0.043" y="-0.061"><feOffset color-interpolation-filters="linearRGB" dx="0" dy="0" in="SourceAlpha" result="shadowOffsetOuter1"></feOffset><feGaussianBlur color-interpolation-filters="linearRGB" in="shadowOffsetOuter1" result="shadowBlurOuter1" stdDeviation="13 13"></feGaussianBlur><feColorMatrix color-interpolation-filters="linearRGB" in="shadowBlurOuter1" result="result3" type="matrix" values="0 0 0 0 0 0 0 0 0 0 0 0 0 0 0 0 0 0 0.0841892483 0"></feColorMatrix></filter><filter height="1.2" id="filter-3" node-id="10" width="1.2" x="-0.1" y="-0.1"><feColorMatrix color-interpolation-filters="linearRGB" in="SourceGraphic" result="result1" type="matrix" values="0 0 0 0 0.047059 0 0 0 0 0.45098 0 0 0 0 1 0 0 0 1 0"></feColorMatrix></filter><filter height="1.2" id="filter-4" node-id="12" width="1.2" x="-0.1" y="-0.1"><feColorMatrix color-interpolation-filters="linearRGB" in="SourceGraphic" result="result1" type="matrix" values="0 0 0 0 0.047059 0 0 0 0 0.45098 0 0 0 0 1 0 0 0 1 0"></feColorMatrix></filter><filter height="1.2" id="filter-5" node-id="14" width="1.2" x="-0.1" y="-0.1"><feColorMatrix color-interpolation-filters="linearRGB" in="SourceGraphic" result="result1" type="matrix" values="0 0 0 0 0.047059 0 0 0 0 0.45098 0 0 0 0 1 0 0 0 1 0"></feColorMatrix></filter></defs><path d="M 0.00 0.00 L 1024.00 0.00 L 1024.00 1024.00 L 0.00 1024.00 Z" fill="#171a1d" fill-rule="evenodd" node-id="78" stroke="none" target-height="1024" target-width="1024" target-x="0" target-y="0"></path><g node-id="91"><g node-id="92"><g node-id="97"><path d="M 67.27 190.00 L 956.73 190.00 L 958.16 190.20 L 959.39 190.72 L 960.46 191.54 L 961.28 192.61 L 961.80 193.84 L 962.00 195.27 L 962.00 828.09 L 961.80 829.52 L 961.28 830.75 L 960.46 831.81 L 959.39 832.64 L 958.16 833.16 L 956.73 833.36 L 67.27 833.36 L 65.84 833.16 L 64.61 832.64 L 63.54 831.81 L 62.72 830.75 L 62.20 829.52 L 62.00 828.09 L 62.00 195.27 L 62.20 193.84 L 62.72 192.61 L 63.54 191.54 L 64.61 190.72 L 65.84 190.20 L 67.27 190.00 Z" fill="#000000" fill-opacity="0.05008176" fill-rule="evenodd" filter="url(#filter-2)" group-id="1,2,7" node-id="84" stroke="none" target-height="643.3594" target-width="900" target-x="62" target-y="190"></path></g><path d="M 67.27 190.00 L 956.73 190.00 L 958.16 190.20 L 959.39 190.72 L 960.46 191.54 L 961.28 192.61 L 961.80 193.84 L 962.00 195.27 L 962.00 828.09 L 961.80 829.52 L 961.28 830.75 L 960.46 831.81 L 959.39 832.64 L 958.16 833.16 L 956.73 833.36 L 67.27 833.36 L 65.84 833.16 L 64.61 832.64 L 63.54 831.81 L 62.72 830.75 L 62.20 829.52 L 62.00 828.09 L 62.00 195.27 L 62.20 193.84 L 62.72 192.61 L 63.54 191.54 L 64.61 190.72 L 65.84 190.20 L 67.27 190.00 Z" fill="#3fa5ff" fill-opacity="0.05008176" fill-rule="evenodd" group-id="1,2,8" node-id="89" stroke="none" target-height="643.3594" target-width="900" target-x="62" target-y="190"></path></g><path d="M 110.34 279.65 L 912.79 279.65 L 914.22 279.85 L 915.45 280.36 L 916.52 281.19 L 917.35 282.26 L 917.86 283.49 L 918.07 284.92 L 918.07 393.38 L 917.86 394.81 L 917.35 396.03 L 916.52 397.10 L 915.45 397.93 L 914.22 398.45 L 912.79 398.65 L 110.34 398.65 L 108.91 398.45 L 107.68 397.93 L 106.61 397.10 L 105.78 396.03 L 105.27 394.81 L 105.07 393.38 L 105.07 284.92 L 105.27 283.49 L 105.78 282.26 L 106.61 281.19 L 107.68 280.36 L 108.91 279.85 L 110.34 279.65 Z" fill="#0c73ff" fill-rule="evenodd" group-id="1" id="矩形" node-id="22" stroke="none" target-height="119" target-width="813" target-x="105.06641" target-y="279.64844"></path><path d="M 124.25 294.32 L 265.25 294.32 L 266.88 294.55 L 268.28 295.13 L 269.49 296.08 L 270.44 297.29 L 271.02 298.69 L 271.25 300.32 L 271.25 377.32 L 271.02 378.95 L 270.44 380.34 L 269.49 381.56 L 268.28 382.51 L 266.88 383.09 L 265.25 383.32 L 124.25 383.32 L 122.62 383.09 L 121.22 382.51 L 120.01 381.56 L 119.06 380.34 L 118.48 378.95 L 118.25 377.32 L 118.25 300.32 L 118.48 298.69 L 119.06 297.29 L 120.01 296.08 L 121.22 295.13 L 122.62 294.55 L 124.25 294.32 Z" fill="#3fa5ff" fill-rule="evenodd" group-id="1" id="矩形备份-11" node-id="23" stroke="none" target-height="89" target-width="153" target-x="118.25" target-y="294.3189"></path><path d="M 295.25 294.32 L 601.25 294.32 L 602.88 294.55 L 604.28 295.13 L 605.49 296.08 L 606.44 297.29 L 607.02 298.69 L 607.25 300.32 L 607.25 326.32 L 607.02 327.95 L 606.44 329.34 L 605.49 330.56 L 604.28 331.51 L 602.88 332.09 L 601.25 332.32 L 295.25 332.32 L 293.62 332.09 L 292.22 331.51 L 291.01 330.56 L 290.06 329.34 L 289.48 327.95 L 289.25 326.32 L 289.25 300.32 L 289.48 298.69 L 290.06 297.29 L 291.01 296.08 L 292.22 295.13 L 293.62 294.55 L 295.25 294.32 Z" fill="#3fa5ff" fill-rule="evenodd" group-id="1" id="矩形备份-12" node-id="24" stroke="none" target-height="38" target-width="318" target-x="289.25" target-y="294.3189"></path><path d="M 625.25 294.32 L 897.25 294.32 L 898.88 294.55 L 900.28 295.13 L 901.49 296.08 L 902.44 297.29 L 903.02 298.69 L 903.25 300.32 L 903.25 326.32 L 903.02 327.95 L 902.44 329.34 L 901.49 330.56 L 900.28 331.51 L 898.88 332.09 L 897.25 332.32 L 625.25 332.32 L 623.62 332.09 L 622.22 331.51 L 621.01 330.56 L 620.06 329.34 L 619.48 327.95 L 619.25 326.32 L 619.25 300.32 L 619.48 298.69 L 620.06 297.29 L 621.01 296.08 L 622.22 295.13 L 623.62 294.55 L 625.25 294.32 Z" fill="#3fa5ff" fill-rule="evenodd" group-id="1" id="矩形备份-14" node-id="25" stroke="none" target-height="38" target-width="284" target-x="619.25" target-y="294.3189"></path><path d="M 295.25 345.32 L 436.25 345.32 L 437.88 345.55 L 439.28 346.13 L 440.49 347.08 L 441.44 348.29 L 442.02 349.69 L 442.25 351.32 L 442.25 377.32 L 442.02 378.95 L 441.44 380.34 L 440.49 381.56 L 439.28 382.51 L 437.88 383.09 L 436.25 383.32 L 295.25 383.32 L 293.62 383.09 L 292.22 382.51 L 291.01 381.56 L 290.06 380.34 L 289.48 378.95 L 289.25 377.32 L 289.25 351.32 L 289.48 349.69 L 290.06 348.29 L 291.01 347.08 L 292.22 346.13 L 293.62 345.55 L 295.25 345.32 Z" fill="#3fa5ff" fill-rule="evenodd" group-id="1" id="矩形备份-13" node-id="26" stroke="none" target-height="38" target-width="153" target-x="289.25" target-y="345.3189"></path><path d="M 625.25 345.32 L 766.25 345.32 L 767.88 345.55 L 769.28 346.13 L 770.49 347.08 L 771.44 348.29 L 772.02 349.69 L 772.25 351.32 L 772.25 377.32 L 772.02 378.95 L 771.44 380.34 L 770.49 381.56 L 769.28 382.51 L 767.88 383.09 L 766.25 383.32 L 625.25 383.32 L 623.62 383.09 L 622.22 382.51 L 621.01 381.56 L 620.06 380.34 L 619.48 378.95 L 619.25 377.32 L 619.25 351.32 L 619.48 349.69 L 620.06 348.29 L 621.01 347.08 L 622.22 346.13 L 623.62 345.55 L 625.25 345.32 Z" fill="#3fa5ff" fill-rule="evenodd" group-id="1" id="矩形备份-19" node-id="27" stroke="none" target-height="38" target-width="153" target-x="619.25" target-y="345.3189"></path><path d="M 460.25 345.32 L 601.25 345.32 L 602.88 345.55 L 604.28 346.13 L 605.49 347.08 L 606.44 348.29 L 607.02 349.69 L 607.25 351.32 L 607.25 377.32 L 607.02 378.95 L 606.44 380.34 L 605.49 381.56 L 604.28 382.51 L 602.88 383.09 L 601.25 383.32 L 460.25 383.32 L 458.62 383.09 L 457.22 382.51 L 456.01 381.56 L 455.06 380.34 L 454.48 378.95 L 454.25 377.32 L 454.25 351.32 L 454.48 349.69 L 455.06 348.29 L 456.01 347.08 L 457.22 346.13 L 458.62 345.55 L 460.25 345.32 Z" fill="#3fa5ff" fill-rule="evenodd" group-id="1" id="矩形备份-18" node-id="28" stroke="none" target-height="38" target-width="153" target-x="454.25" target-y="345.3189"></path><path d="M 790.25 345.32 L 897.25 345.32 L 898.88 345.55 L 900.28 346.13 L 901.49 347.08 L 902.44 348.29 L 903.02 349.69 L 903.25 351.32 L 903.25 377.32 L 903.02 378.95 L 902.44 380.34 L 901.49 381.56 L 900.28 382.51 L 898.88 383.09 L 897.25 383.32 L 790.25 383.32 L 788.62 383.09 L 787.22 382.51 L 786.01 381.56 L 785.06 380.34 L 784.48 378.95 L 784.25 377.32 L 784.25 351.32 L 784.48 349.69 L 785.06 348.29 L 786.01 347.08 L 787.22 346.13 L 788.62 345.55 L 790.25 345.32 Z" fill="#3fa5ff" fill-rule="evenodd" group-id="1" id="矩形备份-20" node-id="29" stroke="none" target-height="38" target-width="119" target-x="784.25" target-y="345.3189"></path><path d="M 131.43 235.29 L 131.21 237.70 L 130.61 239.91 L 129.63 241.95 L 128.32 243.80 L 126.75 245.37 L 124.90 246.68 L 122.86 247.65 L 120.66 248.25 L 118.25 248.48 L 115.84 248.25 L 113.64 247.65 L 111.60 246.68 L 109.75 245.37 L 108.18 243.80 L 106.87 241.95 L 105.89 239.91 L 105.29 237.70 L 105.07 235.29 L 105.29 232.89 L 105.89 230.68 L 106.87 228.64 L 108.18 226.79 L 109.75 225.22 L 111.60 223.91 L 113.64 222.94 L 115.84 222.33 L 118.25 222.11 L 120.66 222.33 L 122.86 222.94 L 124.90 223.91 L 126.75 225.22 L 128.32 226.79 L 129.63 228.64 L 130.61 230.68 L 131.21 232.89 L 131.43 235.29 Z" fill="#3fa5ff" fill-opacity="0.5" fill-rule="evenodd" group-id="1,3" id="椭圆形" node-id="30" stroke="none" target-height="26.367188" target-width="26.367188" target-x="105.06641" target-y="222.11078"></path><path d="M 175.38 235.29 L 175.15 237.70 L 174.55 239.91 L 173.58 241.95 L 172.27 243.80 L 170.70 245.37 L 168.85 246.68 L 166.81 247.65 L 164.60 248.25 L 162.20 248.48 L 159.79 248.25 L 157.58 247.65 L 155.54 246.68 L 153.69 245.37 L 152.12 243.80 L 150.81 241.95 L 149.84 239.91 L 149.24 237.70 L 149.01 235.29 L 149.24 232.89 L 149.84 230.68 L 150.81 228.64 L 152.12 226.79 L 153.69 225.22 L 155.54 223.91 L 157.58 222.94 L 159.79 222.33 L 162.20 222.11 L 164.60 222.33 L 166.81 222.94 L 168.85 223.91 L 170.70 225.22 L 172.27 226.79 L 173.58 228.64 L 174.55 230.68 L 175.15 232.89 L 175.38 235.29 Z" fill="#3fa5ff" fill-opacity="0.5" fill-rule="evenodd" group-id="1,4" id="椭圆形备份" node-id="31" stroke="none" target-height="26.367188" target-width="26.367188" target-x="149.01172" target-y="222.11078"></path><path d="M 219.32 235.29 L 219.10 237.70 L 218.50 239.91 L 217.52 241.95 L 216.21 243.80 L 214.64 245.37 L 212.79 246.68 L 210.75 247.65 L 208.55 248.25 L 206.14 248.48 L 203.73 248.25 L 201.53 247.65 L 199.49 246.68 L 197.64 245.37 L 196.07 243.80 L 194.76 241.95 L 193.78 239.91 L 193.18 237.70 L 192.96 235.29 L 193.18 232.89 L 193.78 230.68 L 194.76 228.64 L 196.07 226.79 L 197.64 225.22 L 199.49 223.91 L 201.53 222.94 L 203.73 222.33 L 206.14 222.11 L 208.55 222.33 L 210.75 222.94 L 212.79 223.91 L 214.64 225.22 L 216.21 226.79 L 217.52 228.64 L 218.50 230.68 L 219.10 232.89 L 219.32 235.29 Z" fill="#3fa5ff" fill-opacity="0.5" fill-rule="evenodd" group-id="1,5" id="椭圆形备份-2" node-id="32" stroke="none" target-height="26.367188" target-width="26.367188" target-x="192.95703" target-y="222.11078"></path><path d="M 112.34 429.14 L 912.79 429.14 L 914.22 429.34 L 915.45 429.86 L 916.52 430.69 L 917.35 431.75 L 917.86 432.98 L 918.07 434.41 L 918.07 778.87 L 917.86 780.30 L 917.35 781.53 L 916.52 782.60 L 915.45 783.43 L 914.22 783.94 L 912.79 784.14 L 112.34 784.14 L 110.91 783.94 L 109.68 783.43 L 108.61 782.60 L 107.78 781.53 L 107.27 780.30 L 107.07 778.87 L 107.07 434.41 L 107.27 432.98 L 107.78 431.75 L 108.61 430.69 L 109.68 429.86 L 110.91 429.34 L 112.34 429.14 Z" fill="#3fa5ff" fill-rule="evenodd" group-id="1,6" id="矩形备份-2" node-id="34" stroke="none" target-height="355" target-width="811" target-x="107.06641" target-y="429.14063"></path><path d="M 152.00 479.32 L 293.00 479.32 L 294.63 479.55 L 296.03 480.13 L 297.24 481.08 L 298.19 482.29 L 298.77 483.69 L 299.00 485.32 L 299.00 529.32 L 298.77 530.95 L 298.19 532.34 L 297.24 533.56 L 296.03 534.51 L 294.63 535.09 L 293.00 535.32 L 152.00 535.32 L 150.37 535.09 L 148.97 534.51 L 147.76 533.56 L 146.81 532.34 L 146.23 530.95 L 146.00 529.32 L 146.00 485.32 L 146.23 483.69 L 146.81 482.29 L 147.76 481.08 L 148.97 480.13 L 150.37 479.55 L 152.00 479.32 Z" fill="#3fa5ff" fill-rule="evenodd" filter="url(#filter-3)" group-id="1,6,9,12" id="矩形备份-6" node-id="37" stroke="none" target-height="56" target-width="153" target-x="146" target-y="479.3189"></path><path d="M 345.00 479.32 L 486.00 479.32 L 487.63 479.55 L 489.03 480.13 L 490.24 481.08 L 491.19 482.29 L 491.77 483.69 L 492.00 485.32 L 492.00 529.32 L 491.77 530.95 L 491.19 532.34 L 490.24 533.56 L 489.03 534.51 L 487.63 535.09 L 486.00 535.32 L 345.00 535.32 L 343.37 535.09 L 341.97 534.51 L 340.76 533.56 L 339.81 532.34 L 339.23 530.95 L 339.00 529.32 L 339.00 485.32 L 339.23 483.69 L 339.81 482.29 L 340.76 481.08 L 341.97 480.13 L 343.37 479.55 L 345.00 479.32 Z" fill="#3fa5ff" fill-rule="evenodd" filter="url(#filter-3)" group-id="1,6,9,12" id="矩形备份-7" node-id="38" stroke="none" target-height="56" target-width="153" target-x="339" target-y="479.3189"></path><path d="M 538.00 479.32 L 679.00 479.32 L 680.63 479.55 L 682.03 480.13 L 683.24 481.08 L 684.19 482.29 L 684.77 483.69 L 685.00 485.32 L 685.00 529.32 L 684.77 530.95 L 684.19 532.34 L 683.24 533.56 L 682.03 534.51 L 680.63 535.09 L 679.00 535.32 L 538.00 535.32 L 536.37 535.09 L 534.97 534.51 L 533.76 533.56 L 532.81 532.34 L 532.23 530.95 L 532.00 529.32 L 532.00 485.32 L 532.23 483.69 L 532.81 482.29 L 533.76 481.08 L 534.97 480.13 L 536.37 479.55 L 538.00 479.32 Z" fill="#3fa5ff" fill-rule="evenodd" filter="url(#filter-3)" group-id="1,6,9,12" id="矩形备份-8" node-id="39" stroke="none" target-height="56" target-width="153" target-x="532" target-y="479.3189"></path><path d="M 731.00 479.32 L 872.00 479.32 L 873.63 479.55 L 875.03 480.13 L 876.24 481.08 L 877.19 482.29 L 877.77 483.69 L 878.00 485.32 L 878.00 529.32 L 877.77 530.95 L 877.19 532.34 L 876.24 533.56 L 875.03 534.51 L 873.63 535.09 L 872.00 535.32 L 731.00 535.32 L 729.37 535.09 L 727.97 534.51 L 726.76 533.56 L 725.81 532.34 L 725.23 530.95 L 725.00 529.32 L 725.00 485.32 L 725.23 483.69 L 725.81 482.29 L 726.76 481.08 L 727.97 480.13 L 729.37 479.55 L 731.00 479.32 Z" fill="#3fa5ff" fill-rule="evenodd" filter="url(#filter-3)" group-id="1,6,9,12" id="矩形备份-9" node-id="40" stroke="none" target-height="56" target-width="153" target-x="725" target-y="479.3189"></path><path d="M 152.00 576.32 L 293.00 576.32 L 294.63 576.55 L 296.03 577.13 L 297.24 578.08 L 298.19 579.29 L 298.77 580.69 L 299.00 582.32 L 299.00 626.32 L 298.77 627.95 L 298.19 629.34 L 297.24 630.56 L 296.03 631.51 L 294.63 632.09 L 293.00 632.32 L 152.00 632.32 L 150.37 632.09 L 148.97 631.51 L 147.76 630.56 L 146.81 629.34 L 146.23 627.95 L 146.00 626.32 L 146.00 582.32 L 146.23 580.69 L 146.81 579.29 L 147.76 578.08 L 148.97 577.13 L 150.37 576.55 L 152.00 576.32 Z" fill="#3fa5ff" fill-rule="evenodd" filter="url(#filter-4)" group-id="1,6,10,13" id="矩形备份-6" node-id="43" stroke="none" target-height="56" target-width="153" target-x="146" target-y="576.3189"></path><path d="M 345.00 576.32 L 486.00 576.32 L 487.63 576.55 L 489.03 577.13 L 490.24 578.08 L 491.19 579.29 L 491.77 580.69 L 492.00 582.32 L 492.00 626.32 L 491.77 627.95 L 491.19 629.34 L 490.24 630.56 L 489.03 631.51 L 487.63 632.09 L 486.00 632.32 L 345.00 632.32 L 343.37 632.09 L 341.97 631.51 L 340.76 630.56 L 339.81 629.34 L 339.23 627.95 L 339.00 626.32 L 339.00 582.32 L 339.23 580.69 L 339.81 579.29 L 340.76 578.08 L 341.97 577.13 L 343.37 576.55 L 345.00 576.32 Z" fill="#3fa5ff" fill-rule="evenodd" filter="url(#filter-4)" group-id="1,6,10,13" id="矩形备份-7" node-id="44" stroke="none" target-height="56" target-width="153" target-x="339" target-y="576.3189"></path><path d="M 538.00 576.32 L 679.00 576.32 L 680.63 576.55 L 682.03 577.13 L 683.24 578.08 L 684.19 579.29 L 684.77 580.69 L 685.00 582.32 L 685.00 626.32 L 684.77 627.95 L 684.19 629.34 L 683.24 630.56 L 682.03 631.51 L 680.63 632.09 L 679.00 632.32 L 538.00 632.32 L 536.37 632.09 L 534.97 631.51 L 533.76 630.56 L 532.81 629.34 L 532.23 627.95 L 532.00 626.32 L 532.00 582.32 L 532.23 580.69 L 532.81 579.29 L 533.76 578.08 L 534.97 577.13 L 536.37 576.55 L 538.00 576.32 Z" fill="#3fa5ff" fill-rule="evenodd" filter="url(#filter-4)" group-id="1,6,10,13" id="矩形备份-8" node-id="45" stroke="none" target-height="56" target-width="153" target-x="532" target-y="576.3189"></path><path d="M 731.00 576.32 L 872.00 576.32 L 873.63 576.55 L 875.03 577.13 L 876.24 578.08 L 877.19 579.29 L 877.77 580.69 L 878.00 582.32 L 878.00 626.32 L 877.77 627.95 L 877.19 629.34 L 876.24 630.56 L 875.03 631.51 L 873.63 632.09 L 872.00 632.32 L 731.00 632.32 L 729.37 632.09 L 727.97 631.51 L 726.76 630.56 L 725.81 629.34 L 725.23 627.95 L 725.00 626.32 L 725.00 582.32 L 725.23 580.69 L 725.81 579.29 L 726.76 578.08 L 727.97 577.13 L 729.37 576.55 L 731.00 576.32 Z" fill="#3fa5ff" fill-rule="evenodd" filter="url(#filter-4)" group-id="1,6,10,13" id="矩形备份-9" node-id="46" stroke="none" target-height="56" target-width="153" target-x="725" target-y="576.3189"></path><path d="M 152.00 673.32 L 293.00 673.32 L 294.63 673.55 L 296.03 674.13 L 297.24 675.08 L 298.19 676.29 L 298.77 677.69 L 299.00 679.32 L 299.00 723.32 L 298.77 724.95 L 298.19 726.34 L 297.24 727.56 L 296.03 728.51 L 294.63 729.09 L 293.00 729.32 L 152.00 729.32 L 150.37 729.09 L 148.97 728.51 L 147.76 727.56 L 146.81 726.34 L 146.23 724.95 L 146.00 723.32 L 146.00 679.32 L 146.23 677.69 L 146.81 676.29 L 147.76 675.08 L 148.97 674.13 L 150.37 673.55 L 152.00 673.32 Z" fill="#3fa5ff" fill-rule="evenodd" filter="url(#filter-5)" group-id="1,6,11,14" id="矩形备份-6" node-id="49" stroke="none" target-height="56" target-width="153" target-x="146" target-y="673.3189"></path><path d="M 345.00 673.32 L 486.00 673.32 L 487.63 673.55 L 489.03 674.13 L 490.24 675.08 L 491.19 676.29 L 491.77 677.69 L 492.00 679.32 L 492.00 723.32 L 491.77 724.95 L 491.19 726.34 L 490.24 727.56 L 489.03 728.51 L 487.63 729.09 L 486.00 729.32 L 345.00 729.32 L 343.37 729.09 L 341.97 728.51 L 340.76 727.56 L 339.81 726.34 L 339.23 724.95 L 339.00 723.32 L 339.00 679.32 L 339.23 677.69 L 339.81 676.29 L 340.76 675.08 L 341.97 674.13 L 343.37 673.55 L 345.00 673.32 Z" fill="#3fa5ff" fill-rule="evenodd" filter="url(#filter-5)" group-id="1,6,11,14" id="矩形备份-7" node-id="50" stroke="none" target-height="56" target-width="153" target-x="339" target-y="673.3189"></path><path d="M 538.00 673.32 L 679.00 673.32 L 680.63 673.55 L 682.03 674.13 L 683.24 675.08 L 684.19 676.29 L 684.77 677.69 L 685.00 679.32 L 685.00 723.32 L 684.77 724.95 L 684.19 726.34 L 683.24 727.56 L 682.03 728.51 L 680.63 729.09 L 679.00 729.32 L 538.00 729.32 L 536.37 729.09 L 534.97 728.51 L 533.76 727.56 L 532.81 726.34 L 532.23 724.95 L 532.00 723.32 L 532.00 679.32 L 532.23 677.69 L 532.81 676.29 L 533.76 675.08 L 534.97 674.13 L 536.37 673.55 L 538.00 673.32 Z" fill="#3fa5ff" fill-rule="evenodd" filter="url(#filter-5)" group-id="1,6,11,14" id="矩形备份-8" node-id="51" stroke="none" target-height="56" target-width="153" target-x="532" target-y="673.3189"></path><path d="M 731.00 673.32 L 872.00 673.32 L 873.63 673.55 L 875.03 674.13 L 876.24 675.08 L 877.19 676.29 L 877.77 677.69 L 878.00 679.32 L 878.00 723.32 L 877.77 724.95 L 877.19 726.34 L 876.24 727.56 L 875.03 728.51 L 873.63 729.09 L 872.00 729.32 L 731.00 729.32 L 729.37 729.09 L 727.97 728.51 L 726.76 727.56 L 725.81 726.34 L 725.23 724.95 L 725.00 723.32 L 725.00 679.32 L 725.23 677.69 L 725.81 676.29 L 726.76 675.08 L 727.97 674.13 L 729.37 673.55 L 731.00 673.32 Z" fill="#3fa5ff" fill-rule="evenodd" filter="url(#filter-5)" group-id="1,6,11,14" id="矩形备份-9" node-id="52" stroke="none" target-height="56" target-width="153" target-x="725" target-y="673.3189"></path></g></svg>