<?xml version="1.0" standalone="no"?><!DOCTYPE svg PUBLIC "-//W3C//DTD SVG 1.1//EN" "http://www.w3.org/Graphics/SVG/1.1/DTD/svg11.dtd"><svg height="1025" node-id="1" sillyvg="true" template-height="1025" template-width="1024" version="1.1" viewBox="0 0 1024 1025" width="1024" xmlns="http://www.w3.org/2000/svg" xmlns:xlink="http://www.w3.org/1999/xlink"><defs node-id="41"><linearGradient gradientUnits="objectBoundingBox" id="linearGradient-3" node-id="10" spreadMethod="pad" x1="0.5" x2="0.5" y1="0.049157467" y2="1"><stop offset="0" stop-color="#3fa5ff" stop-opacity="0"></stop><stop offset="0.6829725" stop-color="#3fa5ff" stop-opacity="0.53305066"></stop><stop offset="1" stop-color="#3fa5ff"></stop></linearGradient><filter height="1.121" id="filter-2" node-id="6" width="1.087" x="-0.043" y="-0.061"><feOffset color-interpolation-filters="linearRGB" dx="0" dy="0" in="SourceAlpha" result="shadowOffsetOuter1"></feOffset><feGaussianBlur color-interpolation-filters="linearRGB" in="shadowOffsetOuter1" result="shadowBlurOuter1" stdDeviation="13 13"></feGaussianBlur><feColorMatrix color-interpolation-filters="linearRGB" in="shadowBlurOuter1" result="result3" type="matrix" values="0 0 0 0 0 0 0 0 0 0 0 0 0 0 0 0 0 0 0.0841892483 0"></feColorMatrix></filter></defs><path d="M 0.00 0.00 L 1024.00 0.00 L 1024.00 1024.00 L 0.00 1024.00 Z" fill="#171a1d" fill-rule="evenodd" node-id="61" stroke="none" target-height="1024" target-width="1024" target-x="0" target-y="0"></path><g node-id="74"><g node-id="76"><g node-id="83"><path d="M 67.27 190.00 L 956.73 190.00 L 958.16 190.20 L 959.39 190.72 L 960.46 191.54 L 961.28 192.61 L 961.80 193.84 L 962.00 195.27 L 962.00 828.09 L 961.80 829.52 L 961.28 830.75 L 960.46 831.81 L 959.39 832.64 L 958.16 833.16 L 956.73 833.36 L 67.27 833.36 L 65.84 833.16 L 64.61 832.64 L 63.54 831.81 L 62.72 830.75 L 62.20 829.52 L 62.00 828.09 L 62.00 195.27 L 62.20 193.84 L 62.72 192.61 L 63.54 191.54 L 64.61 190.72 L 65.84 190.20 L 67.27 190.00 Z" fill="#000000" fill-opacity="0.05008176" fill-rule="evenodd" filter="url(#filter-2)" group-id="1,3,10" node-id="67" stroke="none" target-height="643.3594" target-width="900" target-x="62" target-y="190"></path></g><path d="M 67.27 190.00 L 956.73 190.00 L 958.16 190.20 L 959.39 190.72 L 960.46 191.54 L 961.28 192.61 L 961.80 193.84 L 962.00 195.27 L 962.00 828.09 L 961.80 829.52 L 961.28 830.75 L 960.46 831.81 L 959.39 832.64 L 958.16 833.16 L 956.73 833.36 L 67.27 833.36 L 65.84 833.16 L 64.61 832.64 L 63.54 831.81 L 62.72 830.75 L 62.20 829.52 L 62.00 828.09 L 62.00 195.27 L 62.20 193.84 L 62.72 192.61 L 63.54 191.54 L 64.61 190.72 L 65.84 190.20 L 67.27 190.00 Z" fill="#3fa5ff" fill-opacity="0.05008176" fill-rule="evenodd" group-id="1,3,11" node-id="72" stroke="none" target-height="643.3594" target-width="900" target-x="62" target-y="190"></path></g><g node-id="77"><path d="M 131.43 235.29 L 131.21 237.70 L 130.61 239.91 L 129.63 241.95 L 128.32 243.80 L 126.75 245.37 L 124.90 246.68 L 122.86 247.65 L 120.66 248.25 L 118.25 248.48 L 115.84 248.25 L 113.64 247.65 L 111.60 246.68 L 109.75 245.37 L 108.18 243.80 L 106.87 241.95 L 105.89 239.91 L 105.29 237.70 L 105.07 235.29 L 105.29 232.89 L 105.89 230.68 L 106.87 228.64 L 108.18 226.79 L 109.75 225.22 L 111.60 223.91 L 113.64 222.94 L 115.84 222.33 L 118.25 222.11 L 120.66 222.33 L 122.86 222.94 L 124.90 223.91 L 126.75 225.22 L 128.32 226.79 L 129.63 228.64 L 130.61 230.68 L 131.21 232.89 L 131.43 235.29 Z" fill="#3fa5ff" fill-opacity="0.5" fill-rule="evenodd" group-id="1,4" id="椭圆形" node-id="20" stroke="none" target-height="26.367188" target-width="26.367188" target-x="105.06641" target-y="222.11078"></path></g><g node-id="78"><path d="M 175.38 235.29 L 175.15 237.70 L 174.55 239.91 L 173.58 241.95 L 172.27 243.80 L 170.70 245.37 L 168.85 246.68 L 166.81 247.65 L 164.60 248.25 L 162.20 248.48 L 159.79 248.25 L 157.58 247.65 L 155.54 246.68 L 153.69 245.37 L 152.12 243.80 L 150.81 241.95 L 149.84 239.91 L 149.24 237.70 L 149.01 235.29 L 149.24 232.89 L 149.84 230.68 L 150.81 228.64 L 152.12 226.79 L 153.69 225.22 L 155.54 223.91 L 157.58 222.94 L 159.79 222.33 L 162.20 222.11 L 164.60 222.33 L 166.81 222.94 L 168.85 223.91 L 170.70 225.22 L 172.27 226.79 L 173.58 228.64 L 174.55 230.68 L 175.15 232.89 L 175.38 235.29 Z" fill="#3fa5ff" fill-opacity="0.5" fill-rule="evenodd" group-id="1,5" id="椭圆形备份" node-id="21" stroke="none" target-height="26.367188" target-width="26.367188" target-x="149.01172" target-y="222.11078"></path></g><path d="M 219.32 235.29 L 219.10 237.70 L 218.50 239.91 L 217.52 241.95 L 216.21 243.80 L 214.64 245.37 L 212.79 246.68 L 210.75 247.65 L 208.55 248.25 L 206.14 248.48 L 203.73 248.25 L 201.53 247.65 L 199.49 246.68 L 197.64 245.37 L 196.07 243.80 L 194.76 241.95 L 193.78 239.91 L 193.18 237.70 L 192.96 235.29 L 193.18 232.89 L 193.78 230.68 L 194.76 228.64 L 196.07 226.79 L 197.64 225.22 L 199.49 223.91 L 201.53 222.94 L 203.73 222.33 L 206.14 222.11 L 208.55 222.33 L 210.75 222.94 L 212.79 223.91 L 214.64 225.22 L 216.21 226.79 L 217.52 228.64 L 218.50 230.68 L 219.10 232.89 L 219.32 235.29 Z" fill="#3fa5ff" fill-opacity="0.5" fill-rule="evenodd" group-id="1,6" id="椭圆形备份-2" node-id="22" stroke="none" target-height="26.367188" target-width="26.367188" target-x="192.95703" target-y="222.11078"></path></g><g node-id="75"><g node-id="80"><path d="M 129.01 487.90 L 289.68 487.90 L 400.62 583.00 L 625.80 583.00 L 720.30 487.90 L 887.07 487.90 L 887.07 465.00 L 129.01 465.00 Z" fill="url(#linearGradient-3)" fill-opacity="0.4" fill-rule="evenodd" group-id="2,7" id="路径-23" node-id="24" stroke="none" target-height="118" target-width="758.0618" target-x="129.01172" target-y="465"></path></g><text align="center" editable="true" ellipsis="false" fill="#0c73ff" flags="1" font-family="'Noto Sans CJK SC'" font-size="56.816326" font-stretch="normal" font-style="normal" font-weight="400" group-id="2" height="84.08816" id="大标题" letter-spacing="0" node-id="25" stroke="none" target-x="426.7755" target-y="495.59308" vertical-align="center" width="170.44897" x="426.7755" xml:space="preserve" y="561.5">大标题</text><path d="M 305.61 541.87 L 323.44 541.87 L 367.54 583.00 L 349.70 583.00 Z" fill="#3fa5ff" fill-opacity="0.25" fill-rule="evenodd" group-id="2,8,12" id="矩形" node-id="29" stroke="none" target-height="41.129944" target-width="61.932495" target-x="305.60553" target-y="541.87006"></path><path d="M 261.48 541.87 L 279.31 541.87 L 323.41 583.00 L 305.58 583.00 Z" fill="#3fa5ff" fill-opacity="0.2" fill-rule="evenodd" group-id="2,8,13" id="矩形" node-id="30" stroke="none" target-height="41.129944" target-width="61.932495" target-x="261.48053" target-y="541.87006"></path><path d="M 217.36 541.87 L 235.19 541.87 L 279.29 583.00 L 261.45 583.00 Z" fill="#3fa5ff" fill-opacity="0.14999999" fill-rule="evenodd" group-id="2,8,14" id="矩形" node-id="31" stroke="none" target-height="41.129944" target-width="61.932495" target-x="217.35553" target-y="541.87006"></path><path d="M 173.23 541.87 L 191.06 541.87 L 235.16 583.00 L 217.33 583.00 Z" fill="#3fa5ff" fill-opacity="0.1" fill-rule="evenodd" group-id="2,8,15" id="矩形" node-id="32" stroke="none" target-height="41.129944" target-width="61.932495" target-x="173.23053" target-y="541.87006"></path><path d="M 129.11 541.87 L 146.94 541.87 L 191.04 583.00 L 173.20 583.00 Z" fill="#3fa5ff" fill-opacity="0.051848654" fill-rule="evenodd" group-id="2,8,16" id="矩形" node-id="33" stroke="none" target-height="41.129944" target-width="61.93251" target-x="129.10553" target-y="541.87006"></path><path d="M 718.39 541.87 L 700.56 541.87 L 656.46 583.00 L 674.30 583.00 Z" fill="#3fa5ff" fill-opacity="0.25" fill-rule="evenodd" group-id="2,9,17" id="矩形" node-id="35" stroke="none" target-height="41.129944" target-width="61.932495" target-x="656.462" target-y="541.87006"></path><path d="M 762.52 541.87 L 744.69 541.87 L 700.59 583.00 L 718.42 583.00 Z" fill="#3fa5ff" fill-opacity="0.2" fill-rule="evenodd" group-id="2,9,18" id="矩形" node-id="36" stroke="none" target-height="41.129944" target-width="61.932495" target-x="700.587" target-y="541.87006"></path><path d="M 806.64 541.87 L 788.81 541.87 L 744.71 583.00 L 762.55 583.00 Z" fill="#3fa5ff" fill-opacity="0.14999999" fill-rule="evenodd" group-id="2,9,19" id="矩形" node-id="37" stroke="none" target-height="41.129944" target-width="61.932495" target-x="744.712" target-y="541.87006"></path><path d="M 850.77 541.87 L 832.94 541.87 L 788.84 583.00 L 806.67 583.00 Z" fill="#3fa5ff" fill-opacity="0.1" fill-rule="evenodd" group-id="2,9,20" id="矩形" node-id="38" stroke="none" target-height="41.129944" target-width="61.932495" target-x="788.837" target-y="541.87006"></path><path d="M 894.89 541.87 L 877.06 541.87 L 832.96 583.00 L 850.80 583.00 Z" fill="#3fa5ff" fill-opacity="0.051848654" fill-rule="evenodd" group-id="2,9,21" id="矩形" node-id="39" stroke="none" target-height="41.129944" target-width="61.932495" target-x="832.962" target-y="541.87006"></path></g></svg>