<?xml version="1.0" standalone="no"?><!DOCTYPE svg PUBLIC "-//W3C//DTD SVG 1.1//EN" "http://www.w3.org/Graphics/SVG/1.1/DTD/svg11.dtd"><svg height="1024" node-id="1" sillyvg="true" template-height="1024" template-width="1024" version="1.1" viewBox="0 0 1024 1024" width="1024" xmlns="http://www.w3.org/2000/svg" xmlns:xlink="http://www.w3.org/1999/xlink"><defs node-id="37"><filter height="1.121" id="filter-2" node-id="6" width="1.087" x="-0.043" y="-0.061"><feOffset color-interpolation-filters="linearRGB" dx="0" dy="0" in="SourceAlpha" result="shadowOffsetOuter1"></feOffset><feGaussianBlur color-interpolation-filters="linearRGB" in="shadowOffsetOuter1" result="shadowBlurOuter1" stdDeviation="13 13"></feGaussianBlur><feColorMatrix color-interpolation-filters="linearRGB" in="shadowBlurOuter1" result="result3" type="matrix" values="0 0 0 0 0 0 0 0 0 0 0 0 0 0 0 0 0 0 0.0841892483 0"></feColorMatrix></filter></defs><path d="M 0.00 0.00 L 1024.00 0.00 L 1024.00 1024.00 L 0.00 1024.00 Z" fill="#171a1d" fill-rule="evenodd" node-id="49" stroke="none" target-height="1024" target-width="1024" target-x="0" target-y="0"></path><g node-id="62"><g node-id="63"><g node-id="70"><path d="M 67.27 190.00 L 956.73 190.00 L 958.16 190.20 L 959.39 190.72 L 960.46 191.54 L 961.28 192.61 L 961.80 193.84 L 962.00 195.27 L 962.00 828.09 L 961.80 829.52 L 961.28 830.75 L 960.46 831.81 L 959.39 832.64 L 958.16 833.16 L 956.73 833.36 L 67.27 833.36 L 65.84 833.16 L 64.61 832.64 L 63.54 831.81 L 62.72 830.75 L 62.20 829.52 L 62.00 828.09 L 62.00 195.27 L 62.20 193.84 L 62.72 192.61 L 63.54 191.54 L 64.61 190.72 L 65.84 190.20 L 67.27 190.00 Z" fill="#000000" fill-opacity="0.04535338" fill-rule="evenodd" filter="url(#filter-2)" group-id="1,2,9" node-id="55" stroke="none" target-height="643.3594" target-width="900" target-x="62" target-y="190"></path></g><path d="M 67.27 190.00 L 956.73 190.00 L 958.16 190.20 L 959.39 190.72 L 960.46 191.54 L 961.28 192.61 L 961.80 193.84 L 962.00 195.27 L 962.00 828.09 L 961.80 829.52 L 961.28 830.75 L 960.46 831.81 L 959.39 832.64 L 958.16 833.16 L 956.73 833.36 L 67.27 833.36 L 65.84 833.16 L 64.61 832.64 L 63.54 831.81 L 62.72 830.75 L 62.20 829.52 L 62.00 828.09 L 62.00 195.27 L 62.20 193.84 L 62.72 192.61 L 63.54 191.54 L 64.61 190.72 L 65.84 190.20 L 67.27 190.00 Z" fill="#3fa5ff" fill-opacity="0.04535338" fill-rule="evenodd" group-id="1,2,10" node-id="60" stroke="none" target-height="643.3594" target-width="900" target-x="62" target-y="190"></path></g><path d="M 110.34 279.65 L 913.66 279.65 L 915.09 279.85 L 916.32 280.36 L 917.39 281.19 L 918.22 282.26 L 918.73 283.49 L 918.93 284.92 L 918.93 393.38 L 918.73 394.81 L 918.22 396.03 L 917.39 397.10 L 916.32 397.93 L 915.09 398.45 L 913.66 398.65 L 110.34 398.65 L 108.91 398.45 L 107.68 397.93 L 106.61 397.10 L 105.78 396.03 L 105.27 394.81 L 105.07 393.38 L 105.07 284.92 L 105.27 283.49 L 105.78 282.26 L 106.61 281.19 L 107.68 280.36 L 108.91 279.85 L 110.34 279.65 Z" fill="#0c73ff" fill-rule="evenodd" group-id="1" id="矩形" node-id="16" stroke="none" target-height="119" target-width="813.8672" target-x="105.06641" target-y="279.64844"></path><path d="M 110.34 429.82 L 913.66 429.82 L 915.09 430.02 L 916.32 430.53 L 917.39 431.36 L 918.22 432.43 L 918.73 433.66 L 918.93 435.09 L 918.93 777.55 L 918.73 778.98 L 918.22 780.21 L 917.39 781.27 L 916.32 782.10 L 915.09 782.62 L 913.66 782.82 L 110.34 782.82 L 108.91 782.62 L 107.68 782.10 L 106.61 781.27 L 105.78 780.21 L 105.27 778.98 L 105.07 777.55 L 105.07 435.09 L 105.27 433.66 L 105.78 432.43 L 106.61 431.36 L 107.68 430.53 L 108.91 430.02 L 110.34 429.82 Z" fill="#0c73ff" fill-rule="evenodd" group-id="1" id="矩形备份" node-id="17" stroke="none" target-height="353" target-width="813.8672" target-x="105.06641" target-y="429.8189"></path><path d="M 152.00 479.32 L 293.00 479.32 L 294.63 479.55 L 296.03 480.13 L 297.24 481.08 L 298.19 482.29 L 298.77 483.69 L 299.00 485.32 L 299.00 529.32 L 298.77 530.95 L 298.19 532.34 L 297.24 533.56 L 296.03 534.51 L 294.63 535.09 L 293.00 535.32 L 152.00 535.32 L 150.37 535.09 L 148.97 534.51 L 147.76 533.56 L 146.81 532.34 L 146.23 530.95 L 146.00 529.32 L 146.00 485.32 L 146.23 483.69 L 146.81 482.29 L 147.76 481.08 L 148.97 480.13 L 150.37 479.55 L 152.00 479.32 Z" fill="#3fa5ff" fill-rule="evenodd" group-id="1,3" id="矩形备份-6" node-id="19" stroke="none" target-height="56" target-width="153" target-x="146" target-y="479.3189"></path><path d="M 345.00 479.32 L 486.00 479.32 L 487.63 479.55 L 489.03 480.13 L 490.24 481.08 L 491.19 482.29 L 491.77 483.69 L 492.00 485.32 L 492.00 529.32 L 491.77 530.95 L 491.19 532.34 L 490.24 533.56 L 489.03 534.51 L 487.63 535.09 L 486.00 535.32 L 345.00 535.32 L 343.37 535.09 L 341.97 534.51 L 340.76 533.56 L 339.81 532.34 L 339.23 530.95 L 339.00 529.32 L 339.00 485.32 L 339.23 483.69 L 339.81 482.29 L 340.76 481.08 L 341.97 480.13 L 343.37 479.55 L 345.00 479.32 Z" fill="#3fa5ff" fill-rule="evenodd" group-id="1,3" id="矩形备份-7" node-id="20" stroke="none" target-height="56" target-width="153" target-x="339" target-y="479.3189"></path><path d="M 538.00 479.32 L 679.00 479.32 L 680.63 479.55 L 682.03 480.13 L 683.24 481.08 L 684.19 482.29 L 684.77 483.69 L 685.00 485.32 L 685.00 529.32 L 684.77 530.95 L 684.19 532.34 L 683.24 533.56 L 682.03 534.51 L 680.63 535.09 L 679.00 535.32 L 538.00 535.32 L 536.37 535.09 L 534.97 534.51 L 533.76 533.56 L 532.81 532.34 L 532.23 530.95 L 532.00 529.32 L 532.00 485.32 L 532.23 483.69 L 532.81 482.29 L 533.76 481.08 L 534.97 480.13 L 536.37 479.55 L 538.00 479.32 Z" fill="#3fa5ff" fill-rule="evenodd" group-id="1,3" id="矩形备份-8" node-id="21" stroke="none" target-height="56" target-width="153" target-x="532" target-y="479.3189"></path><path d="M 731.00 479.32 L 872.00 479.32 L 873.63 479.55 L 875.03 480.13 L 876.24 481.08 L 877.19 482.29 L 877.77 483.69 L 878.00 485.32 L 878.00 529.32 L 877.77 530.95 L 877.19 532.34 L 876.24 533.56 L 875.03 534.51 L 873.63 535.09 L 872.00 535.32 L 731.00 535.32 L 729.37 535.09 L 727.97 534.51 L 726.76 533.56 L 725.81 532.34 L 725.23 530.95 L 725.00 529.32 L 725.00 485.32 L 725.23 483.69 L 725.81 482.29 L 726.76 481.08 L 727.97 480.13 L 729.37 479.55 L 731.00 479.32 Z" fill="#3fa5ff" fill-rule="evenodd" group-id="1,3" id="矩形备份-9" node-id="22" stroke="none" target-height="56" target-width="153" target-x="725" target-y="479.3189"></path><path d="M 152.00 578.32 L 293.00 578.32 L 294.63 578.55 L 296.03 579.13 L 297.24 580.08 L 298.19 581.29 L 298.77 582.69 L 299.00 584.32 L 299.00 628.32 L 298.77 629.95 L 298.19 631.34 L 297.24 632.56 L 296.03 633.51 L 294.63 634.09 L 293.00 634.32 L 152.00 634.32 L 150.37 634.09 L 148.97 633.51 L 147.76 632.56 L 146.81 631.34 L 146.23 629.95 L 146.00 628.32 L 146.00 584.32 L 146.23 582.69 L 146.81 581.29 L 147.76 580.08 L 148.97 579.13 L 150.37 578.55 L 152.00 578.32 Z" fill="#3fa5ff" fill-rule="evenodd" group-id="1,4" id="矩形备份-6" node-id="24" stroke="none" target-height="56" target-width="153" target-x="146" target-y="578.3189"></path><path d="M 345.00 578.32 L 486.00 578.32 L 487.63 578.55 L 489.03 579.13 L 490.24 580.08 L 491.19 581.29 L 491.77 582.69 L 492.00 584.32 L 492.00 628.32 L 491.77 629.95 L 491.19 631.34 L 490.24 632.56 L 489.03 633.51 L 487.63 634.09 L 486.00 634.32 L 345.00 634.32 L 343.37 634.09 L 341.97 633.51 L 340.76 632.56 L 339.81 631.34 L 339.23 629.95 L 339.00 628.32 L 339.00 584.32 L 339.23 582.69 L 339.81 581.29 L 340.76 580.08 L 341.97 579.13 L 343.37 578.55 L 345.00 578.32 Z" fill="#3fa5ff" fill-rule="evenodd" group-id="1,4" id="矩形备份-7" node-id="25" stroke="none" target-height="56" target-width="153" target-x="339" target-y="578.3189"></path><path d="M 538.00 578.32 L 679.00 578.32 L 680.63 578.55 L 682.03 579.13 L 683.24 580.08 L 684.19 581.29 L 684.77 582.69 L 685.00 584.32 L 685.00 628.32 L 684.77 629.95 L 684.19 631.34 L 683.24 632.56 L 682.03 633.51 L 680.63 634.09 L 679.00 634.32 L 538.00 634.32 L 536.37 634.09 L 534.97 633.51 L 533.76 632.56 L 532.81 631.34 L 532.23 629.95 L 532.00 628.32 L 532.00 584.32 L 532.23 582.69 L 532.81 581.29 L 533.76 580.08 L 534.97 579.13 L 536.37 578.55 L 538.00 578.32 Z" fill="#3fa5ff" fill-rule="evenodd" group-id="1,4" id="矩形备份-8" node-id="26" stroke="none" target-height="56" target-width="153" target-x="532" target-y="578.3189"></path><path d="M 731.00 578.32 L 872.00 578.32 L 873.63 578.55 L 875.03 579.13 L 876.24 580.08 L 877.19 581.29 L 877.77 582.69 L 878.00 584.32 L 878.00 628.32 L 877.77 629.95 L 877.19 631.34 L 876.24 632.56 L 875.03 633.51 L 873.63 634.09 L 872.00 634.32 L 731.00 634.32 L 729.37 634.09 L 727.97 633.51 L 726.76 632.56 L 725.81 631.34 L 725.23 629.95 L 725.00 628.32 L 725.00 584.32 L 725.23 582.69 L 725.81 581.29 L 726.76 580.08 L 727.97 579.13 L 729.37 578.55 L 731.00 578.32 Z" fill="#3fa5ff" fill-rule="evenodd" group-id="1,4" id="矩形备份-9" node-id="27" stroke="none" target-height="56" target-width="153" target-x="725" target-y="578.3189"></path><path d="M 152.00 677.32 L 293.00 677.32 L 294.63 677.55 L 296.03 678.13 L 297.24 679.08 L 298.19 680.29 L 298.77 681.69 L 299.00 683.32 L 299.00 727.32 L 298.77 728.95 L 298.19 730.34 L 297.24 731.56 L 296.03 732.51 L 294.63 733.09 L 293.00 733.32 L 152.00 733.32 L 150.37 733.09 L 148.97 732.51 L 147.76 731.56 L 146.81 730.34 L 146.23 728.95 L 146.00 727.32 L 146.00 683.32 L 146.23 681.69 L 146.81 680.29 L 147.76 679.08 L 148.97 678.13 L 150.37 677.55 L 152.00 677.32 Z" fill="#3fa5ff" fill-rule="evenodd" group-id="1,5" id="矩形备份-6" node-id="29" stroke="none" target-height="56" target-width="153" target-x="146" target-y="677.3189"></path><path d="M 345.00 677.32 L 486.00 677.32 L 487.63 677.55 L 489.03 678.13 L 490.24 679.08 L 491.19 680.29 L 491.77 681.69 L 492.00 683.32 L 492.00 727.32 L 491.77 728.95 L 491.19 730.34 L 490.24 731.56 L 489.03 732.51 L 487.63 733.09 L 486.00 733.32 L 345.00 733.32 L 343.37 733.09 L 341.97 732.51 L 340.76 731.56 L 339.81 730.34 L 339.23 728.95 L 339.00 727.32 L 339.00 683.32 L 339.23 681.69 L 339.81 680.29 L 340.76 679.08 L 341.97 678.13 L 343.37 677.55 L 345.00 677.32 Z" fill="#3fa5ff" fill-rule="evenodd" group-id="1,5" id="矩形备份-7" node-id="30" stroke="none" target-height="56" target-width="153" target-x="339" target-y="677.3189"></path><path d="M 538.00 677.32 L 679.00 677.32 L 680.63 677.55 L 682.03 678.13 L 683.24 679.08 L 684.19 680.29 L 684.77 681.69 L 685.00 683.32 L 685.00 727.32 L 684.77 728.95 L 684.19 730.34 L 683.24 731.56 L 682.03 732.51 L 680.63 733.09 L 679.00 733.32 L 538.00 733.32 L 536.37 733.09 L 534.97 732.51 L 533.76 731.56 L 532.81 730.34 L 532.23 728.95 L 532.00 727.32 L 532.00 683.32 L 532.23 681.69 L 532.81 680.29 L 533.76 679.08 L 534.97 678.13 L 536.37 677.55 L 538.00 677.32 Z" fill="#3fa5ff" fill-rule="evenodd" group-id="1,5" id="矩形备份-8" node-id="31" stroke="none" target-height="56" target-width="153" target-x="532" target-y="677.3189"></path><path d="M 731.00 677.32 L 872.00 677.32 L 873.63 677.55 L 875.03 678.13 L 876.24 679.08 L 877.19 680.29 L 877.77 681.69 L 878.00 683.32 L 878.00 727.32 L 877.77 728.95 L 877.19 730.34 L 876.24 731.56 L 875.03 732.51 L 873.63 733.09 L 872.00 733.32 L 731.00 733.32 L 729.37 733.09 L 727.97 732.51 L 726.76 731.56 L 725.81 730.34 L 725.23 728.95 L 725.00 727.32 L 725.00 683.32 L 725.23 681.69 L 725.81 680.29 L 726.76 679.08 L 727.97 678.13 L 729.37 677.55 L 731.00 677.32 Z" fill="#3fa5ff" fill-rule="evenodd" group-id="1,5" id="矩形备份-9" node-id="32" stroke="none" target-height="56" target-width="153" target-x="725" target-y="677.3189"></path><path d="M 131.43 235.29 L 131.21 237.70 L 130.61 239.91 L 129.63 241.95 L 128.32 243.80 L 126.75 245.37 L 124.90 246.68 L 122.86 247.65 L 120.66 248.25 L 118.25 248.48 L 115.84 248.25 L 113.64 247.65 L 111.60 246.68 L 109.75 245.37 L 108.18 243.80 L 106.87 241.95 L 105.89 239.91 L 105.29 237.70 L 105.07 235.29 L 105.29 232.89 L 105.89 230.68 L 106.87 228.64 L 108.18 226.79 L 109.75 225.22 L 111.60 223.91 L 113.64 222.94 L 115.84 222.33 L 118.25 222.11 L 120.66 222.33 L 122.86 222.94 L 124.90 223.91 L 126.75 225.22 L 128.32 226.79 L 129.63 228.64 L 130.61 230.68 L 131.21 232.89 L 131.43 235.29 Z" fill="#3fa5ff" fill-opacity="0.5" fill-rule="evenodd" group-id="1,6" id="椭圆形" node-id="33" stroke="none" target-height="26.367188" target-width="26.367188" target-x="105.06641" target-y="222.11078"></path><path d="M 175.38 235.29 L 175.15 237.70 L 174.55 239.91 L 173.58 241.95 L 172.27 243.80 L 170.70 245.37 L 168.85 246.68 L 166.81 247.65 L 164.60 248.25 L 162.20 248.48 L 159.79 248.25 L 157.58 247.65 L 155.54 246.68 L 153.69 245.37 L 152.12 243.80 L 150.81 241.95 L 149.84 239.91 L 149.24 237.70 L 149.01 235.29 L 149.24 232.89 L 149.84 230.68 L 150.81 228.64 L 152.12 226.79 L 153.69 225.22 L 155.54 223.91 L 157.58 222.94 L 159.79 222.33 L 162.20 222.11 L 164.60 222.33 L 166.81 222.94 L 168.85 223.91 L 170.70 225.22 L 172.27 226.79 L 173.58 228.64 L 174.55 230.68 L 175.15 232.89 L 175.38 235.29 Z" fill="#3fa5ff" fill-opacity="0.5" fill-rule="evenodd" group-id="1,7" id="椭圆形备份" node-id="34" stroke="none" target-height="26.367188" target-width="26.367188" target-x="149.01172" target-y="222.11078"></path><path d="M 219.32 235.29 L 219.10 237.70 L 218.50 239.91 L 217.52 241.95 L 216.21 243.80 L 214.64 245.37 L 212.79 246.68 L 210.75 247.65 L 208.55 248.25 L 206.14 248.48 L 203.73 248.25 L 201.53 247.65 L 199.49 246.68 L 197.64 245.37 L 196.07 243.80 L 194.76 241.95 L 193.78 239.91 L 193.18 237.70 L 192.96 235.29 L 193.18 232.89 L 193.78 230.68 L 194.76 228.64 L 196.07 226.79 L 197.64 225.22 L 199.49 223.91 L 201.53 222.94 L 203.73 222.33 L 206.14 222.11 L 208.55 222.33 L 210.75 222.94 L 212.79 223.91 L 214.64 225.22 L 216.21 226.79 L 217.52 228.64 L 218.50 230.68 L 219.10 232.89 L 219.32 235.29 Z" fill="#3fa5ff" fill-opacity="0.5" fill-rule="evenodd" group-id="1,8" id="椭圆形备份-2" node-id="35" stroke="none" target-height="26.367188" target-width="26.367188" target-x="192.95703" target-y="222.11078"></path></g></svg>