<?xml version="1.0" standalone="no"?><!DOCTYPE svg PUBLIC "-//W3C//DTD SVG 1.1//EN" "http://www.w3.org/Graphics/SVG/1.1/DTD/svg11.dtd"><svg height="1024" node-id="1" sillyvg="true" template-height="1024" template-width="1024" version="1.1" viewBox="0 0 1024 1024" width="1024" xmlns="http://www.w3.org/2000/svg" xmlns:xlink="http://www.w3.org/1999/xlink"><defs node-id="41"><filter height="1.121" id="filter-2" node-id="6" width="1.087" x="-0.043" y="-0.061"><feOffset color-interpolation-filters="linearRGB" dx="0" dy="0" in="SourceAlpha" result="shadowOffsetOuter1"></feOffset><feGaussianBlur color-interpolation-filters="linearRGB" in="shadowOffsetOuter1" result="shadowBlurOuter1" stdDeviation="13 13"></feGaussianBlur><feColorMatrix color-interpolation-filters="linearRGB" in="shadowBlurOuter1" result="result3" type="matrix" values="0 0 0 0 0 0 0 0 0 0 0 0 0 0 0 0 0 0 0.0841892483 0"></feColorMatrix></filter><filter height="1.684" id="filter-3" node-id="10" width="1.6" x="-0.3" y="-0.342"><feOffset color-interpolation-filters="linearRGB" dx="0" dy="3" in="SourceAlpha" result="shadowOffsetOuter1"></feOffset><feGaussianBlur color-interpolation-filters="linearRGB" in="shadowOffsetOuter1" result="shadowBlurOuter1" stdDeviation="8.5 8.5"></feGaussianBlur><feColorMatrix color-interpolation-filters="linearRGB" in="shadowBlurOuter1" result="shadowMatrixOuter1" type="matrix" values="0 0 0 0 0.149019608 0 0 0 0 0.57254902 0 0 0 0 0.968627451 0 0 0 0.303348995 0"></feColorMatrix><feMerge color-interpolation-filters="linearRGB" result="result4"><feMergeNode in="shadowMatrixOuter1"></feMergeNode><feMergeNode in="SourceGraphic"></feMergeNode></feMerge></filter></defs><path d="M 0.00 0.00 L 1024.00 0.00 L 1024.00 1024.00 L 0.00 1024.00 Z" fill="#171a1d" fill-rule="evenodd" node-id="68" stroke="none" target-height="1024" target-width="1024" target-x="0" target-y="0"></path><g node-id="98"><g node-id="99"><g node-id="104"><path d="M 67.27 190.00 L 956.73 190.00 L 958.16 190.20 L 959.39 190.72 L 960.46 191.54 L 961.28 192.61 L 961.80 193.84 L 962.00 195.27 L 962.00 828.09 L 961.80 829.52 L 961.28 830.75 L 960.46 831.81 L 959.39 832.64 L 958.16 833.16 L 956.73 833.36 L 67.27 833.36 L 65.84 833.16 L 64.61 832.64 L 63.54 831.81 L 62.72 830.75 L 62.20 829.52 L 62.00 828.09 L 62.00 195.27 L 62.20 193.84 L 62.72 192.61 L 63.54 191.54 L 64.61 190.72 L 65.84 190.20 L 67.27 190.00 Z" fill="#000000" fill-opacity="0.05008176" fill-rule="evenodd" filter="url(#filter-2)" group-id="1,2,7" node-id="74" stroke="none" target-height="643.3594" target-width="900" target-x="62" target-y="190"></path></g><path d="M 67.27 190.00 L 956.73 190.00 L 958.16 190.20 L 959.39 190.72 L 960.46 191.54 L 961.28 192.61 L 961.80 193.84 L 962.00 195.27 L 962.00 828.09 L 961.80 829.52 L 961.28 830.75 L 960.46 831.81 L 959.39 832.64 L 958.16 833.16 L 956.73 833.36 L 67.27 833.36 L 65.84 833.16 L 64.61 832.64 L 63.54 831.81 L 62.72 830.75 L 62.20 829.52 L 62.00 828.09 L 62.00 195.27 L 62.20 193.84 L 62.72 192.61 L 63.54 191.54 L 64.61 190.72 L 65.84 190.20 L 67.27 190.00 Z" fill="#3fa5ff" fill-opacity="0.05008176" fill-rule="evenodd" group-id="1,2,8" node-id="79" stroke="none" target-height="643.3594" target-width="900" target-x="62" target-y="190"></path></g><g node-id="100"><path d="M 216.50 512.88 L 216.50 512.88 L 216.71 516.79 L 217.27 520.52 L 218.19 524.10 L 219.46 527.54 L 221.66 531.92 L 224.34 535.90 L 227.53 539.52 L 231.15 542.71 L 235.13 545.39 L 239.51 547.59 L 242.95 548.86 L 246.52 549.77 L 250.26 550.34 L 254.17 550.55 L 258.08 550.34 L 261.81 549.77 L 265.39 548.86 L 268.83 547.59 L 273.21 545.39 L 277.19 542.71 L 280.81 539.52 L 284.00 535.90 L 286.68 531.92 L 288.88 527.54 L 290.15 524.10 L 291.06 520.52 L 291.63 516.79 L 291.84 512.88 L 291.84 512.88 L 291.63 508.97 L 291.06 505.23 L 290.15 501.66 L 288.88 498.22 L 286.68 493.84 L 284.00 489.86 L 280.81 486.24 L 277.19 483.05 L 273.21 480.37 L 268.83 478.17 L 265.39 476.90 L 261.81 475.98 L 258.08 475.42 L 254.17 475.21 L 250.26 475.42 L 246.52 475.98 L 242.95 476.90 L 239.51 478.17 L 235.13 480.37 L 231.15 483.05 L 227.53 486.24 L 224.34 489.86 L 221.66 493.84 L 219.46 498.22 L 218.19 501.66 L 217.27 505.23 L 216.71 508.97 L 216.50 512.88 L 216.50 512.88 Z" fill="#f6be14" fill-rule="nonzero" filter="url(#filter-3)" group-id="1,3" id="路径" node-id="24" stroke="none" target-height="75.34256" target-width="75.34256" target-x="216.49783" target-y="475.20773"></path><path d="M 259.19 512.38 L 254.67 512.69 L 250.15 513.38 L 247.13 509.92 L 243.82 506.78 L 240.21 503.96 L 236.33 501.50 L 232.23 499.44 L 227.86 497.77 L 223.36 496.56 L 218.66 495.82 L 213.74 495.55 L 208.92 495.81 L 204.33 496.51 L 199.93 497.64 L 195.71 499.20 L 191.64 501.18 L 187.84 503.49 L 184.31 506.14 L 181.02 509.14 L 178.04 512.44 L 175.40 515.98 L 173.10 519.77 L 171.14 523.84 L 169.59 528.06 L 168.47 532.43 L 167.78 536.99 L 167.53 541.76 L 167.78 546.53 L 168.47 551.09 L 169.59 555.46 L 171.14 559.68 L 173.10 563.75 L 175.40 567.54 L 178.04 571.08 L 181.02 574.38 L 184.31 577.38 L 187.84 580.03 L 191.64 582.34 L 195.71 584.32 L 199.93 585.88 L 204.33 587.01 L 208.92 587.71 L 213.74 587.97 L 258.94 587.97 L 262.86 587.76 L 266.61 587.20 L 270.20 586.28 L 273.66 585.01 L 278.06 582.81 L 282.07 580.12 L 285.72 576.92 L 288.94 573.28 L 291.65 569.28 L 293.87 564.87 L 295.15 561.41 L 296.08 557.79 L 296.65 554.01 L 296.86 550.05 L 296.70 546.18 L 296.16 542.47 L 295.27 538.91 L 294.01 535.47 L 291.83 531.11 L 289.14 527.13 L 285.94 523.49 L 282.30 520.29 L 278.30 517.58 L 273.91 515.37 L 270.45 514.09 L 266.86 513.16 L 263.11 512.59 L 259.19 512.38 L 259.19 512.38 Z" fill="#ffffff" fill-rule="nonzero" filter="url(#filter-3)" group-id="1,3" id="路径" node-id="25" stroke="none" target-height="92.42032" target-width="129.33813" target-x="167.52502" target-y="495.55032"></path></g><text align="center" editable="true" ellipsis="false" fill="#0c73ff" flags="1" font-family="'Noto Sans CJK SC'" font-size="56.81631" font-stretch="normal" font-style="normal" font-weight="400" group-id="1" height="84.088135" id="大雨-17~28C" letter-spacing="0" node-id="26" stroke="none" target-x="361.47736" target-y="493.09308" vertical-align="center" width="469.08783" x="442.24792" xml:space="preserve" y="559"><tspan fill="#0c73ff" font-family="'Noto Sans CJK SC'" font-size="56.81631" font-stretch="normal" font-style="normal" font-weight="400" letter-spacing="0" line="1" stroke="none" x="442.24792" y="559">大雨</tspan><tspan fill="#0c73ff" font-family="'Noto Sans CJK SC'" font-size="56.81631" font-stretch="normal" font-style="normal" font-weight="400" letter-spacing="0" line="1" stroke="none" x="555.88055" y="559">17</tspan><tspan fill="#0c73ff" font-family="'Noto Sans CJK SC'" font-size="56.81631" font-stretch="normal" font-style="normal" font-weight="400" letter-spacing="0" line="1" stroke="none" x="618.94666" y="559">~</tspan><tspan fill="#0c73ff" font-family="'Noto Sans CJK SC'" font-size="56.81631" font-stretch="normal" font-style="normal" font-weight="400" letter-spacing="0" line="1" stroke="none" x="650.47974" y="559">28</tspan><tspan fill="#0c73ff" font-family="'Noto Sans CJK SC'" font-size="56.81631" font-stretch="normal" font-style="normal" font-weight="400" letter-spacing="0" line="1" stroke="none" x="713.5458" y="559">C</tspan></text><path d="M 131.43 235.29 L 131.21 237.70 L 130.61 239.91 L 129.63 241.95 L 128.32 243.80 L 126.75 245.37 L 124.90 246.68 L 122.86 247.65 L 120.66 248.25 L 118.25 248.48 L 115.84 248.25 L 113.64 247.65 L 111.60 246.68 L 109.75 245.37 L 108.18 243.80 L 106.87 241.95 L 105.89 239.91 L 105.29 237.70 L 105.07 235.29 L 105.29 232.89 L 105.89 230.68 L 106.87 228.64 L 108.18 226.79 L 109.75 225.22 L 111.60 223.91 L 113.64 222.94 L 115.84 222.33 L 118.25 222.11 L 120.66 222.33 L 122.86 222.94 L 124.90 223.91 L 126.75 225.22 L 128.32 226.79 L 129.63 228.64 L 130.61 230.68 L 131.21 232.89 L 131.43 235.29 Z" fill="#3fa5ff" fill-opacity="0.5" fill-rule="evenodd" group-id="1,4" id="椭圆形" node-id="37" stroke="none" target-height="26.367188" target-width="26.367188" target-x="105.06641" target-y="222.11078"></path><path d="M 175.38 235.29 L 175.15 237.70 L 174.55 239.91 L 173.58 241.95 L 172.27 243.80 L 170.70 245.37 L 168.85 246.68 L 166.81 247.65 L 164.60 248.25 L 162.20 248.48 L 159.79 248.25 L 157.58 247.65 L 155.54 246.68 L 153.69 245.37 L 152.12 243.80 L 150.81 241.95 L 149.84 239.91 L 149.24 237.70 L 149.01 235.29 L 149.24 232.89 L 149.84 230.68 L 150.81 228.64 L 152.12 226.79 L 153.69 225.22 L 155.54 223.91 L 157.58 222.94 L 159.79 222.33 L 162.20 222.11 L 164.60 222.33 L 166.81 222.94 L 168.85 223.91 L 170.70 225.22 L 172.27 226.79 L 173.58 228.64 L 174.55 230.68 L 175.15 232.89 L 175.38 235.29 Z" fill="#3fa5ff" fill-opacity="0.5" fill-rule="evenodd" group-id="1,5" id="椭圆形备份" node-id="38" stroke="none" target-height="26.367188" target-width="26.367188" target-x="149.01172" target-y="222.11078"></path><path d="M 219.32 235.29 L 219.10 237.70 L 218.50 239.91 L 217.52 241.95 L 216.21 243.80 L 214.64 245.37 L 212.79 246.68 L 210.75 247.65 L 208.55 248.25 L 206.14 248.48 L 203.73 248.25 L 201.53 247.65 L 199.49 246.68 L 197.64 245.37 L 196.07 243.80 L 194.76 241.95 L 193.78 239.91 L 193.18 237.70 L 192.96 235.29 L 193.18 232.89 L 193.78 230.68 L 194.76 228.64 L 196.07 226.79 L 197.64 225.22 L 199.49 223.91 L 201.53 222.94 L 203.73 222.33 L 206.14 222.11 L 208.55 222.33 L 210.75 222.94 L 212.79 223.91 L 214.64 225.22 L 216.21 226.79 L 217.52 228.64 L 218.50 230.68 L 219.10 232.89 L 219.32 235.29 Z" fill="#3fa5ff" fill-opacity="0.5" fill-rule="evenodd" group-id="1,6" id="椭圆形备份-2" node-id="39" stroke="none" target-height="26.367188" target-width="26.367188" target-x="192.95703" target-y="222.11078"></path></g></svg>