<?xml version="1.0" standalone="no"?><!DOCTYPE svg PUBLIC "-//W3C//DTD SVG 1.1//EN" "http://www.w3.org/Graphics/SVG/1.1/DTD/svg11.dtd"><svg t="1698656160208" class="icon" viewBox="0 0 1024 1024" version="1.1" xmlns="http://www.w3.org/2000/svg" p-id="7216" xmlns:xlink="http://www.w3.org/1999/xlink" width="200" height="200"><path d="M988.968421 512c0-61.978947-56.589474-118.568421-150.905263-158.989474 0-2.694737 0-2.694737 2.694737-5.389473 26.947368-99.705263 16.168421-172.463158-32.336842-210.189474-64.673684-51.2-177.852632-18.863158-296.421053 70.063158-118.568421-91.621053-231.747368-121.263158-296.421053-70.063158-48.505263 40.421053-56.589474 118.568421-29.642105 215.578947-91.621053 40.421053-150.905263 94.315789-150.905263 158.989474 0 61.978947 56.589474 118.568421 150.905263 158.989474-26.947368 97.010526-18.863158 175.157895 29.642105 215.578947 21.557895 16.168421 45.810526 24.252632 75.452632 24.252632 61.978947 0 140.126316-35.031579 220.968421-94.31579 80.842105 61.978947 158.989474 94.315789 220.968421 94.31579 29.642105 0 56.589474-8.084211 75.452632-24.252632 48.505263-37.726316 59.284211-113.178947 32.336842-210.189474 0-2.694737 0-2.694737-2.694737-5.389473 94.315789-40.421053 150.905263-97.010526 150.905263-158.989474zM730.273684 150.905263c21.557895 0 40.421053 5.389474 53.894737 16.168421 35.031579 26.947368 40.421053 88.926316 18.863158 172.463158-53.894737-18.863158-118.568421-32.336842-191.326316-40.421053-24.252632-24.252632-48.505263-45.810526-70.063158-67.368421 70.063158-51.2 140.126316-80.842105 188.631579-80.842105z m-78.147368 471.578948c-18.863158 21.557895-35.031579 43.115789-53.894737 64.673684-26.947368 2.694737-56.589474 2.694737-83.536842 2.694737-29.642105 0-56.589474 0-83.536842-2.694737-18.863158-18.863158-37.726316-40.421053-53.894737-64.673684-29.642105-37.726316-53.894737-72.757895-75.452632-110.484211 21.557895-37.726316 48.505263-75.452632 75.452632-110.484211 18.863158-21.557895 37.726316-43.115789 53.894737-64.673684 26.947368-2.694737 56.589474-2.694737 83.536842-2.694737s56.589474 0 83.536842 2.694737c18.863158 18.863158 37.726316 40.421053 53.894737 64.673684 29.642105 35.031579 53.894737 72.757895 75.452631 110.484211-21.557895 37.726316-48.505263 75.452632-75.452631 110.484211z m97.010526-72.757895c18.863158 32.336842 32.336842 67.368421 43.11579 97.010526-40.421053 13.473684-88.926316 24.252632-140.126316 32.336842 10.778947-10.778947 18.863158-21.557895 26.947368-35.031579 26.947368-29.642105 48.505263-61.978947 70.063158-94.315789zM555.115789 727.578947c-13.473684 13.473684-29.642105 26.947368-43.115789 40.421053-13.473684-13.473684-29.642105-24.252632-43.115789-40.421053h86.231578z m-183.242105-48.505263c-51.2-8.084211-99.705263-18.863158-140.126316-32.336842 10.778947-32.336842 26.947368-64.673684 43.11579-97.010526 18.863158 32.336842 43.115789 64.673684 67.368421 97.010526 10.778947 10.778947 18.863158 21.557895 29.642105 32.336842z m-97.010526-204.8C256 441.936842 242.526316 406.905263 231.747368 377.263158c40.421053-13.473684 88.926316-24.252632 140.126316-32.336842-10.778947 10.778947-18.863158 21.557895-26.947368 35.031579-26.947368 29.642105-48.505263 61.978947-70.063158 94.315789z m194.021053-177.852631c13.473684-13.473684 29.642105-26.947368 43.115789-40.421053 13.473684 13.473684 29.642105 24.252632 43.115789 40.421053h-86.231578z m212.88421 80.842105c-8.084211-10.778947-18.863158-21.557895-26.947368-35.031579 51.2 8.084211 99.705263 18.863158 140.126315 32.336842-10.778947 32.336842-26.947368 64.673684-43.115789 97.010526-24.252632-29.642105-45.810526-61.978947-70.063158-94.315789zM239.831579 167.073684c13.473684-10.778947 32.336842-16.168421 53.894737-16.168421 51.2 0 118.568421 29.642105 188.631579 83.536842-24.252632 18.863158-48.505263 43.115789-70.063158 67.368421-70.063158 5.389474-134.736842 21.557895-191.326316 40.421053-24.252632-80.842105-18.863158-145.515789 18.863158-175.157895zM72.757895 512c0-45.810526 48.505263-88.926316 123.957894-121.263158 13.473684 37.726316 32.336842 80.842105 56.589474 121.263158-24.252632 43.115789-43.115789 83.536842-56.589474 121.263158-75.452632-32.336842-123.957895-75.452632-123.957894-121.263158z m167.073684 344.926316c-37.726316-29.642105-40.421053-94.315789-18.863158-172.463158 53.894737 18.863158 118.568421 32.336842 191.326316 40.421053 24.252632 24.252632 48.505263 45.810526 70.063158 67.368421-102.4 72.757895-194.021053 102.4-242.526316 64.673684z m563.2-172.463158c21.557895 80.842105 16.168421 145.515789-18.863158 172.463158-48.505263 37.726316-142.821053 8.084211-242.526316-67.368421 24.252632-18.863158 48.505263-43.115789 70.063158-67.368421 72.757895-5.389474 137.431579-18.863158 191.326316-37.726316z m24.252632-51.2c-13.473684-40.421053-32.336842-80.842105-56.589474-121.263158 24.252632-40.421053 43.115789-83.536842 56.589474-121.263158 75.452632 32.336842 123.957895 75.452632 123.957894 121.263158s-48.505263 88.926316-123.957894 121.263158z" fill="#6272a4" p-id="7217"></path><path d="M512 398.821053c-61.978947 0-113.178947 51.2-113.178947 113.178947s51.2 113.178947 113.178947 113.178947 113.178947-51.2 113.178947-113.178947-51.2-113.178947-113.178947-113.178947z m0 188.631579c-40.421053 0-75.452632-35.031579-75.452632-75.452632s35.031579-75.452632 75.452632-75.452632 75.452632 35.031579 75.452632 75.452632-35.031579 75.452632-75.452632 75.452632z" fill="currentColor" p-id="7218"></path></svg>